<svg xmlns="http://www.w3.org/2000/svg" width="47.999" height="48.001" viewBox="0 0 47.999 48.001">
  <path d="M47.935,17.737A102.122,102.122,0,0,0,43.281,8.6a37.315,37.315,0,0,1,4.5-5.563A.728.728,0,0,0,47.654,1.9C42.365-1.374,37.109.25,32.027,1.826c-4.868,1.508-9.474,2.922-14.088.27V.729a.728.728,0,1,0-1.455,0v36.12H6.545a.728.728,0,0,0-.624.354L.1,46.9A.728.728,0,0,0,.727,48H33.7a.727.727,0,0,0,.624-1.1L28.5,37.2a.73.73,0,0,0-.624-.354H17.939V19.263a12.407,12.407,0,0,0,5.617,1.293,30.623,30.623,0,0,0,8.9-1.826c4.992-1.545,9.7-3,14.432-.076a.728.728,0,0,0,1.047-.917ZM27.466,38.3l4.946,8.242H2.012L6.958,38.3h9.527v4.121a.728.728,0,1,0,1.455,0V38.3Zm4.561-20.963c-4.868,1.508-9.475,2.936-14.088.281V11.506A12.418,12.418,0,0,0,23.556,12.8a30.621,30.621,0,0,0,8.9-1.825,44.491,44.491,0,0,1,5.936-1.544.727.727,0,1,0-.229-1.436,45.205,45.205,0,0,0-6.137,1.591c-4.868,1.508-9.473,2.922-14.087.27v-6.1c4.916,2.432,9.791.923,14.518-.541,4.709-1.459,9.172-2.842,13.635-.529a42.952,42.952,0,0,0-4.272,5.48.723.723,0,0,0-.025.771c1.393,2.39,2.689,4.858,3.937,7.495C41.094,14.536,36.492,15.956,32.027,17.341Z" fill="#1a171b"/>
</svg>
