<svg width="24" height="24" viewBox="0 0 24 24" fill="none" xmlns="http://www.w3.org/2000/svg">
<path d="M17.8699 8.60001C17.7954 8.42872 17.6744 8.28173 17.5207 8.17569C17.3669 8.06964 17.1865 8.00878 16.9999 8.00001H12.4199L13.6899 3.26001C13.7304 3.11168 13.7361 2.95603 13.7066 2.80514C13.6771 2.65425 13.6132 2.5122 13.5199 2.39001C13.4257 2.26765 13.3045 2.16876 13.1657 2.1011C13.0269 2.03344 12.8743 1.99884 12.7199 2.00001H5.71992C5.49416 1.99227 5.27243 2.06121 5.09085 2.19558C4.90926 2.32995 4.77852 2.52184 4.71992 2.74001L2.03992 12.74C1.99915 12.8911 1.99439 13.0496 2.02603 13.2028C2.05767 13.356 2.12482 13.4997 2.22208 13.6223C2.31935 13.7448 2.44401 13.8428 2.58606 13.9084C2.7281 13.9741 2.88355 14.0054 3.03992 14H6.88992L5.07992 20.74C5.02062 20.9573 5.03644 21.1883 5.12483 21.3956C5.21321 21.6028 5.36898 21.7741 5.56688 21.8817C5.76479 21.9894 5.99325 22.027 6.21523 21.9886C6.43721 21.9502 6.63971 21.8379 6.78992 21.67L17.6899 9.67001C17.8197 9.52789 17.9057 9.35134 17.9377 9.16154C17.9696 8.97175 17.9461 8.77677 17.8699 8.60001ZM8.07992 17.28L9.15992 13.28C9.20504 13.1295 9.21407 12.9705 9.18627 12.8159C9.15847 12.6613 9.09463 12.5154 8.99992 12.39C8.90472 12.2663 8.78187 12.1666 8.64122 12.0989C8.50057 12.0311 8.34601 11.9973 8.18992 12H4.34992L6.48992 4.00001H11.4199L10.1499 8.74001C10.1091 8.89106 10.1044 9.04958 10.136 9.20281C10.1677 9.35604 10.2348 9.49971 10.3321 9.62226C10.4293 9.74482 10.554 9.84284 10.6961 9.90845C10.8381 9.97405 10.9936 10.0054 11.1499 10H14.7199L8.07992 17.28ZM18.9999 13H17.9999C17.2043 13 16.4412 13.3161 15.8786 13.8787C15.316 14.4413 14.9999 15.2044 14.9999 16V21C14.9999 21.2652 15.1053 21.5196 15.2928 21.7071C15.4804 21.8946 15.7347 22 15.9999 22C16.2651 22 16.5195 21.8946 16.707 21.7071C16.8946 21.5196 16.9999 21.2652 16.9999 21V19H19.9999V21C19.9999 21.2652 20.1053 21.5196 20.2928 21.7071C20.4804 21.8946 20.7347 22 20.9999 22C21.2651 22 21.5195 21.8946 21.707 21.7071C21.8946 21.5196 21.9999 21.2652 21.9999 21V16C21.9999 15.2044 21.6839 14.4413 21.1212 13.8787C20.5586 13.3161 19.7956 13 18.9999 13ZM19.9999 17H16.9999V16C16.9999 15.7348 17.1053 15.4804 17.2928 15.2929C17.4804 15.1054 17.7347 15 17.9999 15H18.9999C19.2651 15 19.5195 15.1054 19.707 15.2929C19.8946 15.4804 19.9999 15.7348 19.9999 16V17Z" fill="black"/>
</svg>
