<svg width="24" height="24" viewBox="0 0 24 24" fill="none" xmlns="http://www.w3.org/2000/svg">
<path d="M12.0002 5C10.2449 5.00004 8.52048 5.46214 7.00032 6.33984C5.48017 7.21754 4.21782 8.47993 3.34017 10.0001C2.46252 11.5203 2.00048 13.2447 2.00049 15.0001C2.0005 16.7554 2.46256 18.4798 3.34023 20C3.47284 20.2307 3.69168 20.3993 3.9486 20.4687C4.20553 20.5381 4.4795 20.5026 4.71023 20.37C4.94097 20.2374 5.10958 20.0186 5.17897 19.7616C5.24836 19.5047 5.21284 19.2307 5.08023 19C4.37168 17.7861 3.99892 16.4055 4.00023 15C4.00071 13.7732 4.28334 12.5629 4.82626 11.4628C5.36918 10.3626 6.15785 9.40208 7.13128 8.65541C8.10472 7.90875 9.23684 7.39597 10.4401 7.15672C11.6434 6.91747 12.8855 6.95816 14.0706 7.27565C15.2556 7.59313 16.3517 8.17891 17.2742 8.98768C18.1967 9.79646 18.9208 10.8066 19.3905 11.9399C19.8603 13.0732 20.0631 14.2994 19.9833 15.5236C19.9035 16.7478 19.5432 17.9373 18.9302 19C18.8641 19.1141 18.8212 19.2402 18.804 19.371C18.7869 19.5018 18.7957 19.6347 18.8301 19.762C18.8645 19.8893 18.9237 20.0086 19.0044 20.113C19.0851 20.2173 19.1856 20.3047 19.3002 20.37C19.5299 20.5004 19.8017 20.5346 20.0565 20.4653C20.3113 20.396 20.5283 20.2287 20.6602 20C21.5379 18.4798 22 16.7554 22 15.0001C22 13.2447 21.538 11.5203 20.6603 10.0001C19.7826 8.47993 18.5203 7.21754 17.0001 6.33984C15.48 5.46214 13.7556 5.00004 12.0002 5ZM14.8402 10.76L13.2902 12.3C12.889 12.1022 12.4476 11.9995 12.0002 12C11.4069 12 10.8269 12.1759 10.3335 12.5056C9.84018 12.8352 9.45566 13.3038 9.2286 13.8519C9.00153 14.4001 8.94212 15.0033 9.05788 15.5853C9.17363 16.1672 9.45936 16.7018 9.87891 17.1213C10.2985 17.5409 10.833 17.8266 11.415 17.9424C11.9969 18.0581 12.6001 17.9987 13.1483 17.7716C13.6965 17.5446 14.165 17.1601 14.4946 16.6667C14.8243 16.1734 15.0002 15.5933 15.0002 15C14.9995 14.556 14.8969 14.1181 14.7002 13.72L16.2502 12.18C16.344 12.087 16.4184 11.9764 16.4691 11.8546C16.5199 11.7327 16.546 11.602 16.546 11.47C16.546 11.338 16.5199 11.2073 16.4691 11.0854C16.4184 10.9636 16.344 10.853 16.2502 10.76C16.0629 10.5737 15.8094 10.4692 15.5452 10.4692C15.281 10.4692 15.0276 10.5737 14.8402 10.76ZM12.0002 16C11.735 16 11.4807 15.8946 11.2931 15.7071C11.1056 15.5196 11.0002 15.2652 11.0002 15C11.0002 14.7348 11.1056 14.4804 11.2931 14.2929C11.4807 14.1054 11.735 14 12.0002 14C12.2612 13.9984 12.5124 14.0989 12.7002 14.28C12.7959 14.3738 12.8718 14.4859 12.9233 14.6095C12.9749 14.7332 13.001 14.866 13.0002 15C13.0002 15.2652 12.8949 15.5196 12.7073 15.7071C12.5198 15.8946 12.2655 16 12.0002 16Z" fill="black"/>
</svg>
