<svg width="24" height="24" viewBox="0 0 24 24" fill="none" xmlns="http://www.w3.org/2000/svg">
<path d="M16.3043 11.2412C16.7114 10.6398 16.9471 9.93893 16.9859 9.21375C17.0248 8.48858 16.8654 7.76651 16.5249 7.1251C16.1843 6.48368 15.6755 5.94714 15.053 5.57309C14.4305 5.19904 13.7179 5.00162 12.9917 5.00201V4.00201C12.9917 3.7368 12.8863 3.48244 12.6988 3.29491C12.5113 3.10737 12.2569 3.00201 11.9917 3.00201C11.7265 3.00201 11.4721 3.10737 11.2846 3.29491C11.0971 3.48244 10.9917 3.7368 10.9917 4.00201V5.00201H8.9917V4.00201C8.9917 3.7368 8.88634 3.48244 8.69881 3.29491C8.51127 3.10737 8.25692 3.00201 7.9917 3.00201C7.72648 3.00201 7.47213 3.10737 7.28459 3.29491C7.09706 3.48244 6.9917 3.7368 6.9917 4.00201V5.00201H5.9917C5.72648 5.00201 5.47213 5.10737 5.28459 5.29491C5.09706 5.48244 4.9917 5.7368 4.9917 6.00201C4.9917 6.26723 5.09706 6.52158 5.28459 6.70912C5.47213 6.89666 5.72648 7.00201 5.9917 7.00201H6.9917V17.002H5.9917C5.72648 17.002 5.47213 17.1074 5.28459 17.2949C5.09706 17.4824 4.9917 17.7368 4.9917 18.002C4.9917 18.2672 5.09706 18.5216 5.28459 18.7091C5.47213 18.8967 5.72648 19.002 5.9917 19.002H6.9917V20.002C6.9917 20.2672 7.09706 20.5216 7.28459 20.7091C7.47213 20.8967 7.72648 21.002 7.9917 21.002C8.25692 21.002 8.51127 20.8967 8.69881 20.7091C8.88634 20.5216 8.9917 20.2672 8.9917 20.002V19.002H10.9917V20.002C10.9917 20.2672 11.0971 20.5216 11.2846 20.7091C11.4721 20.8967 11.7265 21.002 11.9917 21.002C12.2569 21.002 12.5113 20.8967 12.6988 20.7091C12.8863 20.5216 12.9917 20.2672 12.9917 20.002V19.002H14.9917C15.9362 19.0045 16.851 18.6717 17.5733 18.063C18.2955 17.4542 18.7783 16.609 18.9358 15.6777C19.0933 14.7464 18.9153 13.7894 18.4334 12.977C17.9516 12.1646 17.1971 11.5495 16.3043 11.2412V11.2412ZM8.9917 7.00201H12.9917C13.5221 7.00201 14.0308 7.21273 14.4059 7.5878C14.781 7.96287 14.9917 8.47158 14.9917 9.00201C14.9917 9.53245 14.781 10.0412 14.4059 10.4162C14.0308 10.7913 13.5221 11.002 12.9917 11.002H8.9917V7.00201ZM14.9917 17.002H8.9917V13.002H14.9917C15.5221 13.002 16.0308 13.2127 16.4059 13.5878C16.781 13.9629 16.9917 14.4716 16.9917 15.002C16.9917 15.5324 16.781 16.0412 16.4059 16.4162C16.0308 16.7913 15.5221 17.002 14.9917 17.002Z" fill="black"/>
</svg>
