<svg width="24" height="24" viewBox="0 0 24 24" fill="none" xmlns="http://www.w3.org/2000/svg">
<path d="M18.4201 8.22002C17.8091 6.81602 16.7546 5.65109 15.4182 4.90374C14.0818 4.15639 12.5372 3.86785 11.0211 4.08233C9.50501 4.2968 8.10106 5.00247 7.02439 6.09119C5.94772 7.17991 5.25772 8.59163 5.06013 10.11C4.10672 10.3383 3.27036 10.9089 2.70987 11.7132C2.14939 12.5176 1.90382 13.4997 2.0198 14.4732C2.13578 15.4467 2.60523 16.3437 3.339 16.9939C4.07277 17.644 5.01976 18.0021 6.00013 18H8.00013C8.26535 18 8.5197 17.8947 8.70724 17.7071C8.89478 17.5196 9.00013 17.2652 9.00013 17C9.00013 16.7348 8.89478 16.4804 8.70724 16.2929C8.5197 16.1054 8.26535 16 8.00013 16H6.00013C5.4697 16 4.96099 15.7893 4.58592 15.4142C4.21085 15.0392 4.00013 14.5304 4.00013 14C4.00013 13.4696 4.21085 12.9609 4.58592 12.5858C4.96099 12.2107 5.4697 12 6.00013 12C6.26535 12 6.5197 11.8947 6.70724 11.7071C6.89478 11.5196 7.00013 11.2652 7.00013 11C7.00269 9.8173 7.42442 8.67377 8.1904 7.7726C8.95639 6.87143 10.017 6.27097 11.1839 6.07789C12.3507 5.88481 13.5483 6.11162 14.5637 6.71803C15.5791 7.32443 16.3467 8.27116 16.7301 9.39002C16.7873 9.56186 16.89 9.71495 17.0274 9.83295C17.1648 9.95095 17.3316 10.0294 17.5101 10.06C18.2043 10.1798 18.8342 10.5399 19.2895 11.0775C19.7447 11.615 19.9963 12.2956 20.0001 13C20.0001 13.7957 19.6841 14.5587 19.1215 15.1213C18.5588 15.6839 17.7958 16 17.0001 16C16.7349 16 16.4806 16.1054 16.293 16.2929C16.1055 16.4804 16.0001 16.7348 16.0001 17C16.0001 17.2652 16.1055 17.5196 16.293 17.7071C16.4806 17.8947 16.7349 18 17.0001 18C18.1938 17.989 19.344 17.5513 20.2431 16.7661C21.1421 15.9809 21.7306 14.8999 21.9021 13.7187C22.0736 12.5374 21.8169 11.3337 21.1783 10.3252C20.5397 9.31677 19.5613 8.57003 18.4201 8.22002ZM12.9201 18.62C12.9002 18.5586 12.8697 18.5011 12.8301 18.45L12.7101 18.29C12.6129 18.2017 12.5013 18.1307 12.3801 18.08C12.198 18.0034 11.9973 17.9825 11.8033 18.0199C11.6093 18.0573 11.4308 18.1513 11.2901 18.29L11.1701 18.45C11.1306 18.5011 11.1001 18.5586 11.0801 18.62C11.0513 18.6767 11.0311 18.7374 11.0201 18.8C11.0157 18.8666 11.0157 18.9334 11.0201 19C11.0152 19.0633 11.0152 19.1268 11.0201 19.19C11.0294 19.2563 11.0497 19.3205 11.0801 19.38C11.1001 19.4415 11.1306 19.499 11.1701 19.55L11.2901 19.71C11.4818 19.8927 11.7354 19.9963 12.0001 20C12.1308 19.9984 12.2599 19.9713 12.3801 19.92C12.5013 19.8694 12.6129 19.7983 12.7101 19.71L12.8301 19.55C12.8697 19.499 12.9002 19.4415 12.9201 19.38C12.9506 19.3205 12.9709 19.2563 12.9801 19.19C12.9917 19.1273 12.9984 19.0638 13.0001 19C13.0046 18.9334 13.0046 18.8666 13.0001 18.8C12.9829 18.7362 12.9559 18.6755 12.9201 18.62ZM12.0001 11C11.4732 10.9997 10.9555 11.1381 10.499 11.4015C10.0426 11.6648 9.6636 12.0437 9.40013 12.5C9.33401 12.6142 9.29113 12.7402 9.27395 12.871C9.25676 13.0018 9.26562 13.1347 9.30001 13.262C9.3344 13.3894 9.39365 13.5086 9.47433 13.613C9.55502 13.7173 9.65555 13.8047 9.77013 13.87C9.99975 14.0004 10.2716 14.0347 10.5264 13.9653C10.7812 13.896 10.9982 13.7287 11.1301 13.5C11.2182 13.3474 11.3451 13.2208 11.4979 13.133C11.6507 13.0452 11.8239 12.9993 12.0001 13C12.2654 13 12.5197 13.1054 12.7072 13.2929C12.8948 13.4804 13.0001 13.7348 13.0001 14C13.0001 14.2652 12.8948 14.5196 12.7072 14.7071C12.5197 14.8947 12.2654 15 12.0001 15C11.7349 15 11.4806 15.1054 11.293 15.2929C11.1055 15.4804 11.0001 15.7348 11.0001 16C11.0001 16.2652 11.1055 16.5196 11.293 16.7071C11.4806 16.8947 11.7349 17 12.0001 17C12.7958 17 13.5588 16.6839 14.1215 16.1213C14.6841 15.5587 15.0001 14.7957 15.0001 14C15.0001 13.2044 14.6841 12.4413 14.1215 11.8787C13.5588 11.3161 12.7958 11 12.0001 11Z" fill="black"/>
</svg>
