<svg width="24" height="24" viewBox="0 0 24 24" fill="none" xmlns="http://www.w3.org/2000/svg">
<path d="M18.4998 5.50006H14.4998C14.2346 5.50006 13.9802 5.60542 13.7927 5.79295C13.6052 5.98049 13.4998 6.23484 13.4998 6.50006C13.4998 6.76528 13.6052 7.01963 13.7927 7.20717C13.9802 7.3947 14.2346 7.50006 14.4998 7.50006H18.4998C18.765 7.50006 19.0194 7.60542 19.2069 7.79295C19.3945 7.98049 19.4998 8.23484 19.4998 8.50006V18.2201L17.9298 16.7701C17.7454 16.5974 17.5025 16.5009 17.2498 16.5001H8.49982C8.2346 16.5001 7.98025 16.3947 7.79271 16.2072C7.60517 16.0196 7.49982 15.7653 7.49982 15.5001V14.5001C7.49982 14.2348 7.39446 13.9805 7.20692 13.793C7.01939 13.6054 6.76503 13.5001 6.49982 13.5001C6.2346 13.5001 5.98025 13.6054 5.79271 13.793C5.60517 13.9805 5.49982 14.2348 5.49982 14.5001V15.5001C5.49982 16.2957 5.81589 17.0588 6.3785 17.6214C6.9411 18.184 7.70417 18.5001 8.49982 18.5001H16.8598L19.8598 21.2301C20.0442 21.4027 20.2872 21.4992 20.5398 21.5001C20.677 21.4986 20.8126 21.4714 20.9398 21.4201C21.1187 21.342 21.2708 21.2133 21.3774 21.0498C21.484 20.8863 21.5405 20.6952 21.5398 20.5001V8.50006C21.5399 8.10271 21.4609 7.7093 21.3077 7.3427C21.1544 6.97609 20.9299 6.64358 20.647 6.36447C20.3642 6.08537 20.0288 5.86523 19.6602 5.71684C19.2915 5.56845 18.8971 5.49476 18.4998 5.50006ZM9.07982 12.5001H11.4998C11.765 12.5001 12.0194 12.3947 12.2069 12.2072C12.3945 12.0196 12.4998 11.7653 12.4998 11.5001V9.08006C12.5006 8.94845 12.4754 8.81799 12.4256 8.69615C12.3758 8.57432 12.3025 8.4635 12.2098 8.37006L6.62982 2.79006C6.44245 2.60381 6.189 2.49927 5.92482 2.49927C5.66063 2.49927 5.40718 2.60381 5.21982 2.79006L2.78982 5.22006C2.60357 5.40742 2.49902 5.66087 2.49902 5.92506C2.49902 6.18925 2.60357 6.4427 2.78982 6.63006L8.36982 12.2101C8.46326 12.3027 8.57407 12.3761 8.69591 12.4258C8.81775 12.4756 8.94821 12.5008 9.07982 12.5001ZM5.91982 4.91006L10.4998 9.49006V10.4901H9.49982L4.90982 5.92006L5.91982 4.91006Z" fill="black"/>
</svg>
