<svg width="24" height="24" viewBox="0 0 24 24" fill="none" xmlns="http://www.w3.org/2000/svg">
<path d="M19.9998 16.18V7.82004C20.4795 7.65293 20.9088 7.36676 21.2477 6.98836C21.5865 6.60996 21.8238 6.15172 21.9371 5.6566C22.0505 5.16147 22.0363 4.64566 21.8958 4.15753C21.7554 3.66939 21.4933 3.22491 21.1341 2.86574C20.7749 2.50657 20.3305 2.24448 19.8423 2.10403C19.3542 1.96358 18.8384 1.94937 18.3432 2.06273C17.8481 2.17609 17.3899 2.41331 17.0115 2.75216C16.6331 3.09101 16.3469 3.52038 16.1798 4.00004H7.8198C7.65269 3.52038 7.36652 3.09101 6.98812 2.75216C6.60972 2.41331 6.15148 2.17609 5.65635 2.06273C5.16122 1.94937 4.64542 1.96358 4.15728 2.10403C3.66915 2.24448 3.22466 2.50657 2.8655 2.86574C2.50633 3.22491 2.24424 3.66939 2.10378 4.15753C1.96333 4.64566 1.94912 5.16147 2.06248 5.6566C2.17585 6.15172 2.41307 6.60996 2.75191 6.98836C3.09076 7.36676 3.52014 7.65293 3.9998 7.82004V16.18C3.52014 16.3472 3.09076 16.6333 2.75191 17.0117C2.41307 17.3901 2.17585 17.8484 2.06248 18.3435C1.94912 18.8386 1.96333 19.3544 2.10378 19.8426C2.24424 20.3307 2.50633 20.7752 2.8655 21.1343C3.22466 21.4935 3.66915 21.7556 4.15728 21.8961C4.64542 22.0365 5.16122 22.0507 5.65635 21.9374C6.15148 21.824 6.60972 21.5868 6.98812 21.2479C7.36652 20.9091 7.65269 20.4797 7.8198 20H16.1798C16.3469 20.4797 16.6331 20.9091 17.0115 21.2479C17.3899 21.5868 17.8481 21.824 18.3432 21.9374C18.8384 22.0507 19.3542 22.0365 19.8423 21.8961C20.3305 21.7556 20.7749 21.4935 21.1341 21.1343C21.4933 20.7752 21.7554 20.3307 21.8958 19.8426C22.0363 19.3544 22.0505 18.8386 21.9371 18.3435C21.8238 17.8484 21.5865 17.3901 21.2477 17.0117C20.9088 16.6333 20.4795 16.3472 19.9998 16.18ZM18.9998 4.00004C19.1976 4.00004 19.3909 4.05869 19.5554 4.16858C19.7198 4.27846 19.848 4.43464 19.9237 4.61736C19.9994 4.80009 20.0192 5.00115 19.9806 5.19514C19.942 5.38912 19.8468 5.5673 19.7069 5.70715C19.5671 5.847 19.3889 5.94225 19.1949 5.98083C19.0009 6.01942 18.7998 5.99961 18.6171 5.92392C18.4344 5.84824 18.2782 5.72006 18.1683 5.55561C18.0584 5.39117 17.9998 5.19783 17.9998 5.00004C17.9998 4.73483 18.1052 4.48047 18.2927 4.29294C18.4802 4.1054 18.7346 4.00004 18.9998 4.00004ZM4.9998 4.00004C5.19758 4.00004 5.39092 4.05869 5.55537 4.16858C5.71982 4.27846 5.84799 4.43464 5.92368 4.61736C5.99937 4.80009 6.01917 5.00115 5.98059 5.19514C5.942 5.38912 5.84676 5.5673 5.70691 5.70715C5.56705 5.847 5.38887 5.94225 5.19489 5.98083C5.00091 6.01942 4.79984 5.99961 4.61712 5.92392C4.43439 5.84824 4.27821 5.72006 4.16833 5.55561C4.05845 5.39117 3.9998 5.19783 3.9998 5.00004C3.9998 4.73483 4.10516 4.48047 4.29269 4.29294C4.48023 4.1054 4.73458 4.00004 4.9998 4.00004ZM4.9998 20C4.80202 20 4.60868 19.9414 4.44423 19.8315C4.27978 19.7216 4.15161 19.5655 4.07592 19.3827C4.00023 19.2 3.98043 18.9989 4.01902 18.805C4.0576 18.611 4.15284 18.4328 4.29269 18.2929C4.43255 18.1531 4.61073 18.0578 4.80471 18.0193C4.99869 17.9807 5.19976 18.0005 5.38248 18.0762C5.56521 18.1519 5.72139 18.28 5.83127 18.4445C5.94115 18.6089 5.9998 18.8023 5.9998 19C5.9998 19.2653 5.89444 19.5196 5.70691 19.7072C5.51937 19.8947 5.26502 20 4.9998 20ZM16.1798 18H7.8198C7.67048 17.5806 7.42969 17.1997 7.1149 16.8849C6.80011 16.5702 6.4192 16.3294 5.9998 16.18V7.82004C6.4192 7.67073 6.80011 7.42994 7.1149 7.11514C7.42969 6.80035 7.67048 6.41944 7.8198 6.00004H16.1798C16.3291 6.41944 16.5699 6.80035 16.8847 7.11514C17.1995 7.42994 17.5804 7.67073 17.9998 7.82004V16.18C17.5804 16.3294 17.1995 16.5702 16.8847 16.8849C16.5699 17.1997 16.3291 17.5806 16.1798 18ZM18.9998 20C18.802 20 18.6087 19.9414 18.4442 19.8315C18.2798 19.7216 18.1516 19.5655 18.0759 19.3827C18.0002 19.2 17.9804 18.9989 18.019 18.805C18.0576 18.611 18.1528 18.4328 18.2927 18.2929C18.4325 18.1531 18.6107 18.0578 18.8047 18.0193C18.9987 17.9807 19.1998 18.0005 19.3825 18.0762C19.5652 18.1519 19.7214 18.28 19.8313 18.4445C19.9412 18.6089 19.9998 18.8023 19.9998 19C19.9998 19.2653 19.8944 19.5196 19.7069 19.7072C19.5194 19.8947 19.265 20 18.9998 20Z" fill="black"/>
</svg>
