<svg width="24" height="24" viewBox="0 0 24 24" fill="none" xmlns="http://www.w3.org/2000/svg">
<path d="M10.21 6.21002L11 5.41002V10C11 10.2652 11.1054 10.5196 11.2929 10.7071C11.4805 10.8947 11.7348 11 12 11C12.2653 11 12.5196 10.8947 12.7071 10.7071C12.8947 10.5196 13 10.2652 13 10V5.41002L13.79 6.21002C13.883 6.30375 13.9936 6.37814 14.1155 6.42891C14.2373 6.47968 14.368 6.50582 14.5 6.50582C14.6321 6.50582 14.7628 6.47968 14.8846 6.42891C15.0065 6.37814 15.1171 6.30375 15.21 6.21002C15.3038 6.11706 15.3782 6.00645 15.4289 5.8846C15.4797 5.76274 15.5058 5.63203 15.5058 5.50002C15.5058 5.36801 15.4797 5.2373 15.4289 5.11544C15.3782 4.99358 15.3038 4.88298 15.21 4.79002L12.71 2.29002C12.6149 2.19898 12.5028 2.12761 12.38 2.08002C12.1366 1.98 11.8635 1.98 11.62 2.08002C11.4973 2.12761 11.3851 2.19898 11.29 2.29002L8.79004 4.79002C8.60174 4.97832 8.49595 5.23372 8.49595 5.50002C8.49595 5.76632 8.60174 6.02172 8.79004 6.21002C8.97835 6.39832 9.23374 6.50411 9.50004 6.50411C9.76634 6.50411 10.0217 6.39832 10.21 6.21002ZM18 7.56002C17.9055 7.46547 17.7932 7.39046 17.6697 7.33929C17.5462 7.28812 17.4138 7.26179 17.28 7.26179C17.1463 7.26179 17.0139 7.28812 16.8904 7.33929C16.7668 7.39046 16.6546 7.46547 16.56 7.56002C16.4655 7.65457 16.3905 7.76682 16.3393 7.89036C16.2881 8.0139 16.2618 8.1463 16.2618 8.28002C16.2618 8.41373 16.2881 8.54614 16.3393 8.66968C16.3905 8.79322 16.4655 8.90547 16.56 9.00002C17.4623 9.90197 18.0769 11.0512 18.3259 12.3025C18.575 13.5537 18.4474 14.8507 17.9593 16.0295C17.4712 17.2082 16.6445 18.2157 15.5837 18.9245C14.523 19.6334 13.2758 20.0117 12 20.0117C10.7243 20.0117 9.47712 19.6334 8.41637 18.9245C7.35562 18.2157 6.52891 17.2082 6.04079 16.0295C5.55268 14.8507 5.42508 13.5537 5.67415 12.3025C5.92322 11.0512 6.53776 9.90197 7.44004 9.00002C7.53459 8.90547 7.6096 8.79322 7.66077 8.66968C7.71194 8.54614 7.73828 8.41373 7.73828 8.28002C7.73828 8.1463 7.71194 8.0139 7.66077 7.89036C7.6096 7.76682 7.53459 7.65457 7.44004 7.56002C7.34549 7.46547 7.23324 7.39046 7.1097 7.33929C6.98617 7.28812 6.85376 7.26179 6.72004 7.26179C6.58633 7.26179 6.45392 7.28812 6.33038 7.33929C6.20684 7.39046 6.09459 7.46547 6.00004 7.56002C4.82196 8.74518 4.02125 10.2527 3.69892 11.8924C3.37659 13.5321 3.54707 15.2305 4.18888 16.7734C4.83068 18.3163 5.91504 19.6346 7.30518 20.562C8.69532 21.4893 10.329 21.9842 12 21.9842C13.6711 21.9842 15.3048 21.4893 16.6949 20.562C18.085 19.6346 19.1694 18.3163 19.8112 16.7734C20.453 15.2305 20.6235 13.5321 20.3012 11.8924C19.9788 10.2527 19.1781 8.74518 18 7.56002Z" fill="black"/>
</svg>
