<svg width="24" height="24" viewBox="0 0 24 24" fill="none" xmlns="http://www.w3.org/2000/svg">
<path d="M21.8398 5.55999C21.707 4.7084 21.3079 3.92075 20.6998 3.30999C20.089 2.70188 19.3013 2.3028 18.4498 2.16999C16.2409 1.86555 13.9915 2.07643 11.8778 2.7861C9.76396 3.49578 7.84308 4.685 6.26544 6.2607C4.68781 7.8364 3.49622 9.75582 2.78395 11.8687C2.07168 13.9817 1.85804 16.2308 2.15976 18.44C2.29257 19.2916 2.69165 20.0792 3.29976 20.69C3.91053 21.2981 4.69818 21.6972 5.54976 21.83C6.23748 21.9418 6.93301 21.9986 7.62976 22C11.4305 21.9729 15.0658 20.4412 17.7398 17.74C19.3307 16.1737 20.5308 14.2551 21.2431 12.1392C21.9553 10.0233 22.1597 7.7695 21.8398 5.55999ZM4.20976 18.37C4.1805 18.2918 4.1571 18.2116 4.13976 18.13C3.86526 16.2317 4.04181 14.2955 4.6551 12.4783C5.26839 10.661 6.30117 9.01372 7.66976 7.66999C9.97165 5.34625 13.099 4.027 16.3698 3.99999C16.9593 3.99687 17.5481 4.04371 18.1298 4.13999C18.2114 4.15733 18.2916 4.18073 18.3698 4.20999L13.4398 9.14999L12.7098 8.41999C12.6168 8.32626 12.5062 8.25186 12.3843 8.2011C12.2625 8.15033 12.1318 8.12419 11.9998 8.12419C11.8678 8.12419 11.737 8.15033 11.6152 8.2011C11.4933 8.25186 11.3827 8.32626 11.2898 8.41999C11.1035 8.60735 10.999 8.8608 10.999 9.12499C10.999 9.38917 11.1035 9.64262 11.2898 9.82999L12.0198 10.56L10.5598 12L9.82976 11.27C9.6424 11.0837 9.38895 10.9792 9.12476 10.9792C8.86058 10.9792 8.60712 11.0837 8.41976 11.27C8.32603 11.363 8.25164 11.4736 8.20087 11.5954C8.1501 11.7173 8.12396 11.848 8.12396 11.98C8.12396 12.112 8.1501 12.2427 8.20087 12.3646C8.25164 12.4864 8.32603 12.597 8.41976 12.69L9.14976 13.42L4.20976 18.37ZM16.3298 16.37C14.9808 17.7295 13.3317 18.7535 11.515 19.3596C9.69833 19.9657 7.76475 20.1371 5.86976 19.86C5.78813 19.8426 5.70791 19.8193 5.62976 19.79L10.5598 14.85L11.2898 15.58C11.3823 15.6732 11.4924 15.7473 11.6136 15.798C11.7348 15.8487 11.8648 15.8751 11.9962 15.8755C12.1276 15.876 12.2578 15.8506 12.3794 15.8007C12.501 15.7509 12.6115 15.6776 12.7048 15.585C12.798 15.4924 12.8721 15.3824 12.9228 15.2611C12.9735 15.1399 12.9999 15.0099 13.0003 14.8785C13.0008 14.7471 12.9754 14.6169 12.9255 14.4954C12.8757 14.3738 12.8023 14.2632 12.7098 14.17L11.9998 13.44L13.4398 12L14.1698 12.73C14.2632 12.8227 14.374 12.896 14.4959 12.9458C14.6177 12.9955 14.7482 13.0207 14.8798 13.02C15.0775 13.0192 15.2706 12.9597 15.4346 12.8491C15.5986 12.7386 15.7261 12.5819 15.801 12.3988C15.876 12.2158 15.8949 12.0147 15.8555 11.8209C15.8162 11.627 15.7202 11.4493 15.5798 11.31L14.8498 10.58L19.7898 5.64999C19.819 5.72814 19.8424 5.80836 19.8598 5.88999C20.131 7.78507 19.9528 9.71737 19.3396 11.5309C18.7264 13.3444 17.6954 14.9884 16.3298 16.33V16.37Z" fill="black"/>
</svg>
