<svg width="24" height="24" viewBox="0 0 24 24" fill="none" xmlns="http://www.w3.org/2000/svg">
<path d="M21.12 16.23C20.7755 14.9675 19.9498 13.8905 18.82 13.23L16.71 12L16.23 6.52997C16.2169 6.3702 16.1655 6.21593 16.0802 6.08019C15.9949 5.94444 15.8783 5.83118 15.74 5.74997L12.74 4.02997C12.588 3.9422 12.4156 3.89599 12.24 3.89599C12.0645 3.89599 11.8921 3.9422 11.74 4.02997C11.5881 4.11297 11.4602 4.23402 11.3691 4.38127C11.2779 4.52851 11.2266 4.69691 11.22 4.86997L11.07 8.76997L9.32005 7.76997L6.46005 3.91997C6.34375 3.76566 6.18524 3.64835 6.00368 3.58223C5.82212 3.51611 5.6253 3.504 5.437 3.54737C5.24871 3.59074 5.07702 3.68773 4.94268 3.82662C4.80834 3.9655 4.71712 4.14033 4.68005 4.32997L3.81005 8.93997C3.65854 9.56491 3.71184 10.222 3.96211 10.8144C4.21237 11.4067 4.64635 11.903 5.20005 12.23L19.26 20.34C19.486 20.4729 19.7552 20.5118 20.0096 20.4482C20.264 20.3846 20.4832 20.2236 20.62 20C20.9499 19.4364 21.164 18.8127 21.2499 18.1653C21.3357 17.518 21.2916 16.86 21.12 16.23ZM19.24 18L6.20005 10.5C6.01305 10.3858 5.86872 10.2134 5.78922 10.0093C5.70973 9.80512 5.69948 9.58051 5.76005 9.36997L6.22005 6.92997L7.88005 9.12997C7.96066 9.23942 8.06273 9.33129 8.18005 9.39997L11.53 11.34C11.6794 11.4264 11.8486 11.4726 12.0212 11.4743C12.1938 11.4759 12.3638 11.4328 12.5148 11.3493C12.6658 11.2657 12.7926 11.1445 12.8829 10.9974C12.9732 10.8504 13.0239 10.6824 13.03 10.51L13.19 6.60997L14.28 7.23997L14.76 12.71C14.7743 12.8707 14.8272 13.0255 14.9143 13.1614C15.0013 13.2972 15.12 13.4099 15.26 13.49L17.82 15C18.1531 15.1921 18.4448 15.4483 18.6782 15.7539C18.9116 16.0594 19.0822 16.4081 19.18 16.78C19.2916 17.1769 19.3121 17.594 19.24 18Z" fill="black"/>
</svg>
