<svg width="24" height="24" viewBox="0 0 24 24" fill="none" xmlns="http://www.w3.org/2000/svg">
<path d="M18.4201 8.22002C17.8091 6.81602 16.7546 5.65109 15.4182 4.90374C14.0818 4.15639 12.5372 3.86785 11.0211 4.08233C9.50501 4.2968 8.10106 5.00247 7.02439 6.09119C5.94772 7.17991 5.25772 8.59163 5.06013 10.11C4.10672 10.3383 3.27036 10.9089 2.70987 11.7132C2.14939 12.5176 1.90382 13.4997 2.0198 14.4732C2.13578 15.4467 2.60523 16.3437 3.339 16.9939C4.07277 17.644 5.01976 18.0021 6.00013 18C6.26535 18 6.5197 17.8947 6.70724 17.7071C6.89478 17.5196 7.00013 17.2652 7.00013 17C7.00013 16.7348 6.89478 16.4804 6.70724 16.2929C6.5197 16.1054 6.26535 16 6.00013 16C5.4697 16 4.96099 15.7893 4.58592 15.4142C4.21085 15.0392 4.00013 14.5304 4.00013 14C4.00013 13.4696 4.21085 12.9609 4.58592 12.5858C4.96099 12.2107 5.4697 12 6.00013 12C6.26535 12 6.5197 11.8947 6.70724 11.7071C6.89478 11.5196 7.00013 11.2652 7.00013 11C7.00269 9.8173 7.42442 8.67377 8.1904 7.7726C8.95639 6.87143 10.017 6.27097 11.1839 6.07789C12.3507 5.88481 13.5483 6.11162 14.5637 6.71803C15.5791 7.32443 16.3467 8.27116 16.7301 9.39002C16.7873 9.56186 16.89 9.71495 17.0274 9.83295C17.1648 9.95095 17.3316 10.0294 17.5101 10.06C18.1762 10.1859 18.78 10.5336 19.2232 11.0466C19.6663 11.5595 19.9227 12.2074 19.9505 12.8847C19.9784 13.5619 19.776 14.2287 19.3764 14.7762C18.9769 15.3238 18.4036 15.7199 17.7501 15.9C17.4929 15.9663 17.2725 16.1321 17.1375 16.3609C17.0024 16.5897 16.9638 16.8628 17.0301 17.12C17.0964 17.3773 17.2622 17.5977 17.491 17.7327C17.7198 17.8677 17.9929 17.9063 18.2501 17.84C19.3025 17.5619 20.2354 16.948 20.9071 16.0915C21.5789 15.235 21.9527 14.1826 21.972 13.0943C21.9912 12.0059 21.6547 10.9411 21.0137 10.0613C20.3727 9.18161 19.462 8.53512 18.4201 8.22002ZM12.7101 10.29C12.615 10.199 12.5029 10.1276 12.3801 10.08C12.1367 9.98 11.8636 9.98 11.6201 10.08C11.4974 10.1276 11.3852 10.199 11.2901 10.29L8.29013 13.29C8.10183 13.4783 7.99604 13.7337 7.99604 14C7.99604 14.2663 8.10183 14.5217 8.29013 14.71C8.47844 14.8983 8.73383 15.0041 9.00013 15.0041C9.26644 15.0041 9.52183 14.8983 9.71013 14.71L11.0001 13.41V19C11.0001 19.2652 11.1055 19.5196 11.293 19.7071C11.4806 19.8947 11.7349 20 12.0001 20C12.2654 20 12.5197 19.8947 12.7072 19.7071C12.8948 19.5196 13.0001 19.2652 13.0001 19V13.41L14.2901 14.71C14.3831 14.8037 14.4937 14.8781 14.6156 14.9289C14.7374 14.9797 14.8681 15.0058 15.0001 15.0058C15.1321 15.0058 15.2629 14.9797 15.3847 14.9289C15.5066 14.8781 15.6172 14.8037 15.7101 14.71C15.8039 14.6171 15.8783 14.5065 15.929 14.3846C15.9798 14.2627 16.0059 14.132 16.0059 14C16.0059 13.868 15.9798 13.7373 15.929 13.6154C15.8783 13.4936 15.8039 13.383 15.7101 13.29L12.7101 10.29Z" fill="black"/>
</svg>
