<svg width="24" height="24" viewBox="0 0 24 24" fill="none" xmlns="http://www.w3.org/2000/svg">
<path d="M8.50017 5.94004C9.56754 5.33528 10.7734 5.01741 12.0002 5.01741C13.227 5.01741 14.4328 5.33528 15.5002 5.94004C15.6143 6.00616 15.7404 6.04904 15.8712 6.06622C16.0019 6.08341 16.1348 6.07455 16.2622 6.04016C16.3895 6.00577 16.5088 5.94652 16.6131 5.86584C16.7175 5.78515 16.8048 5.68462 16.8702 5.57004C17.0005 5.34042 17.0348 5.06856 16.9655 4.81377C16.8962 4.55899 16.7289 4.34196 16.5002 4.21004C15.1275 3.43358 13.5772 3.02551 12.0002 3.02551C10.4231 3.02551 8.87286 3.43358 7.50017 4.21004C7.27144 4.34196 7.10417 4.55899 7.03485 4.81377C6.96553 5.06856 6.9998 5.34042 7.13017 5.57004C7.1955 5.68462 7.28286 5.78515 7.3872 5.86584C7.49155 5.94652 7.61083 6.00577 7.73817 6.04016C7.86551 6.07455 7.99839 6.08341 8.12917 6.06622C8.25995 6.04904 8.38604 6.00616 8.50017 5.94004ZM18.4202 11.21C18.3163 10.9655 18.196 10.7283 18.0602 10.5C17.9915 10.3874 17.9013 10.2895 17.7947 10.2119C17.688 10.1343 17.5671 10.0786 17.4388 10.0479C17.3106 10.0172 17.1775 10.0122 17.0473 10.0332C16.9171 10.0541 16.7923 10.1007 16.6802 10.17C16.4555 10.3086 16.2947 10.5304 16.2329 10.787C16.171 11.0437 16.2132 11.3144 16.3502 11.54C16.5048 11.8065 16.6321 12.088 16.7302 12.38C16.7873 12.5519 16.8901 12.705 17.0275 12.823C17.1648 12.941 17.3317 13.0195 17.5102 13.05C18.206 13.1701 18.8372 13.5317 19.2927 14.0713C19.7482 14.6109 19.9987 15.2939 20.0002 16C20.0002 16.7957 19.6841 17.5587 19.1215 18.1214C18.5589 18.684 17.7958 19 17.0002 19H5.66017C5.25219 18.9373 4.87363 18.7498 4.57642 18.4633C4.27921 18.1768 4.07793 17.8054 4.00017 17.4C3.9401 17.1061 3.94694 16.8024 4.02018 16.5114C4.09341 16.2205 4.23117 15.9497 4.42324 15.7193C4.61531 15.4888 4.85677 15.3045 5.12975 15.18C5.40272 15.0555 5.70021 14.994 6.00017 15C6.26539 15 6.51974 14.8947 6.70728 14.7071C6.89481 14.5196 7.00017 14.2653 7.00017 14C6.99816 13.1252 7.22944 12.2657 7.67017 11.51C7.73629 11.3959 7.77918 11.2698 7.79636 11.139C7.81354 11.0083 7.80468 10.8754 7.77029 10.748C7.7359 10.6207 7.67666 10.5014 7.59597 10.3971C7.51529 10.2927 7.41476 10.2054 7.30017 10.14C7.07055 10.0097 6.79869 9.9754 6.54391 10.0447C6.28912 10.114 6.07209 10.2813 5.94017 10.51C5.47186 11.3073 5.17233 12.1922 5.06017 13.11C4.22581 13.3132 3.479 13.7796 2.93017 14.44C2.46338 14.9882 2.15319 15.6522 2.03234 16.362C1.91149 17.0717 1.98445 17.801 2.24353 18.4727C2.5026 19.1445 2.93819 19.7339 3.50434 20.1787C4.07048 20.6235 4.74619 20.9073 5.46017 21H5.59017H17.0002C18.1995 20.9967 19.3577 20.5624 20.2636 19.7763C21.1694 18.9902 21.7625 17.9047 21.9346 16.7178C22.1068 15.5308 21.8465 14.3216 21.2014 13.3105C20.5562 12.2994 19.5692 11.554 18.4202 11.21ZM14.8702 9.00004C14.8702 9.00004 14.8702 9.00004 14.8702 8.94004C14.922 8.87929 14.9657 8.81206 15.0002 8.74004C15.0949 8.49333 15.0881 8.21916 14.9813 7.97744C14.8745 7.73573 14.6764 7.54611 14.4302 7.45004C13.8709 7.24238 13.2851 7.11446 12.6902 7.07004C12.5902 7.07004 12.4902 7.07004 12.3902 7.07004C12.1205 7.05002 11.8498 7.05002 11.5802 7.07004C11.4769 7.06469 11.3734 7.06469 11.2702 7.07004C10.6752 7.11446 10.0895 7.24238 9.53017 7.45004C9.29123 7.55369 9.10216 7.74648 9.00318 7.9874C8.9042 8.22831 8.90312 8.49834 9.00017 8.74004C9.03424 8.80693 9.07441 8.87053 9.12017 8.93004C9.11686 8.96663 9.11686 9.00344 9.12017 9.04004C9.18633 9.15379 9.2743 9.25337 9.37902 9.33305C9.48375 9.41274 9.60317 9.47098 9.73044 9.50443C9.85772 9.53787 9.99034 9.54586 10.1207 9.52795C10.2511 9.51004 10.3766 9.46657 10.4902 9.40004C10.9488 9.14432 11.4651 9.01009 11.9902 9.01009C12.5152 9.01009 13.0316 9.14432 13.4902 9.40004C13.6065 9.46656 13.7351 9.50902 13.8682 9.52488C14.0013 9.54074 14.1362 9.52969 14.2649 9.49237C14.3936 9.45506 14.5136 9.39225 14.6175 9.30767C14.7215 9.22309 14.8074 9.11848 14.8702 9.00004ZM11.0002 12C11.0002 12.1978 11.0588 12.3912 11.1687 12.5556C11.2786 12.7201 11.4348 12.8482 11.6175 12.9239C11.8002 12.9996 12.0013 13.0194 12.1953 12.9808C12.3892 12.9422 12.5674 12.847 12.7073 12.7071C12.8471 12.5673 12.9424 12.3891 12.981 12.1951C13.0195 12.0011 12.9997 11.8001 12.9241 11.6174C12.8484 11.4346 12.7202 11.2784 12.5557 11.1686C12.3913 11.0587 12.198 11 12.0002 11C11.735 11 11.4806 11.1054 11.2931 11.2929C11.1055 11.4805 11.0002 11.7348 11.0002 12Z" fill="black"/>
</svg>
