<svg width="24" height="24" viewBox="0 0 24 24" fill="none" xmlns="http://www.w3.org/2000/svg">
<path d="M14.4099 6.53C14.0963 6.59926 13.7715 6.60028 13.4575 6.53299C13.1434 6.4657 12.8476 6.33168 12.5899 6.14C12.4186 6.01486 12.212 5.94741 11.9999 5.94741C11.7878 5.94741 11.5811 6.01486 11.4099 6.14C11.1522 6.33168 10.8563 6.4657 10.5423 6.53299C10.2283 6.60028 9.90347 6.59926 9.58988 6.53C9.44382 6.49846 9.29255 6.50006 9.14718 6.53467C9.00182 6.56928 8.86606 6.63603 8.74988 6.73C8.63386 6.82412 8.5404 6.94304 8.47637 7.07802C8.41234 7.213 8.37937 7.36061 8.37988 7.51V10.41C8.37288 11.0527 8.51562 11.6882 8.7968 12.2662C9.07799 12.8442 9.48989 13.3488 9.99988 13.74L11.3699 14.74C11.5411 14.8652 11.7478 14.9326 11.9599 14.9326C12.172 14.9326 12.3786 14.8652 12.5499 14.74L13.9199 13.74C14.4372 13.353 14.8568 12.8502 15.1451 12.272C15.4333 11.6938 15.5822 11.0561 15.5799 10.41V7.51C15.5804 7.36061 15.5474 7.213 15.4834 7.07802C15.4194 6.94304 15.3259 6.82412 15.2099 6.73C15.0984 6.6417 14.9694 6.57819 14.8315 6.5437C14.6935 6.50921 14.5498 6.50454 14.4099 6.53ZM13.6199 10.41C13.6226 10.7446 13.5472 11.0753 13.3996 11.3756C13.2521 11.6759 13.0364 11.9377 12.7699 12.14L11.9999 12.71L11.2299 12.14C10.9633 11.9377 10.7477 11.6759 10.6001 11.3756C10.4526 11.0753 10.3772 10.7446 10.3799 10.41V8.57C10.9446 8.53018 11.4955 8.37715 11.9999 8.12C12.5042 8.37715 13.0552 8.53018 13.6199 8.57V10.41ZM20.4599 9.63C20.3195 8.16892 19.8031 6.76909 18.9611 5.56682C18.119 4.36456 16.98 3.40083 15.6549 2.7695C14.3298 2.13816 12.8638 1.86072 11.3996 1.96421C9.93543 2.06769 8.52301 2.54856 7.29988 3.36C6.24908 4.06265 5.36693 4.9893 4.71682 6.07339C4.06672 7.15749 3.66478 8.37211 3.53988 9.63C3.41736 10.8797 3.57455 12.1409 4.00005 13.3223C4.42555 14.5036 5.10868 15.5755 5.99988 16.46L11.2999 21.77C11.3928 21.8637 11.5034 21.9381 11.6253 21.9889C11.7472 22.0397 11.8779 22.0658 12.0099 22.0658C12.1419 22.0658 12.2726 22.0397 12.3945 21.9889C12.5163 21.9381 12.6269 21.8637 12.7199 21.77L17.9999 16.46C18.8911 15.5755 19.5742 14.5036 19.9997 13.3223C20.4252 12.1409 20.5824 10.8797 20.4599 9.63ZM16.5999 15.05L11.9999 19.65L7.39988 15.05C6.72197 14.3721 6.20268 13.5523 5.87935 12.6498C5.55601 11.7472 5.43667 10.7842 5.52988 9.83C5.6237 8.86111 5.93164 7.92516 6.43145 7.08985C6.93126 6.25453 7.61044 5.54071 8.41988 5C9.48083 4.29524 10.7262 3.9193 11.9999 3.9193C13.2736 3.9193 14.5189 4.29524 15.5799 5C16.3869 5.53862 17.0646 6.24928 17.5642 7.08094C18.0639 7.9126 18.3732 8.84461 18.4699 9.81C18.5661 10.7674 18.4483 11.7343 18.1249 12.6406C17.8014 13.5468 17.2805 14.3698 16.5999 15.05Z" fill="black"/>
</svg>
