<svg width="24" height="24" viewBox="0 0 24 24" fill="none" xmlns="http://www.w3.org/2000/svg">
<path d="M19.2901 3.71002C19.3831 3.80375 19.4937 3.87814 19.6156 3.92891C19.7374 3.97968 19.8681 4.00582 20.0001 4.00582C20.1322 4.00582 20.2629 3.97968 20.3847 3.92891C20.5066 3.87814 20.6172 3.80375 20.7101 3.71002C20.7985 3.61282 20.8695 3.5012 20.9201 3.38002C20.9714 3.2598 20.9986 3.13069 21.0001 3.00002C21.0009 2.86841 20.9757 2.73795 20.9259 2.61611C20.8761 2.49427 20.8028 2.38346 20.7101 2.29002L20.5601 2.17002C20.5044 2.13217 20.4439 2.10191 20.3801 2.08002C20.198 2.00344 19.9973 1.98252 19.8033 2.01989C19.6093 2.05726 19.4308 2.15126 19.2901 2.29002C19.1975 2.38346 19.1241 2.49427 19.0744 2.61611C19.0246 2.73795 18.9994 2.86841 19.0001 3.00002C19.0017 3.13069 19.0289 3.2598 19.0801 3.38002C19.1308 3.5012 19.2018 3.61282 19.2901 3.71002ZM20.0001 5.00002C19.7349 5.00002 19.4806 5.10537 19.293 5.29291C19.1055 5.48045 19.0001 5.7348 19.0001 6.00002V10C19.0001 10.2652 19.1055 10.5196 19.293 10.7071C19.4806 10.8947 19.7349 11 20.0001 11C20.2654 11 20.5197 10.8947 20.7072 10.7071C20.8948 10.5196 21.0001 10.2652 21.0001 10V6.00002C21.0001 5.7348 20.8948 5.48045 20.7072 5.29291C20.5197 5.10537 20.2654 5.00002 20.0001 5.00002ZM20.0601 13C19.7977 12.9689 19.5336 13.043 19.3257 13.206C19.1177 13.369 18.9827 13.6078 18.9501 13.87C18.738 15.5634 17.9146 17.1209 16.6348 18.2498C15.3549 19.3786 13.7067 20.0011 12.0001 20H6.41014L7.05014 19.37C7.23639 19.1827 7.34093 18.9292 7.34093 18.665C7.34093 18.4008 7.23639 18.1474 7.05014 17.96C6.06763 16.9816 5.39784 15.7334 5.12572 14.3737C4.85361 13.0141 4.99142 11.6043 5.52168 10.3231C6.05195 9.04186 6.95078 7.947 8.10416 7.17735C9.25755 6.4077 10.6135 5.99793 12.0001 6.00002C13.2263 5.99816 14.4308 6.3226 15.4901 6.94002C15.7157 7.04197 15.9711 7.05662 16.2069 6.98114C16.4427 6.90565 16.6421 6.7454 16.7665 6.53138C16.8909 6.31736 16.9315 6.0648 16.8805 5.82256C16.8294 5.58032 16.6904 5.36562 16.4901 5.22002C15.1293 4.41971 13.5789 3.99845 12.0001 4.00002C10.3076 4.00558 8.65094 4.4883 7.22033 5.39276C5.78971 6.29721 4.64313 7.58675 3.91221 9.11333C3.18129 10.6399 2.89565 12.3417 3.08808 14.0232C3.28052 15.7048 3.94323 17.298 5.00014 18.62L3.29014 20.29C3.15138 20.4306 3.05739 20.6092 3.02001 20.8032C2.98264 20.9972 3.00356 21.1979 3.08014 21.38C3.15516 21.5626 3.28256 21.719 3.44628 21.8293C3.61 21.9396 3.80271 21.999 4.00014 22H12.0001C14.1931 22 16.3106 21.1993 17.9549 19.7483C19.5993 18.2974 20.6572 16.2959 20.9301 14.12C20.9469 13.9893 20.9377 13.8565 20.903 13.7294C20.8684 13.6022 20.8089 13.4832 20.728 13.3791C20.6472 13.275 20.5465 13.188 20.4319 13.1229C20.3173 13.0578 20.191 13.0161 20.0601 13Z" fill="black"/>
</svg>
