<svg width="24" height="24" viewBox="0 0 24 24" fill="none" xmlns="http://www.w3.org/2000/svg">
<path d="M17.9998 2.77999C17.949 2.55441 17.8216 2.35341 17.6393 2.21119C17.457 2.06898 17.231 1.99434 16.9998 1.99999H6.99985C6.76869 1.99434 6.54271 2.06898 6.36038 2.21119C6.17806 2.35341 6.05065 2.55441 5.99985 2.77999L3.99985 11.78C3.96673 11.9276 3.96753 12.0807 4.00217 12.228C4.03681 12.3752 4.1044 12.5127 4.19985 12.63C4.29607 12.7487 4.4182 12.8438 4.55688 12.9079C4.69556 12.972 4.8471 13.0035 4.99985 13H8.93985C8.98006 13.3318 9.0001 13.6658 8.99985 14C9.00921 16.3571 8.08525 18.622 6.42985 20.3C6.29224 20.4404 6.19906 20.6182 6.16196 20.8113C6.12485 21.0043 6.14547 21.204 6.22123 21.3854C6.29699 21.5668 6.42453 21.7218 6.58791 21.8311C6.75129 21.9404 6.94327 21.9992 7.13985 22H16.8598C17.0564 21.9992 17.2484 21.9404 17.4118 21.8311C17.5752 21.7218 17.7027 21.5668 17.7785 21.3854C17.8542 21.204 17.8748 21.0043 17.8377 20.8113C17.8006 20.6182 17.7075 20.4404 17.5698 20.3C15.9144 18.622 14.9905 16.3571 14.9998 14C14.9996 13.6658 15.0196 13.3318 15.0598 13H15.9998V15C15.9998 15.2652 16.1052 15.5196 16.2927 15.7071C16.4803 15.8946 16.7346 16 16.9998 16C17.2651 16 17.5194 15.8946 17.707 15.7071C17.8945 15.5196 17.9998 15.2652 17.9998 15V13H18.9998C19.1492 13.0005 19.2969 12.9675 19.4318 12.9035C19.5668 12.8395 19.6857 12.746 19.7798 12.63C19.8753 12.5127 19.9429 12.3752 19.9775 12.228C20.0122 12.0807 20.013 11.9276 19.9798 11.78L17.9998 2.77999ZM9.21985 20C10.3869 18.217 11.0058 16.131 10.9998 14C10.9998 13.67 10.9998 13.33 10.9498 13H13.0498C13.0498 13.33 12.9998 13.67 12.9998 14C12.9939 16.131 13.6128 18.217 14.7798 20H9.21985ZM6.21985 11L7.79985 3.99999H16.1998L17.7498 11H6.21985Z" fill="black"/>
</svg>
