<svg width="24" height="24" viewBox="0 0 24 24" fill="none" xmlns="http://www.w3.org/2000/svg">
<path d="M4.7599 10.59C5.02511 10.6245 5.29316 10.5522 5.50508 10.389C5.71699 10.2258 5.85542 9.98519 5.88989 9.71998C5.92437 9.45476 5.85208 9.18671 5.68893 8.97479C5.52577 8.76288 5.28511 8.62445 5.01989 8.58998L3.25989 8.14998C3.13158 8.11064 2.99666 8.09753 2.86318 8.11144C2.72969 8.12535 2.60037 8.16598 2.48292 8.23092C2.36547 8.29586 2.2623 8.38378 2.17954 8.48943C2.09679 8.59509 2.03614 8.71632 2.00123 8.8459C1.96632 8.97549 1.95784 9.11078 1.97632 9.24371C1.99479 9.37664 2.03983 9.50449 2.10876 9.61965C2.17769 9.7348 2.26909 9.8349 2.37752 9.91399C2.48595 9.99307 2.60919 10.0495 2.73989 10.08L4.49989 10.55C4.58367 10.5779 4.67159 10.5915 4.7599 10.59ZM8.61989 4.99998C8.6785 5.21814 8.80923 5.41003 8.99082 5.5444C9.1724 5.67878 9.39413 5.74771 9.61989 5.73998C9.70601 5.7538 9.79378 5.7538 9.8799 5.73998C10.1337 5.66976 10.3496 5.50226 10.4806 5.27384C10.6117 5.04543 10.6474 4.77453 10.5799 4.51998L10.1099 2.75998C10.0794 2.62927 10.023 2.50603 9.94391 2.3976C9.86482 2.28917 9.76472 2.19777 9.64956 2.12884C9.53441 2.05991 9.40656 2.01487 9.27363 1.9964C9.1407 1.97792 9.00541 1.9864 8.87582 2.02131C8.74624 2.05622 8.62501 2.11687 8.51935 2.19962C8.4137 2.28238 8.32578 2.38555 8.26084 2.503C8.1959 2.62045 8.15527 2.74977 8.14136 2.88326C8.12745 3.01674 8.14056 3.15166 8.1799 3.27998L8.61989 4.99998ZM13.4499 15C13.3565 14.9016 13.244 14.8233 13.1194 14.7698C12.9948 14.7163 12.8605 14.6887 12.7249 14.6887C12.5893 14.6887 12.455 14.7163 12.3304 14.7698C12.2058 14.8233 12.0933 14.9016 11.9999 15L8.4999 18.56C8.08838 18.9548 7.54017 19.1752 6.96989 19.1752C6.39961 19.1752 5.85141 18.9548 5.43989 18.56C5.23732 18.36 5.07648 18.1218 4.9667 17.8591C4.85692 17.5965 4.80039 17.3146 4.80039 17.03C4.80039 16.7453 4.85692 16.4635 4.9667 16.2008C5.07648 15.9382 5.23732 15.7 5.43989 15.5L8.9999 12C9.10458 11.9103 9.1896 11.8 9.24962 11.6759C9.30964 11.5519 9.34337 11.4167 9.34869 11.279C9.35401 11.1413 9.33081 11.004 9.28053 10.8757C9.23026 10.7473 9.154 10.6308 9.05655 10.5333C8.95909 10.4359 8.84254 10.3596 8.71422 10.3093C8.58589 10.2591 8.44856 10.2359 8.31084 10.2412C8.17312 10.2465 8.03799 10.2802 7.91393 10.3402C7.78986 10.4003 7.67954 10.4853 7.5899 10.59L3.99989 14.08C3.61118 14.4687 3.30284 14.9302 3.09247 15.438C2.8821 15.9459 2.77382 16.4903 2.77382 17.04C2.77382 17.5897 2.8821 18.134 3.09247 18.6419C3.30284 19.1498 3.61118 19.6113 3.99989 20C4.38861 20.3887 4.85008 20.697 5.35795 20.9074C5.86583 21.1178 6.41017 21.226 6.9599 21.226C7.50962 21.226 8.05396 21.1178 8.56184 20.9074C9.06971 20.697 9.53118 20.3887 9.9199 20L13.4499 16.47C13.5514 16.3763 13.6324 16.2627 13.6878 16.1362C13.7432 16.0097 13.7718 15.8731 13.7718 15.735C13.7718 15.5969 13.7432 15.4603 13.6878 15.3338C13.6324 15.2073 13.5514 15.0936 13.4499 15ZM5.17989 6.58998C5.36616 6.77472 5.61756 6.87887 5.87989 6.87998C6.0115 6.88074 6.14196 6.85551 6.2638 6.80575C6.38564 6.75598 6.49646 6.68266 6.5899 6.58998C6.77615 6.40261 6.88069 6.14916 6.88069 5.88498C6.88069 5.62079 6.77615 5.36734 6.5899 5.17998L5.2999 3.88998C5.10859 3.72615 4.86252 3.64054 4.61084 3.65026C4.35917 3.65999 4.12043 3.76432 3.94233 3.94241C3.76424 4.12051 3.6599 4.35925 3.65018 4.61092C3.64046 4.8626 3.72607 5.10867 3.88989 5.29998L5.17989 6.58998ZM21.2599 13.92L19.4999 13.45C19.3695 13.4049 19.2311 13.3873 19.0936 13.3983C18.956 13.4093 18.8222 13.4486 18.7006 13.5138C18.579 13.5791 18.4722 13.6687 18.3869 13.7772C18.3017 13.8858 18.2398 14.0107 18.2052 14.1443C18.1706 14.2779 18.164 14.4172 18.1858 14.5535C18.2077 14.6897 18.2575 14.82 18.3321 14.936C18.4068 15.0521 18.5047 15.1515 18.6196 15.2279C18.7345 15.3043 18.864 15.3561 18.9999 15.38L20.7599 15.85H21.0199C21.2851 15.8845 21.5532 15.8122 21.7651 15.649C21.977 15.4858 22.1154 15.2452 22.1499 14.98C22.1844 14.7148 22.1121 14.4467 21.9489 14.2348C21.7858 14.0229 21.5451 13.8845 21.2799 13.85L21.2599 13.92ZM15.3799 19C15.3452 18.8732 15.2858 18.7545 15.2052 18.6507C15.1246 18.5469 15.0243 18.46 14.91 18.395C14.7958 18.33 14.6698 18.2881 14.5394 18.2718C14.409 18.2555 14.2766 18.2651 14.1499 18.3C13.8961 18.3702 13.6802 18.5377 13.5492 18.7661C13.4181 18.9945 13.3824 19.2654 13.4499 19.52L13.9199 21.28C13.9785 21.4981 14.1092 21.69 14.2908 21.8244C14.4724 21.9588 14.6941 22.0277 14.9199 22.02C15.0063 22.0298 15.0935 22.0298 15.1799 22.02C15.3076 21.9863 15.4273 21.9277 15.5322 21.8476C15.6372 21.7674 15.7252 21.6673 15.7912 21.5529C15.8572 21.4386 15.8999 21.3123 15.9168 21.1813C15.9338 21.0504 15.9246 20.9174 15.8899 20.79L15.3799 19ZM18.8199 17.43C18.6286 17.2661 18.3825 17.1805 18.1308 17.1903C17.8792 17.2 17.6404 17.3043 17.4623 17.4824C17.2842 17.6605 17.1799 17.8992 17.1702 18.1509C17.1605 18.4026 17.2461 18.6487 17.4099 18.84L18.6999 20.13C18.8873 20.3162 19.1407 20.4208 19.4049 20.4208C19.6691 20.4208 19.9225 20.3162 20.1099 20.13C20.2961 19.9426 20.4007 19.6892 20.4007 19.425C20.4007 19.1608 20.2961 18.9073 20.1099 18.72L18.8199 17.43ZM21.1999 6.99998C21.2154 6.16841 20.9814 5.35128 20.5279 4.65408C20.0744 3.95687 19.4224 3.4116 18.6559 3.08865C17.8895 2.76571 17.0438 2.67993 16.2281 2.84237C15.4124 3.00482 14.6641 3.40804 14.0799 3.99998L10.5499 7.55998C10.4553 7.65518 10.3805 7.76808 10.3296 7.89223C10.2786 8.01637 10.2527 8.14933 10.2531 8.28351C10.2536 8.41769 10.2805 8.55047 10.3323 8.67426C10.384 8.79805 10.4597 8.91042 10.5549 9.00498C10.6501 9.09953 10.763 9.1744 10.8871 9.22532C11.0113 9.27624 11.1442 9.30221 11.2784 9.30174C11.4126 9.30128 11.5454 9.27439 11.6692 9.22261C11.793 9.17084 11.9053 9.09518 11.9999 8.99998L15.4999 5.43998C15.9114 5.04517 16.4596 4.82472 17.0299 4.82472C17.6002 4.82472 18.1484 5.04517 18.5599 5.43998C18.7625 5.63997 18.9233 5.8782 19.0331 6.14084C19.1429 6.40348 19.1994 6.68531 19.1994 6.96998C19.1994 7.25464 19.1429 7.53647 19.0331 7.79911C18.9233 8.06176 18.7625 8.29998 18.5599 8.49998L14.9999 12C14.8136 12.1873 14.7091 12.4408 14.7091 12.705C14.7091 12.9692 14.8136 13.2226 14.9999 13.41C15.1873 13.5962 15.4407 13.7008 15.7049 13.7008C15.9691 13.7008 16.2225 13.5962 16.4099 13.41L19.9999 9.91998C20.7653 9.14032 21.1959 8.09254 21.1999 6.99998Z" fill="black"/>
</svg>
