<svg width="24" height="24" viewBox="0 0 24 24" fill="none" xmlns="http://www.w3.org/2000/svg">
<path d="M19 13C18.7348 13 18.4804 13.1053 18.2929 13.2929C18.1054 13.4804 18 13.7348 18 14V14.38L16.52 12.9C15.9974 12.3815 15.2911 12.0906 14.555 12.0906C13.8189 12.0906 13.1126 12.3815 12.59 12.9L11.89 13.6L9.41 11.12C8.88012 10.6156 8.17657 10.3343 7.445 10.3343C6.71343 10.3343 6.00988 10.6156 5.48 11.12L4 12.6V6.99999C4 6.73477 4.10536 6.48042 4.29289 6.29288C4.48043 6.10534 4.73478 5.99999 5 5.99999H12C12.2652 5.99999 12.5196 5.89463 12.7071 5.70709C12.8946 5.51956 13 5.2652 13 4.99999C13 4.73477 12.8946 4.48042 12.7071 4.29288C12.5196 4.10534 12.2652 3.99999 12 3.99999H5C4.20435 3.99999 3.44129 4.31606 2.87868 4.87867C2.31607 5.44128 2 6.20434 2 6.99999V19C2 19.7956 2.31607 20.5587 2.87868 21.1213C3.44129 21.6839 4.20435 22 5 22H17C17.7956 22 18.5587 21.6839 19.1213 21.1213C19.6839 20.5587 20 19.7956 20 19V14C20 13.7348 19.8946 13.4804 19.7071 13.2929C19.5196 13.1053 19.2652 13 19 13ZM5 20C4.73478 20 4.48043 19.8946 4.29289 19.7071C4.10536 19.5196 4 19.2652 4 19V15.43L6.9 12.53C7.04691 12.39 7.24206 12.3119 7.445 12.3119C7.64794 12.3119 7.84309 12.39 7.99 12.53L11.16 15.7L15.46 20H5ZM18 19C17.9986 19.1914 17.9354 19.3773 17.82 19.53L13.31 15L14.01 14.3C14.0817 14.2268 14.1673 14.1687 14.2617 14.129C14.3561 14.0893 14.4576 14.0689 14.56 14.0689C14.6624 14.0689 14.7639 14.0893 14.8583 14.129C14.9527 14.1687 15.0383 14.2268 15.11 14.3L18 17.21V19ZM22.71 4.28999L19.71 1.28999C19.6149 1.19895 19.5028 1.12758 19.38 1.07999C19.1365 0.97997 18.8635 0.97997 18.62 1.07999C18.4972 1.12758 18.3851 1.19895 18.29 1.28999L15.29 4.28999C15.1968 4.38323 15.1228 4.49392 15.0723 4.61574C15.0219 4.73756 14.9959 4.86813 14.9959 4.99999C14.9959 5.26629 15.1017 5.52168 15.29 5.70999C15.4783 5.89829 15.7337 6.00408 16 6.00408C16.2663 6.00408 16.5217 5.89829 16.71 5.70999L18 4.40999V9.99999C18 10.2652 18.1054 10.5196 18.2929 10.7071C18.4804 10.8946 18.7348 11 19 11C19.2652 11 19.5196 10.8946 19.7071 10.7071C19.8946 10.5196 20 10.2652 20 9.99999V4.40999L21.29 5.70999C21.383 5.80372 21.4936 5.87811 21.6154 5.92888C21.7373 5.97965 21.868 6.00579 22 6.00579C22.132 6.00579 22.2627 5.97965 22.3846 5.92888C22.5064 5.87811 22.617 5.80372 22.71 5.70999C22.8037 5.61702 22.8781 5.50642 22.9289 5.38456C22.9797 5.26271 23.0058 5.132 23.0058 4.99999C23.0058 4.86798 22.9797 4.73727 22.9289 4.61541C22.8781 4.49355 22.8037 4.38295 22.71 4.28999Z" fill="black"/>
</svg>
