<svg width="24" height="24" viewBox="0 0 24 24" fill="none" xmlns="http://www.w3.org/2000/svg">
<path d="M13.5001 15H11.2301L12.6801 12.5C12.7458 12.3858 12.7883 12.2597 12.8053 12.129C12.8222 11.9984 12.8132 11.8656 12.7789 11.7384C12.7445 11.6112 12.6854 11.492 12.605 11.3876C12.5246 11.2832 12.4244 11.1957 12.3101 11.13C12.1959 11.0644 12.0698 11.0219 11.9391 11.0049C11.8085 10.988 11.6757 10.9969 11.5485 11.0313C11.4213 11.0657 11.3021 11.1247 11.1977 11.2052C11.0933 11.2856 11.0058 11.3858 10.9401 11.5L8.63013 15.5C8.54237 15.6521 8.49616 15.8245 8.49616 16C8.49616 16.1756 8.54237 16.348 8.63013 16.5C8.71824 16.6526 8.8451 16.7793 8.99788 16.8671C9.15066 16.9549 9.32392 17.0007 9.50013 17H11.7701L10.3201 19.5C10.1875 19.7308 10.152 20.0047 10.2214 20.2617C10.2908 20.5186 10.4594 20.7374 10.6901 20.87C10.9209 21.0026 11.1948 21.0382 11.4518 20.9688C11.7087 20.8994 11.9275 20.7308 12.0601 20.5L14.3701 16.5C14.4579 16.348 14.5041 16.1756 14.5041 16C14.5041 15.8245 14.4579 15.6521 14.3701 15.5C14.282 15.3474 14.1552 15.2208 14.0024 15.133C13.8496 15.0452 13.6763 14.9993 13.5001 15ZM18.4201 7.21003C17.8084 5.80584 16.7531 4.64103 15.4159 3.89419C14.0787 3.14735 12.5334 2.8597 11.017 3.07536C9.50063 3.29101 8.09684 3.99806 7.02085 5.08809C5.94487 6.17813 5.25609 7.59098 5.06013 9.11003C4.10672 9.33836 3.27036 9.90887 2.70987 10.7132C2.14939 11.5176 1.90382 12.4998 2.0198 13.4732C2.13578 14.4467 2.60523 15.3437 3.339 15.9939C4.07277 16.6441 5.01976 17.0021 6.00013 17C6.26535 17 6.5197 16.8947 6.70724 16.7071C6.89478 16.5196 7.00013 16.2653 7.00013 16C7.00013 15.7348 6.89478 15.4805 6.70724 15.2929C6.5197 15.1054 6.26535 15 6.00013 15C5.4697 15 4.96099 14.7893 4.58592 14.4142C4.21085 14.0392 4.00013 13.5305 4.00013 13C4.00013 12.4696 4.21085 11.9609 4.58592 11.5858C4.96099 11.2107 5.4697 11 6.00013 11C6.26535 11 6.5197 10.8947 6.70724 10.7071C6.89478 10.5196 7.00013 10.2652 7.00013 10C7.00269 8.81731 7.42442 7.67379 8.1904 6.77262C8.95639 5.87145 10.017 5.27098 11.1839 5.07791C12.3507 4.88483 13.5483 5.11164 14.5637 5.71804C15.5791 6.32444 16.3467 7.27117 16.7301 8.39003C16.7888 8.56001 16.8922 8.71102 17.0295 8.82717C17.1667 8.94332 17.3328 9.02031 17.5101 9.05003C18.2431 9.18529 18.8995 9.58856 19.3515 10.1813C19.8034 10.774 20.0185 11.5138 19.9548 12.2564C19.8911 12.9991 19.5533 13.6914 19.0071 14.1986C18.4609 14.7058 17.7455 14.9915 17.0001 15C16.7349 15 16.4806 15.1054 16.293 15.2929C16.1055 15.4805 16.0001 15.7348 16.0001 16C16.0001 16.2653 16.1055 16.5196 16.293 16.7071C16.4806 16.8947 16.7349 17 17.0001 17C18.1995 16.9967 19.3577 16.5624 20.2635 15.7763C21.1693 14.9902 21.7624 13.9047 21.9346 12.7178C22.1067 11.5308 21.8465 10.3216 21.2014 9.31049C20.5562 8.29943 19.5691 7.55396 18.4201 7.21003Z" fill="black"/>
</svg>
