<svg width="24" height="24" viewBox="0 0 24 24" fill="none" xmlns="http://www.w3.org/2000/svg">
<path d="M20.1598 5C19.0998 3.93721 17.6946 3.28854 16.1981 3.17117C14.7017 3.0538 13.2126 3.47546 11.9998 4.36C10.7274 3.41364 9.14378 2.98451 7.56771 3.15903C5.99164 3.33356 4.54023 4.09878 3.50576 5.30058C2.47129 6.50239 1.93061 8.05152 1.99259 9.63601C2.05457 11.2205 2.71461 12.7227 3.83979 13.84L10.0498 20.06C10.5698 20.5718 11.2702 20.8586 11.9998 20.8586C12.7294 20.8586 13.4298 20.5718 13.9498 20.06L20.1598 13.84C21.3274 12.6653 21.9827 11.0763 21.9827 9.42C21.9827 7.76372 21.3274 6.17473 20.1598 5ZM18.7498 12.46L12.5398 18.67C12.4691 18.7414 12.385 18.798 12.2923 18.8366C12.1996 18.8753 12.1002 18.8952 11.9998 18.8952C11.8994 18.8952 11.7999 18.8753 11.7072 18.8366C11.6146 18.798 11.5305 18.7414 11.4598 18.67L5.24979 12.43C4.46555 11.6283 4.0264 10.5515 4.0264 9.43C4.0264 8.30853 4.46555 7.23165 5.24979 6.43C6.04894 5.64099 7.12676 5.19857 8.24979 5.19857C9.37281 5.19857 10.4506 5.64099 11.2498 6.43C11.3428 6.52373 11.4534 6.59812 11.5752 6.64889C11.6971 6.69966 11.8278 6.7258 11.9598 6.7258C12.0918 6.7258 12.2225 6.69966 12.3444 6.64889C12.4662 6.59812 12.5768 6.52373 12.6698 6.43C13.4689 5.64099 14.5468 5.19857 15.6698 5.19857C16.7928 5.19857 17.8706 5.64099 18.6698 6.43C19.4648 7.22115 19.9184 8.29219 19.9333 9.41368C19.9483 10.5352 19.5234 11.6179 18.7498 12.43V12.46Z" fill="black"/>
</svg>
