<svg width="24" height="24" viewBox="0 0 24 24" fill="none" xmlns="http://www.w3.org/2000/svg">
<path d="M14.0001 9.45002H13.0001V8.45002C13.0001 8.1848 12.8947 7.93045 12.7072 7.74291C12.5196 7.55537 12.2653 7.45002 12.0001 7.45002C11.7349 7.45002 11.4805 7.55537 11.293 7.74291C11.1054 7.93045 11.0001 8.1848 11.0001 8.45002V9.45002H10.0001C9.73486 9.45002 9.48051 9.55537 9.29297 9.74291C9.10543 9.93045 9.00008 10.1848 9.00008 10.45C9.00008 10.7152 9.10543 10.9696 9.29297 11.1571C9.48051 11.3447 9.73486 11.45 10.0001 11.45H11.0001V12.45C11.0001 12.7152 11.1054 12.9696 11.293 13.1571C11.4805 13.3447 11.7349 13.45 12.0001 13.45C12.2653 13.45 12.5196 13.3447 12.7072 13.1571C12.8947 12.9696 13.0001 12.7152 13.0001 12.45V11.45H14.0001C14.2653 11.45 14.5196 11.3447 14.7072 11.1571C14.8947 10.9696 15.0001 10.7152 15.0001 10.45C15.0001 10.1848 14.8947 9.93045 14.7072 9.74291C14.5196 9.55537 14.2653 9.45002 14.0001 9.45002ZM20.4601 9.63002C20.3304 8.27185 19.8758 6.96484 19.1345 5.81944C18.3932 4.67404 17.3871 3.72391 16.2012 3.04934C15.0153 2.37477 13.6844 1.99557 12.3211 1.9438C10.9577 1.89204 9.60191 2.16921 8.36826 2.75191C7.13461 3.33461 6.05935 4.20571 5.23335 5.2916C4.40734 6.37748 3.85487 7.64625 3.62261 8.99068C3.39035 10.3351 3.48513 11.7157 3.89894 13.0158C4.31275 14.3158 5.03343 15.4972 6.00008 16.46L11.3001 21.77C11.393 21.8637 11.5036 21.9381 11.6255 21.9889C11.7474 22.0397 11.8781 22.0658 12.0101 22.0658C12.1421 22.0658 12.2728 22.0397 12.3947 21.9889C12.5165 21.9381 12.6271 21.8637 12.7201 21.77L18.0001 16.46C18.8913 15.5755 19.5744 14.5036 19.9999 13.3223C20.4254 12.1409 20.5826 10.8797 20.4601 9.63002ZM16.6001 15.05L12.0001 19.65L7.40008 15.05C6.72217 14.3721 6.20288 13.5523 5.87954 12.6498C5.55621 11.7472 5.43686 10.7842 5.53008 9.83002C5.6239 8.86112 5.93184 7.92518 6.43165 7.08986C6.93145 6.25454 7.61063 5.54072 8.42008 5.00002C9.48102 4.29525 10.7264 3.91931 12.0001 3.91931C13.2738 3.91931 14.5191 4.29525 15.5801 5.00002C16.3871 5.53863 17.0647 6.2493 17.5644 7.08095C18.0641 7.91261 18.3734 8.84462 18.4701 9.81002C18.5663 10.7674 18.4485 11.7343 18.1251 12.6406C17.8016 13.5468 17.2807 14.3698 16.6001 15.05Z" fill="black"/>
</svg>
