<svg width="24" height="24" viewBox="0 0 24 24" fill="none" xmlns="http://www.w3.org/2000/svg">
<path d="M20.4702 8.99999C20.668 8.99999 20.8613 8.94134 21.0258 8.83146C21.1902 8.72158 21.3184 8.5654 21.3941 8.38267C21.4698 8.19995 21.4896 7.99888 21.451 7.8049C21.4124 7.61092 21.3172 7.43274 21.1773 7.29288C21.0375 7.15303 20.8593 7.05779 20.6653 7.0192C20.4713 6.98062 20.2703 7.00042 20.0875 7.07611C19.9048 7.1518 19.7486 7.27997 19.6387 7.44442C19.5289 7.60887 19.4702 7.80221 19.4702 7.99999C19.4702 8.26521 19.5756 8.51956 19.7631 8.7071C19.9506 8.89463 20.205 8.99999 20.4702 8.99999ZM17.4702 8.99999C17.668 8.99999 17.8613 8.94134 18.0258 8.83146C18.1902 8.72158 18.3184 8.5654 18.3941 8.38267C18.4698 8.19995 18.4896 7.99888 18.451 7.8049C18.4124 7.61092 18.3172 7.43274 18.1773 7.29288C18.0375 7.15303 17.8593 7.05779 17.6653 7.0192C17.4713 6.98062 17.2703 7.00042 17.0875 7.07611C16.9048 7.1518 16.7486 7.27997 16.6387 7.44442C16.5289 7.60887 16.4702 7.80221 16.4702 7.99999C16.4702 8.26521 16.5756 8.51956 16.7631 8.7071C16.9506 8.89463 17.205 8.99999 17.4702 8.99999ZM14.4702 8.99999C14.668 8.99999 14.8613 8.94134 15.0258 8.83146C15.1902 8.72158 15.3184 8.5654 15.3941 8.38267C15.4698 8.19995 15.4896 7.99888 15.451 7.8049C15.4124 7.61092 15.3172 7.43274 15.1773 7.29288C15.0375 7.15303 14.8593 7.05779 14.6653 7.0192C14.4713 6.98062 14.2703 7.00042 14.0875 7.07611C13.9048 7.1518 13.7486 7.27997 13.6387 7.44442C13.5289 7.60887 13.4702 7.80221 13.4702 7.99999C13.4702 8.13131 13.4961 8.26135 13.5463 8.38267C13.5966 8.504 13.6702 8.61424 13.7631 8.7071C13.856 8.79996 13.9662 8.87361 14.0875 8.92387C14.2088 8.97412 14.3389 8.99999 14.4702 8.99999ZM18.9102 13C18.6902 13 18.4602 12.93 18.2402 12.88C17.7947 12.7818 17.3569 12.6515 16.9302 12.49C16.4663 12.3212 15.9564 12.33 15.4985 12.5146C15.0407 12.6992 14.6673 13.0466 14.4502 13.49L14.2302 13.94C13.2547 13.3958 12.3567 12.7231 11.5602 11.94C10.7809 11.1439 10.1086 10.2497 9.56021 9.27999L10.0002 8.99999C10.4436 8.78291 10.791 8.40952 10.9756 7.95168C11.1602 7.49384 11.169 6.9839 11.0002 6.51999C10.8414 6.09241 10.7111 5.65479 10.6102 5.20999C10.5602 4.97999 10.5202 4.75999 10.4902 4.52999C10.3688 3.82561 9.99983 3.18773 9.44983 2.73123C8.89983 2.27473 8.2049 2.0296 7.49021 2.03999H4.49021C4.06745 2.03944 3.64936 2.12824 3.26333 2.30057C2.87729 2.47291 2.53204 2.72489 2.25021 3.03999C1.9639 3.36249 1.75048 3.74292 1.6245 4.15536C1.49853 4.5678 1.46296 5.00256 1.52021 5.42999C2.04692 9.61703 3.95259 13.5096 6.93661 16.4936C9.92063 19.4776 13.8132 21.3833 18.0002 21.91C18.13 21.9199 18.2604 21.9199 18.3902 21.91C19.1859 21.91 19.9489 21.5939 20.5115 21.0313C21.0741 20.4687 21.3902 19.7056 21.3902 18.91V15.91C21.3798 15.2122 21.1265 14.5399 20.6738 14.0087C20.2212 13.4776 19.5975 13.1209 18.9102 13ZM19.4002 19C19.4018 19.1449 19.372 19.2885 19.3126 19.4208C19.2532 19.553 19.1658 19.6708 19.0564 19.7659C18.9471 19.861 18.8183 19.9312 18.6791 19.9717C18.5399 20.0121 18.3935 20.0217 18.2502 20C14.5164 19.5128 11.0473 17.8081 8.38021 15.15C5.71521 12.4648 4.01345 8.97343 3.54021 5.21999C3.51848 5.07332 3.52964 4.92366 3.57288 4.78184C3.61612 4.64002 3.69035 4.50959 3.79021 4.39999C3.8828 4.29458 3.99654 4.20983 4.12403 4.15125C4.25152 4.09267 4.38991 4.06158 4.53021 4.05999H7.53021C7.76275 4.05482 7.98983 4.13087 8.17235 4.27506C8.35487 4.41925 8.48142 4.62256 8.53021 4.84999C8.57021 5.12332 8.62021 5.39332 8.68021 5.65999C8.79573 6.18713 8.94947 6.70517 9.14021 7.20999L7.74021 7.85999C7.6205 7.91491 7.51283 7.99294 7.42337 8.08959C7.3339 8.18623 7.26441 8.2996 7.21888 8.42318C7.17335 8.54677 7.15268 8.67812 7.15806 8.80971C7.16343 8.9413 7.19475 9.07054 7.25021 9.18999C8.68941 12.2727 11.1675 14.7508 14.2502 16.19C14.4937 16.29 14.7667 16.29 15.0102 16.19C15.2584 16.0976 15.4597 15.9106 15.5702 15.67L16.2002 14.27C16.7172 14.4549 17.2448 14.6085 17.7802 14.73C18.0402 14.79 18.3202 14.84 18.5902 14.88C18.8158 14.9308 19.0168 15.0582 19.159 15.2405C19.3012 15.4229 19.3759 15.6488 19.3702 15.88L19.4002 19Z" fill="black"/>
</svg>
