<svg width="24" height="24" viewBox="0 0 24 24" fill="none" xmlns="http://www.w3.org/2000/svg">
<path d="M18.4198 7.22002C17.8088 5.81602 16.7543 4.65109 15.4178 3.90374C14.0814 3.15639 12.5368 2.86785 11.0207 3.08233C9.50464 3.2968 8.10069 4.00247 7.02402 5.09119C5.94735 6.17991 5.25735 7.59163 5.05977 9.11002C4.22198 9.31407 3.47257 9.78339 2.92321 10.448C2.37386 11.1126 2.05399 11.937 2.01126 12.7982C1.96854 13.6594 2.20526 14.5114 2.68613 15.2271C3.16701 15.9429 3.86629 16.484 4.67977 16.77C4.78348 16.802 4.89125 16.8188 4.99977 16.82C5.26498 16.8625 5.53619 16.7978 5.75374 16.6403C5.97128 16.4827 6.11733 16.2452 6.15977 15.98C6.2022 15.7148 6.13754 15.4436 5.98001 15.226C5.82248 15.0085 5.58498 14.8625 5.31977 14.82C4.94268 14.6839 4.6152 14.4376 4.37982 14.1131C4.14444 13.7885 4.01203 13.4007 3.99977 13C3.99977 12.4696 4.21048 11.9609 4.58555 11.5858C4.96063 11.2107 5.46933 11 5.99977 11C6.26498 11 6.51934 10.8947 6.70687 10.7071C6.89441 10.5196 6.99977 10.2652 6.99977 10C7.00232 8.81729 7.42405 7.67377 8.19004 6.7726C8.95602 5.87143 10.0167 5.27097 11.1835 5.07789C12.3504 4.88481 13.5479 5.11162 14.5633 5.71803C15.5788 6.32443 16.3464 7.27116 16.7298 8.39002C16.7869 8.56186 16.8897 8.71495 17.0271 8.83295C17.1644 8.95095 17.3313 9.02943 17.5098 9.06002C18.1111 9.16886 18.6649 9.45875 19.0969 9.8909C19.529 10.3231 19.8188 10.8769 19.9276 11.4782C20.0363 12.0796 19.9588 12.6998 19.7054 13.2559C19.4521 13.812 19.0349 14.2775 18.5098 14.59C18.279 14.7226 18.1104 14.9415 18.041 15.1984C17.9716 15.4553 18.0072 15.7293 18.1398 15.96C18.2724 16.1908 18.4912 16.3594 18.7481 16.4288C19.0051 16.4981 19.279 16.4626 19.5098 16.33C20.268 15.8899 20.8972 15.2582 21.3342 14.4982C21.7712 13.7382 22.0008 12.8767 21.9998 12C21.9967 10.9241 21.6467 9.87795 21.0018 9.01682C20.3568 8.15569 19.4513 7.52556 18.4198 7.22002ZM14.7898 11.66C14.4107 11.7425 14.0185 11.7432 13.6391 11.6622C13.2598 11.5811 12.902 11.4202 12.5898 11.19C12.4185 11.0649 12.2119 10.9974 11.9998 10.9974C11.7877 10.9974 11.581 11.0649 11.4098 11.19C11.0978 11.4207 10.7401 11.5821 10.3606 11.6631C9.98118 11.7442 9.58878 11.7431 9.20977 11.66C9.06371 11.6285 8.91243 11.6301 8.76707 11.6647C8.6217 11.6993 8.48594 11.766 8.36977 11.86C8.25505 11.9531 8.16238 12.0704 8.0984 12.2035C8.03443 12.3367 8.00074 12.4823 7.99977 12.63V16C7.99899 16.7171 8.16479 17.4246 8.48409 18.0667C8.8034 18.7088 9.26749 19.2679 9.83977 19.7L11.4098 20.85C11.581 20.9752 11.7877 21.0426 11.9998 21.0426C12.2119 21.0426 12.4185 20.9752 12.5898 20.85L14.1598 19.69C14.7324 19.2605 15.1969 18.7033 15.5164 18.0627C15.8358 17.4221 16.0013 16.7158 15.9998 16V12.63C15.9988 12.4823 15.9651 12.3367 15.9011 12.2035C15.8372 12.0704 15.7445 11.9531 15.6298 11.86C15.5136 11.766 15.3778 11.6993 15.2325 11.6647C15.0871 11.6301 14.9358 11.6285 14.7898 11.66ZM13.9998 16C13.991 16.3865 13.8967 16.7663 13.7238 17.1121C13.551 17.4578 13.3037 17.7611 12.9998 18L11.9998 18.72L10.9998 18C10.6959 17.7611 10.4486 17.4578 10.2757 17.1121C10.1028 16.7663 10.0086 16.3865 9.99977 16V13.72C10.6992 13.6886 11.3826 13.5006 11.9998 13.17C12.6169 13.5006 13.3004 13.6886 13.9998 13.72V16Z" fill="black"/>
</svg>
