<svg width="24" height="24" viewBox="0 0 24 24" fill="none" xmlns="http://www.w3.org/2000/svg">
<path d="M19.0001 14C18.8728 13.9669 18.7401 13.9593 18.6098 13.9776C18.4794 13.996 18.354 14.0398 18.2407 14.1067C18.1273 14.1736 18.0283 14.2622 17.9493 14.3674C17.8702 14.4727 17.8128 14.5925 17.7801 14.72C17.3977 16.2285 16.5236 17.5666 15.2957 18.5228C14.0679 19.479 12.5564 19.9988 11.0001 20H5.41014L6.05014 19.37C6.23639 19.1826 6.34093 18.9292 6.34093 18.665C6.34093 18.4008 6.23639 18.1473 6.05014 17.96C5.17423 17.0876 4.54498 15.9988 4.22639 14.8043C3.9078 13.6098 3.91124 12.3522 4.23634 11.1595C4.56145 9.96674 5.19663 8.88138 6.0773 8.01377C6.95796 7.14616 8.05268 6.52725 9.25014 6.21999C9.37752 6.18716 9.49719 6.12956 9.60231 6.05048C9.70743 5.9714 9.79595 5.87239 9.86281 5.7591C9.92967 5.64582 9.97356 5.52047 9.99197 5.39022C10.0104 5.25997 10.003 5.12737 9.97014 4.99999C9.90384 4.74273 9.73805 4.52234 9.50926 4.38732C9.39597 4.32046 9.27062 4.27657 9.14037 4.25815C9.01012 4.23974 8.87752 4.24716 8.75014 4.27999C7.29714 4.65883 5.96202 5.3952 4.8664 6.42202C3.77078 7.44884 2.94949 8.73346 2.47733 10.1589C2.00518 11.5843 1.89717 13.1052 2.16314 14.583C2.42912 16.0608 3.06063 17.4486 4.00014 18.62L2.29014 20.29C2.15138 20.4306 2.05739 20.6092 2.02001 20.8032C1.98264 20.9972 2.00356 21.1979 2.08014 21.38C2.15516 21.5626 2.28256 21.7189 2.44628 21.8293C2.61 21.9396 2.80271 21.999 3.00014 22H11.0001C12.9964 22.0013 14.9364 21.3388 16.515 20.1169C18.0936 18.8949 19.2211 17.1829 19.7201 15.25C19.7578 15.1206 19.7689 14.985 19.7528 14.8512C19.7367 14.7175 19.6937 14.5883 19.6265 14.4716C19.5592 14.3548 19.4691 14.2529 19.3614 14.1718C19.2538 14.0908 19.1309 14.0323 19.0001 14ZM21.0001 1.99999C20.7349 1.99999 20.4806 2.10534 20.293 2.29288C20.1055 2.48042 20.0001 2.73477 20.0001 2.99999C19.2444 2.43201 18.343 2.08994 17.4007 2.01346C16.4584 1.93698 15.5137 2.12923 14.6762 2.5679C13.8388 3.00657 13.1428 3.67369 12.6691 4.49188C12.1954 5.31006 11.9634 6.24577 12 7.19048C12.0366 8.13518 12.3402 9.05016 12.8757 9.82927C13.4113 10.6084 14.1567 11.2197 15.0256 11.5923C15.8945 11.965 16.8512 12.0836 17.7848 11.9345C18.7183 11.7854 19.5905 11.3747 20.3001 10.75C20.4177 10.671 20.5172 10.568 20.592 10.4476C20.6668 10.3273 20.7152 10.1925 20.7339 10.0521C20.7526 9.91167 20.7413 9.76887 20.7007 9.63316C20.6601 9.49744 20.5912 9.3719 20.4984 9.26484C20.4056 9.15779 20.2911 9.07167 20.1626 9.01219C20.034 8.95271 19.8943 8.92123 19.7526 8.91982C19.611 8.91842 19.4706 8.94713 19.3409 9.00405C19.2112 9.06097 19.095 9.1448 19.0001 9.24999C18.6366 9.5706 18.2007 9.79835 17.7299 9.91372C17.2591 10.0291 16.7674 10.0287 16.2968 9.91249C15.8262 9.7963 15.3907 9.56781 15.0277 9.24657C14.6647 8.92533 14.385 8.52091 14.2124 8.06793C14.0398 7.61495 13.9796 7.1269 14.0369 6.64556C14.0941 6.16422 14.2672 5.70393 14.5412 5.30407C14.8152 4.90422 15.182 4.57672 15.6103 4.3496C16.0385 4.12249 16.5154 4.00253 17.0001 3.99999C17.4212 4.00084 17.8374 4.09032 18.2216 4.26261C18.6058 4.4349 18.9494 4.68614 19.2301 4.99999H18.0001C17.7349 4.99999 17.4806 5.10534 17.293 5.29288C17.1055 5.48042 17.0001 5.73477 17.0001 5.99999C17.0001 6.2652 17.1055 6.51956 17.293 6.70709C17.4806 6.89463 17.7349 6.99999 18.0001 6.99999H21.0001C21.2654 6.99999 21.5197 6.89463 21.7072 6.70709C21.8948 6.51956 22.0001 6.2652 22.0001 5.99999V2.99999C22.0001 2.73477 21.8948 2.48042 21.7072 2.29288C21.5197 2.10534 21.2654 1.99999 21.0001 1.99999Z" fill="black"/>
</svg>
