<svg width="24" height="24" viewBox="0 0 24 24" fill="none" xmlns="http://www.w3.org/2000/svg">
<path d="M21.63 5.11993C21.5138 5.02595 21.3781 4.9592 21.2327 4.92459C21.0873 4.88998 20.9361 4.88839 20.79 4.91993C20.4116 5.00315 20.0199 5.00518 19.6407 4.92589C19.2614 4.8466 18.9033 4.68778 18.59 4.45993C18.4187 4.33478 18.2121 4.26733 18 4.26733C17.7879 4.26733 17.5813 4.33478 17.41 4.45993C17.0967 4.68778 16.7386 4.8466 16.3593 4.92589C15.9801 5.00518 15.5884 5.00315 15.21 4.91993C15.064 4.88857 14.9128 4.89031 14.7676 4.92502C14.6223 4.95974 14.4867 5.02654 14.3706 5.12054C14.2546 5.21453 14.161 5.33332 14.0969 5.46819C14.0328 5.60307 13.9997 5.75059 14 5.89993V9.20993C13.9984 9.92716 14.1639 10.6349 14.4833 11.2771C14.8026 11.9193 15.2671 12.4784 15.84 12.9099L17.41 14.0699C17.5813 14.1951 17.7879 14.2625 18 14.2625C18.2121 14.2625 18.4187 14.1951 18.59 14.0699L20.16 12.9099C20.7329 12.4784 21.1974 11.9193 21.5167 11.2771C21.8361 10.6349 22.0016 9.92716 22 9.20993V5.89993C22.0005 5.75054 21.9675 5.60293 21.9035 5.46795C21.8395 5.33297 21.746 5.21405 21.63 5.11993ZM20 9.20993C20.0055 9.61177 19.9181 10.0095 19.7446 10.372C19.5712 10.7345 19.3163 11.0521 19 11.2999L18 11.9999L17 11.2799C16.6837 11.0321 16.4288 10.7145 16.2554 10.352C16.0819 9.98945 15.9945 9.59177 16 9.18993V6.99993C16.6987 6.97193 17.3822 6.78739 18 6.45993C18.6178 6.78739 19.3013 6.97193 20 6.99993V9.20993ZM21 15.2099C20.7348 15.2099 20.4804 15.3153 20.2929 15.5028C20.1054 15.6904 20 15.9447 20 16.2099V19.2099C20 19.4751 19.8946 19.7295 19.7071 19.917C19.5196 20.1046 19.2652 20.2099 19 20.2099H5C4.73478 20.2099 4.48043 20.1046 4.29289 19.917C4.10536 19.7295 4 19.4751 4 19.2099V9.66993L9.88 15.5499C10.4396 16.1103 11.1981 16.4266 11.99 16.4299C12.3903 16.4309 12.7867 16.3518 13.156 16.1973C13.5252 16.0427 13.8598 15.8158 14.14 15.5299L13.44 14.8199L12.7 14.1399C12.5131 14.3232 12.2618 14.4258 12 14.4258C11.7382 14.4258 11.4869 14.3232 11.3 14.1399L5.41 8.25993H11C11.2652 8.25993 11.5196 8.15457 11.7071 7.96704C11.8946 7.7795 12 7.52515 12 7.25993C12 6.99471 11.8946 6.74036 11.7071 6.55282C11.5196 6.36529 11.2652 6.25993 11 6.25993H5C4.20435 6.25993 3.44129 6.576 2.87868 7.13861C2.31607 7.70122 2 8.46428 2 9.25993V19.2599C2 20.0556 2.31607 20.8186 2.87868 21.3813C3.44129 21.9439 4.20435 22.2599 5 22.2599H19C19.7956 22.2599 20.5587 21.9439 21.1213 21.3813C21.6839 20.8186 22 20.0556 22 19.2599V16.2599C22 15.9947 21.8946 15.7404 21.7071 15.5528C21.5196 15.3653 21.2652 15.2599 21 15.2599V15.2099Z" fill="black"/>
</svg>
