<svg width="24" height="24" viewBox="0 0 24 24" fill="none" xmlns="http://www.w3.org/2000/svg">
<path d="M6.62 13.0799C6.4959 13.1249 6.3832 13.1965 6.28989 13.2898C6.19657 13.3832 6.12491 13.4959 6.08 13.6199C6.00726 13.8017 5.98945 14.0008 6.02879 14.1925C6.06812 14.3843 6.16287 14.5603 6.30128 14.6987C6.43969 14.8371 6.61569 14.9318 6.80744 14.9712C6.99919 15.0105 7.19827 14.9927 7.38 14.9199C7.50118 14.8693 7.6128 14.7983 7.71 14.7099C7.79833 14.6127 7.86936 14.5011 7.92 14.3799C7.97598 14.2613 8.00338 14.1311 8 13.9999C7.99632 13.7352 7.89273 13.4816 7.71 13.2899C7.56938 13.1512 7.3908 13.0572 7.19681 13.0198C7.00282 12.9824 6.80211 13.0034 6.62 13.0799ZM19.76 9.07995L18.4 5.04995C18.1926 4.46318 17.8077 3.95545 17.2989 3.59711C16.7901 3.23877 16.1824 3.04755 15.56 3.04995H8.44C7.81764 3.04755 7.20995 3.23877 6.7011 3.59711C6.19225 3.95545 5.80745 4.46318 5.6 5.04995L4.24 9.10995C3.60033 9.27746 3.03392 9.65161 2.62883 10.1742C2.22374 10.6969 2.00268 11.3387 2 11.9999V15.9999C2.00174 16.6189 2.19488 17.2221 2.55294 17.727C2.911 18.2319 3.41645 18.6136 4 18.8199V19.9999C4 20.2652 4.10536 20.5195 4.29289 20.7071C4.48043 20.8946 4.73478 20.9999 5 20.9999C5.26522 20.9999 5.51957 20.8946 5.70711 20.7071C5.89464 20.5195 6 20.2652 6 19.9999V18.9999H18V19.9999C18 20.2652 18.1054 20.5195 18.2929 20.7071C18.4804 20.8946 18.7348 20.9999 19 20.9999C19.2652 20.9999 19.5196 20.8946 19.7071 20.7071C19.8946 20.5195 20 20.2652 20 19.9999V18.8199C20.5835 18.6136 21.089 18.2319 21.4471 17.727C21.8051 17.2221 21.9983 16.6189 22 15.9999V11.9999C21.9973 11.3387 21.7763 10.6969 21.3712 10.1742C20.9661 9.65161 20.3997 9.27746 19.76 9.10995V9.07995ZM7.49 5.67995C7.55709 5.48133 7.6849 5.30881 7.85537 5.18679C8.02584 5.06477 8.23036 4.99941 8.44 4.99995H15.56C15.7781 4.98857 15.9939 5.04888 16.1744 5.17166C16.355 5.29445 16.4904 5.47297 16.56 5.67995L17.61 8.99995H6.39L7.49 5.67995ZM20 15.9999C20 16.2652 19.8946 16.5195 19.7071 16.7071C19.5196 16.8946 19.2652 16.9999 19 16.9999H5C4.73478 16.9999 4.48043 16.8946 4.29289 16.7071C4.10536 16.5195 4 16.2652 4 15.9999V11.9999C4 11.7347 4.10536 11.4804 4.29289 11.2928C4.48043 11.1053 4.73478 10.9999 5 10.9999H19C19.2652 10.9999 19.5196 11.1053 19.7071 11.2928C19.8946 11.4804 20 11.7347 20 11.9999V15.9999ZM16.62 13.0799C16.4959 13.1249 16.3832 13.1965 16.2899 13.2898C16.1966 13.3832 16.1249 13.4959 16.08 13.6199C16.0073 13.8017 15.9895 14.0008 16.0288 14.1925C16.0681 14.3843 16.1629 14.5603 16.3013 14.6987C16.4397 14.8371 16.6157 14.9318 16.8074 14.9712C16.9992 15.0105 17.1983 14.9927 17.38 14.9199C17.5041 14.875 17.6168 14.8034 17.7101 14.7101C17.8034 14.6167 17.8751 14.504 17.92 14.3799C17.976 14.2613 18.0034 14.1311 18 13.9999C17.9963 13.7352 17.8927 13.4816 17.71 13.2899C17.5694 13.1512 17.3908 13.0572 17.1968 13.0198C17.0028 12.9824 16.8021 13.0034 16.62 13.0799ZM13 12.9999H11C10.7348 12.9999 10.4804 13.1053 10.2929 13.2928C10.1054 13.4804 10 13.7347 10 13.9999C10 14.2652 10.1054 14.5195 10.2929 14.7071C10.4804 14.8946 10.7348 14.9999 11 14.9999H13C13.2652 14.9999 13.5196 14.8946 13.7071 14.7071C13.8946 14.5195 14 14.2652 14 13.9999C14 13.7347 13.8946 13.4804 13.7071 13.2928C13.5196 13.1053 13.2652 12.9999 13 12.9999Z" fill="black"/>
</svg>
