<svg width="24" height="24" viewBox="0 0 24 24" fill="none" xmlns="http://www.w3.org/2000/svg">
<path d="M13.9998 15.5H10.9998V14.5C10.994 14.2752 11.0642 14.0551 11.1989 13.8751C11.3336 13.6951 11.5251 13.5658 11.7424 13.508C11.9597 13.4502 12.1901 13.4673 12.3965 13.5566C12.6029 13.6459 12.7731 13.8021 12.8798 14C13.0167 14.2264 13.2378 14.3893 13.4945 14.453C13.7513 14.5167 14.0229 14.4761 14.2498 14.34C14.4681 14.2034 14.6253 13.9879 14.6886 13.7382C14.7519 13.4886 14.7165 13.2242 14.5898 13C14.461 12.7854 14.3065 12.5873 14.1298 12.41C13.8528 12.1247 13.5218 11.8974 13.1561 11.7412C12.7905 11.5849 12.3974 11.503 11.9998 11.5C11.2041 11.5 10.4411 11.8161 9.87845 12.3787C9.31584 12.9413 8.99977 13.7044 8.99977 14.5V15.68C8.3384 15.92 7.78241 16.3848 7.429 16.9931C7.07558 17.6015 6.94723 18.3147 7.06637 19.0081C7.18551 19.7015 7.54457 20.331 8.08077 20.7865C8.61698 21.242 9.29623 21.4946 9.99977 21.5H13.9998C14.7954 21.5 15.5585 21.1839 16.1211 20.6213C16.6837 20.0587 16.9998 19.2957 16.9998 18.5C16.9998 17.7044 16.6837 16.9413 16.1211 16.3787C15.5585 15.8161 14.7954 15.5 13.9998 15.5ZM13.9998 19.5H9.99977C9.73455 19.5 9.4802 19.3947 9.29266 19.2071C9.10512 19.0196 8.99977 18.7652 8.99977 18.5C8.99977 18.2348 9.10512 17.9804 9.29266 17.7929C9.4802 17.6054 9.73455 17.5 9.99977 17.5H13.9998C14.265 17.5 14.5193 17.6054 14.7069 17.7929C14.8944 17.9804 14.9998 18.2348 14.9998 18.5C14.9998 18.7652 14.8944 19.0196 14.7069 19.2071C14.5193 19.3947 14.265 19.5 13.9998 19.5ZM18.4198 6.72002C17.8088 5.31602 16.7543 4.15109 15.4178 3.40374C14.0814 2.65639 12.5368 2.36785 11.0207 2.58233C9.50464 2.7968 8.10069 3.50247 7.02402 4.59119C5.94735 5.67991 5.25735 7.09163 5.05977 8.61002C4.22198 8.81407 3.47257 9.28339 2.92321 9.94801C2.37386 10.6126 2.05399 11.437 2.01126 12.2982C1.96854 13.1594 2.20526 14.0114 2.68613 14.7271C3.16701 15.4429 3.86629 15.984 4.67977 16.27C4.78348 16.302 4.89125 16.3188 4.99977 16.32C5.26498 16.3625 5.53619 16.2978 5.75374 16.1403C5.97128 15.9827 6.11733 15.7452 6.15977 15.48C6.2022 15.2148 6.13754 14.9436 5.98001 14.726C5.82248 14.5085 5.58498 14.3625 5.31977 14.32C4.94268 14.1839 4.6152 13.9376 4.37982 13.6131C4.14444 13.2885 4.01203 12.9007 3.99977 12.5C3.99977 11.9696 4.21048 11.4609 4.58555 11.0858C4.96063 10.7107 5.46933 10.5 5.99977 10.5C6.26498 10.5 6.51934 10.3947 6.70687 10.2071C6.89441 10.0196 6.99977 9.76523 6.99977 9.50002C7.00232 8.31729 7.42405 7.17377 8.19004 6.2726C8.95602 5.37143 10.0167 4.77097 11.1835 4.57789C12.3504 4.38481 13.5479 4.61162 14.5633 5.21803C15.5788 5.82443 16.3464 6.77116 16.7298 7.89002C16.7869 8.06186 16.8897 8.21495 17.0271 8.33295C17.1644 8.45095 17.3313 8.52943 17.5098 8.56002C18.1111 8.66886 18.6649 8.95875 19.0969 9.3909C19.529 9.82305 19.8188 10.3769 19.9276 10.9782C20.0363 11.5796 19.9588 12.1998 19.7054 12.7559C19.4521 13.312 19.0349 13.7775 18.5098 14.09C18.279 14.2226 18.1104 14.4415 18.041 14.6984C17.9716 14.9553 18.0072 15.2293 18.1398 15.46C18.2724 15.6908 18.4912 15.8594 18.7481 15.9288C19.0051 15.9981 19.279 15.9626 19.5098 15.83C20.268 15.3899 20.8972 14.7582 21.3342 13.9982C21.7712 13.2382 22.0008 12.3767 21.9998 11.5C21.9967 10.4241 21.6467 9.37795 21.0018 8.51682C20.3568 7.65569 19.4513 7.02556 18.4198 6.72002Z" fill="black"/>
</svg>
