<svg width="24" height="24" viewBox="0 0 24 24" fill="none" xmlns="http://www.w3.org/2000/svg">
<path d="M20.4898 7.52C20.4841 7.49363 20.4841 7.46636 20.4898 7.44C20.485 7.41692 20.485 7.39308 20.4898 7.37V7.28L20.4298 7.13C20.4054 7.08907 20.3751 7.05199 20.3398 7.02L20.2498 6.94H20.1998L16.2598 4.45L12.5398 2.15C12.4538 2.08173 12.3553 2.03079 12.2498 2H12.1698C12.0804 1.98508 11.9892 1.98508 11.8998 2H11.7998C11.6837 2.02569 11.5723 2.06956 11.4698 2.13L3.99982 6.78L3.90982 6.85L3.81982 6.93L3.71982 7L3.66982 7.06L3.60982 7.21V7.3V7.36C3.60011 7.42631 3.60011 7.49368 3.60982 7.56V16.29C3.60948 16.4599 3.65246 16.6272 3.7347 16.7759C3.81693 16.9246 3.93571 17.0499 4.07982 17.14L11.5798 21.78L11.7298 21.84H11.8098C11.979 21.8937 12.1606 21.8937 12.3298 21.84H12.4098L12.5598 21.78L19.9998 17.21C20.1439 17.1199 20.2627 16.9946 20.345 16.8459C20.4272 16.6972 20.4702 16.5299 20.4698 16.36V7.63C20.4698 7.63 20.4898 7.56 20.4898 7.52ZM11.9998 4.17L13.7798 5.27L8.18982 8.73L6.39982 7.63L11.9998 4.17ZM10.9998 19.17L5.49982 15.81V9.42L10.9998 12.82V19.17ZM11.9998 11.06L10.0898 9.91L15.6798 6.44L17.5998 7.63L11.9998 11.06ZM18.4998 15.78L12.9998 19.2V12.82L18.4998 9.42V15.78Z" fill="black"/>
</svg>
