<svg width="24" height="24" viewBox="0 0 24 24" fill="none" xmlns="http://www.w3.org/2000/svg">
<path d="M21.7102 20.29L20.7802 19.36L20.6902 19.26L20.6302 19.19L20.1302 18.69L20.0002 18.62L14.8202 13.42L14.7302 13.34L11.5302 10.13L11.4302 10L3.71019 2.29C3.61695 2.19676 3.50626 2.1228 3.38443 2.07234C3.26261 2.02188 3.13204 1.99591 3.00019 1.99591C2.86833 1.99591 2.73776 2.02188 2.61594 2.07234C2.49411 2.1228 2.38342 2.19676 2.29019 2.29C2.10188 2.47831 1.99609 2.7337 1.99609 3C1.99609 3.2663 2.10188 3.5217 2.29019 3.71L3.29019 4.71C3.09879 5.11308 2.99971 5.55379 3.00019 6V18C3.00019 18.7957 3.31626 19.5587 3.87887 20.1213C4.44147 20.6839 5.20454 21 6.00019 21H18.0002C18.4416 20.9947 18.876 20.8886 19.2702 20.69C19.2702 20.69 19.2702 20.69 19.3202 20.69L20.2702 21.69C20.3631 21.7837 20.4737 21.8581 20.5956 21.9089C20.7175 21.9597 20.8482 21.9858 20.9802 21.9858C21.1122 21.9858 21.2429 21.9597 21.3648 21.9089C21.4866 21.8581 21.5972 21.7837 21.6902 21.69C21.8761 21.5057 21.9823 21.2558 21.9861 20.9941C21.9898 20.7323 21.8908 20.4795 21.7102 20.29ZM5.00019 6.41L8.24019 9.65C7.9947 9.77657 7.76899 9.93827 7.57019 10.13L5.00019 12.71V6.41ZM6.00019 19C5.73497 19 5.48062 18.8946 5.29308 18.7071C5.10554 18.5196 5.00019 18.2652 5.00019 18V15.54L9.00019 11.54C9.14988 11.4015 9.34628 11.3246 9.55019 11.3246C9.75409 11.3246 9.95049 11.4015 10.1002 11.54L17.5902 19H6.00019ZM9.66019 5H18.0002C18.2654 5 18.5198 5.10536 18.7073 5.2929C18.8948 5.48043 19.0002 5.73479 19.0002 6V11.94C18.9069 11.8468 18.7963 11.7728 18.6744 11.7223C18.5526 11.6719 18.422 11.6459 18.2902 11.6459C18.1583 11.6459 18.0278 11.6719 17.9059 11.7223C17.7841 11.7728 17.6734 11.8468 17.5802 11.94C17.4869 12.0332 17.413 12.1439 17.3625 12.2658C17.3121 12.3876 17.2861 12.5181 17.2861 12.65C17.2861 12.7819 17.3121 12.9124 17.3625 13.0343C17.413 13.1561 17.4869 13.2668 17.5802 13.36L19.3202 15.1C19.4131 15.1937 19.5238 15.2681 19.6456 15.3189C19.7675 15.3697 19.8982 15.3958 20.0302 15.3958C20.1622 15.3958 20.2929 15.3697 20.4148 15.3189C20.5366 15.2681 20.6472 15.1937 20.7402 15.1C20.8341 15.0054 20.9081 14.8929 20.9579 14.7693C21.0077 14.6456 21.0323 14.5133 21.0302 14.38V6C21.0302 5.20435 20.7141 4.44129 20.1515 3.87868C19.5889 3.31607 18.8258 3 18.0302 3H9.66019C9.39497 3 9.14061 3.10536 8.95308 3.2929C8.76554 3.48043 8.66019 3.73479 8.66019 4C8.66019 4.26522 8.76554 4.51957 8.95308 4.70711C9.14061 4.89465 9.39497 5 9.66019 5Z" fill="black"/>
</svg>
