<svg width="24" height="24" viewBox="0 0 24 24" fill="none" xmlns="http://www.w3.org/2000/svg">
<g clip-path="url(#clip0_12_20507)">
<path d="M22.7102 21.2899L21.7102 20.2899L15.7102 14.2899L9.71019 8.28994L3.71019 2.28994L2.71019 1.28994C2.52188 1.10164 2.26649 0.99585 2.00019 0.99585C1.73388 0.99585 1.47849 1.10164 1.29019 1.28994C1.10188 1.47824 0.996094 1.73364 0.996094 1.99994C0.996094 2.26624 1.10188 2.52164 1.29019 2.70994L2.00019 3.40994V20.9999C2.00019 21.2652 2.10554 21.5195 2.29308 21.707C2.48061 21.8946 2.73497 21.9999 3.00019 21.9999H20.5902L21.2902 22.7099C21.3831 22.8037 21.4937 22.8781 21.6156 22.9288C21.7375 22.9796 21.8682 23.0057 22.0002 23.0057C22.1322 23.0057 22.2629 22.9796 22.3848 22.9288C22.5066 22.8781 22.6172 22.8037 22.7102 22.7099C22.8039 22.617 22.8783 22.5064 22.9291 22.3845C22.9798 22.2627 23.006 22.132 23.006 21.9999C23.006 21.8679 22.9798 21.7372 22.9291 21.6154C22.8783 21.4935 22.8039 21.3829 22.7102 21.2899ZM4.00019 5.40994L6.59019 7.99994H4.00019V5.40994ZM8.00019 19.9999H4.00019V15.9999H8.00019V19.9999ZM8.00019 13.9999H4.00019V9.99994H8.00019V13.9999ZM10.0002 11.4099L12.5902 13.9999H10.0002V11.4099ZM14.0002 19.9999H10.0002V15.9999H14.0002V19.9999ZM16.0002 19.9999V17.4099L18.5902 19.9999H16.0002ZM8.67019 3.99994H14.0002V8.99994C14.0002 9.26516 14.1055 9.51951 14.2931 9.70705C14.4806 9.89458 14.735 9.99994 15.0002 9.99994H20.0002V15.3299C20.0002 15.5952 20.1055 15.8495 20.2931 16.037C20.4806 16.2246 20.735 16.3299 21.0002 16.3299C21.2654 16.3299 21.5198 16.2246 21.7073 16.037C21.8948 15.8495 22.0002 15.5952 22.0002 15.3299V2.99994C22.0002 2.73472 21.8948 2.48037 21.7073 2.29283C21.5198 2.1053 21.2654 1.99994 21.0002 1.99994H8.67019C8.40497 1.99994 8.15061 2.1053 7.96308 2.29283C7.77554 2.48037 7.67019 2.73472 7.67019 2.99994C7.67019 3.26516 7.77554 3.51951 7.96308 3.70705C8.15061 3.89458 8.40497 3.99994 8.67019 3.99994ZM16.0002 3.99994H20.0002V7.99994H16.0002V3.99994Z" fill="black"/>
</g>
<defs>
<clipPath id="clip0_12_20507">
<rect width="24" height="24" fill="white"/>
</clipPath>
</defs>
</svg>
