<svg width="24" height="24" viewBox="0 0 24 24" fill="none" xmlns="http://www.w3.org/2000/svg">
<path d="M10.2471 2.40278C10.1557 2.2663 10.0322 2.15444 9.88729 2.07711C9.74242 1.99978 9.58072 1.95936 9.4165 1.95942H1.9917C1.86037 1.95939 1.73032 1.98523 1.60898 2.03547C1.48763 2.08571 1.37738 2.15937 1.28452 2.25224C1.19165 2.3451 1.11799 2.45535 1.06775 2.5767C1.01751 2.69804 0.991665 2.82809 0.991699 2.95942V21.0414C0.99173 21.2731 1.07216 21.4975 1.21925 21.6764C1.36635 21.8554 1.57099 21.9777 1.79824 22.0225C2.02549 22.0674 2.26126 22.0319 2.46529 21.9223C2.66933 21.8126 2.82898 21.6356 2.91699 21.4213L10.3418 3.33931C10.4041 3.18741 10.428 3.02253 10.4115 2.85921C10.3949 2.69588 10.3385 2.53913 10.2471 2.40278ZM2.9917 15.9731V3.95942H7.9248L2.9917 15.9731ZM21.9917 1.95942H14.4741C14.3092 1.95948 14.1469 2.00032 14.0017 2.07828C13.8564 2.15624 13.7326 2.26892 13.6414 2.40628C13.5502 2.54363 13.4944 2.70141 13.4789 2.86556C13.4635 3.02971 13.4888 3.19514 13.5527 3.34712L21.0703 21.1967C21.1465 21.3781 21.2745 21.533 21.4383 21.6419C21.6021 21.7509 21.7945 21.809 21.9912 21.809C22.0578 21.8088 22.1241 21.8023 22.1894 21.7895C22.4157 21.7437 22.6192 21.621 22.7654 21.4423C22.9116 21.2636 22.9916 21.0399 22.9917 20.809V2.95942C22.9917 2.82809 22.9659 2.69804 22.9156 2.5767C22.8654 2.45535 22.7917 2.3451 22.6989 2.25224C22.606 2.15937 22.4958 2.08571 22.3744 2.03547C22.2531 1.98523 22.123 1.95939 21.9917 1.95942ZM20.9917 15.8579L15.9805 3.95942H20.9917V15.8579ZM12.9492 9.52C12.878 9.33151 12.7515 9.16894 12.5863 9.05358C12.4211 8.93822 12.2249 8.87546 12.0234 8.87352H12.0137C11.8139 8.8735 11.6188 8.9333 11.4533 9.04522C11.2879 9.15714 11.1598 9.31604 11.0854 9.50145L8.02637 17.1323C7.96554 17.284 7.94285 17.4484 7.96027 17.6109C7.97769 17.7735 8.0347 17.9293 8.12631 18.0647C8.21791 18.2001 8.34132 18.311 8.48572 18.3876C8.63012 18.4643 8.79111 18.5043 8.95459 18.5043H11.209L12.7315 21.4946C12.815 21.6591 12.9425 21.7974 13.0998 21.8939C13.2571 21.9904 13.438 22.0415 13.6226 22.0415H16.2354C16.3972 22.0414 16.5565 22.0022 16.6998 21.927C16.8431 21.8519 16.966 21.7431 17.058 21.61C17.15 21.4769 17.2083 21.3235 17.228 21.1629C17.2477 21.0023 17.2281 20.8393 17.1709 20.6879L12.9492 9.52ZM14.2358 20.0415L12.7134 17.0512C12.6299 16.8867 12.5024 16.7485 12.3451 16.6519C12.1878 16.5554 12.0068 16.5043 11.8223 16.5044H10.4326L11.9863 12.6294L14.7881 20.0415H14.2358Z" fill="black"/>
</svg>
