<svg width="24" height="24" viewBox="0 0 24 24" fill="none" xmlns="http://www.w3.org/2000/svg">
<path d="M14.5001 15.92H13.7301L14.1201 15.25C14.2527 15.0193 14.2883 14.7453 14.2189 14.4884C14.1495 14.2314 13.9809 14.0126 13.7501 13.88C13.5194 13.7474 13.2454 13.7119 12.9885 13.7813C12.7316 13.8506 12.5127 14.0193 12.3801 14.25L12.0001 14.92L11.6201 14.25C11.4875 14.0193 11.2687 13.8506 11.0118 13.7813C10.7548 13.7119 10.4809 13.7474 10.2501 13.88C10.0194 14.0126 9.85078 14.2314 9.78139 14.4884C9.712 14.7453 9.74752 15.0193 9.88013 15.25L10.2701 15.92H9.50013C9.23491 15.92 8.98056 16.0253 8.79302 16.2129C8.60548 16.4004 8.50013 16.6548 8.50013 16.92C8.50013 17.1852 8.60548 17.4396 8.79302 17.6271C8.98056 17.8146 9.23491 17.92 9.50013 17.92H10.2701L9.88013 18.58C9.74752 18.8107 9.712 19.0847 9.78139 19.3416C9.85078 19.5985 10.0194 19.8174 10.2501 19.95C10.4809 20.0826 10.7548 20.1181 11.0118 20.0487C11.2687 19.9793 11.4875 19.8107 11.6201 19.58L12.0001 18.92L12.3801 19.58C12.5127 19.8107 12.7316 19.9793 12.9885 20.0487C13.2454 20.1181 13.5194 20.0826 13.7501 19.95C13.9809 19.8174 14.1495 19.5985 14.2189 19.3416C14.2883 19.0847 14.2527 18.8107 14.1201 18.58L13.7301 17.92H14.5001C14.7653 17.92 15.0197 17.8146 15.2072 17.6271C15.3948 17.4396 15.5001 17.1852 15.5001 16.92C15.5001 16.6548 15.3948 16.4004 15.2072 16.2129C15.0197 16.0253 14.7653 15.92 14.5001 15.92ZM18.4201 8.12999C17.8105 6.72637 16.7577 5.5612 15.4229 4.81282C14.0881 4.06445 12.5448 3.7741 11.0293 3.98623C9.51373 4.19836 8.10948 4.90127 7.03143 5.98737C5.95339 7.07348 5.26096 8.48293 5.06013 9.99999C4.18252 10.2121 3.4025 10.715 2.84693 11.4267C2.29135 12.1384 1.99291 13.0171 2.00013 13.92C2.00371 14.8638 2.34093 15.776 2.95215 16.4952C3.56337 17.2144 4.40922 17.6943 5.34013 17.85H5.50013C5.76534 17.8712 6.02813 17.7862 6.23067 17.6137C6.43321 17.4411 6.55891 17.1952 6.58013 16.93C6.60135 16.6648 6.51634 16.402 6.3438 16.1995C6.17127 15.9969 5.92534 15.8712 5.66013 15.85C5.19054 15.769 4.76529 15.5231 4.46095 15.1564C4.15662 14.7897 3.9932 14.3265 4.00013 13.85C4.00013 13.3196 4.21084 12.8108 4.58591 12.4358C4.96099 12.0607 5.46969 11.85 6.00013 11.85C6.26534 11.85 6.5197 11.7446 6.70723 11.5571C6.89477 11.3696 7.00013 11.1152 7.00013 10.85C7.00268 9.66727 7.42441 8.52374 8.1904 7.62257C8.95638 6.7214 10.017 6.12094 11.1839 5.92786C12.3507 5.73479 13.5483 5.9616 14.5637 6.568C15.5791 7.1744 16.3467 8.12113 16.7301 9.23999C16.7888 9.40997 16.8922 9.56098 17.0295 9.67713C17.1667 9.79328 17.3328 9.87027 17.5101 9.89999C18.1469 10.0156 18.7291 10.3341 19.17 10.8078C19.6109 11.2815 19.8868 11.885 19.9566 12.5284C20.0263 13.1718 19.8861 13.8205 19.557 14.3776C19.2278 14.9348 18.7273 15.3706 18.1301 15.62C17.9975 15.6601 17.8746 15.7274 17.7693 15.8176C17.6641 15.9078 17.5787 16.0189 17.5186 16.1438C17.4586 16.2687 17.4251 16.4047 17.4204 16.5433C17.4157 16.6818 17.4399 16.8198 17.4914 16.9485C17.5429 17.0772 17.6205 17.1938 17.7195 17.2909C17.8184 17.3879 17.9364 17.4634 18.0661 17.5124C18.1957 17.5615 18.3341 17.583 18.4726 17.5757C18.611 17.5684 18.7464 17.5324 18.8701 17.47C19.8248 17.0778 20.6347 16.3997 21.1887 15.5289C21.7427 14.6581 22.0136 13.6372 21.9643 12.6063C21.915 11.5753 21.5479 10.5849 20.9133 9.77096C20.2788 8.95698 19.4079 8.35932 18.4201 8.05999V8.12999Z" fill="black"/>
</svg>
