<svg width="24" height="24" viewBox="0 0 24 24" fill="none" xmlns="http://www.w3.org/2000/svg">
<path d="M4.90994 13.1C5.00001 13.2442 5.12532 13.3629 5.27404 13.4452C5.42277 13.5274 5.58999 13.5704 5.75994 13.57C5.94491 13.5753 6.12772 13.5292 6.28803 13.4368C6.44834 13.3444 6.57987 13.2093 6.66797 13.0466C6.75607 12.8838 6.79729 12.6999 6.78705 12.5151C6.7768 12.3303 6.71549 12.152 6.60994 12C5.30151 9.92191 4.45885 7.58498 4.13994 5.15004C4.11841 5.0057 4.12874 4.85839 4.1702 4.71846C4.21166 4.57852 4.28325 4.44937 4.37994 4.34004C4.47365 4.23338 4.589 4.14789 4.71832 4.08926C4.84764 4.03064 4.98795 4.00022 5.12994 4.00004H8.12994C8.36389 3.99533 8.59208 4.0728 8.7748 4.21897C8.95751 4.36515 9.08319 4.57077 9.12994 4.80004C9.12994 5.03004 9.20994 5.24004 9.25994 5.47004V5.60004C9.3763 6.12482 9.53344 6.63972 9.72994 7.14004L8.33994 7.80004C8.21983 7.85588 8.11202 7.93502 8.02275 8.03287C7.93349 8.13072 7.86455 8.24533 7.81994 8.37004C7.76905 8.49202 7.74286 8.62288 7.74286 8.75504C7.74286 8.88721 7.76905 9.01807 7.81994 9.14004C7.91994 9.35004 8.01994 9.56004 8.13994 9.78004C8.20527 9.89463 8.29262 9.99516 8.39697 10.0758C8.50132 10.1565 8.62059 10.2158 8.74794 10.2502C8.87528 10.2846 9.00816 10.2934 9.13894 10.2762C9.26972 10.259 9.39581 10.2162 9.50994 10.15C9.67335 10.0564 9.80698 9.91842 9.89544 9.75212C9.9839 9.58582 10.0236 9.39791 10.0099 9.21004L10.5799 9.00004C11.0323 8.79165 11.3907 8.42194 11.5849 7.96326C11.7791 7.50458 11.7952 6.98994 11.6299 6.52004C11.4685 6.09679 11.3381 5.6623 11.2399 5.22004V5.12004C11.2399 4.92004 11.1599 4.72004 11.1299 4.54004C11.02 3.83165 10.6601 3.18603 10.1153 2.7201C9.57045 2.25417 8.87681 1.99874 8.15994 2.00004H5.15994C4.73046 1.99379 4.30466 2.07984 3.91131 2.25236C3.51796 2.42488 3.16624 2.67986 2.87994 3.00004C2.59539 3.32338 2.38381 3.7042 2.25957 4.11661C2.13533 4.52901 2.10135 4.96333 2.15994 5.39004C2.50709 8.12895 3.44542 10.7597 4.90994 13.1ZM19.5199 12.89L18.9199 12.78H18.8399C18.3875 12.6833 17.943 12.5529 17.5099 12.39C17.0473 12.2241 16.5397 12.2343 16.0841 12.4188C15.6286 12.6032 15.2568 12.949 15.0399 13.39L14.8299 13.85C14.1478 13.4555 13.5049 12.9967 12.9099 12.48L21.7099 3.69004C21.8032 3.59681 21.8771 3.48611 21.9276 3.36429C21.9781 3.24247 22.004 3.1119 22.004 2.98004C22.004 2.84818 21.9781 2.71762 21.9276 2.59579C21.8771 2.47397 21.8032 2.36328 21.7099 2.27004C21.6167 2.17681 21.506 2.10284 21.3842 2.05238C21.2624 2.00192 21.1318 1.97595 20.9999 1.97595C20.8681 1.97595 20.7375 2.00192 20.6157 2.05238C20.4939 2.10284 20.3832 2.17681 20.2899 2.27004L2.28994 20.27C2.19621 20.363 2.12182 20.4736 2.07105 20.5955C2.02028 20.7173 1.99414 20.848 1.99414 20.98C1.99414 21.1121 2.02028 21.2428 2.07105 21.3646C2.12182 21.4865 2.19621 21.5971 2.28994 21.69C2.3829 21.7838 2.4935 21.8582 2.61536 21.9089C2.73722 21.9597 2.86793 21.9858 2.99994 21.9858C3.13195 21.9858 3.26266 21.9597 3.38452 21.9089C3.50637 21.8582 3.61698 21.7838 3.70994 21.69L8.29994 17.09C11.1725 19.6713 14.7605 21.3205 18.5899 21.82C18.7231 21.83 18.8568 21.83 18.9899 21.82C19.726 21.8239 20.4379 21.5569 20.9899 21.07C21.3063 20.7871 21.559 20.4402 21.7314 20.0524C21.9038 19.6645 21.9919 19.2445 21.9899 18.82V15.82C21.9846 15.1202 21.7348 14.4443 21.2837 13.9093C20.8327 13.3742 20.2088 13.0137 19.5199 12.89ZM19.9999 18.89C19.9998 19.032 19.9693 19.1723 19.9107 19.3017C19.8521 19.431 19.7666 19.5463 19.6599 19.64C19.5506 19.7367 19.4215 19.8083 19.2815 19.8498C19.1416 19.8912 18.9943 19.9016 18.8499 19.88C15.4528 19.4355 12.2681 17.979 9.70994 15.7L11.4799 13.93C12.4995 14.8188 13.6369 15.5625 14.8599 16.14C14.9819 16.1909 15.1128 16.2171 15.2449 16.2171C15.3771 16.2171 15.508 16.1909 15.6299 16.14C15.7547 16.0954 15.8693 16.0265 15.9671 15.9372C16.065 15.848 16.1441 15.7401 16.1999 15.62L16.8199 14.21C17.3417 14.4036 17.8764 14.5607 18.4199 14.68H18.5299L19.2199 14.81C19.4455 14.8608 19.6465 14.9883 19.7887 15.1706C19.931 15.3529 20.0056 15.5789 19.9999 15.81V18.89Z" fill="black"/>
</svg>
