<svg width="24" height="24" viewBox="0 0 24 24" fill="none" xmlns="http://www.w3.org/2000/svg">
<path d="M19.8899 9.54998C19.8068 9.38507 19.6796 9.24638 19.5225 9.14931C19.3654 9.05223 19.1845 9.00054 18.9999 8.99998H13.9999V2.99998C14.0106 2.78067 13.9488 2.56391 13.8241 2.38318C13.6994 2.20245 13.5187 2.06779 13.3099 1.99998C13.1091 1.93393 12.8925 1.93318 12.6913 1.99786C12.4901 2.06254 12.3145 2.18931 12.1899 2.35998L4.18986 13.36C4.08963 13.5048 4.02944 13.6736 4.01539 13.8492C4.00134 14.0248 4.03393 14.201 4.10986 14.36C4.17978 14.5417 4.30125 14.6991 4.45935 14.8128C4.61745 14.9265 4.80531 14.9915 4.99986 15H9.99986V21C10 21.2109 10.0668 21.4163 10.1908 21.5869C10.3147 21.7575 10.4894 21.8846 10.6899 21.95C10.7903 21.9811 10.8947 21.998 10.9999 22C11.1576 22.0004 11.3133 21.9635 11.4541 21.8922C11.5948 21.8209 11.7168 21.7174 11.8099 21.59L19.8099 10.59C19.9176 10.4408 19.9821 10.2647 19.9962 10.0812C20.0103 9.89774 19.9735 9.71391 19.8899 9.54998ZM11.9999 17.92V14C11.9999 13.7348 11.8945 13.4804 11.707 13.2929C11.5194 13.1053 11.2651 13 10.9999 13H6.99986L11.9999 6.07998V9.99998C11.9999 10.2652 12.1052 10.5196 12.2928 10.7071C12.4803 10.8946 12.7346 11 12.9999 11H16.9999L11.9999 17.92Z" fill="black"/>
</svg>
