<svg width="24" height="24" viewBox="0 0 24 24" fill="none" xmlns="http://www.w3.org/2000/svg">
<path d="M11.2902 17.71C11.3831 17.8037 11.4937 17.8781 11.6156 17.9289C11.7375 17.9797 11.8682 18.0058 12.0002 18.0058C12.1322 18.0058 12.2629 17.9797 12.3848 17.9289C12.5066 17.8781 12.6172 17.8037 12.7102 17.71C12.7985 17.6128 12.8695 17.5012 12.9202 17.38C12.9731 17.2603 13.0004 17.1309 13.0004 17C13.0004 16.8691 12.9731 16.7397 12.9202 16.62C12.8695 16.4988 12.7985 16.3872 12.7102 16.29C12.6172 16.1963 12.5066 16.1219 12.3848 16.0711C12.2629 16.0203 12.1322 15.9942 12.0002 15.9942C11.8682 15.9942 11.7375 16.0203 11.6156 16.0711C11.4937 16.1219 11.3831 16.1963 11.2902 16.29C11.2019 16.3872 11.1308 16.4988 11.0802 16.62C11.0273 16.7397 11 16.8691 11 17C11 17.1309 11.0273 17.2603 11.0802 17.38C11.1308 17.5012 11.2019 17.6128 11.2902 17.71ZM8.66019 4H16.0002C16.2654 4 16.5198 4.10536 16.7073 4.2929C16.8948 4.48043 17.0002 4.73479 17.0002 5V12.34C17.0002 12.6052 17.1055 12.8596 17.2931 13.0471C17.4806 13.2346 17.735 13.34 18.0002 13.34C18.2654 13.34 18.5198 13.2346 18.7073 13.0471C18.8948 12.8596 19.0002 12.6052 19.0002 12.34V5C19.0002 4.20435 18.6841 3.44129 18.1215 2.87868C17.5589 2.31607 16.7958 2 16.0002 2H8.66019C8.39497 2 8.14061 2.10536 7.95308 2.2929C7.76554 2.48043 7.66019 2.73479 7.66019 3C7.66019 3.26522 7.76554 3.51957 7.95308 3.70711C8.14061 3.89465 8.39497 4 8.66019 4ZM21.7102 20.29L3.71019 2.29C3.52188 2.1017 3.26649 1.99591 3.00019 1.99591C2.73388 1.99591 2.47849 2.1017 2.29019 2.29C2.10188 2.47831 1.99609 2.7337 1.99609 3C1.99609 3.2663 2.10188 3.5217 2.29019 3.71L5.00019 6.41V19C5.00019 19.7957 5.31626 20.5587 5.87887 21.1213C6.44147 21.6839 7.20454 22 8.00019 22H16.0002C16.5891 21.9995 17.1648 21.8257 17.6556 21.5003C18.1464 21.1749 18.5305 20.7122 18.7602 20.17L20.2902 21.71C20.3831 21.8037 20.4937 21.8781 20.6156 21.9289C20.7375 21.9797 20.8682 22.0058 21.0002 22.0058C21.1322 22.0058 21.2629 21.9797 21.3848 21.9289C21.5066 21.8781 21.6172 21.8037 21.7102 21.71C21.8039 21.617 21.8783 21.5064 21.9291 21.3846C21.9798 21.2627 22.006 21.132 22.006 21C22.006 20.868 21.9798 20.7373 21.9291 20.6154C21.8783 20.4936 21.8039 20.383 21.7102 20.29ZM17.0002 19C17.0002 19.2652 16.8948 19.5196 16.7073 19.7071C16.5198 19.8946 16.2654 20 16.0002 20H8.00019C7.73497 20 7.48062 19.8946 7.29308 19.7071C7.10554 19.5196 7.00019 19.2652 7.00019 19V8.41L17.0002 18.41V19Z" fill="black"/>
</svg>
