<svg width="24" height="24" viewBox="0 0 24 24" fill="none" xmlns="http://www.w3.org/2000/svg">
<path d="M12.1098 15.39L8.22984 19.27C8.00035 19.5004 7.72763 19.6832 7.42732 19.808C7.12701 19.9327 6.80502 19.9969 6.47984 19.9969C6.15465 19.9969 5.83266 19.9327 5.53236 19.808C5.23205 19.6832 4.95932 19.5004 4.72984 19.27C4.49824 19.0412 4.31436 18.7687 4.18886 18.4683C4.06336 18.1679 3.99874 17.8456 3.99874 17.52C3.99874 17.1945 4.06336 16.8721 4.18886 16.5717C4.31436 16.2713 4.49824 15.9988 4.72984 15.77L8.60984 11.89C8.79814 11.7017 8.90393 11.4463 8.90393 11.18C8.90393 10.9137 8.79814 10.6583 8.60984 10.47C8.42153 10.2817 8.16614 10.1759 7.89984 10.1759C7.63353 10.1759 7.37814 10.2817 7.18984 10.47L3.30984 14.36C2.52819 15.2108 2.10546 16.3307 2.12991 17.4858C2.15436 18.6409 2.62412 19.7418 3.44107 20.5588C4.25802 21.3757 5.359 21.8455 6.51408 21.8699C7.66917 21.8944 8.78904 21.4717 9.63984 20.69L13.5298 16.81C13.7181 16.6217 13.8239 16.3663 13.8239 16.1C13.8239 15.8337 13.7181 15.5783 13.5298 15.39C13.3415 15.2017 13.0861 15.0959 12.8198 15.0959C12.5535 15.0959 12.2981 15.2017 12.1098 15.39ZM8.82984 15.17C8.92328 15.2627 9.03409 15.336 9.15593 15.3858C9.27777 15.4356 9.40823 15.4608 9.53984 15.46C9.67144 15.4608 9.80191 15.4356 9.92374 15.3858C10.0456 15.336 10.1564 15.2627 10.2498 15.17L15.1698 10.25C15.3581 10.0617 15.4639 9.80632 15.4639 9.54002C15.4639 9.27372 15.3581 9.01832 15.1698 8.83002C14.9815 8.64172 14.7261 8.53593 14.4598 8.53593C14.1935 8.53593 13.9381 8.64172 13.7498 8.83002L8.82984 13.75C8.73611 13.843 8.66171 13.9536 8.61095 14.0754C8.56018 14.1973 8.53404 14.328 8.53404 14.46C8.53404 14.592 8.56018 14.7227 8.61095 14.8446C8.66171 14.9665 8.73611 15.0771 8.82984 15.17ZM20.9998 18H19.9998V17C19.9998 16.7348 19.8945 16.4804 19.7069 16.2929C19.5194 16.1054 19.2651 16 18.9998 16C18.7346 16 18.4803 16.1054 18.2927 16.2929C18.1052 16.4804 17.9998 16.7348 17.9998 17V18H16.9998C16.7346 18 16.4803 18.1054 16.2927 18.2929C16.1052 18.4804 15.9998 18.7348 15.9998 19C15.9998 19.2652 16.1052 19.5196 16.2927 19.7071C16.4803 19.8947 16.7346 20 16.9998 20H17.9998V21C17.9998 21.2652 18.1052 21.5196 18.2927 21.7071C18.4803 21.8947 18.7346 22 18.9998 22C19.2651 22 19.5194 21.8947 19.7069 21.7071C19.8945 21.5196 19.9998 21.2652 19.9998 21V20H20.9998C21.2651 20 21.5194 19.8947 21.7069 19.7071C21.8945 19.5196 21.9998 19.2652 21.9998 19C21.9998 18.7348 21.8945 18.4804 21.7069 18.2929C21.5194 18.1054 21.2651 18 20.9998 18ZM16.8098 13.53L20.6898 9.64002C21.4715 8.78923 21.8942 7.66935 21.8698 6.51427C21.8453 5.35918 21.3756 4.2582 20.5586 3.44125C19.7417 2.6243 18.6407 2.15455 17.4856 2.13009C16.3305 2.10564 15.2106 2.52838 14.3598 3.31002L10.4698 7.19002C10.3766 7.28326 10.3026 7.39395 10.2522 7.51577C10.2017 7.63759 10.1757 7.76816 10.1757 7.90002C10.1757 8.03188 10.2017 8.16245 10.2522 8.28427C10.3026 8.40609 10.3766 8.51678 10.4698 8.61002C10.5631 8.70326 10.6738 8.77722 10.7956 8.82768C10.9174 8.87814 11.048 8.90411 11.1798 8.90411C11.3117 8.90411 11.4423 8.87814 11.5641 8.82768C11.6859 8.77722 11.7966 8.70326 11.8898 8.61002L15.7698 4.73002C15.9993 4.49962 16.272 4.31681 16.5724 4.19207C16.8727 4.06733 17.1947 4.00312 17.5198 4.00312C17.845 4.00312 18.167 4.06733 18.4673 4.19207C18.7676 4.31681 19.0403 4.49962 19.2698 4.73002C19.5014 4.95883 19.6853 5.23133 19.8108 5.53173C19.9363 5.83213 20.0009 6.15446 20.0009 6.48002C20.0009 6.80558 19.9363 7.12791 19.8108 7.42831C19.6853 7.72871 19.5014 8.00121 19.2698 8.23002L15.3898 12.11C15.2961 12.203 15.2217 12.3136 15.1709 12.4354C15.1202 12.5573 15.094 12.688 15.094 12.82C15.094 12.952 15.1202 13.0827 15.1709 13.2046C15.2217 13.3265 15.2961 13.4371 15.3898 13.53C15.4828 13.6237 15.5934 13.6981 15.7153 13.7489C15.8371 13.7997 15.9678 13.8258 16.0998 13.8258C16.2318 13.8258 16.3626 13.7997 16.4844 13.7489C16.6063 13.6981 16.7169 13.6237 16.8098 13.53Z" fill="black"/>
</svg>
