<svg width="24" height="24" viewBox="0 0 24 24" fill="none" xmlns="http://www.w3.org/2000/svg">
<path d="M7.00003 15.14C7.03159 15.2952 7.08906 15.4439 7.17003 15.58C7.48918 16.3595 7.9619 17.0669 8.56004 17.66C9.1616 18.255 9.87088 18.7301 10.65 19.06C11.4507 19.4101 12.3162 19.5873 13.19 19.58C14.067 19.5863 14.9356 19.4092 15.74 19.06C16.5161 18.7299 17.2221 18.2547 17.82 17.66C18.4231 17.0668 18.9023 16.3598 19.23 15.58C19.5556 14.7598 19.7121 13.8822 19.69 13C19.688 12.1216 19.5147 11.2521 19.18 10.44C18.8521 9.66325 18.3728 8.95956 17.77 8.37001C17.1651 7.75766 16.4439 7.27237 15.6488 6.94266C14.8537 6.61294 14.0008 6.44545 13.14 6.45001C12.2519 6.45868 11.3745 6.64571 10.56 7.00001C10.1389 7.18714 9.73698 7.41488 9.36003 7.68001C8.94855 7.95308 8.5665 8.2681 8.22003 8.62001V8.62001V3.23001H17.27C17.49 3.23001 17.61 3.02001 17.61 2.61001C17.61 2.20001 17.48 2.00001 17.26 2.00001H7.47003C7.41341 1.99725 7.35691 2.00754 7.3049 2.03008C7.25288 2.05262 7.20674 2.08681 7.17003 2.13001C7.13151 2.16776 7.10103 2.21291 7.0804 2.26275C7.05978 2.31259 7.04945 2.36608 7.05003 2.42001V10C7.05348 10.0597 7.0706 10.1178 7.10008 10.1698C7.12956 10.2218 7.1706 10.2664 7.22003 10.3C7.34277 10.3877 7.48238 10.449 7.63003 10.48C7.77012 10.5232 7.91995 10.5232 8.06003 10.48C8.14491 10.4551 8.22574 10.418 8.30003 10.37C8.35282 10.3187 8.39977 10.2617 8.44003 10.2C8.69411 9.83998 8.98209 9.50512 9.30003 9.20001C9.79135 8.69442 10.3812 8.29509 11.0332 8.02675C11.6851 7.75841 12.3852 7.62678 13.09 7.64001C13.8019 7.63046 14.508 7.7686 15.1638 8.04571C15.8195 8.32282 16.4107 8.73288 16.9 9.25001C17.4034 9.73569 17.8029 10.3185 18.0745 10.963C18.3461 11.6076 18.484 12.3006 18.48 13C18.474 13.6869 18.3348 14.3661 18.07 15C17.8118 15.6685 17.4221 16.2785 16.9239 16.7938C16.4258 17.3091 15.8294 17.7192 15.17 18C14.5161 18.2668 13.8163 18.4027 13.11 18.4C12.1576 18.4076 11.2221 18.1477 10.41 17.65V13C10.4148 12.3356 10.6681 11.6971 11.12 11.21C11.3655 10.9214 11.6726 10.6915 12.0188 10.5375C12.365 10.3835 12.7413 10.3091 13.12 10.32C13.4901 10.3046 13.8593 10.367 14.2038 10.503C14.5483 10.6391 14.8604 10.8459 15.12 11.11C15.368 11.3568 15.5625 11.6519 15.6916 11.977C15.8206 12.3022 15.8813 12.6504 15.87 13C15.8714 13.3628 15.8005 13.7221 15.6614 14.0571C15.5223 14.3922 15.3178 14.6961 15.0599 14.9512C14.802 15.2063 14.4959 15.4074 14.1594 15.5429C13.8229 15.6783 13.4627 15.7453 13.1 15.74H12.76L12.39 15.67H12.24C12.03 15.61 11.87 15.77 11.75 16.15C11.63 16.53 11.68 16.75 11.89 16.83C12.2957 16.9506 12.7168 17.0113 13.14 17.01C13.661 17.0167 14.178 16.9174 14.6593 16.7179C15.1407 16.5185 15.5764 16.2232 15.94 15.85C16.3209 15.4817 16.6208 15.0381 16.8205 14.5473C17.0203 14.0566 17.1155 13.5296 17.1 13C17.1106 12.4814 17.0129 11.9664 16.8132 11.4877C16.6134 11.009 16.316 10.5773 15.94 10.22C15.577 9.84672 15.1411 9.55201 14.6595 9.35418C14.1778 9.15636 13.6606 9.05963 13.14 9.07001C12.6166 9.06043 12.0966 9.15744 11.6118 9.35514C11.127 9.55284 10.6875 9.8471 10.32 10.22C9.96353 10.5512 9.6785 10.9518 9.48246 11.3972C9.28641 11.8426 9.1835 12.3234 9.18004 12.81V16.61C8.70385 16.0652 8.33716 15.4337 8.10003 14.75C8.02003 14.54 7.80003 14.5 7.43003 14.62C7.06003 14.74 6.88003 14.91 6.95003 15.11L7.00003 15.14ZM13.25 4.14001C12.1041 4.11641 10.9661 4.33448 9.91003 4.78001C9.85211 4.78426 9.79747 4.80854 9.7555 4.84868C9.71353 4.88883 9.68685 4.94233 9.68004 5.00001C9.68462 5.14751 9.71509 5.29305 9.77004 5.43001C9.91004 5.78001 10.07 5.91001 10.27 5.84001C11.2042 5.47676 12.1977 5.29026 13.2 5.29001C14.2596 5.28127 15.309 5.49594 16.28 5.92001C17.1237 6.28762 17.9035 6.78721 18.59 7.40001C18.6131 7.42484 18.6409 7.44474 18.6718 7.45849C18.7028 7.47224 18.7362 7.47956 18.77 7.48001C18.86 7.48001 19.01 7.38001 19.2 7.19001L19.39 7.00001C19.4307 6.93764 19.4516 6.86445 19.45 6.79001C19.4437 6.71295 19.4079 6.6413 19.35 6.59001C18.5867 5.87211 17.6988 5.29941 16.73 4.90001C15.6168 4.41081 14.416 4.15228 13.2 4.14001H13.25ZM11.64 14.05C11.6475 14.1162 11.6692 14.18 11.7038 14.237C11.7383 14.294 11.7848 14.3428 11.84 14.38V14.38C11.9286 14.4836 12.0543 14.5482 12.19 14.56C12.2523 14.5629 12.3133 14.5413 12.36 14.5L13.09 13.77L13.79 14.45C13.8149 14.4826 13.8465 14.5093 13.8828 14.5283C13.9191 14.5473 13.9591 14.5582 14 14.56C14.139 14.5423 14.2669 14.4748 14.36 14.37C14.56 14.16 14.59 13.98 14.43 13.82L13.73 13.12L14.47 12.38C14.59 12.26 14.55 12.09 14.34 11.89C14.13 11.69 13.94 11.62 13.81 11.75L13.08 12.47L12.36 11.73C12.3154 11.7002 12.2636 11.683 12.21 11.68C12.0762 11.7032 11.9554 11.7743 11.87 11.88C11.64 12.1 11.59 12.26 11.71 12.38L12.45 13.12L11.71 13.84C11.6464 13.8935 11.6038 13.968 11.59 14.05H11.64ZM19.57 18.62C19.4628 18.515 19.3375 18.4303 19.2 18.37C19.1514 18.3552 19.0996 18.3538 19.0503 18.3662C19.001 18.3785 18.956 18.404 18.92 18.44L18.85 18.51C18.1285 19.2279 17.2766 19.8015 16.34 20.2C14.8887 20.8107 13.2886 20.9761 11.743 20.6752C10.1974 20.3743 8.77622 19.6206 7.66003 18.51C6.90998 17.8029 6.31418 16.9483 5.91003 16C5.68207 15.4283 5.51123 14.8354 5.40003 14.23C5.40003 14.02 5.15003 13.94 4.77003 14C4.39003 14.06 4.21003 14.2 4.24003 14.4C4.34828 15.1263 4.54995 15.8355 4.84003 16.51C5.30771 17.5939 5.98776 18.5732 6.84003 19.39C7.66257 20.2401 8.64463 20.9197 9.73003 21.39C10.851 21.86 12.0545 22.1013 13.27 22.1C14.4851 22.0974 15.6879 21.8562 16.81 21.39C17.8954 20.9197 18.8775 20.2401 19.7 19.39L19.76 19.33C19.85 19.11 19.78 18.89 19.52 18.62H19.57Z" fill="black"/>
</svg>
