<svg width="24" height="24" viewBox="0 0 24 24" fill="none" xmlns="http://www.w3.org/2000/svg">
<path d="M20.7099 16.0999L19.0699 14.4599C18.9264 14.3267 18.828 14.152 18.7886 13.9602C18.7491 13.7683 18.7706 13.569 18.8499 13.3899C19.1987 12.641 19.3828 11.826 19.3899 10.9999C19.3946 10.9667 19.3946 10.9331 19.3899 10.8999C19.3934 9.70331 19.0228 8.53555 18.3299 7.55992C16.991 5.68869 15.2166 4.17165 13.1599 3.13992C11.8554 2.50128 10.3844 2.28429 8.95101 2.51901C7.51759 2.75373 6.19269 3.42855 5.15994 4.44992L4.48994 5.11992C3.45782 6.15659 2.77642 7.49056 2.54145 8.93443C2.30649 10.3783 2.52977 11.8595 3.17994 13.1699L3.27994 13.3399C2.74628 13.8936 2.44558 14.631 2.43994 15.3999C2.44391 15.9305 2.58855 16.4506 2.8591 16.9071C3.12965 17.3636 3.51644 17.7401 3.98 17.9983C4.44357 18.2565 4.96733 18.3872 5.49786 18.3769C6.02839 18.3667 6.5467 18.2159 6.99994 17.9399C7.17994 18.0799 7.33994 18.2299 7.51994 18.3599C7.89845 18.6231 8.30827 18.8381 8.73994 18.9999H8.82994C9.00994 19.0699 9.19994 19.1299 9.39994 19.1899H9.54994C9.86115 19.2699 10.1792 19.3201 10.4999 19.3399H10.7799H10.8999H11.1199C11.3299 19.3399 11.5299 19.3399 11.7399 19.2799H11.9099C12.4016 19.1955 12.8794 19.0441 13.3299 18.8299C13.5095 18.7576 13.7062 18.739 13.8961 18.7762C14.086 18.8135 14.261 18.9051 14.3999 19.0399L15.8599 20.4999C16.4934 21.1356 17.3525 21.4951 18.2499 21.4999C19.0027 21.4918 19.7217 21.1863 20.2499 20.6499L20.6299 20.2699C21.1815 19.721 21.4982 18.9792 21.5131 18.2011C21.5281 17.423 21.2401 16.6696 20.7099 16.0999ZM5.40994 16.4199C5.21216 16.4199 5.01882 16.3613 4.85437 16.2514C4.68992 16.1415 4.56175 15.9853 4.48606 15.8026C4.41037 15.6199 4.39057 15.4188 4.42916 15.2248C4.46774 15.0308 4.56298 14.8527 4.70283 14.7128C4.84269 14.573 5.02087 14.4777 5.21485 14.4391C5.40883 14.4005 5.6099 14.4204 5.79262 14.496C5.97535 14.5717 6.13153 14.6999 6.24141 14.8643C6.35129 15.0288 6.40994 15.2221 6.40994 15.4199C6.40994 15.6851 6.30458 15.9395 6.11705 16.127C5.92951 16.3146 5.67516 16.4199 5.40994 16.4199ZM8.50994 16.5599L8.24994 16.3599C8.35407 16.0574 8.40811 15.7399 8.40994 15.4199C8.40994 14.6243 8.09387 13.8612 7.53126 13.2986C6.96865 12.736 6.20559 12.4199 5.40994 12.4199C5.27994 12.4199 5.15994 12.4199 5.02994 12.4199L4.93994 12.2599C4.47482 11.3245 4.3144 10.2668 4.4812 9.23551C4.648 8.20421 5.13365 7.25106 5.86994 6.50992L6.53994 5.83992C7.2906 5.12047 8.24687 4.65293 9.27567 4.50237C10.3045 4.35181 11.3546 4.52573 12.2799 4.99992C13.9598 5.84014 15.4189 7.06293 16.5399 8.56992L8.50994 16.5599ZM19.2899 18.9299L18.9199 19.3099C18.4999 19.7299 17.8499 19.6499 17.3099 19.1099L15.8499 17.6599C15.42 17.2328 14.8707 16.9458 14.2745 16.837C13.6783 16.7281 13.0631 16.8023 12.5099 17.0499C12.1947 17.2044 11.8573 17.309 11.5099 17.3599C11.3188 17.3964 11.1245 17.4132 10.9299 17.4099H10.5899H10.4899L17.3599 10.5399C17.4299 11.2251 17.3124 11.9164 17.0199 12.5399C16.7723 13.0931 16.6981 13.7083 16.807 14.3045C16.9159 14.9007 17.2028 15.45 17.6299 15.8799L19.2699 17.5299C19.4559 17.7142 19.5621 17.9641 19.5658 18.2258C19.5696 18.4876 19.4705 18.7404 19.2899 18.9299Z" fill="black"/>
</svg>
