<svg width="24" height="24" viewBox="0 0 24 24" fill="none" xmlns="http://www.w3.org/2000/svg">
<path d="M17.0002 6C16.735 6 16.4806 6.10536 16.2931 6.2929C16.1055 6.48043 16.0002 6.73479 16.0002 7V14.59L7.71019 6.29C7.52188 6.1017 7.26649 5.99591 7.00019 5.99591C6.73388 5.99591 6.47849 6.1017 6.29019 6.29C6.10188 6.47831 5.99609 6.7337 5.99609 7C5.99609 7.2663 6.10188 7.5217 6.29019 7.71L14.5902 16H7.00019C6.73497 16 6.48062 16.1054 6.29308 16.2929C6.10554 16.4804 6.00019 16.7348 6.00019 17C6.00019 17.2652 6.10554 17.5196 6.29308 17.7071C6.48062 17.8946 6.73497 18 7.00019 18H17.0002C17.1309 17.9984 17.26 17.9712 17.3802 17.92C17.6245 17.8185 17.8187 17.6244 17.9202 17.38C17.9714 17.2598 17.9986 17.1307 18.0002 17V7C18.0002 6.73479 17.8948 6.48043 17.7073 6.2929C17.5198 6.10536 17.2654 6 17.0002 6Z" fill="black"/>
</svg>
