<svg width="24" height="24" viewBox="0 0 24 24" fill="none" xmlns="http://www.w3.org/2000/svg">
<path d="M6.28985 10.3C6.12683 10.4637 6.02553 10.6789 6.00317 10.9088C5.98082 11.1388 6.03878 11.3694 6.16722 11.5615C6.29565 11.7535 6.48663 11.8952 6.70769 11.9624C6.92875 12.0295 7.16626 12.0181 7.37985 11.93C7.50138 11.8756 7.61293 11.8013 7.70985 11.71C7.7998 11.6178 7.8711 11.5092 7.91985 11.39C7.97701 11.2682 8.00443 11.1345 7.99985 11C7.99874 10.7377 7.89459 10.4863 7.70985 10.3C7.61688 10.2063 7.50628 10.1319 7.38442 10.0811C7.26256 10.0303 7.13186 10.0042 6.99985 10.0042C6.86784 10.0042 6.73713 10.0303 6.61527 10.0811C6.49341 10.1319 6.38281 10.2063 6.28985 10.3ZM6.99985 5C7.26506 5 7.51942 5.10536 7.70695 5.29289C7.89449 5.48043 7.99985 5.73478 7.99985 6C7.99985 6.26522 7.89449 6.51957 7.70695 6.70711C7.51942 6.89464 7.26506 7 6.99985 7C6.73463 7 6.48028 7.10536 6.29274 7.29289C6.1052 7.48043 5.99985 7.73478 5.99985 8C5.99985 8.26522 6.1052 8.51957 6.29274 8.70711C6.48028 8.89464 6.73463 9 6.99985 9C7.52638 8.99966 8.04354 8.86075 8.49938 8.59723C8.95522 8.33371 9.33368 7.95486 9.59672 7.49875C9.85977 7.04264 9.99813 6.52533 9.99792 5.9988C9.99771 5.47227 9.85893 4.95507 9.59552 4.49917C9.33211 4.04326 8.95335 3.66472 8.4973 3.40156C8.04125 3.13841 7.52397 2.99992 6.99744 3C6.47091 3.00008 5.95368 3.13874 5.49772 3.40204C5.04175 3.66534 4.66311 4.04401 4.39985 4.5C4.33373 4.61413 4.29084 4.74022 4.27366 4.871C4.25648 5.00178 4.26533 5.13466 4.29973 5.262C4.33412 5.38934 4.39336 5.50862 4.47404 5.61297C4.55473 5.71732 4.65526 5.80467 4.76985 5.87C4.99946 6.00037 5.27133 6.03464 5.52611 5.96532C5.7809 5.896 5.99793 5.72873 6.12985 5.5C6.21795 5.34739 6.34482 5.22078 6.49759 5.13298C6.65037 5.04517 6.82364 4.9993 6.99985 5ZM18.9998 6H12.9998C12.7346 6 12.4803 6.10536 12.2927 6.29289C12.1052 6.48043 11.9998 6.73478 11.9998 7C11.9998 7.26522 12.1052 7.51957 12.2927 7.70711C12.4803 7.89464 12.7346 8 12.9998 8H18.9998C19.2651 8 19.5194 8.10536 19.707 8.29289C19.8945 8.48043 19.9998 8.73478 19.9998 9V18.72L18.4298 17.27C18.2454 17.0973 18.0025 17.0009 17.7498 17H8.99985C8.73463 17 8.48028 16.8946 8.29274 16.7071C8.1052 16.5196 7.99985 16.2652 7.99985 16V15C7.99985 14.7348 7.89449 14.4804 7.70695 14.2929C7.51942 14.1054 7.26506 14 6.99985 14C6.73463 14 6.48028 14.1054 6.29274 14.2929C6.1052 14.4804 5.99985 14.7348 5.99985 15V16C5.99985 16.7956 6.31592 17.5587 6.87853 18.1213C7.44114 18.6839 8.2042 19 8.99985 19H17.3598L20.3598 21.73C20.5341 21.8936 20.7611 21.9894 20.9998 22C21.137 21.9985 21.2727 21.9714 21.3998 21.92C21.5787 21.8419 21.7308 21.7132 21.8375 21.5497C21.9441 21.3863 22.0005 21.1952 21.9998 21V9C21.9998 8.20435 21.6838 7.44129 21.1212 6.87868C20.5586 6.31607 19.7955 6 18.9998 6Z" fill="black"/>
</svg>
