<svg width="24" height="24" viewBox="0 0 24 24" fill="none" xmlns="http://www.w3.org/2000/svg">
<path d="M17 18C17.2652 18 17.5196 17.8946 17.7071 17.7071C17.8946 17.5196 18 17.2652 18 17V7C18 6.73478 17.8946 6.48043 17.7071 6.29289C17.5196 6.10536 17.2652 6 17 6C16.7348 6 16.4804 6.10536 16.2929 6.29289C16.1054 6.48043 16 6.73478 16 7V17C16 17.2652 16.1054 17.5196 16.2929 17.7071C16.4804 17.8946 16.7348 18 17 18ZM18 5H19V6C19 6.26522 19.1054 6.51957 19.2929 6.70711C19.4804 6.89464 19.7348 7 20 7C20.2652 7 20.5196 6.89464 20.7071 6.70711C20.8946 6.51957 21 6.26522 21 6V5H22C22.2652 5 22.5196 4.89464 22.7071 4.70711C22.8946 4.51957 23 4.26522 23 4C23 3.73478 22.8946 3.48043 22.7071 3.29289C22.5196 3.10536 22.2652 3 22 3H21V2C21 1.73478 20.8946 1.48043 20.7071 1.29289C20.5196 1.10536 20.2652 1 20 1C19.7348 1 19.4804 1.10536 19.2929 1.29289C19.1054 1.48043 19 1.73478 19 2V3H18C17.7348 3 17.4804 3.10536 17.2929 3.29289C17.1054 3.48043 17 3.73478 17 4C17 4.26522 17.1054 4.51957 17.2929 4.70711C17.4804 4.89464 17.7348 5 18 5ZM21.6 9C21.4713 9.02624 21.349 9.07758 21.2402 9.15109C21.1313 9.2246 21.038 9.31883 20.9656 9.42841C20.8931 9.53799 20.843 9.66077 20.818 9.78973C20.793 9.91869 20.7937 10.0513 20.82 10.18C21.2104 12.0762 20.979 14.0478 20.1601 15.802C19.3412 17.5563 17.9785 18.9997 16.2741 19.9181C14.5698 20.8364 12.6148 21.1807 10.6993 20.8999C8.78381 20.619 7.00992 19.728 5.64097 18.359C4.27202 16.9901 3.38099 15.2162 3.10014 13.3007C2.81929 11.3852 3.16359 9.43018 4.08194 7.72586C5.00028 6.02155 6.44372 4.6588 8.19798 3.83988C9.95224 3.02097 11.9238 2.78956 13.82 3.18C14.0852 3.23304 14.3606 3.17856 14.5857 3.02853C14.8107 2.8785 14.967 2.64522 15.02 2.38C15.073 2.11478 15.0186 1.83936 14.8685 1.61431C14.7185 1.38927 14.4852 1.23304 14.22 1.18C13.4882 1.04365 12.7442 0.98333 12 1C9.82441 1 7.69767 1.64514 5.88873 2.85383C4.07979 4.06253 2.66989 5.78049 1.83733 7.79048C1.00477 9.80047 0.786929 12.0122 1.21137 14.146C1.6358 16.2798 2.68345 18.2398 4.22183 19.7782C5.76021 21.3166 7.72022 22.3642 9.85401 22.7886C11.9878 23.2131 14.1995 22.9952 16.2095 22.1627C18.2195 21.3301 19.9375 19.9202 21.1462 18.1113C22.3549 16.3023 23 14.1756 23 12C23.0021 11.2611 22.9284 10.5239 22.78 9.8C22.7561 9.66949 22.7064 9.54506 22.6338 9.43395C22.5613 9.32284 22.4674 9.22727 22.3576 9.15281C22.2478 9.07835 22.1242 9.02649 21.9942 9.00026C21.8641 8.97403 21.7301 8.97394 21.6 9ZM10 13H11C11.7957 13 12.5587 12.6839 13.1213 12.1213C13.6839 11.5587 14 10.7956 14 10V9C14 8.20435 13.6839 7.44129 13.1213 6.87868C12.5587 6.31607 11.7957 6 11 6H10C9.20436 6 8.44129 6.31607 7.87868 6.87868C7.31608 7.44129 7 8.20435 7 9C7 9.26522 7.10536 9.51957 7.2929 9.70711C7.48043 9.89464 7.73479 10 8 10C8.26522 10 8.51958 9.89464 8.70711 9.70711C8.89465 9.51957 9 9.26522 9 9C9 8.73478 9.10536 8.48043 9.2929 8.29289C9.48043 8.10536 9.73479 8 10 8H11C11.2652 8 11.5196 8.10536 11.7071 8.29289C11.8946 8.48043 12 8.73478 12 9V10C12 10.2652 11.8946 10.5196 11.7071 10.7071C11.5196 10.8946 11.2652 11 11 11H10C9.20436 11 8.44129 11.3161 7.87868 11.8787C7.31608 12.4413 7 13.2044 7 14V17C7 17.2652 7.10536 17.5196 7.2929 17.7071C7.48043 17.8946 7.73479 18 8 18H13C13.2652 18 13.5196 17.8946 13.7071 17.7071C13.8946 17.5196 14 17.2652 14 17C14 16.7348 13.8946 16.4804 13.7071 16.2929C13.5196 16.1054 13.2652 16 13 16H9V14C9 13.7348 9.10536 13.4804 9.2929 13.2929C9.48043 13.1054 9.73479 13 10 13Z" fill="black"/>
</svg>
