<svg width="24" height="24" viewBox="0 0 24 24" fill="none" xmlns="http://www.w3.org/2000/svg">
<path d="M21.0001 20H18.0001C17.7349 20 17.4806 19.8946 17.293 19.7071C17.1055 19.5196 17.0001 19.2652 17.0001 19V16C18.1938 15.989 19.344 15.5513 20.2431 14.7661C21.1421 13.9809 21.7306 12.8999 21.9021 11.7186C22.0736 10.5374 21.8169 9.33369 21.1783 8.32521C20.5397 7.31674 19.5613 6.57 18.4201 6.21999C17.8091 4.81599 16.7546 3.65106 15.4182 2.90371C14.0818 2.15636 12.5372 1.86782 11.0211 2.0823C9.50501 2.29677 8.10106 3.00244 7.02439 4.09116C5.94772 5.17988 5.25772 6.5916 5.06013 8.10999C4.10672 8.33831 3.27036 8.90882 2.70987 9.71318C2.14939 10.5175 1.90382 11.4997 2.0198 12.4732C2.13578 13.4467 2.60523 14.3437 3.339 14.9938C4.07277 15.644 5.01976 16.0021 6.00013 16H7.00013V19C7.00013 19.2652 6.89478 19.5196 6.70724 19.7071C6.5197 19.8946 6.26535 20 6.00013 20H3.00013C2.73492 20 2.48056 20.1053 2.29303 20.2929C2.10549 20.4804 2.00013 20.7348 2.00013 21C2.00013 21.2652 2.10549 21.5196 2.29303 21.7071C2.48056 21.8946 2.73492 22 3.00013 22H6.00013C6.79578 22 7.55885 21.6839 8.12146 21.1213C8.68406 20.5587 9.00013 19.7956 9.00013 19V16H11.0001V21C11.0001 21.2652 11.1055 21.5196 11.293 21.7071C11.4806 21.8946 11.7349 22 12.0001 22C12.2654 22 12.5197 21.8946 12.7072 21.7071C12.8948 21.5196 13.0001 21.2652 13.0001 21V16H15.0001V19C15.0001 19.7956 15.3162 20.5587 15.8788 21.1213C16.4414 21.6839 17.2045 22 18.0001 22H21.0001C21.2654 22 21.5197 21.8946 21.7072 21.7071C21.8948 21.5196 22.0001 21.2652 22.0001 21C22.0001 20.7348 21.8948 20.4804 21.7072 20.2929C21.5197 20.1053 21.2654 20 21.0001 20ZM6.00013 14C5.4697 14 4.96099 13.7893 4.58592 13.4142C4.21085 13.0391 4.00013 12.5304 4.00013 12C4.00013 11.4696 4.21085 10.9608 4.58592 10.5858C4.96099 10.2107 5.4697 9.99999 6.00013 9.99999C6.26535 9.99999 6.5197 9.89463 6.70724 9.70709C6.89478 9.51956 7.00013 9.2652 7.00013 8.99999C7.00269 7.81726 7.42442 6.67374 8.1904 5.77257C8.95639 4.8714 10.017 4.27094 11.1839 4.07786C12.3507 3.88478 13.5483 4.11159 14.5637 4.71799C15.5791 5.3244 16.3467 6.27113 16.7301 7.38999C16.7873 7.56183 16.89 7.71492 17.0274 7.83292C17.1648 7.95092 17.3316 8.0294 17.5101 8.05999C18.2043 8.17973 18.8342 8.53992 19.2895 9.07745C19.7447 9.61499 19.9963 10.2956 20.0001 11C20.0001 11.7956 19.6841 12.5587 19.1215 13.1213C18.5588 13.6839 17.7958 14 17.0001 14H6.00013Z" fill="black"/>
</svg>
