<svg width="24" height="24" viewBox="0 0 24 24" fill="none" xmlns="http://www.w3.org/2000/svg">
<path d="M15.9998 5H12.9998V3C12.9998 2.73478 12.8944 2.48043 12.7069 2.29289C12.5194 2.10536 12.265 2 11.9998 2C11.7346 2 11.4802 2.10536 11.2927 2.29289C11.1052 2.48043 10.9998 2.73478 10.9998 3V5H5.99979C5.84959 5.00069 5.70147 5.03521 5.56643 5.101C5.4314 5.16679 5.31292 5.26215 5.21979 5.38L3.21979 7.88C3.08028 8.05655 3.00439 8.27499 3.00439 8.5C3.00439 8.72501 3.08028 8.94345 3.21979 9.12L5.21979 11.62C5.31292 11.7379 5.4314 11.8332 5.56643 11.899C5.70147 11.9648 5.84959 11.9993 5.99979 12H10.9998V20H8.99979C8.73458 20 8.48022 20.1054 8.29269 20.2929C8.10515 20.4804 7.99979 20.7348 7.99979 21C7.99979 21.2652 8.10515 21.5196 8.29269 21.7071C8.48022 21.8946 8.73458 22 8.99979 22H14.9998C15.265 22 15.5194 21.8946 15.7069 21.7071C15.8944 21.5196 15.9998 21.2652 15.9998 21C15.9998 20.7348 15.8944 20.4804 15.7069 20.2929C15.5194 20.1054 15.265 20 14.9998 20H12.9998V12H15.9998C16.265 12 16.5194 11.8946 16.7069 11.7071C16.8944 11.5196 16.9998 11.2652 16.9998 11V6C16.9998 5.73478 16.8944 5.48043 16.7069 5.29289C16.5194 5.10536 16.265 5 15.9998 5ZM14.9998 10H6.47979L5.27979 8.5L6.47979 7H14.9998V10Z" fill="black"/>
</svg>
