<svg width="24" height="24" viewBox="0 0 24 24" fill="none" xmlns="http://www.w3.org/2000/svg">
<path d="M10.5002 5.49994C10.235 5.49994 9.98062 5.6053 9.79308 5.79283C9.60554 5.98037 9.50019 6.23472 9.50019 6.49994V8.08994L3.71019 2.28994C3.61695 2.1967 3.50626 2.12274 3.38443 2.07228C3.26261 2.02182 3.13204 1.99585 3.00019 1.99585C2.86833 1.99585 2.73776 2.02182 2.61594 2.07228C2.49411 2.12274 2.38342 2.1967 2.29019 2.28994C2.10188 2.47824 1.99609 2.73364 1.99609 2.99994C1.99609 3.26624 2.10188 3.52164 2.29019 3.70994L8.09019 9.49994H6.50019C6.23497 9.49994 5.98062 9.6053 5.79308 9.79283C5.60554 9.98037 5.50019 10.2347 5.50019 10.4999C5.50019 10.7652 5.60554 11.0195 5.79308 11.207C5.98062 11.3946 6.23497 11.4999 6.50019 11.4999H10.5002C10.6309 11.4984 10.76 11.4712 10.8802 11.4199C11.1245 11.3185 11.3187 11.1243 11.4202 10.8799C11.4714 10.7597 11.4986 10.6306 11.5002 10.4999V6.49994C11.5002 6.23472 11.3948 5.98037 11.2073 5.79283C11.0198 5.6053 10.7654 5.49994 10.5002 5.49994ZM21.7102 20.2899L15.9102 14.4999H17.5002C17.7654 14.4999 18.0198 14.3946 18.2073 14.207C18.3948 14.0195 18.5002 13.7652 18.5002 13.4999C18.5002 13.2347 18.3948 12.9804 18.2073 12.7928C18.0198 12.6053 17.7654 12.4999 17.5002 12.4999H13.5002C13.3695 12.5015 13.2404 12.5287 13.1202 12.5799C12.8758 12.6814 12.6817 12.8756 12.5802 13.1199C12.5289 13.2402 12.5018 13.3693 12.5002 13.4999V17.4999C12.5002 17.7652 12.6055 18.0195 12.7931 18.207C12.9806 18.3946 13.235 18.4999 13.5002 18.4999C13.7654 18.4999 14.0198 18.3946 14.2073 18.207C14.3948 18.0195 14.5002 17.7652 14.5002 17.4999V15.9099L20.2902 21.7099C20.3831 21.8037 20.4937 21.8781 20.6156 21.9288C20.7375 21.9796 20.8682 22.0057 21.0002 22.0057C21.1322 22.0057 21.2629 21.9796 21.3848 21.9288C21.5066 21.8781 21.6172 21.8037 21.7102 21.7099C21.8039 21.617 21.8783 21.5064 21.9291 21.3845C21.9798 21.2627 22.006 21.132 22.006 20.9999C22.006 20.8679 21.9798 20.7372 21.9291 20.6154C21.8783 20.4935 21.8039 20.3829 21.7102 20.2899Z" fill="black"/>
</svg>
