<svg width="24" height="24" viewBox="0 0 24 24" fill="none" xmlns="http://www.w3.org/2000/svg">
<path d="M7.59987 15.18C7.41157 14.9917 7.15618 14.8859 6.88987 14.8859C6.62357 14.8859 6.36818 14.9917 6.17987 15.18C5.99157 15.3683 5.88578 15.6237 5.88578 15.89C5.88578 16.1563 5.99157 16.4117 6.17987 16.6L7.23987 17.66C7.33284 17.7537 7.44344 17.8281 7.5653 17.8789C7.68716 17.9297 7.81786 17.9558 7.94987 17.9558C8.08189 17.9558 8.21259 17.9297 8.33445 17.8789C8.45631 17.8281 8.56691 17.7537 8.65987 17.66C8.7536 17.567 8.828 17.4564 8.87877 17.3346C8.92953 17.2127 8.95567 17.082 8.95567 16.95C8.95567 16.818 8.92953 16.6873 8.87877 16.5654C8.828 16.4436 8.7536 16.333 8.65987 16.24L7.59987 15.18ZM3.80987 9.78L2.74987 10.84C2.67159 10.9147 2.60725 11.0027 2.55987 11.1C2.41587 11.1695 2.29064 11.2726 2.19468 11.4005C2.09873 11.5284 2.03485 11.6775 2.0084 11.8352C1.98195 11.9929 1.99371 12.1546 2.04269 12.3068C2.09166 12.459 2.17643 12.5973 2.28987 12.71L3.34987 13.77C3.44284 13.8637 3.55344 13.9381 3.6753 13.9889C3.79716 14.0397 3.92786 14.0658 4.05987 14.0658C4.19189 14.0658 4.32259 14.0397 4.44445 13.9889C4.56631 13.9381 4.67691 13.8637 4.76987 13.77C4.8636 13.677 4.938 13.5664 4.98877 13.4446C5.03953 13.3227 5.06567 13.192 5.06567 13.06C5.06567 12.928 5.03953 12.7973 4.98877 12.6754C4.938 12.5536 4.8636 12.443 4.76987 12.35L4.40987 12L5.21987 11.19C5.3837 10.9987 5.46931 10.7526 5.45959 10.5009C5.44986 10.2493 5.34553 10.0105 5.16744 9.83244C4.98934 9.65434 4.7506 9.55001 4.49893 9.54029C4.24725 9.53057 4.00118 9.61617 3.80987 9.78ZM7.99987 10.57C7.73466 10.57 7.4803 10.6754 7.29277 10.8629C7.10523 11.0504 6.99987 11.3048 6.99987 11.57V13.07C6.99987 13.3352 7.10523 13.5896 7.29277 13.7771C7.4803 13.9646 7.73466 14.07 7.99987 14.07C8.26509 14.07 8.51944 13.9646 8.70698 13.7771C8.89452 13.5896 8.99987 13.3352 8.99987 13.07V11.57C8.99987 11.3048 8.89452 11.0504 8.70698 10.8629C8.51944 10.6754 8.26509 10.57 7.99987 10.57ZM21.7099 11.29L16.7099 6.29C16.5692 6.15124 16.3907 6.05725 16.1967 6.01987C16.0027 5.9825 15.802 6.00342 15.6199 6.08C15.4373 6.15502 15.2809 6.28242 15.1706 6.44614C15.0603 6.60986 15.0009 6.80257 14.9999 7V17C15.0009 17.1974 15.0603 17.3901 15.1706 17.5539C15.2809 17.7176 15.4373 17.845 15.6199 17.92C15.7386 17.976 15.8687 18.0034 15.9999 18C16.1315 18.0008 16.2619 17.9755 16.3838 17.9258C16.5056 17.876 16.6164 17.8027 16.7099 17.71L21.7099 12.71C21.8036 12.617 21.878 12.5064 21.9288 12.3846C21.9795 12.2627 22.0057 12.132 22.0057 12C22.0057 11.868 21.9795 11.7373 21.9288 11.6154C21.878 11.4936 21.8036 11.383 21.7099 11.29ZM16.9999 14.59V9.41L19.5899 12L16.9999 14.59ZM11.9999 2C11.7347 2 11.4803 2.10536 11.2928 2.29289C11.1052 2.48043 10.9999 2.73478 10.9999 3V21C10.9999 21.2652 11.1052 21.5196 11.2928 21.7071C11.4803 21.8946 11.7347 22 11.9999 22C12.2651 22 12.5194 21.8946 12.707 21.7071C12.8945 21.5196 12.9999 21.2652 12.9999 21V3C12.9999 2.73478 12.8945 2.48043 12.707 2.29289C12.5194 2.10536 12.2651 2 11.9999 2ZM8.37987 6.08C8.19776 6.00342 7.99705 5.9825 7.80306 6.01987C7.60907 6.05725 7.4305 6.15124 7.28987 6.29L6.63987 7C6.45362 7.18736 6.34908 7.44081 6.34908 7.705C6.34908 7.96919 6.45362 8.22264 6.63987 8.41C6.8245 8.59841 7.07611 8.70624 7.33987 8.71C7.49642 8.70906 7.65055 8.67138 7.78987 8.6C7.94011 8.63249 8.09581 8.62991 8.24489 8.59246C8.39397 8.55502 8.53241 8.4837 8.64945 8.38407C8.7665 8.28444 8.859 8.15916 8.91978 8.01798C8.98055 7.87679 9.00796 7.7235 8.99987 7.57V7C8.99889 6.80257 8.93949 6.60986 8.82915 6.44614C8.71882 6.28242 8.56249 6.15502 8.37987 6.08Z" fill="black"/>
</svg>
