<svg width="24" height="24" viewBox="0 0 24 24" fill="none" xmlns="http://www.w3.org/2000/svg">
<path d="M8.50013 14C8.23491 14 7.98056 14.1053 7.79302 14.2929C7.60548 14.4804 7.50013 14.7348 7.50013 15V21C7.50013 21.2652 7.60548 21.5195 7.79302 21.7071C7.98056 21.8946 8.23491 22 8.50013 22C8.76534 22 9.0197 21.8946 9.20723 21.7071C9.39477 21.5195 9.50013 21.2652 9.50013 21V15C9.50013 14.7348 9.39477 14.4804 9.20723 14.2929C9.0197 14.1053 8.76534 14 8.50013 14ZM12.5001 13C12.2349 13 11.9806 13.1053 11.793 13.2929C11.6055 13.4804 11.5001 13.7348 11.5001 14V20C11.5001 20.2652 11.6055 20.5195 11.793 20.7071C11.9806 20.8946 12.2349 21 12.5001 21C12.7653 21 13.0197 20.8946 13.2072 20.7071C13.3948 20.5195 13.5001 20.2652 13.5001 20V14C13.5001 13.7348 13.3948 13.4804 13.2072 13.2929C13.0197 13.1053 12.7653 13 12.5001 13ZM21.7001 7.06997C21.5787 6.95 21.4285 6.86312 21.264 6.81761C21.0994 6.77209 20.926 6.76947 20.7601 6.80997C20.547 6.86028 20.3291 6.8871 20.1101 6.88997C19.3145 6.88997 18.5514 6.5739 17.9888 6.01129C17.4262 5.44868 17.1101 4.68562 17.1101 3.88997C17.1133 3.66775 17.1401 3.44651 17.1901 3.22997C17.2288 3.06561 17.2253 2.89413 17.1798 2.73151C17.1344 2.56889 17.0485 2.42043 16.9301 2.29997C16.8137 2.17459 16.6671 2.08116 16.5043 2.02864C16.3414 1.97611 16.1679 1.96624 16.0001 1.99997C15.0048 2.21971 14.1021 2.74253 13.4163 3.49647C12.7304 4.25041 12.295 5.1984 12.1701 6.20997C11.6255 6.06487 11.0637 5.99423 10.5001 5.99997C9.05898 5.99915 7.66569 6.51707 6.575 7.45903C5.48431 8.40099 4.76909 9.70406 4.56013 11.13C3.86376 11.3239 3.24452 11.7287 2.78746 12.2887C2.33041 12.8487 2.05796 13.5365 2.00755 14.2576C1.95714 14.9787 2.13123 15.6977 2.50592 16.3159C2.88061 16.9341 3.43752 17.4211 4.10013 17.71C4.22757 17.7605 4.36307 17.7876 4.50013 17.79C4.73132 17.7919 4.95603 17.7136 5.13601 17.5684C5.31598 17.4233 5.44011 17.2203 5.48727 16.994C5.53442 16.7676 5.50169 16.5319 5.39464 16.327C5.28759 16.1221 5.11284 15.9606 4.90013 15.87C4.63182 15.7557 4.40326 15.5647 4.24314 15.3209C4.08302 15.0772 3.99848 14.7916 4.00013 14.5C4.00013 14.1021 4.15816 13.7206 4.43947 13.4393C4.72077 13.158 5.1023 13 5.50013 13C5.76534 13 6.0197 12.8946 6.20723 12.7071C6.39477 12.5195 6.50013 12.2652 6.50013 12C6.50013 10.9391 6.92156 9.92169 7.6717 9.17154C8.42185 8.4214 9.43926 7.99997 10.5001 7.99997C11.2728 8.00073 12.0279 8.2304 12.6701 8.65997C13.4001 9.13482 13.9522 9.83812 14.2401 10.66C14.2973 10.8318 14.4 10.9849 14.5374 11.1029C14.6748 11.2209 14.8416 11.2994 15.0201 11.33C15.5015 11.3803 15.955 11.5799 16.3173 11.9008C16.6795 12.2217 16.9324 12.6478 17.0404 13.1196C17.1484 13.5913 17.1062 14.085 16.9197 14.5316C16.7331 14.9782 16.4116 15.3552 16.0001 15.61C15.8898 15.6822 15.7948 15.7754 15.7205 15.8844C15.6463 15.9933 15.5942 16.1158 15.5672 16.2449C15.5403 16.374 15.5391 16.5071 15.5636 16.6367C15.5881 16.7662 15.6379 16.8897 15.7101 17C15.7824 17.1103 15.8756 17.2053 15.9845 17.2796C16.0935 17.3538 16.216 17.4059 16.3451 17.4328C16.4741 17.4598 16.6073 17.461 16.7368 17.4365C16.8664 17.412 16.9898 17.3622 17.1001 17.29C17.6911 16.8904 18.1739 16.3506 18.5055 15.719C18.837 15.0873 19.007 14.3833 19.0001 13.67C19.004 12.9731 18.8357 12.2861 18.5101 11.67C19.3689 11.4301 20.1468 10.9624 20.7612 10.3162C21.3757 9.6701 21.8038 8.86972 22.0001 7.99997C22.0339 7.83224 22.024 7.65866 21.9715 7.49583C21.9189 7.333 21.8255 7.18638 21.7001 7.06997ZM17.1101 9.88997C16.9703 9.9008 16.8299 9.9008 16.6901 9.88997C16.4704 9.75414 16.2395 9.63705 16.0001 9.53997C15.5882 8.6431 14.9634 7.86043 14.1801 7.25997C14.1801 7.13997 14.1801 7.00997 14.1801 6.88997C14.1801 6.45665 14.2739 6.02846 14.4552 5.63487C14.6365 5.24128 14.9008 4.89163 15.2301 4.60997C15.385 5.67683 15.8805 6.66506 16.6427 7.42735C17.405 8.18963 18.3933 8.68513 19.4601 8.83997C19.1709 9.17839 18.8099 9.44819 18.4035 9.6298C17.997 9.81141 17.5552 9.90029 17.1101 9.88997Z" fill="black"/>
</svg>
