<svg width="24" height="24" viewBox="0 0 24 24" fill="none" xmlns="http://www.w3.org/2000/svg">
<path d="M20.9187 10.653C20.6042 10.4831 17.908 8.91862 16.8962 8.32976L16.8933 8.32776L4.63842 1.25262C4.42964 1.12517 4.19553 1.04488 3.95248 1.01736C3.70943 0.989847 3.4633 1.01577 3.23131 1.09332C3.20513 1.10272 3.18053 1.11218 3.15508 1.12383C3.09599 1.14309 3.03823 1.16621 2.98217 1.19305C2.74786 1.3331 2.55562 1.53372 2.4257 1.7738C2.29578 2.01388 2.23297 2.28455 2.24389 2.55731V21.5427C2.23645 21.7968 2.29664 22.0483 2.41829 22.2715C2.53994 22.4948 2.71869 22.6817 2.93627 22.8132C2.98645 22.8377 3.03816 22.859 3.09106 22.8769C3.11999 22.8902 3.14757 22.9019 3.17742 22.9124C3.32063 22.9643 3.47146 22.9922 3.62377 22.9948C3.91626 22.9917 4.20281 22.9118 4.45483 22.7634C4.8435 22.5378 16.8933 15.5807 16.8933 15.5807L20.9138 13.2594C21.1624 13.1349 21.3722 12.9448 21.5206 12.7097C21.6689 12.4746 21.7502 12.2034 21.7556 11.9254C21.7434 11.6577 21.6592 11.3982 21.5119 11.1743C21.3646 10.9504 21.1597 10.7703 20.9187 10.653ZM4.24389 19.839V4.10186L12.184 11.9609L4.24389 19.839ZM9.26189 17.6773L13.6054 13.3677L14.7549 14.5056C13.4903 15.2358 11.3536 16.4696 9.26189 17.6774V17.6773ZM13.6037 10.5523L9.20582 6.19933L14.7595 9.40563L13.6037 10.5523ZM16.5505 13.469L15.0251 11.9592L16.5528 10.4434C17.2731 10.8617 18.3957 11.5127 19.1687 11.9577L16.5505 13.469Z" fill="black"/>
</svg>
