<svg width="24" height="24" viewBox="0 0 24 24" fill="none" xmlns="http://www.w3.org/2000/svg">
<path d="M19.7102 16.29L5.71019 2.29C5.52188 2.10169 5.26649 1.99591 5.00019 1.99591C4.73388 1.99591 4.47849 2.10169 4.29019 2.29C4.10188 2.4783 3.99609 2.7337 3.99609 3C3.99609 3.2663 4.10188 3.52169 4.29019 3.71L6.59019 6H5.00019C4.8117 6.00053 4.6272 6.05433 4.46796 6.15518C4.30873 6.25603 4.18123 6.39983 4.10019 6.57C4.02993 6.7324 4.00402 6.91053 4.0251 7.08621C4.04618 7.26189 4.1135 7.42884 4.22019 7.57L11.0002 16.1V20H6.75019C6.48497 20 6.23062 20.1054 6.04308 20.2929C5.85554 20.4804 5.75019 20.7348 5.75019 21C5.75019 21.2652 5.85554 21.5196 6.04308 21.7071C6.23062 21.8946 6.48497 22 6.75019 22H17.2502C17.5154 22 17.7698 21.8946 17.9573 21.7071C18.1448 21.5196 18.2502 21.2652 18.2502 21C18.2502 20.7348 18.1448 20.4804 17.9573 20.2929C17.7698 20.1054 17.5154 20 17.2502 20H13.0002V16.1L14.6402 14.1L18.2902 17.75C18.3831 17.8437 18.4937 17.9181 18.6156 17.9689C18.7375 18.0197 18.8682 18.0458 19.0002 18.0458C19.1322 18.0458 19.2629 18.0197 19.3848 17.9689C19.5066 17.9181 19.6172 17.8437 19.7102 17.75C19.8101 17.6565 19.8897 17.5434 19.9442 17.4178C19.9986 17.2923 20.0267 17.1569 20.0267 17.02C20.0267 16.8831 19.9986 16.7477 19.9442 16.6222C19.8897 16.4966 19.8101 16.3835 19.7102 16.29ZM7.08019 8H8.59019L10.4802 9.89H8.59019L7.08019 8ZM12.0002 14.15L10.1902 11.89H12.4802L13.2202 12.63L12.0002 14.15ZM14.6602 8H16.9202L16.2902 8.79C16.1255 8.99599 16.0489 9.25867 16.077 9.52087C16.1051 9.78307 16.2356 10.0236 16.4402 10.19C16.6188 10.3333 16.8412 10.411 17.0702 10.41C17.2196 10.4105 17.3672 10.3775 17.5022 10.3135C17.6371 10.2495 17.7561 10.156 17.8502 10.04L19.7802 7.62C19.8869 7.47884 19.9542 7.31189 19.9753 7.13621C19.9964 6.96053 19.9704 6.7824 19.9002 6.62C19.8265 6.44047 19.7022 6.28626 19.5424 6.17618C19.3826 6.06609 19.1942 6.00487 19.0002 6H14.6602C14.395 6 14.1406 6.10536 13.9531 6.29289C13.7655 6.48043 13.6602 6.73478 13.6602 7C13.6602 7.26521 13.7655 7.51957 13.9531 7.70711C14.1406 7.89464 14.395 8 14.6602 8Z" fill="black"/>
</svg>
