<svg width="24" height="24" viewBox="0 0 24 24" fill="none" xmlns="http://www.w3.org/2000/svg">
<path d="M21.3798 5.75998C21.3457 5.63229 21.2866 5.51263 21.2059 5.40792C21.1252 5.30322 21.0246 5.21555 20.9098 5.14998L15.7098 2.14998C15.5963 2.08345 15.4708 2.03998 15.3404 2.02206C15.21 2.00415 15.0774 2.01215 14.9501 2.04559C14.8228 2.07903 14.7034 2.13727 14.5987 2.21696C14.494 2.29665 14.406 2.39623 14.3398 2.50998L11.9998 6.56998L9.65985 2.50998C9.59369 2.39623 9.50572 2.29665 9.401 2.21696C9.29628 2.13727 9.17685 2.07903 9.04958 2.04559C8.92231 2.01215 8.78968 2.00415 8.65931 2.02206C8.52894 2.03998 8.40339 2.08345 8.28985 2.14998L3.08985 5.14998C2.97508 5.21555 2.87445 5.30322 2.79378 5.40792C2.7131 5.51263 2.65399 5.63229 2.61985 5.75998C2.55367 6.01343 2.58957 6.28273 2.71985 6.50998L6.71985 13.34C6.2736 14.1575 6.02689 15.069 5.99985 16C5.99747 16.9083 6.20133 17.8052 6.59607 18.6233C6.9908 19.4413 7.56611 20.159 8.27861 20.7223C8.9911 21.2857 9.8222 21.6799 10.7092 21.8753C11.5962 22.0706 12.5161 22.0621 13.3993 21.8502C14.2825 21.6384 15.1061 21.2287 15.808 20.6523C16.5099 20.0758 17.0718 19.3475 17.4512 18.5222C17.8306 17.697 18.0178 16.7964 17.9985 15.8883C17.9792 14.9802 17.754 14.0884 17.3398 13.28L21.2398 6.51998C21.3124 6.40892 21.3622 6.28453 21.3862 6.15405C21.4103 6.02357 21.4081 5.88961 21.3798 5.75998ZM4.99985 6.37998L8.45985 4.37998L11.6798 9.99998C10.3073 10.0848 9.00664 10.6432 7.99985 11.58L4.99985 6.37998ZM11.9998 20C10.939 20 9.92157 19.5786 9.17142 18.8284C8.42128 18.0783 7.99985 17.0608 7.99985 16C7.99985 14.9391 8.42128 13.9217 9.17142 13.1716C9.92157 12.4214 10.939 12 11.9998 12C13.0607 12 14.0781 12.4214 14.8283 13.1716C15.5784 13.9217 15.9998 14.9391 15.9998 16C15.9998 17.0608 15.5784 18.0783 14.8283 18.8284C14.0781 19.5786 13.0607 20 11.9998 20ZM15.9998 11.55C15.4569 11.0541 14.8261 10.6641 14.1398 10.4L13.1598 8.56998L15.5798 4.37998L19.0399 6.37998L15.9998 11.55Z" fill="black"/>
</svg>
