<svg width="24" height="24" viewBox="0 0 24 24" fill="none" xmlns="http://www.w3.org/2000/svg">
<path d="M18.0001 9.99994C18.0001 9.73472 17.8948 9.48037 17.7072 9.29283C17.5197 9.1053 17.2654 8.99994 17.0001 8.99994H5.41014L7.71014 6.70994C7.89844 6.52164 8.00423 6.26624 8.00423 5.99994C8.00423 5.73364 7.89844 5.47825 7.71014 5.28994C7.52184 5.10164 7.26644 4.99585 7.00014 4.99585C6.73384 4.99585 6.47844 5.10164 6.29014 5.28994L2.29014 9.28994C2.15138 9.43057 2.05739 9.60914 2.02001 9.80313C1.98264 9.99712 2.00356 10.1978 2.08014 10.3799C2.15516 10.5626 2.28256 10.7189 2.44628 10.8292C2.61 10.9396 2.80271 10.999 3.00014 10.9999H17.0001C17.2654 10.9999 17.5197 10.8946 17.7072 10.707C17.8948 10.5195 18.0001 10.2652 18.0001 9.99994ZM21.9201 13.6199C21.8451 13.4373 21.7177 13.281 21.554 13.1707C21.3903 13.0603 21.1976 13.0009 21.0001 12.9999H7.00014C6.73492 12.9999 6.48057 13.1053 6.29303 13.2928C6.1055 13.4804 6.00014 13.7347 6.00014 13.9999C6.00014 14.2652 6.1055 14.5195 6.29303 14.707C6.48057 14.8946 6.73492 14.9999 7.00014 14.9999H18.5901L16.2901 17.2899C16.1964 17.3829 16.122 17.4935 16.0712 17.6154C16.0205 17.7372 15.9943 17.8679 15.9943 17.9999C15.9943 18.132 16.0205 18.2627 16.0712 18.3845C16.122 18.5064 16.1964 18.617 16.2901 18.7099C16.3831 18.8037 16.4937 18.8781 16.6156 18.9288C16.7374 18.9796 16.8681 19.0057 17.0001 19.0057C17.1322 19.0057 17.2629 18.9796 17.3847 18.9288C17.5066 18.8781 17.6172 18.8037 17.7101 18.7099L21.7101 14.7099C21.8489 14.5693 21.9429 14.3907 21.9803 14.1968C22.0176 14.0028 21.9967 13.8021 21.9201 13.6199Z" fill="black"/>
</svg>
