<svg width="24" height="24" viewBox="0 0 24 24" fill="none" xmlns="http://www.w3.org/2000/svg">
<path d="M18.4198 7.72002C17.8088 6.31602 16.7543 5.15109 15.4178 4.40374C14.0814 3.65639 12.5368 3.36785 11.0207 3.58233C9.50464 3.7968 8.10069 4.50247 7.02402 5.59119C5.94735 6.67991 5.25735 8.09163 5.05977 9.61002C4.22198 9.81407 3.47257 10.2834 2.92321 10.948C2.37386 11.6126 2.05399 12.437 2.01126 13.2982C1.96854 14.1594 2.20526 15.0114 2.68613 15.7271C3.16701 16.4429 3.86629 16.984 4.67977 17.27C4.78348 17.302 4.89125 17.3188 4.99977 17.32C5.26498 17.3625 5.53619 17.2978 5.75374 17.1403C5.97128 16.9827 6.11733 16.7452 6.15977 16.48C6.2022 16.2148 6.13754 15.9436 5.98001 15.726C5.82248 15.5085 5.58498 15.3625 5.31977 15.32C4.94268 15.1839 4.6152 14.9376 4.37982 14.6131C4.14444 14.2885 4.01203 13.9007 3.99977 13.5C3.99977 12.9696 4.21048 12.4609 4.58555 12.0858C4.96063 11.7107 5.46933 11.5 5.99977 11.5C6.26498 11.5 6.51934 11.3947 6.70687 11.2071C6.89441 11.0196 6.99977 10.7652 6.99977 10.5C7.00232 9.31729 7.42405 8.17377 8.19004 7.2726C8.95602 6.37143 10.0167 5.77097 11.1835 5.57789C12.3504 5.38481 13.5479 5.61162 14.5633 6.21803C15.5788 6.82443 16.3464 7.77116 16.7298 8.89002C16.7869 9.06186 16.8897 9.21495 17.0271 9.33295C17.1644 9.45095 17.3313 9.52943 17.5098 9.56002C18.1111 9.66886 18.6649 9.95875 19.0969 10.3909C19.529 10.8231 19.8188 11.3769 19.9276 11.9782C20.0363 12.5796 19.9588 13.1998 19.7054 13.7559C19.4521 14.312 19.0349 14.7775 18.5098 15.09C18.279 15.2226 18.1104 15.4415 18.041 15.6984C17.9716 15.9553 18.0072 16.2293 18.1398 16.46C18.2724 16.6908 18.4912 16.8594 18.7481 16.9288C19.0051 16.9981 19.279 16.9626 19.5098 16.83C20.268 16.3899 20.8972 15.7582 21.3342 14.9982C21.7712 14.2382 22.0008 13.3767 21.9998 12.5C21.9967 11.4241 21.6467 10.378 21.0018 9.51682C20.3568 8.65569 19.4513 8.02556 18.4198 7.72002ZM9.16977 13.72C8.6108 14.2796 8.23028 14.9923 8.0763 15.7681C7.92232 16.5439 8.00179 17.348 8.30467 18.0786C8.60756 18.8093 9.12025 19.4337 9.77795 19.8731C10.4356 20.3124 11.2088 20.5469 11.9998 20.5469C12.7907 20.5469 13.5639 20.3124 14.2216 19.8731C14.8793 19.4337 15.392 18.8093 15.6949 18.0786C15.9977 17.348 16.0772 16.5439 15.9232 15.7681C15.7693 14.9923 15.3887 14.2796 14.8298 13.72C14.0736 12.9858 13.0637 12.5709 12.0098 12.5616C10.9558 12.5523 9.93878 12.9492 9.16977 13.67V13.72ZM9.99977 16.5C9.99977 15.9696 10.2105 15.4609 10.5856 15.0858C10.9606 14.7107 11.4693 14.5 11.9998 14.5C12.172 14.5022 12.3433 14.5258 12.5098 14.57L10.0698 17C10.0263 16.8368 10.0028 16.6689 9.99977 16.5ZM13.4098 17.91C13.1619 18.1515 12.8555 18.3245 12.5208 18.4121C12.186 18.4998 11.8342 18.499 11.4998 18.41L13.9298 16C13.974 16.1665 13.9975 16.3378 13.9998 16.51C13.9949 17.0361 13.7829 17.5391 13.4098 17.91Z" fill="black"/>
</svg>
