<svg width="24" height="24" viewBox="0 0 24 24" fill="none" xmlns="http://www.w3.org/2000/svg">
<path d="M19.5002 4H10.0002C9.73497 4 9.48062 4.10536 9.29308 4.2929C9.10554 4.48043 9.00019 4.73479 9.00019 5C9.00019 5.26522 9.10554 5.51957 9.29308 5.70711C9.48062 5.89465 9.73497 6 10.0002 6H19.5002C19.7654 6 20.0198 6.10536 20.2073 6.2929C20.3948 6.48043 20.5002 6.73479 20.5002 7V13.76L18.6202 11.88C18.2987 11.5602 17.909 11.3175 17.4802 11.17C17.3554 11.128 17.2236 11.1109 17.0923 11.1199C16.9609 11.1288 16.8326 11.1635 16.7147 11.222C16.5968 11.2805 16.4915 11.3616 16.405 11.4608C16.3184 11.56 16.2522 11.6752 16.2102 11.8C16.1682 11.9248 16.1511 12.0566 16.16 12.1879C16.169 12.3193 16.2037 12.4475 16.2622 12.5655C16.3207 12.6834 16.4018 12.7887 16.501 12.8752C16.6002 12.9618 16.7154 13.028 16.8402 13.07C16.9784 13.1135 17.1026 13.1929 17.2002 13.3L20.5102 16.59C20.5045 16.6398 20.5045 16.6902 20.5102 16.74C20.5057 16.7899 20.5057 16.8401 20.5102 16.89C20.5478 16.954 20.5913 17.0142 20.6402 17.07C20.6646 17.1109 20.6949 17.148 20.7302 17.18C20.7902 17.2355 20.8575 17.2826 20.9302 17.32C20.9647 17.3438 21.0015 17.3639 21.0402 17.38C21.1565 17.4323 21.2826 17.4596 21.4102 17.46C21.6754 17.46 21.9298 17.3546 22.1173 17.1671C22.3048 16.9796 22.4102 16.7252 22.4102 16.46V7C22.4105 6.2197 22.1068 5.46997 21.5636 4.90988C21.0203 4.34979 20.2801 4.02341 19.5002 4ZM3.21019 2.29C3.02188 2.1017 2.76649 1.99591 2.50019 1.99591C2.23388 1.99591 1.97849 2.1017 1.79019 2.29C1.60188 2.47831 1.49609 2.7337 1.49609 3C1.49609 3.2663 1.60188 3.5217 1.79019 3.71L3.18019 5.1C2.74092 5.63581 2.50065 6.30715 2.50019 7V17C2.50019 17.7957 2.81626 18.5587 3.37887 19.1213C3.94147 19.6839 4.70454 20 5.50019 20H18.0902L19.7902 21.71C19.8831 21.8037 19.9937 21.8781 20.1156 21.9289C20.2375 21.9797 20.3682 22.0058 20.5002 22.0058C20.6322 22.0058 20.7629 21.9797 20.8848 21.9289C21.0066 21.8781 21.1172 21.8037 21.2102 21.71C21.3039 21.617 21.3783 21.5064 21.4291 21.3846C21.4798 21.2627 21.506 21.132 21.506 21C21.506 20.868 21.4798 20.7373 21.4291 20.6154C21.3783 20.4936 21.3039 20.383 21.2102 20.29L3.21019 2.29ZM4.50019 7C4.50263 6.83925 4.54379 6.68146 4.62019 6.54L7.34019 9.25C6.96837 9.39161 6.62845 9.60577 6.34019 9.88L4.50019 11.76V7ZM5.50019 18C5.23497 18 4.98062 17.8946 4.79308 17.7071C4.60554 17.5196 4.50019 17.2652 4.50019 17V14.58L7.80019 11.29C7.98711 11.1068 8.23843 11.0041 8.50019 11.0041C8.76194 11.0041 9.01326 11.1068 9.20019 11.29L15.9102 18H5.50019Z" fill="black"/>
</svg>
