<svg width="24" height="24" viewBox="0 0 24 24" fill="none" xmlns="http://www.w3.org/2000/svg">
<path d="M19.0002 6H16.0002V5C16.0002 4.46957 15.7895 3.96086 15.4144 3.58579C15.0393 3.21072 14.5306 3 14.0002 3H10.0002C9.7927 2.99908 9.58652 3.03288 9.39019 3.1C9.26434 3.14073 9.14783 3.20601 9.04739 3.29208C8.94695 3.37814 8.86459 3.48328 8.80506 3.6014C8.74554 3.71952 8.71004 3.84827 8.70062 3.9802C8.6912 4.11213 8.70805 4.24463 8.75019 4.37C8.83467 4.61769 9.01288 4.82239 9.24658 4.94018C9.48028 5.05796 9.75083 5.07944 10.0002 5H14.0002V6H12.6602C12.395 6 12.1406 6.10536 11.9531 6.2929C11.7655 6.48043 11.6602 6.73479 11.6602 7C11.6602 7.26522 11.7655 7.51957 11.9531 7.70711C12.1406 7.89465 12.395 8 12.6602 8H19.0002C19.2654 8 19.5198 8.10536 19.7073 8.2929C19.8948 8.48043 20.0002 8.73479 20.0002 9V10.28L17.4302 11.14C17.3052 11.1817 17.1898 11.2478 17.0904 11.3343C16.9911 11.4208 16.9098 11.5261 16.8512 11.6441C16.7927 11.7621 16.7581 11.8905 16.7493 12.0219C16.7405 12.1534 16.7578 12.2853 16.8002 12.41C16.8673 12.6086 16.9951 12.7811 17.1656 12.9032C17.336 13.0252 17.5405 13.0905 17.7502 13.09C17.8586 13.088 17.9663 13.0712 18.0702 13.04L20.0002 12.39V15.34C20.0002 15.6052 20.1055 15.8596 20.2931 16.0471C20.4806 16.2346 20.735 16.34 21.0002 16.34C21.2654 16.34 21.5198 16.2346 21.7073 16.0471C21.8948 15.8596 22.0002 15.6052 22.0002 15.34V9C22.0002 8.20435 21.6841 7.44129 21.1215 6.87868C20.5589 6.31607 19.7958 6 19.0002 6ZM3.71019 2.29C3.61695 2.19676 3.50626 2.1228 3.38443 2.07234C3.26261 2.02188 3.13204 1.99591 3.00019 1.99591C2.86833 1.99591 2.73776 2.02188 2.61594 2.07234C2.49411 2.1228 2.38342 2.19676 2.29019 2.29C2.10188 2.47831 1.99609 2.7337 1.99609 3C1.99609 3.2663 2.10188 3.5217 2.29019 3.71L4.62019 6C3.89208 6.09295 3.22332 6.44961 2.74049 7.00247C2.25766 7.55533 1.99428 8.26601 2.00019 9V18C2.00019 18.7957 2.31626 19.5587 2.87887 20.1213C3.44147 20.6839 4.20454 21 5.00019 21H19.0002C19.1783 20.9954 19.3556 20.9753 19.5302 20.94L20.2902 21.71C20.3831 21.8037 20.4937 21.8781 20.6156 21.9289C20.7375 21.9797 20.8682 22.0058 21.0002 22.0058C21.1322 22.0058 21.2629 21.9797 21.3848 21.9289C21.5066 21.8781 21.6172 21.8037 21.7102 21.71C21.8039 21.617 21.8783 21.5064 21.9291 21.3846C21.9798 21.2627 22.006 21.132 22.006 21C22.006 20.868 21.9798 20.7373 21.9291 20.6154C21.8783 20.4936 21.8039 20.383 21.7102 20.29L3.71019 2.29ZM4.00019 9C4.00019 8.73479 4.10554 8.48043 4.29308 8.2929C4.48062 8.10536 4.73497 8 5.00019 8H6.59019L10.5902 12H9.16019L4.00019 10.28V9ZM5.00019 19C4.73497 19 4.48062 18.8946 4.29308 18.7071C4.10554 18.5196 4.00019 18.2652 4.00019 18V12.39L8.68019 14C8.78637 14.0144 8.89401 14.0144 9.00019 14H12.5902L17.5902 19H5.00019Z" fill="black"/>
</svg>
