<svg width="24" height="24" viewBox="0 0 24 24" fill="none" xmlns="http://www.w3.org/2000/svg">
<path d="M21.7101 6.53L20.2901 5.12L21.7101 3.71C21.8984 3.5217 22.0042 3.2663 22.0042 3C22.0042 2.7337 21.8984 2.47831 21.7101 2.29C21.5218 2.1017 21.2664 1.99591 21.0001 1.99591C20.7338 1.99591 20.4784 2.1017 20.2901 2.29L9.7501 12.83C8.71614 12.1478 7.46577 11.8738 6.24126 12.0609C5.01676 12.248 3.90532 12.883 3.12228 13.8429C2.33925 14.8027 1.94038 16.019 2.00297 17.2561C2.06556 18.4933 2.58515 19.6631 3.46105 20.539C4.33696 21.415 5.50682 21.9345 6.74395 21.9971C7.98109 22.0597 9.19741 21.6608 10.1572 20.8778C11.1171 20.0948 11.7521 18.9833 11.9392 17.7588C12.1263 16.5343 11.8523 15.284 11.1701 14.25L16.0501 9.36L17.4601 10.78C17.5535 10.8727 17.6644 10.946 17.7862 10.9958C17.908 11.0455 18.0385 11.0708 18.1701 11.07C18.3017 11.0708 18.4322 11.0455 18.554 10.9958C18.6758 10.946 18.7867 10.8727 18.8801 10.78C18.9738 10.687 19.0482 10.5764 19.099 10.4546C19.1498 10.3327 19.1759 10.202 19.1759 10.07C19.1759 9.93799 19.1498 9.80729 19.099 9.68543C19.0482 9.56357 18.9738 9.45297 18.8801 9.36L17.4601 8L18.8801 6.58L20.2901 8C20.3835 8.09268 20.4944 8.16601 20.6162 8.21577C20.738 8.26554 20.8685 8.29076 21.0001 8.29C21.1317 8.29076 21.2622 8.26554 21.384 8.21577C21.5058 8.16601 21.6167 8.09268 21.7101 8C21.8116 7.90636 21.8926 7.79271 21.948 7.66621C22.0034 7.53971 22.032 7.4031 22.032 7.265C22.032 7.1269 22.0034 6.9903 21.948 6.8638C21.8926 6.7373 21.8116 6.62364 21.7101 6.53ZM7.0001 20C6.40675 20 5.82673 19.8241 5.33339 19.4944C4.84004 19.1648 4.45552 18.6962 4.22846 18.1481C4.00139 17.5999 3.94199 16.9967 4.05774 16.4147C4.1735 15.8328 4.45922 15.2982 4.87878 14.8787C5.29833 14.4591 5.83288 14.1734 6.41483 14.0576C6.99677 13.9419 7.59997 14.0013 8.14815 14.2284C8.69632 14.4554 9.16486 14.8399 9.4945 15.3333C9.82415 15.8266 10.0001 16.4067 10.0001 17C10.0001 17.7957 9.68403 18.5587 9.12142 19.1213C8.55881 19.6839 7.79575 20 7.0001 20Z" fill="black"/>
</svg>
