<svg width="24" height="24" viewBox="0 0 24 24" fill="none" xmlns="http://www.w3.org/2000/svg">
<path d="M21.5398 5.15995C21.3941 5.06131 21.2248 5.00289 21.0492 4.9906C20.8736 4.97831 20.6979 5.01258 20.5398 5.08995C17.8365 6.21891 14.9291 6.77725 11.9998 6.72995C9.05717 6.78278 6.13556 6.22434 3.41983 5.08995C3.26173 5.01258 3.08601 4.97831 2.91042 4.9906C2.73484 5.00289 2.56561 5.06131 2.41983 5.15995C2.2864 5.25488 2.17832 5.38112 2.10508 5.52758C2.03185 5.67405 1.99571 5.83625 1.99983 5.99995V18C2.00011 18.1673 2.04236 18.3318 2.12273 18.4786C2.2031 18.6254 2.319 18.7496 2.45983 18.84C2.60561 18.9386 2.77484 18.997 2.95042 19.0093C3.12601 19.0216 3.30173 18.9873 3.45983 18.91C6.16318 17.781 9.0706 17.2227 11.9998 17.27C14.9425 17.2171 17.8641 17.7756 20.5798 18.91C20.7122 18.9683 20.8552 18.9989 20.9998 19C21.1914 18.9995 21.3789 18.9439 21.5398 18.84C21.6807 18.7496 21.7966 18.6254 21.8769 18.4786C21.9573 18.3318 21.9995 18.1673 21.9998 18V5.99995C21.9995 5.83263 21.9573 5.66806 21.8769 5.52131C21.7966 5.37455 21.6807 5.25031 21.5398 5.15995ZM19.9998 16.52C17.4198 15.6673 14.717 15.245 11.9998 15.27C9.28265 15.245 6.57988 15.6673 3.99983 16.52V7.51995C6.57988 8.3726 9.28265 8.79491 11.9998 8.76995C14.717 8.79491 17.4198 8.3726 19.9998 7.51995V16.52Z" fill="black"/>
</svg>
