<svg width="24" height="24" viewBox="0 0 24 24" fill="none" xmlns="http://www.w3.org/2000/svg">
<path d="M18.4198 6.71999C17.8088 5.31599 16.7543 4.15106 15.4178 3.40371C14.0814 2.65636 12.5368 2.36782 11.0207 2.5823C9.50464 2.79677 8.10069 3.50244 7.02402 4.59116C5.94735 5.67988 5.25735 7.0916 5.05977 8.60999C4.22198 8.81404 3.47257 9.28335 2.92321 9.94798C2.37386 10.6126 2.05399 11.437 2.01126 12.2982C1.96854 13.1594 2.20526 14.0114 2.68613 14.7271C3.16701 15.4428 3.86629 15.984 4.67977 16.27C4.78348 16.3019 4.89125 16.3188 4.99977 16.32C5.26498 16.3624 5.53619 16.2978 5.75374 16.1402C5.97128 15.9827 6.11733 15.7452 6.15977 15.48C6.2022 15.2148 6.13754 14.9436 5.98001 14.726C5.82248 14.5085 5.58498 14.3624 5.31977 14.32C4.94268 14.1839 4.6152 13.9376 4.37982 13.613C4.14444 13.2885 4.01203 12.9007 3.99977 12.5C3.99977 11.9696 4.21048 11.4608 4.58555 11.0858C4.96063 10.7107 5.46933 10.5 5.99977 10.5C6.26498 10.5 6.51934 10.3946 6.70687 10.2071C6.89441 10.0196 6.99977 9.7652 6.99977 9.49999C7.00232 8.31726 7.42405 7.17374 8.19004 6.27257C8.95602 5.3714 10.0167 4.77094 11.1835 4.57786C12.3504 4.38478 13.5479 4.61159 14.5633 5.21799C15.5788 5.8244 16.3464 6.77113 16.7298 7.88999C16.7869 8.06183 16.8897 8.21492 17.0271 8.33292C17.1644 8.45092 17.3313 8.5294 17.5098 8.55999C18.1111 8.66883 18.6649 8.95872 19.0969 9.39087C19.529 9.82302 19.8188 10.3768 19.9276 10.9782C20.0363 11.5795 19.9588 12.1998 19.7054 12.7559C19.4521 13.312 19.0349 13.7774 18.5098 14.09C18.279 14.2226 18.1104 14.4414 18.041 14.6984C17.9716 14.9553 18.0072 15.2292 18.1398 15.46C18.2724 15.6907 18.4912 15.8593 18.7481 15.9287C19.0051 15.9981 19.279 15.9626 19.5098 15.83C20.268 15.3899 20.8972 14.7582 21.3342 13.9982C21.7712 13.2382 22.0008 12.3767 21.9998 11.5C21.9967 10.4241 21.6467 9.37792 21.0018 8.51679C20.3568 7.65566 19.4513 7.02553 18.4198 6.71999ZM14.9998 15.72V14.5C14.9998 13.7043 14.6837 12.9413 14.1211 12.3787C13.5585 11.8161 12.7954 11.5 11.9998 11.5C11.2041 11.5 10.4411 11.8161 9.87845 12.3787C9.31584 12.9413 8.99977 13.7043 8.99977 14.5V15.68C8.3384 15.92 7.78241 16.3848 7.429 16.9931C7.07558 17.6015 6.94723 18.3147 7.06637 19.0081C7.18551 19.7015 7.54457 20.331 8.08077 20.7865C8.61698 21.242 9.29623 21.4945 9.99977 21.5H13.9998C14.7033 21.4945 15.3826 21.242 15.9188 20.7865C16.455 20.331 16.814 19.7015 16.9332 19.0081C17.0523 18.3147 16.924 17.6015 16.5705 16.9931C16.2171 16.3848 15.6611 15.92 14.9998 15.68V15.72ZM10.9998 14.5C10.9998 14.2348 11.1051 13.9804 11.2927 13.7929C11.4802 13.6053 11.7345 13.5 11.9998 13.5C12.265 13.5 12.5193 13.6053 12.7069 13.7929C12.8944 13.9804 12.9998 14.2348 12.9998 14.5V15.5H10.9998V14.5ZM13.9998 19.5H9.99977C9.73455 19.5 9.4802 19.3946 9.29266 19.2071C9.10512 19.0196 8.99977 18.7652 8.99977 18.5C8.99977 18.2348 9.10512 17.9804 9.29266 17.7929C9.4802 17.6053 9.73455 17.5 9.99977 17.5H13.9998C14.265 17.5 14.5193 17.6053 14.7069 17.7929C14.8944 17.9804 14.9998 18.2348 14.9998 18.5C14.9998 18.7652 14.8944 19.0196 14.7069 19.2071C14.5193 19.3946 14.265 19.5 13.9998 19.5Z" fill="black"/>
</svg>
