<svg width="24" height="24" viewBox="0 0 24 24" fill="none" xmlns="http://www.w3.org/2000/svg">
<path d="M20.1598 5C19.0935 3.9447 17.6851 3.30527 16.1888 3.19708C14.6925 3.08889 13.2068 3.51907 11.9998 4.41C10.7274 3.46364 9.14378 3.03451 7.56771 3.20904C5.99164 3.38356 4.54023 4.14878 3.50576 5.35059C2.47129 6.55239 1.93061 8.10152 1.99259 9.68601C2.05457 11.2705 2.71461 12.7727 3.83979 13.89L9.83979 19.94C10.4023 20.5018 11.1648 20.8174 11.9598 20.8174C12.7548 20.8174 13.5173 20.5018 14.0798 19.94L20.0798 13.89C20.6707 13.3126 21.1417 12.6242 21.4657 11.8642C21.7897 11.1043 21.9604 10.2878 21.9678 9.46163C21.9752 8.63551 21.8193 7.81606 21.5091 7.05038C21.1988 6.2847 20.7402 5.58789 20.1598 5ZM18.7498 12.46L12.7498 18.46C12.6568 18.5537 12.5462 18.6281 12.4244 18.6789C12.3025 18.7297 12.1718 18.7558 12.0398 18.7558C11.9078 18.7558 11.7771 18.7297 11.6552 18.6789C11.5334 18.6281 11.4228 18.5537 11.3298 18.46L5.32979 12.46C4.54555 11.6583 4.1064 10.5815 4.1064 9.46C4.1064 8.33853 4.54555 7.26166 5.32979 6.46C6.12894 5.67099 7.20676 5.22857 8.32979 5.22857C9.45281 5.22857 10.5306 5.67099 11.3298 6.46C11.4228 6.55373 11.5334 6.62812 11.6552 6.67889C11.7771 6.72966 11.9078 6.7558 12.0398 6.7558C12.1718 6.7558 12.3025 6.72966 12.4244 6.67889C12.5462 6.62812 12.6568 6.55373 12.7498 6.46C13.5706 5.80689 14.603 5.47872 15.6502 5.53809C16.6975 5.59746 17.6862 6.04021 18.4279 6.7819C19.1696 7.52359 19.6123 8.51233 19.6717 9.55956C19.7311 10.6068 19.4029 11.6392 18.7498 12.46Z" fill="black"/>
</svg>
