<svg width="24" height="24" viewBox="0 0 24 24" fill="none" xmlns="http://www.w3.org/2000/svg">
<path d="M12.4399 13.11L12.2699 13C12.0868 12.9247 11.8855 12.9054 11.6915 12.9445C11.4974 12.9837 11.3194 13.0796 11.1799 13.22C11.0834 13.3088 11.0082 13.4181 10.9599 13.54C10.9073 13.6633 10.8801 13.796 10.8799 13.93C10.8815 14.0607 10.9086 14.1898 10.9599 14.31C11.0673 14.5503 11.2596 14.7426 11.4999 14.85C11.6201 14.9013 11.7492 14.9284 11.8799 14.93C12.0137 14.9275 12.1459 14.9004 12.2699 14.85C12.3899 14.7983 12.4986 14.7236 12.5899 14.63C12.7761 14.4427 12.8807 14.1892 12.8807 13.925C12.8807 13.6608 12.7761 13.4074 12.5899 13.22L12.4399 13.11ZM11.8799 6.00002C11.4027 5.99465 10.9324 6.11353 10.5151 6.34496C10.0979 6.5764 9.74798 6.91243 9.49988 7.32002C9.42753 7.43384 9.37894 7.56112 9.35706 7.6942C9.33517 7.82728 9.34042 7.96341 9.37251 8.09441C9.4046 8.2254 9.46285 8.34856 9.54377 8.45646C9.62468 8.56435 9.72659 8.65477 9.84335 8.72227C9.96012 8.78976 10.0893 8.83294 10.2232 8.8492C10.3571 8.86546 10.4929 8.85448 10.6224 8.8169C10.7519 8.77932 10.8725 8.71593 10.9769 8.63054C11.0813 8.54515 11.1674 8.43953 11.2299 8.32002C11.3037 8.21745 11.4015 8.1346 11.5149 8.0788C11.6283 8.02299 11.7536 7.99594 11.8799 8.00002C12.0788 8.00002 12.2696 8.07904 12.4102 8.21969C12.5509 8.36034 12.6299 8.55111 12.6299 8.75002C12.6299 8.94893 12.5509 9.1397 12.4102 9.28035C12.2696 9.421 12.0788 9.50002 11.8799 9.50002C11.6147 9.50002 11.3603 9.60538 11.1728 9.79291C10.9852 9.98045 10.8799 10.2348 10.8799 10.5C10.8799 10.7652 10.9852 11.0196 11.1728 11.2071C11.3603 11.3947 11.6147 11.5 11.8799 11.5C12.6092 11.5 13.3087 11.2103 13.8244 10.6946C14.3401 10.1788 14.6299 9.47937 14.6299 8.75002C14.6299 8.02068 14.3401 7.3212 13.8244 6.80548C13.3087 6.28975 12.6092 6.00002 11.8799 6.00002ZM20.4599 9.68002C20.3273 8.21463 19.8166 6.80875 18.9777 5.59993C18.1388 4.39111 17.0005 3.42074 15.6742 2.78377C14.3478 2.14679 12.8788 1.86503 11.4109 1.96604C9.94303 2.06705 8.52649 2.54737 7.29988 3.36002C6.24908 4.06267 5.36693 4.98932 4.71682 6.07341C4.06672 7.1575 3.66478 8.37213 3.53988 9.63002C3.41736 10.8797 3.57455 12.1409 4.00005 13.3223C4.42555 14.5037 5.10868 15.5755 5.99988 16.46L11.2999 21.77C11.3928 21.8638 11.5034 21.9381 11.6253 21.9889C11.7472 22.0397 11.8779 22.0658 12.0099 22.0658C12.1419 22.0658 12.2726 22.0397 12.3945 21.9889C12.5163 21.9381 12.6269 21.8638 12.7199 21.77L17.9999 16.46C18.8911 15.5755 19.5742 14.5037 19.9997 13.3223C20.4252 12.1409 20.5824 10.8797 20.4599 9.63002V9.68002ZM16.5999 15.05L11.9999 19.65L7.39988 15.05C6.72197 14.3721 6.20268 13.5524 5.87935 12.6498C5.55601 11.7472 5.43667 10.7842 5.52988 9.83002C5.6237 8.86112 5.93164 7.92518 6.43145 7.08986C6.93126 6.25455 7.61044 5.54073 8.41988 5.00002C9.48083 4.29526 10.7262 3.91932 11.9999 3.91932C13.2736 3.91932 14.5189 4.29526 15.5799 5.00002C16.3869 5.53864 17.0646 6.2493 17.5642 7.08096C18.0639 7.91262 18.3732 8.84462 18.4699 9.81002C18.5661 10.7674 18.4483 11.7343 18.1249 12.6406C17.8014 13.5468 17.2805 14.3699 16.5999 15.05Z" fill="black"/>
</svg>
