<svg width="24" height="24" viewBox="0 0 24 24" fill="none" xmlns="http://www.w3.org/2000/svg">
<path d="M12.7101 18.79C12.6129 18.7017 12.5013 18.6307 12.3801 18.58C12.198 18.5035 11.9973 18.4825 11.8033 18.5199C11.6093 18.5573 11.4308 18.6513 11.2901 18.79C11.1074 18.9817 11.0038 19.2353 11.0001 19.5C10.9994 19.6316 11.0246 19.7621 11.0744 19.8839C11.1241 20.0058 11.1975 20.1166 11.2901 20.21C11.3873 20.2984 11.4989 20.3694 11.6201 20.42C11.8019 20.4928 12.0009 20.5106 12.1927 20.4712C12.3844 20.4319 12.5604 20.3372 12.6989 20.1988C12.8373 20.0603 12.932 19.8843 12.9713 19.6926C13.0107 19.5008 12.9929 19.3018 12.9201 19.12C12.8725 18.9973 12.8012 18.8851 12.7101 18.79ZM12.0001 12.5C11.7349 12.5 11.4806 12.6054 11.293 12.7929C11.1055 12.9805 11.0001 13.2348 11.0001 13.5V16.5C11.0001 16.7653 11.1055 17.0196 11.293 17.2071C11.4806 17.3947 11.7349 17.5 12.0001 17.5C12.2654 17.5 12.5197 17.3947 12.7072 17.2071C12.8948 17.0196 13.0001 16.7653 13.0001 16.5V13.5C13.0001 13.2348 12.8948 12.9805 12.7072 12.7929C12.5197 12.6054 12.2654 12.5 12.0001 12.5ZM18.4201 7.71003C17.8084 6.30584 16.7531 5.14103 15.4159 4.39419C14.0787 3.64735 12.5334 3.3597 11.017 3.57536C9.50063 3.79101 8.09684 4.49806 7.02085 5.58809C5.94487 6.67813 5.25609 8.09098 5.06013 9.61003C4.10672 9.83836 3.27036 10.4089 2.70987 11.2132C2.14939 12.0176 1.90382 12.9998 2.0198 13.9732C2.13578 14.9467 2.60523 15.8437 3.339 16.4939C4.07277 17.1441 5.01976 17.5021 6.00013 17.5H8.00013C8.26535 17.5 8.5197 17.3947 8.70724 17.2071C8.89478 17.0196 9.00013 16.7653 9.00013 16.5C9.00013 16.2348 8.89478 15.9805 8.70724 15.7929C8.5197 15.6054 8.26535 15.5 8.00013 15.5H6.00013C5.4697 15.5 4.96099 15.2893 4.58592 14.9142C4.21085 14.5392 4.00013 14.0305 4.00013 13.5C4.00013 12.9696 4.21085 12.4609 4.58592 12.0858C4.96099 11.7107 5.4697 11.5 6.00013 11.5C6.26535 11.5 6.5197 11.3947 6.70724 11.2071C6.89478 11.0196 7.00013 10.7652 7.00013 10.5C7.00269 9.31731 7.42442 8.17379 8.1904 7.27262C8.95639 6.37145 10.017 5.77098 11.1839 5.57791C12.3507 5.38483 13.5483 5.61164 14.5637 6.21804C15.5791 6.82444 16.3467 7.77117 16.7301 8.89003C16.7888 9.06001 16.8922 9.21102 17.0295 9.32717C17.1667 9.44332 17.3328 9.52031 17.5101 9.55003C18.2431 9.68529 18.8995 10.0886 19.3515 10.6813C19.8034 11.274 20.0185 12.0138 19.9548 12.7564C19.8911 13.4991 19.5533 14.1914 19.0071 14.6986C18.4609 15.2058 17.7455 15.4915 17.0001 15.5H16.0001C15.7349 15.5 15.4806 15.6054 15.293 15.7929C15.1055 15.9805 15.0001 16.2348 15.0001 16.5C15.0001 16.7653 15.1055 17.0196 15.293 17.2071C15.4806 17.3947 15.7349 17.5 16.0001 17.5H17.0001C18.1995 17.4967 19.3577 17.0624 20.2635 16.2763C21.1693 15.4902 21.7624 14.4047 21.9346 13.2178C22.1067 12.0308 21.8465 10.8216 21.2014 9.81049C20.5562 8.79943 19.5691 8.05396 18.4201 7.71003Z" fill="black"/>
</svg>
