<svg width="24" height="24" viewBox="0 0 24 24" fill="none" xmlns="http://www.w3.org/2000/svg">
<path d="M19.8799 15.4999H15.3799C15.1147 15.4999 14.8603 15.6053 14.6728 15.7928C14.4853 15.9803 14.3799 16.2347 14.3799 16.4999C14.3799 16.7651 14.4853 17.0195 14.6728 17.207C14.8603 17.3945 15.1147 17.4999 15.3799 17.4999H17.7799C17.0357 18.286 16.1398 18.9128 15.1463 19.3426C14.1528 19.7723 13.0824 19.9959 11.9999 19.9999C10.9284 19.9989 9.86786 19.7847 8.87992 19.3699L7.38992 20.8599C8.81032 21.611 10.3932 22.0024 11.9999 21.9999C14.5635 21.9926 17.0264 21.001 18.8799 19.2299V20.9999C18.8799 21.2651 18.9853 21.5195 19.1728 21.707C19.3603 21.8945 19.6147 21.9999 19.8799 21.9999C20.1451 21.9999 20.3995 21.8945 20.587 21.707C20.7746 21.5195 20.8799 21.2651 20.8799 20.9999V16.4999C20.8799 16.2347 20.7746 15.9803 20.587 15.7928C20.3995 15.6053 20.1451 15.4999 19.8799 15.4999ZM18.3099 7.0999L19.7399 5.6699L21.7399 3.6699C21.8332 3.57666 21.9071 3.46597 21.9576 3.34415C22.008 3.22233 22.034 3.09176 22.034 2.9599C22.034 2.82804 22.008 2.69747 21.9576 2.57565C21.9071 2.45383 21.8332 2.34314 21.7399 2.2499C21.6467 2.15666 21.536 2.0827 21.4142 2.03224C21.2923 1.98178 21.1618 1.95581 21.0299 1.95581C20.8981 1.95581 20.7675 1.98178 20.6457 2.03224C20.5238 2.0827 20.4132 2.15666 20.3199 2.2499L18.3199 4.2499C16.5397 2.78649 14.3044 1.99068 11.9999 1.9999C9.43631 2.00721 6.97341 2.99882 5.11992 4.7699V2.9999C5.11992 2.73469 5.01456 2.48033 4.82703 2.2928C4.63949 2.10526 4.38514 1.9999 4.11992 1.9999C3.8547 1.9999 3.60035 2.10526 3.41281 2.2928C3.22528 2.48033 3.11992 2.73469 3.11992 2.9999V7.4999C3.11992 7.76512 3.22528 8.01947 3.41281 8.20701C3.60035 8.39455 3.8547 8.4999 4.11992 8.4999H8.61992C8.88514 8.4999 9.13949 8.39455 9.32703 8.20701C9.51456 8.01947 9.61992 7.76512 9.61992 7.4999C9.61992 7.23469 9.51456 6.98033 9.32703 6.7928C9.13949 6.60526 8.88514 6.4999 8.61992 6.4999H6.21992C7.57617 5.05706 9.42318 4.17384 11.3977 4.02395C13.3722 3.87406 15.3314 4.46833 16.8899 5.6899L5.68992 16.8899C4.59574 15.4947 4.00072 13.773 3.99992 11.9999C3.99992 11.7347 3.89456 11.4803 3.70703 11.2928C3.51949 11.1053 3.26514 10.9999 2.99992 10.9999C2.7347 10.9999 2.48035 11.1053 2.29281 11.2928C2.10528 11.4803 1.99992 11.7347 1.99992 11.9999C1.99633 14.3068 2.79931 16.5425 4.26992 18.3199L2.26992 20.3199C2.17619 20.4129 2.1018 20.5235 2.05103 20.6453C2.00026 20.7672 1.97412 20.8979 1.97412 21.0299C1.97412 21.1619 2.00026 21.2926 2.05103 21.4145C2.1018 21.5363 2.17619 21.6469 2.26992 21.7399C2.36288 21.8336 2.47348 21.908 2.59534 21.9588C2.7172 22.0096 2.84791 22.0357 2.97992 22.0357C3.11193 22.0357 3.24264 22.0096 3.3645 21.9588C3.48636 21.908 3.59696 21.8336 3.68992 21.7399L5.68992 19.7399L7.11992 18.3099L18.3099 7.0999ZM19.3699 8.8799C19.7847 9.86784 19.9989 10.9284 19.9999 11.9999C19.9999 12.2651 20.1053 12.5195 20.2928 12.707C20.4803 12.8945 20.7347 12.9999 20.9999 12.9999C21.2651 12.9999 21.5195 12.8945 21.707 12.707C21.8946 12.5195 21.9999 12.2651 21.9999 11.9999C22.0024 10.3932 21.611 8.81031 20.8599 7.3899L19.3699 8.8799Z" fill="black"/>
</svg>
