<svg width="24" height="24" viewBox="0 0 24 24" fill="none" xmlns="http://www.w3.org/2000/svg">
<path d="M21.6599 10.25L12.6599 2.25C12.4774 2.08968 12.2428 2.00127 11.9999 2.00127C11.757 2.00127 11.5224 2.08968 11.3399 2.25L2.33987 10.25C2.18691 10.3853 2.07904 10.5642 2.03077 10.7627C1.98251 10.9611 1.99615 11.1695 2.06987 11.36C2.14239 11.5479 2.26998 11.7096 2.43592 11.8238C2.60187 11.938 2.79843 11.9994 2.99987 12H3.99987V21C3.99987 21.2652 4.10523 21.5196 4.29277 21.7071C4.4803 21.8946 4.73466 22 4.99987 22H18.9999C19.2651 22 19.5194 21.8946 19.707 21.7071C19.8945 21.5196 19.9999 21.2652 19.9999 21V12H20.9999C21.2013 11.9994 21.3979 11.938 21.5638 11.8238C21.7298 11.7096 21.8574 11.5479 21.9299 11.36C22.0036 11.1695 22.0172 10.9611 21.969 10.7627C21.9207 10.5642 21.8128 10.3853 21.6599 10.25ZM12.9999 20H10.9999V17C10.9999 16.7348 11.1052 16.4804 11.2928 16.2929C11.4803 16.1054 11.7347 16 11.9999 16C12.2651 16 12.5194 16.1054 12.707 16.2929C12.8945 16.4804 12.9999 16.7348 12.9999 17V20ZM17.9999 20H14.9999V17C14.9999 16.2044 14.6838 15.4413 14.1212 14.8787C13.5586 14.3161 12.7955 14 11.9999 14C11.2042 14 10.4412 14.3161 9.87855 14.8787C9.31594 15.4413 8.99987 16.2044 8.99987 17V20H5.99987V12H17.9999V20ZM5.62987 10L11.9999 4.34L18.3699 10H5.62987Z" fill="black"/>
</svg>
