<svg width="24" height="24" viewBox="0 0 24 24" fill="none" xmlns="http://www.w3.org/2000/svg">
<path d="M18.4201 8.22002C17.8091 6.81602 16.7546 5.65109 15.4182 4.90374C14.0818 4.15639 12.5372 3.86785 11.0211 4.08233C9.50501 4.2968 8.10106 5.00247 7.02439 6.09119C5.94772 7.17991 5.25772 8.59163 5.06013 10.11C4.10672 10.3383 3.27036 10.9089 2.70987 11.7132C2.14939 12.5176 1.90382 13.4997 2.0198 14.4732C2.13578 15.4467 2.60523 16.3437 3.339 16.9939C4.07277 17.644 5.01976 18.0021 6.00013 18C6.26535 18 6.5197 17.8947 6.70724 17.7071C6.89478 17.5196 7.00013 17.2652 7.00013 17C7.00013 16.7348 6.89478 16.4804 6.70724 16.2929C6.5197 16.1054 6.26535 16 6.00013 16C5.4697 16 4.96099 15.7893 4.58592 15.4142C4.21085 15.0392 4.00013 14.5304 4.00013 14C4.00013 13.4696 4.21085 12.9609 4.58592 12.5858C4.96099 12.2107 5.4697 12 6.00013 12C6.26535 12 6.5197 11.8947 6.70724 11.7071C6.89478 11.5196 7.00013 11.2652 7.00013 11C7.00269 9.8173 7.42442 8.67377 8.1904 7.7726C8.95639 6.87143 10.017 6.27097 11.1839 6.07789C12.3507 5.88481 13.5483 6.11162 14.5637 6.71803C15.5791 7.32443 16.3467 8.27116 16.7301 9.39002C16.7873 9.56186 16.89 9.71495 17.0274 9.83295C17.1648 9.95095 17.3316 10.0294 17.5101 10.06C18.1762 10.1859 18.78 10.5336 19.2232 11.0466C19.6663 11.5595 19.9227 12.2074 19.9505 12.8847C19.9784 13.5619 19.776 14.2287 19.3764 14.7762C18.9769 15.3238 18.4036 15.7199 17.7501 15.9C17.4929 15.9663 17.2725 16.1321 17.1375 16.3609C17.0024 16.5897 16.9638 16.8628 17.0301 17.12C17.0964 17.3773 17.2622 17.5977 17.491 17.7327C17.7198 17.8677 17.9929 17.9063 18.2501 17.84C19.3025 17.5619 20.2354 16.948 20.9071 16.0915C21.5789 15.235 21.9527 14.1826 21.972 13.0943C21.9912 12.0059 21.6547 10.9411 21.0137 10.0613C20.3727 9.18161 19.462 8.53512 18.4201 8.22002ZM14.7101 14.29C14.6172 14.1963 14.5066 14.1219 14.3847 14.0711C14.2629 14.0204 14.1321 13.9942 14.0001 13.9942C13.8681 13.9942 13.7374 14.0204 13.6156 14.0711C13.4937 14.1219 13.3831 14.1963 13.2901 14.29L12.0001 15.59L10.7101 14.29C10.5218 14.1017 10.2664 13.9959 10.0001 13.9959C9.73383 13.9959 9.47844 14.1017 9.29013 14.29C9.10183 14.4783 8.99604 14.7337 8.99604 15C8.99604 15.2663 9.10183 15.5217 9.29013 15.71L10.5901 17L9.29013 18.29C9.19641 18.383 9.12201 18.4936 9.07124 18.6154C9.02047 18.7373 8.99434 18.868 8.99434 19C8.99434 19.132 9.02047 19.2627 9.07124 19.3846C9.12201 19.5065 9.19641 19.6171 9.29013 19.71C9.3831 19.8037 9.4937 19.8781 9.61556 19.9289C9.73742 19.9797 9.86812 20.0058 10.0001 20.0058C10.1321 20.0058 10.2629 19.9797 10.3847 19.9289C10.5066 19.8781 10.6172 19.8037 10.7101 19.71L12.0001 18.41L13.2901 19.71C13.3831 19.8037 13.4937 19.8781 13.6156 19.9289C13.7374 19.9797 13.8681 20.0058 14.0001 20.0058C14.1321 20.0058 14.2629 19.9797 14.3847 19.9289C14.5066 19.8781 14.6172 19.8037 14.7101 19.71C14.8039 19.6171 14.8783 19.5065 14.929 19.3846C14.9798 19.2627 15.0059 19.132 15.0059 19C15.0059 18.868 14.9798 18.7373 14.929 18.6154C14.8783 18.4936 14.8039 18.383 14.7101 18.29L13.4101 17L14.7101 15.71C14.8039 15.6171 14.8783 15.5065 14.929 15.3846C14.9798 15.2627 15.0059 15.132 15.0059 15C15.0059 14.868 14.9798 14.7373 14.929 14.6154C14.8783 14.4936 14.8039 14.383 14.7101 14.29Z" fill="black"/>
</svg>
