<svg width="24" height="24" viewBox="0 0 24 24" fill="none" xmlns="http://www.w3.org/2000/svg">
<path d="M9.87984 14.12L9.72984 14L9.54984 13.9L9.36984 13.85C9.20918 13.8179 9.04308 13.8256 8.88615 13.8727C8.72921 13.9198 8.58625 14.0047 8.46984 14.12C8.37091 14.2106 8.29542 14.3239 8.24984 14.45C8.19693 14.5697 8.1696 14.6991 8.1696 14.83C8.1696 14.9609 8.19693 15.0903 8.24984 15.21C8.35729 15.4503 8.54954 15.6426 8.78984 15.75C8.91006 15.8013 9.03916 15.8284 9.16984 15.83C9.30365 15.8275 9.43585 15.8004 9.55984 15.75C9.68172 15.7017 9.79111 15.6265 9.87984 15.53C9.97337 15.4388 10.0481 15.33 10.0998 15.21C10.1477 15.0891 10.1714 14.96 10.1698 14.83C10.1732 14.6988 10.1458 14.5687 10.0898 14.45C10.044 14.3264 9.97244 14.2139 9.87984 14.12ZM3.50984 8.76002C3.64214 8.75947 3.77303 8.73267 3.8949 8.68117C4.01678 8.62968 4.12722 8.55451 4.21984 8.46002L8.45984 4.22002C8.64609 4.03266 8.75063 3.7792 8.75063 3.51502C8.75063 3.25083 8.64609 2.99738 8.45984 2.81002C8.27247 2.62377 8.01902 2.51923 7.75484 2.51923C7.49065 2.51923 7.2372 2.62377 7.04984 2.81002L2.80984 7.05002C2.62358 7.23738 2.51904 7.49083 2.51904 7.75502C2.51904 8.01921 2.62358 8.27266 2.80984 8.46002C2.99447 8.64843 3.24607 8.75626 3.50984 8.76002ZM21.1898 15.54C21.0025 15.3538 20.749 15.2492 20.4848 15.2492C20.2207 15.2492 19.9672 15.3538 19.7798 15.54L15.5398 19.78C15.3994 19.9193 15.3034 20.0971 15.2641 20.2909C15.2247 20.4847 15.2436 20.6858 15.3186 20.8689C15.3935 21.0519 15.521 21.2086 15.685 21.3192C15.849 21.4297 16.0421 21.4892 16.2398 21.49C16.3721 21.4895 16.503 21.4627 16.6249 21.4112C16.7468 21.3597 16.8572 21.2845 16.9498 21.19L21.1898 17C21.2897 16.9065 21.3694 16.7934 21.4238 16.6679C21.4783 16.5423 21.5064 16.4069 21.5064 16.27C21.5064 16.1332 21.4783 15.9977 21.4238 15.8722C21.3694 15.7466 21.2897 15.6336 21.1898 15.54ZM21.3598 9.88002C21.3618 9.08607 21.0489 8.32372 20.4898 7.76002L16.2398 3.51002C15.6676 2.96701 14.9087 2.6643 14.1198 2.6643C13.3309 2.6643 12.5721 2.96701 11.9998 3.51002L3.50984 12C2.94803 12.5625 2.63248 13.325 2.63248 14.12C2.63248 14.915 2.94803 15.6775 3.50984 16.24L7.75984 20.49C8.32234 21.0518 9.08483 21.3674 9.87984 21.3674C10.6748 21.3674 11.4373 21.0518 11.9998 20.49L20.4898 12C21.0489 11.4363 21.3618 10.674 21.3598 9.88002ZM19.0698 10.59L10.5898 19.07C10.4969 19.1637 10.3863 19.2381 10.2644 19.2889C10.1426 19.3397 10.0118 19.3658 9.87984 19.3658C9.74782 19.3658 9.61712 19.3397 9.49526 19.2889C9.3734 19.2381 9.2628 19.1637 9.16984 19.07L4.92984 14.83C4.83611 14.7371 4.76171 14.6265 4.71094 14.5046C4.66018 14.3827 4.63404 14.252 4.63404 14.12C4.63404 13.988 4.66018 13.8573 4.71094 13.7354C4.76171 13.6136 4.83611 13.503 4.92984 13.41L13.4098 4.93002C13.5028 4.83629 13.6134 4.7619 13.7353 4.71113C13.8571 4.66036 13.9878 4.63422 14.1198 4.63422C14.2518 4.63422 14.3826 4.66036 14.5044 4.71113C14.6263 4.7619 14.7369 4.83629 14.8298 4.93002L19.0698 9.17002C19.1636 9.26298 19.238 9.37358 19.2887 9.49544C19.3395 9.6173 19.3656 9.74801 19.3656 9.88002C19.3656 10.012 19.3395 10.1427 19.2887 10.2646C19.238 10.3865 19.1636 10.4971 19.0698 10.59Z" fill="black"/>
</svg>
