<svg width="24" height="24" viewBox="0 0 24 24" fill="none" xmlns="http://www.w3.org/2000/svg">
<path d="M20.5043 15.7436C19.8924 15.4819 19.3712 15.0458 19.0058 14.4896C18.6404 13.9335 18.4469 13.282 18.4496 12.6166C18.4575 12.0226 18.6166 11.4404 18.9118 10.9249C19.2071 10.4094 19.6287 9.97766 20.1371 9.6703C20.2521 9.59922 20.3515 9.50556 20.4293 9.39498C20.5071 9.2844 20.5616 9.15919 20.5896 9.02692C20.6177 8.89466 20.6186 8.75808 20.5923 8.62546C20.5661 8.49283 20.5132 8.3669 20.4369 8.2553C19.9799 7.59076 19.3842 7.03331 18.6908 6.62141C17.9974 6.20952 17.2229 5.953 16.4208 5.86957C17.1674 4.6847 17.5062 3.28826 17.3856 1.89299C17.3621 1.63963 17.2413 1.40524 17.0487 1.239C16.856 1.07276 16.6065 0.987601 16.3524 1.00139C14.6354 1.15442 13.0436 1.96428 11.909 3.26213C11.1898 4.09551 10.6823 5.09012 10.4296 6.16154C9.90737 5.98482 9.36066 5.89123 8.80943 5.8842C7.78892 5.91312 6.79319 6.20523 5.91879 6.73221C5.04439 7.25919 4.32098 8.00316 3.81871 8.89199C1.93101 12.1693 3.0858 17.0805 5.13071 20.0365C5.95102 21.2211 7.18198 22.9994 9.03891 22.9994C9.07553 22.9994 9.11264 22.9994 9.14975 22.9974C9.77193 22.9621 10.381 22.8045 10.9422 22.5335C11.3905 22.3063 11.885 22.1854 12.3876 22.18C12.8601 22.1858 13.3249 22.3015 13.745 22.5179C14.3588 22.8084 15.0278 22.9639 15.7069 22.974C17.62 22.9378 18.7499 21.2874 19.5751 20.0814C20.2262 19.1234 20.7356 18.0765 21.0877 16.973C21.1628 16.7322 21.1444 16.4721 21.0363 16.2442C20.9282 16.0164 20.7382 15.8377 20.5043 15.7436ZM13.4232 4.56781C13.9484 3.9803 14.6065 3.52694 15.3426 3.24555C15.1816 4.03778 14.8253 4.77727 14.306 5.39691C13.9536 5.81978 13.5247 6.17261 13.0419 6.43699L13.0389 6.43799C13.0106 6.44971 12.9823 6.46044 12.9539 6.47217C12.7674 6.5454 12.5369 6.63623 12.3592 6.69482C12.5308 5.90814 12.8966 5.17692 13.4232 4.56781ZM17.9247 18.9526C17.121 20.1264 16.4887 20.9594 15.6703 20.9741C15.2747 20.9728 14.8857 20.8724 14.5389 20.6821C13.8685 20.3554 13.1333 20.1839 12.3876 20.1801C11.6159 20.184 10.8548 20.3591 10.159 20.6927C9.82077 20.8654 9.45174 20.9696 9.0731 20.9994H9.04332C8.23032 20.9994 7.35582 19.7367 6.77525 18.8978C5.32261 16.7982 3.98277 12.6146 5.55211 9.89002C5.88119 9.30042 6.3571 8.80591 6.93364 8.45447C7.51019 8.10302 8.16779 7.90659 8.84263 7.88422L8.87632 7.88322C9.4456 7.9316 10.0015 8.08211 10.5174 8.32756C10.6488 8.37931 10.7782 8.43107 10.9066 8.47892C10.9393 8.4926 10.973 8.50529 11.0072 8.51603C11.363 8.65916 11.7411 8.73945 12.1244 8.75334C12.6671 8.7102 13.1973 8.56753 13.6884 8.33244C14.3806 7.99646 15.1416 7.82628 15.911 7.83537C16.734 7.86757 17.5241 8.16721 18.1615 8.68889C17.6168 9.19075 17.1831 9.80102 16.8883 10.4805C16.5935 11.1599 16.444 11.8936 16.4496 12.6342V12.6352C16.4439 13.5318 16.6658 14.4152 17.0945 15.2027C17.5232 15.9903 18.1447 16.6562 18.9008 17.1381C18.6375 17.7743 18.3104 18.3823 17.9247 18.9526Z" fill="black"/>
</svg>
