<svg width="24" height="24" viewBox="0 0 24 24" fill="none" xmlns="http://www.w3.org/2000/svg">
<path d="M17.2701 12C17.2126 9.05689 17.7712 6.13433 18.9101 3.41995C18.9874 3.26185 19.0217 3.08613 19.0094 2.91055C18.9971 2.73496 18.9387 2.56573 18.8401 2.41995C18.7452 2.28652 18.6189 2.17844 18.4724 2.10521C18.326 2.03197 18.1638 1.99583 18.0001 1.99995H6.00008C5.83276 2.00023 5.66818 2.04249 5.52143 2.12285C5.37467 2.20322 5.25043 2.31912 5.16008 2.45995C5.06143 2.60573 5.00301 2.77496 4.99072 2.95055C4.97843 3.12613 5.0127 3.30185 5.09008 3.45995C6.2235 6.16195 6.78201 9.07032 6.73008 12C6.78759 14.943 6.22897 17.8656 5.09008 20.58C5.0127 20.738 4.97843 20.9138 4.99072 21.0894C5.00301 21.2649 5.06143 21.4342 5.16008 21.58C5.255 21.7134 5.38124 21.8215 5.5277 21.8947C5.67417 21.9679 5.83638 22.0041 6.00008 22H18.0001C18.1674 21.9997 18.332 21.9574 18.4787 21.877C18.6255 21.7967 18.7497 21.6808 18.8401 21.54C18.9387 21.3942 18.9971 21.2249 19.0094 21.0494C19.0217 20.8738 18.9874 20.698 18.9101 20.54C17.7767 17.838 17.2181 14.9296 17.2701 12ZM16.5201 20H7.52008C8.37273 17.4199 8.79503 14.7171 8.77008 12C8.78214 9.28055 8.34631 6.57772 7.48008 3.99995H16.4801C15.6274 6.58 15.2051 9.28277 15.2301 12C15.218 14.7193 15.6538 17.4222 16.5201 20Z" fill="black"/>
</svg>
