<svg width="24" height="24" viewBox="0 0 24 24" fill="none" xmlns="http://www.w3.org/2000/svg">
<path d="M20.0001 13.17V13C20.0011 11.93 19.7874 10.8707 19.3717 9.88478C18.956 8.89884 18.3468 8.00631 17.5801 7.26C16.685 6.38898 15.5947 5.74442 14.4001 5.38H14.3501C13.5125 5.11613 12.6381 4.98784 11.7601 5C9.66848 5.1148 7.69986 6.02476 6.25724 7.5436C4.81463 9.06243 4.00714 11.0753 4.00008 13.17C3.33175 13.4051 2.76819 13.8691 2.40921 14.4799C2.05024 15.0908 1.91902 15.8089 2.03879 16.5072C2.15857 17.2055 2.52161 17.8388 3.06361 18.2951C3.60561 18.7513 4.2916 19.0011 5.00008 19H19.0001C19.7086 19.0011 20.3946 18.7513 20.9366 18.2951C21.4786 17.8388 21.8416 17.2055 21.9614 16.5072C22.0811 15.8089 21.9499 15.0908 21.5909 14.4799C21.232 13.8691 20.6684 13.4051 20.0001 13.17ZM19.0001 17H5.00008C4.73486 17 4.48051 16.8946 4.29297 16.7071C4.10544 16.5196 4.00008 16.2652 4.00008 16C4.00008 15.7348 4.10544 15.4804 4.29297 15.2929C4.48051 15.1054 4.73486 15 5.00008 15H7.00008C7.2653 15 7.51965 14.8946 7.70719 14.7071C7.89472 14.5196 8.00008 14.2652 8.00008 14C8.00008 13.7348 7.89472 13.4804 7.70719 13.2929C7.51965 13.1054 7.2653 13 7.00008 13H6.00008C6.04569 11.9628 6.34255 10.9522 6.86512 10.0551C7.3877 9.15803 8.12035 8.40129 9.00008 7.85V11C9.00008 11.2652 9.10544 11.5196 9.29297 11.7071C9.48051 11.8946 9.73486 12 10.0001 12C10.2653 12 10.5197 11.8946 10.7072 11.7071C10.8947 11.5196 11.0001 11.2652 11.0001 11V7.09C11.2715 7.04465 11.5453 7.0146 11.8201 7H12.0001C12.3357 7.00307 12.6705 7.03654 13.0001 7.1V11C13.0001 11.2652 13.1054 11.5196 13.293 11.7071C13.4805 11.8946 13.7349 12 14.0001 12C14.2653 12 14.5197 11.8946 14.7072 11.7071C14.8947 11.5196 15.0001 11.2652 15.0001 11V7.82C15.4243 8.06562 15.82 8.35739 16.1801 8.69C16.7566 9.24989 17.2148 9.91992 17.5275 10.6603C17.8401 11.4007 18.0008 12.1963 18.0001 13H17.0001C16.7349 13 16.4805 13.1054 16.293 13.2929C16.1054 13.4804 16.0001 13.7348 16.0001 14C16.0001 14.2652 16.1054 14.5196 16.293 14.7071C16.4805 14.8946 16.7349 15 17.0001 15H19.0001C19.2653 15 19.5197 15.1054 19.7072 15.2929C19.8947 15.4804 20.0001 15.7348 20.0001 16C20.0001 16.2652 19.8947 16.5196 19.7072 16.7071C19.5197 16.8946 19.2653 17 19.0001 17Z" fill="black"/>
</svg>
