<svg width="24" height="24" viewBox="0 0 24 24" fill="none" xmlns="http://www.w3.org/2000/svg">
<path d="M21 11.0001H3C2.73478 11.0001 2.48043 11.1055 2.29289 11.293C2.10536 11.4805 2 11.7349 2 12.0001C2 12.2653 2.10536 12.5197 2.29289 12.7072C2.48043 12.8948 2.73478 13.0001 3 13.0001H21C21.2652 13.0001 21.5196 12.8948 21.7071 12.7072C21.8946 12.5197 22 12.2653 22 12.0001C22 11.7349 21.8946 11.4805 21.7071 11.293C21.5196 11.1055 21.2652 11.0001 21 11.0001ZM10.93 9.00012H12.43C12.6952 9.00012 12.9496 8.89476 13.1371 8.70723C13.3246 8.51969 13.43 8.26534 13.43 8.00012C13.43 7.7349 13.3246 7.48055 13.1371 7.29301C12.9496 7.10548 12.6952 7.00012 12.43 7.00012H10.93C10.6648 7.00012 10.4104 7.10548 10.2229 7.29301C10.0354 7.48055 9.93 7.7349 9.93 8.00012C9.93 8.26534 10.0354 8.51969 10.2229 8.70723C10.4104 8.89476 10.6648 9.00012 10.93 9.00012ZM15.43 8.00012C15.43 8.26534 15.5354 8.51969 15.7229 8.70723C15.9104 8.89476 16.1648 9.00012 16.43 9.00012H17C17.1974 8.99913 17.3901 8.93973 17.5539 8.8294C17.7176 8.71906 17.845 8.56274 17.92 8.38012C17.9966 8.19801 18.0175 7.99729 17.9801 7.80331C17.9428 7.60932 17.8488 7.43074 17.71 7.29012L17.05 6.64012C16.8626 6.45387 16.6092 6.34933 16.345 6.34933C16.0808 6.34933 15.8274 6.45387 15.64 6.64012C15.4921 6.78788 15.3942 6.97829 15.3601 7.18457C15.326 7.39085 15.3575 7.60263 15.45 7.79012C15.4384 7.85956 15.4317 7.92973 15.43 8.00012ZM11.65 4.77012L12 4.41012L12.81 5.22012C12.9974 5.40637 13.2508 5.51091 13.515 5.51091C13.7792 5.51091 14.0326 5.40637 14.22 5.22012C14.4063 5.03276 14.5108 4.7793 14.5108 4.51512C14.5108 4.25093 14.4063 3.99748 14.22 3.81012L13.16 2.75012C13.0853 2.67183 12.9973 2.60749 12.9 2.56012C12.8305 2.41612 12.7274 2.29088 12.5995 2.19493C12.4716 2.09897 12.3225 2.03509 12.1648 2.00865C12.0071 1.9822 11.8454 1.99396 11.6932 2.04293C11.541 2.09191 11.4027 2.17667 11.29 2.29012L10.23 3.35012C10.0417 3.53842 9.93591 3.79382 9.93591 4.06012C9.93591 4.32642 10.0417 4.58181 10.23 4.77012C10.4183 4.95842 10.6737 5.06421 10.94 5.06421C11.2063 5.06421 11.4617 4.95842 11.65 4.77012ZM17 15.0001H7C6.80257 15.0011 6.60986 15.0605 6.44614 15.1708C6.28242 15.2812 6.15502 15.4375 6.08 15.6201C6.00342 15.8022 5.9825 16.0029 6.01987 16.1969C6.05725 16.3909 6.15124 16.5695 6.29 16.7101L11.29 21.7101C11.383 21.8038 11.4936 21.8782 11.6154 21.929C11.7373 21.9798 11.868 22.0059 12 22.0059C12.132 22.0059 12.2627 21.9798 12.3846 21.929C12.5064 21.8782 12.617 21.8038 12.71 21.7101L17.71 16.7101C17.8488 16.5695 17.9428 16.3909 17.9801 16.1969C18.0175 16.0029 17.9966 15.8022 17.92 15.6201C17.845 15.4375 17.7176 15.2812 17.5539 15.1708C17.3901 15.0605 17.1974 15.0011 17 15.0001ZM12 19.5901L9.41 17.0001H14.59L12 19.5901ZM7.05 9.00012C7.18161 9.00088 7.31207 8.97565 7.43391 8.92589C7.55574 8.87612 7.66656 8.8028 7.76 8.71012L8.82 7.60012C9.0083 7.41181 9.11409 7.15642 9.11409 6.89012C9.11409 6.62382 9.0083 6.36842 8.82 6.18012C8.6317 5.99181 8.3763 5.88603 8.11 5.88603C7.8437 5.88603 7.5883 5.99181 7.4 6.18012L6.34 7.24012C6.24627 7.33308 6.17188 7.44368 6.12111 7.56554C6.07034 7.6874 6.0442 7.81811 6.0442 7.95012C6.0442 8.08213 6.07034 8.21284 6.12111 8.3347C6.17188 8.45655 6.24627 8.56716 6.34 8.66012C6.42919 8.76188 6.5381 8.84448 6.66014 8.90292C6.78218 8.96136 6.91481 8.99443 7.05 9.00012Z" fill="black"/>
</svg>
