<svg width="24" height="24" viewBox="0 0 24 24" fill="none" xmlns="http://www.w3.org/2000/svg">
<path d="M21.7102 20.2899L15.4102 13.9999H17.0002C17.2654 13.9999 17.5198 13.8946 17.7073 13.707C17.8948 13.5195 18.0002 13.2652 18.0002 12.9999C18.0002 12.7347 17.8948 12.4804 17.7073 12.2928C17.5198 12.1053 17.2654 11.9999 17.0002 11.9999H13.4102L19.0702 6.33994C19.1749 6.25029 19.2599 6.13998 19.3199 6.01591C19.3799 5.89185 19.4137 5.75671 19.419 5.61899C19.4243 5.48128 19.4011 5.34394 19.3508 5.21562C19.3005 5.08729 19.2243 4.97075 19.1268 4.87329C19.0294 4.77584 18.9128 4.69958 18.7845 4.6493C18.6562 4.59903 18.5189 4.57582 18.3811 4.58114C18.2434 4.58646 18.1083 4.62019 17.9842 4.68022C17.8602 4.74024 17.7498 4.82526 17.6602 4.92994L12.0002 10.5899V6.99994C12.0002 6.73472 11.8948 6.48037 11.7073 6.29283C11.5198 6.1053 11.2654 5.99994 11.0002 5.99994C10.735 5.99994 10.4806 6.1053 10.2931 6.29283C10.1055 6.48037 10.0002 6.73472 10.0002 6.99994V8.58994L3.71019 2.28994C3.61695 2.1967 3.50626 2.12274 3.38443 2.07228C3.26261 2.02182 3.13204 1.99585 3.00019 1.99585C2.86833 1.99585 2.73776 2.02182 2.61594 2.07228C2.49411 2.12274 2.38342 2.1967 2.29019 2.28994C2.10188 2.47824 1.99609 2.73364 1.99609 2.99994C1.99609 3.26624 2.10188 3.52164 2.29019 3.70994L8.59019 9.99994H7.00019C6.73497 9.99994 6.48062 10.1053 6.29308 10.2928C6.10554 10.4804 6.00019 10.7347 6.00019 10.9999C6.00019 11.2652 6.10554 11.5195 6.29308 11.707C6.48062 11.8946 6.73497 11.9999 7.00019 11.9999H10.5902L4.93019 17.6599C4.74393 17.8473 4.63939 18.1008 4.63939 18.3649C4.63939 18.6291 4.74393 18.8826 4.93019 19.0699C5.11755 19.2562 5.371 19.3607 5.63519 19.3607C5.89937 19.3607 6.15282 19.2562 6.34019 19.0699L12.0002 13.4099V16.9999C12.0002 17.2652 12.1055 17.5195 12.2931 17.707C12.4806 17.8946 12.735 17.9999 13.0002 17.9999C13.2654 17.9999 13.5198 17.8946 13.7073 17.707C13.8948 17.5195 14.0002 17.2652 14.0002 16.9999V15.4099L20.2902 21.7099C20.3831 21.8037 20.4937 21.8781 20.6156 21.9288C20.7375 21.9796 20.8682 22.0057 21.0002 22.0057C21.1322 22.0057 21.2629 21.9796 21.3848 21.9288C21.5066 21.8781 21.6172 21.8037 21.7102 21.7099C21.8039 21.617 21.8783 21.5064 21.9291 21.3845C21.9798 21.2627 22.006 21.132 22.006 20.9999C22.006 20.8679 21.9798 20.7372 21.9291 20.6154C21.8783 20.4935 21.8039 20.3829 21.7102 20.2899Z" fill="black"/>
</svg>
