<svg width="24" height="24" viewBox="0 0 24 24" fill="none" xmlns="http://www.w3.org/2000/svg">
<path d="M15.2902 16.29L13.0002 18.59V5.41002L15.2902 7.71002C15.3831 7.80375 15.4937 7.87814 15.6156 7.92891C15.7375 7.97968 15.8682 8.00582 16.0002 8.00582C16.1322 8.00582 16.2629 7.97968 16.3848 7.92891C16.5066 7.87814 16.6172 7.80375 16.7102 7.71002C16.8039 7.61706 16.8783 7.50645 16.9291 7.3846C16.9798 7.26274 17.006 7.13203 17.006 7.00002C17.006 6.86801 16.9798 6.7373 16.9291 6.61544C16.8783 6.49358 16.8039 6.38298 16.7102 6.29002L12.7102 2.29002C12.6151 2.19898 12.5029 2.12761 12.3802 2.08002C12.1367 1.98 11.8636 1.98 11.6202 2.08002C11.4974 2.12761 11.3853 2.19898 11.2902 2.29002L7.29019 6.29002C7.19695 6.38326 7.12299 6.49395 7.07253 6.61577C7.02207 6.73759 6.99609 6.86816 6.99609 7.00002C6.99609 7.13188 7.02207 7.26245 7.07253 7.38427C7.12299 7.50609 7.19695 7.61678 7.29019 7.71002C7.38342 7.80326 7.49411 7.87722 7.61594 7.92768C7.73776 7.97814 7.86833 8.00411 8.00019 8.00411C8.13204 8.00411 8.26261 7.97814 8.38444 7.92768C8.50626 7.87722 8.61695 7.80326 8.71019 7.71002L11.0002 5.41002V18.59L8.71019 16.29C8.52188 16.1017 8.26649 15.9959 8.00019 15.9959C7.73388 15.9959 7.47849 16.1017 7.29019 16.29C7.10188 16.4783 6.99609 16.7337 6.99609 17C6.99609 17.2663 7.10188 17.5217 7.29019 17.71L11.2902 21.71C11.3853 21.8011 11.4974 21.8724 11.6202 21.92C11.7399 21.9729 11.8693 22.0003 12.0002 22.0003C12.1311 22.0003 12.2605 21.9729 12.3802 21.92C12.5029 21.8724 12.6151 21.8011 12.7102 21.71L16.7102 17.71C16.8985 17.5217 17.0043 17.2663 17.0043 17C17.0043 16.7337 16.8985 16.4783 16.7102 16.29C16.6169 16.1968 16.5063 16.1228 16.3844 16.0724C16.2626 16.0219 16.132 15.9959 16.0002 15.9959C15.7339 15.9959 15.4785 16.1017 15.2902 16.29Z" fill="black"/>
</svg>
