<svg width="24" height="24" viewBox="0 0 24 24" fill="none" xmlns="http://www.w3.org/2000/svg">
<path d="M11.9998 2C9.65298 2.00682 7.38334 2.8388 5.58811 4.35031C3.79289 5.86182 2.58645 7.95656 2.17997 10.2679C1.77349 12.5792 2.19286 14.9599 3.36468 16.9932C4.5365 19.0265 6.38611 20.5829 8.58977 21.39H8.64977C10.8139 22.1763 13.1856 22.1763 15.3498 21.39H15.4098C17.6134 20.5829 19.463 19.0265 20.6349 16.9932C21.8067 14.9599 22.2261 12.5792 21.8196 10.2679C21.4131 7.95656 20.2067 5.86182 18.4114 4.35031C16.6162 2.8388 14.3466 2.00682 11.9998 2ZM13.9998 19.74C12.689 20.0868 11.3106 20.0868 9.99977 19.74V16H13.9998V19.74ZM15.9998 18.92V11C16.265 11 16.5193 10.8946 16.7069 10.7071C16.8944 10.5196 16.9998 10.2652 16.9998 10C16.9998 9.73478 16.8944 9.48043 16.7069 9.29289C16.5193 9.10536 16.265 9 15.9998 9H13.9998C13.7346 9 13.4802 9.10536 13.2927 9.29289C13.1051 9.48043 12.9998 9.73478 12.9998 10C12.9998 10.2652 13.1051 10.5196 13.2927 10.7071C13.4802 10.8946 13.7346 11 13.9998 11V14H9.99977V11C10.265 11 10.5193 10.8946 10.7069 10.7071C10.8944 10.5196 10.9998 10.2652 10.9998 10C10.9998 9.73478 10.8944 9.48043 10.7069 9.29289C10.5193 9.10536 10.265 9 9.99977 9H7.99977C7.73456 9 7.4802 9.10536 7.29267 9.29289C7.10513 9.48043 6.99977 9.73478 6.99977 10C6.99977 10.2652 7.10513 10.5196 7.29267 10.7071C7.4802 10.8946 7.73456 11 7.99977 11V18.92C6.47464 18.0395 5.28267 16.6803 4.60874 15.0533C3.9348 13.4262 3.81657 11.6223 4.27237 9.92124C4.72816 8.22018 5.73253 6.71704 7.12968 5.64497C8.52683 4.5729 10.2387 3.9918 11.9998 3.9918C13.7608 3.9918 15.4727 4.5729 16.8699 5.64497C18.267 6.71704 19.2714 8.22018 19.7272 9.92124C20.183 11.6223 20.0647 13.4262 19.3908 15.0533C18.7169 16.6803 17.5249 18.0395 15.9998 18.92Z" fill="black"/>
</svg>
