<svg width="24" height="24" viewBox="0 0 24 24" fill="none" xmlns="http://www.w3.org/2000/svg">
<path d="M19.7499 2.33C19.6553 2.22515 19.5395 2.14153 19.4102 2.08465C19.281 2.02778 19.1411 1.99892 18.9999 2H4.99989C4.85867 1.99892 4.71881 2.02778 4.58954 2.08465C4.46027 2.14153 4.34451 2.22515 4.24989 2.33C4.15553 2.435 4.08446 2.55879 4.04137 2.69323C3.99828 2.82767 3.98415 2.9697 3.99989 3.11L5.79989 19.33C5.88146 20.0672 6.2332 20.748 6.78721 21.241C7.34123 21.7341 8.05825 22.0045 8.79989 22H15.2199C15.9615 22.0045 16.6786 21.7341 17.2326 21.241C17.7866 20.748 18.1383 20.0672 18.2199 19.33L19.9999 3.11C20.0156 2.9697 20.0015 2.82767 19.9584 2.69323C19.9153 2.55879 19.8443 2.435 19.7499 2.33ZM16.1999 19.11C16.1727 19.3557 16.0555 19.5827 15.8708 19.747C15.6861 19.9114 15.4471 20.0015 15.1999 20H8.78989C8.54268 20.0015 8.30367 19.9114 8.119 19.747C7.93433 19.5827 7.81708 19.3557 7.78989 19.11L6.77989 10H17.2199L16.1999 19.11ZM17.4399 8H6.55989L6.11989 4H17.8799L17.4399 8Z" fill="black"/>
</svg>
