<svg width="24" height="24" viewBox="0 0 24 24" fill="none" xmlns="http://www.w3.org/2000/svg">
<path d="M2.88013 16.88C2.58538 17.1546 2.34897 17.4859 2.185 17.8538C2.02103 18.2218 1.93287 18.6191 1.92576 19.0219C1.91865 19.4247 1.99275 19.8248 2.14364 20.1984C2.29452 20.5719 2.5191 20.9113 2.80397 21.1962C3.08885 21.481 3.42818 21.7056 3.80174 21.8565C4.17529 22.0074 4.5754 22.0815 4.97822 22.0744C5.38103 22.0673 5.77828 21.9791 6.14628 21.8151C6.51428 21.6512 6.84548 21.4147 7.12013 21.12C7.68193 20.5575 7.99749 19.795 7.99749 19C7.99749 18.205 7.68193 17.4425 7.12013 16.88C6.54785 16.337 5.78902 16.0343 5.00013 16.0343C4.21123 16.0343 3.4524 16.337 2.88013 16.88ZM5.71013 19.71C5.61716 19.8037 5.50656 19.8781 5.3847 19.9289C5.26284 19.9797 5.13214 20.0058 5.00013 20.0058C4.86811 20.0058 4.73741 19.9797 4.61555 19.9289C4.49369 19.8781 4.38309 19.8037 4.29013 19.71C4.1964 19.617 4.122 19.5064 4.07123 19.3846C4.02047 19.2627 3.99433 19.132 3.99433 19C3.99433 18.868 4.02047 18.7373 4.07123 18.6154C4.122 18.4936 4.1964 18.383 4.29013 18.29C4.38309 18.1963 4.49369 18.1219 4.61555 18.0711C4.73741 18.0203 4.86811 17.9942 5.00013 17.9942C5.13214 17.9942 5.26284 18.0203 5.3847 18.0711C5.50656 18.1219 5.61716 18.1963 5.71013 18.29C5.80385 18.383 5.87825 18.4936 5.92902 18.6154C5.97979 18.7373 6.00592 18.868 6.00592 19C6.00592 19.132 5.97979 19.2627 5.92902 19.3846C5.87825 19.5064 5.80385 19.617 5.71013 19.71ZM5.00013 12C4.73491 12 4.48056 12.1054 4.29302 12.2929C4.10548 12.4804 4.00013 12.7348 4.00013 13C4.00013 13.2652 4.10548 13.5196 4.29302 13.7071C4.48056 13.8946 4.73491 14 5.00013 14C6.32621 14 7.59798 14.5268 8.53566 15.4645C9.47334 16.4021 10.0001 17.6739 10.0001 19C10.0001 19.2652 10.1055 19.5196 10.293 19.7071C10.4806 19.8946 10.7349 20 11.0001 20C11.2653 20 11.5197 19.8946 11.7072 19.7071C11.8948 19.5196 12.0001 19.2652 12.0001 19C12.0001 17.1435 11.2626 15.363 9.94987 14.0503C8.63712 12.7375 6.85664 12 5.00013 12ZM5.00013 8C4.73491 8 4.48056 8.10536 4.29302 8.29289C4.10548 8.48043 4.00013 8.73478 4.00013 9C4.00013 9.26522 4.10548 9.51957 4.29302 9.70711C4.48056 9.89464 4.73491 10 5.00013 10C7.38707 10 9.67626 10.9482 11.3641 12.636C13.0519 14.3239 14.0001 16.6131 14.0001 19C14.0001 19.2652 14.1055 19.5196 14.293 19.7071C14.4806 19.8946 14.7349 20 15.0001 20C15.2653 20 15.5197 19.8946 15.7072 19.7071C15.8948 19.5196 16.0001 19.2652 16.0001 19C16.0001 16.0826 14.8412 13.2847 12.7783 11.2218C10.7154 9.15893 7.91751 8 5.00013 8Z" fill="black"/>
</svg>
