<svg width="24" height="24" viewBox="0 0 24 24" fill="none" xmlns="http://www.w3.org/2000/svg">
<path d="M11.9911 1.00043C10.5578 0.948281 9.12886 1.18713 7.79047 1.70256C6.45208 2.21799 5.23202 2.99931 4.20397 3.99934C3.17592 4.99937 2.36119 6.19737 1.80899 7.52101C1.25678 8.84465 0.978544 10.2665 0.99108 11.7006C0.972288 13.1784 1.26683 14.6434 1.85529 15.9991C2.44375 17.3548 3.31279 18.5704 4.40514 19.5659L4.45687 21.2563C4.47153 21.7236 4.66748 22.1668 5.00323 22.4922C5.33898 22.8176 5.78817 22.9995 6.2557 22.9995C6.50578 22.9991 6.75311 22.9473 6.98226 22.8471L8.90316 22.0004C9.91047 22.2686 10.9487 22.4032 11.9911 22.4008C13.4244 22.453 14.8534 22.2142 16.1918 21.6988C17.5303 21.1833 18.7504 20.402 19.7786 19.402C20.8067 18.402 21.6215 17.204 22.1738 15.8803C22.7261 14.5567 23.0045 13.1348 22.9921 11.7006C23.0045 10.2664 22.7261 8.84457 22.1738 7.52091C21.6215 6.19726 20.8067 4.99926 19.7786 3.99924C18.7504 2.99922 17.5303 2.21792 16.1919 1.7025C14.8534 1.18709 13.4244 0.948264 11.9911 1.00043ZM11.9911 20.4008C11.101 20.4034 10.2147 20.2855 9.35632 20.0502C8.9588 19.943 8.53653 19.9754 8.16003 20.142L6.44616 20.8979L6.40124 19.4047C6.3913 19.1629 6.33294 18.9255 6.22961 18.7066C6.12628 18.4877 5.98008 18.2917 5.79967 18.1303C4.90022 17.3207 4.18429 16.3282 3.69989 15.2193C3.21548 14.1103 2.97381 12.9106 2.99108 11.7006C2.98468 10.5308 3.21537 9.37179 3.66924 8.29358C4.12311 7.21537 4.79074 6.24029 5.63184 5.42721C6.47293 4.61413 7.47006 3.97991 8.56302 3.56282C9.65599 3.14573 10.8221 2.95441 11.9911 3.00043C13.1585 2.96075 14.3219 3.15642 15.4121 3.57578C16.5023 3.99514 17.497 4.62962 18.3369 5.44142C19.1767 6.25323 19.8447 7.22576 20.3008 8.30109C20.757 9.37641 20.992 10.5325 20.992 11.7006C20.992 12.8687 20.757 14.0248 20.3008 15.1002C19.8447 16.1755 19.1767 17.148 18.3369 17.9598C17.497 18.7716 16.5023 19.4061 15.4121 19.8255C14.3219 20.2448 13.1585 20.4405 11.9911 20.4008ZM15.7255 8.58539L13.413 11.3403L10.0663 9.28363C9.86203 9.15792 9.61934 9.10995 9.38263 9.14852C9.14591 9.18708 8.931 9.30959 8.77721 9.49363L5.72546 13.1303C5.6406 13.2308 5.5764 13.347 5.53655 13.4724C5.49669 13.5977 5.48197 13.7297 5.49321 13.8607C5.50446 13.9918 5.54146 14.1193 5.60209 14.236C5.66271 14.3527 5.74578 14.4563 5.84652 14.5409C5.94726 14.6254 6.0637 14.6893 6.18916 14.7287C6.31462 14.7682 6.44664 14.7825 6.57765 14.7709C6.70865 14.7592 6.83607 14.7218 6.9526 14.6608C7.06912 14.5999 7.17247 14.5165 7.25671 14.4155L9.75471 11.4399L13.1014 13.4956C13.3055 13.6214 13.5481 13.6695 13.7848 13.6311C14.0215 13.5927 14.2365 13.4704 14.3905 13.2866L17.2567 9.87055C17.342 9.77014 17.4067 9.65384 17.4469 9.52834C17.4872 9.40284 17.5022 9.27061 17.4912 9.13928C17.4801 9.00795 17.4432 8.8801 17.3825 8.76309C17.3219 8.64609 17.2387 8.54223 17.1377 8.4575C17.0368 8.37277 16.9201 8.30884 16.7943 8.26939C16.6686 8.22995 16.5362 8.21576 16.405 8.22764C16.2737 8.23953 16.1461 8.27726 16.0295 8.33866C15.9129 8.40005 15.8095 8.48391 15.7255 8.58539Z" fill="black"/>
</svg>
