<svg width="24" height="24" viewBox="0 0 24 24" fill="none" xmlns="http://www.w3.org/2000/svg">
<path d="M21.1198 9.88002L14.1198 2.88002C13.5475 2.33702 12.7887 2.0343 11.9998 2.0343C11.2109 2.0343 10.4521 2.33702 9.8798 2.88002L2.8798 9.88002C2.318 10.4425 2.00244 11.205 2.00244 12C2.00244 12.795 2.318 13.5575 2.8798 14.12L9.8798 21.12C10.4423 21.6818 11.2048 21.9974 11.9998 21.9974C12.7948 21.9974 13.5573 21.6818 14.1198 21.12L21.1198 14.12C21.6816 13.5575 21.9972 12.795 21.9972 12C21.9972 11.205 21.6816 10.4425 21.1198 9.88002ZM19.7098 12.71L12.7098 19.71C12.6168 19.8038 12.5062 19.8781 12.3844 19.9289C12.2625 19.9797 12.1318 20.0058 11.9998 20.0058C11.8678 20.0058 11.7371 19.9797 11.6152 19.9289C11.4934 19.8781 11.3828 19.8038 11.2898 19.71L4.2898 12.71C4.19607 12.6171 4.12168 12.5065 4.07091 12.3846C4.02014 12.2627 3.994 12.132 3.994 12C3.994 11.868 4.02014 11.7373 4.07091 11.6154C4.12168 11.4936 4.19607 11.383 4.2898 11.29L11.2898 4.29002C11.3828 4.19629 11.4934 4.1219 11.6152 4.07113C11.7371 4.02036 11.8678 3.99423 11.9998 3.99423C12.1318 3.99423 12.2625 4.02036 12.3844 4.07113C12.5062 4.1219 12.6168 4.19629 12.7098 4.29002L19.7098 11.29C19.8035 11.383 19.8779 11.4936 19.9287 11.6154C19.9795 11.7373 20.0056 11.868 20.0056 12C20.0056 12.132 19.9795 12.2627 19.9287 12.3846C19.8779 12.5065 19.8035 12.6171 19.7098 12.71ZM14.2098 9.29002C14.0215 9.10172 13.7661 8.99593 13.4998 8.99593C13.2335 8.99593 12.9781 9.10172 12.7898 9.29002C12.6015 9.47833 12.4957 9.73372 12.4957 10C12.4957 10.2663 12.6015 10.5217 12.7898 10.71L13.0898 11H9.4998C9.23459 11 8.98023 11.1054 8.7927 11.2929C8.60516 11.4805 8.4998 11.7348 8.4998 12V14C8.4998 14.2652 8.60516 14.5196 8.7927 14.7071C8.98023 14.8947 9.23459 15 9.4998 15C9.76502 15 10.0194 14.8947 10.2069 14.7071C10.3944 14.5196 10.4998 14.2652 10.4998 14V13H13.0898L12.7898 13.29C12.6961 13.383 12.6217 13.4936 12.5709 13.6154C12.5201 13.7373 12.494 13.868 12.494 14C12.494 14.132 12.5201 14.2627 12.5709 14.3846C12.6217 14.5065 12.6961 14.6171 12.7898 14.71C12.8828 14.8038 12.9934 14.8781 13.1152 14.9289C13.2371 14.9797 13.3678 15.0058 13.4998 15.0058C13.6318 15.0058 13.7625 14.9797 13.8844 14.9289C14.0062 14.8781 14.1168 14.8038 14.2098 14.71L16.2098 12.71C16.3035 12.6171 16.3779 12.5065 16.4287 12.3846C16.4795 12.2627 16.5056 12.132 16.5056 12C16.5056 11.868 16.4795 11.7373 16.4287 11.6154C16.3779 11.4936 16.3035 11.383 16.2098 11.29L14.2098 9.29002Z" fill="black"/>
</svg>
