<svg width="24" height="24" viewBox="0 0 24 24" fill="none" xmlns="http://www.w3.org/2000/svg">
<path d="M15.0001 11H10.0001C9.73492 11 9.48056 11.1053 9.29303 11.2929C9.10549 11.4804 9.00013 11.7348 9.00013 12V20C8.99986 20.1817 9.04908 20.36 9.14251 20.5158C9.23594 20.6716 9.37005 20.799 9.53043 20.8843C9.69081 20.9696 9.87141 21.0097 10.0528 21.0001C10.2342 20.9905 10.4096 20.9317 10.5601 20.83L12.5001 19.53L14.3901 20.79C14.5647 20.9255 14.7792 20.9993 15.0001 21C15.1525 21.0006 15.303 20.9664 15.4401 20.9C15.6084 20.8175 15.7502 20.6894 15.8492 20.5303C15.9482 20.3712 16.0005 20.1874 16.0001 20V12C16.0001 11.7348 15.8948 11.4804 15.7072 11.2929C15.5197 11.1053 15.2654 11 15.0001 11ZM14.0001 18.12L13.0601 17.49C12.8948 17.3782 12.6997 17.3185 12.5001 17.3185C12.3005 17.3185 12.1055 17.3782 11.9401 17.49L11.0001 18.13V13H14.0001V18.12ZM18.4201 7.21999C17.8091 5.81599 16.7546 4.65106 15.4182 3.90371C14.0818 3.15636 12.5372 2.86782 11.0211 3.0823C9.50501 3.29677 8.10106 4.00244 7.02439 5.09116C5.94772 6.17988 5.25772 7.5916 5.06013 9.10999C4.10672 9.33831 3.27036 9.90882 2.70987 10.7132C2.14939 11.5175 1.90382 12.4997 2.0198 13.4732C2.13578 14.4467 2.60523 15.3437 3.339 15.9938C4.07277 16.644 5.01976 17.0021 6.00013 17C6.26535 17 6.5197 16.8946 6.70724 16.7071C6.89478 16.5196 7.00013 16.2652 7.00013 16C7.00013 15.7348 6.89478 15.4804 6.70724 15.2929C6.5197 15.1053 6.26535 15 6.00013 15C5.4697 15 4.96099 14.7893 4.58592 14.4142C4.21085 14.0391 4.00013 13.5304 4.00013 13C4.00013 12.4696 4.21085 11.9608 4.58592 11.5858C4.96099 11.2107 5.4697 11 6.00013 11C6.26535 11 6.5197 10.8946 6.70724 10.7071C6.89478 10.5196 7.00013 10.2652 7.00013 9.99999C7.00269 8.81726 7.42442 7.67374 8.1904 6.77257C8.95639 5.8714 10.017 5.27094 11.1839 5.07786C12.3507 4.88478 13.5483 5.11159 14.5637 5.71799C15.5791 6.3244 16.3467 7.27113 16.7301 8.38999C16.7873 8.56183 16.89 8.71492 17.0274 8.83292C17.1648 8.95092 17.3316 9.0294 17.5101 9.05999C18.1115 9.16883 18.6652 9.45872 19.0973 9.89087C19.5294 10.323 19.8192 10.8768 19.9279 11.4782C20.0367 12.0795 19.9592 12.6998 19.7058 13.2559C19.4524 13.812 19.0353 14.2774 18.5101 14.59C18.2794 14.7226 18.1108 14.9414 18.0414 15.1984C17.972 15.4553 18.0075 15.7292 18.1401 15.96C18.2727 16.1907 18.4916 16.3593 18.7485 16.4287C19.0054 16.4981 19.2794 16.4626 19.5101 16.33C20.2684 15.8899 20.8975 15.2582 21.3346 14.4982C21.7716 13.7382 22.0011 12.8767 22.0001 12C21.9971 10.9241 21.6471 9.87792 21.0022 9.01679C20.3572 8.15566 19.4517 7.52553 18.4201 7.21999Z" fill="black"/>
</svg>
