<svg width="24" height="24" viewBox="0 0 24 24" fill="none" xmlns="http://www.w3.org/2000/svg">
<path d="M13 11H2.00005C1.73483 11 1.48048 11.1054 1.29294 11.2929C1.10541 11.4804 1.00005 11.7348 1.00005 12V21C1.00005 21.2652 1.10541 21.5196 1.29294 21.7071C1.48048 21.8946 1.73483 22 2.00005 22H12.86C12.91 22 12.95 22 13 22C13.2653 22 13.5196 21.8946 13.7072 21.7071C13.8947 21.5196 14 21.2652 14 21V12C14 11.7348 13.8947 11.4804 13.7072 11.2929C13.5196 11.1054 13.2653 11 13 11ZM7.44005 20L9.37005 18.07C9.39742 18.0287 9.43456 17.9949 9.47819 17.9715C9.52181 17.9481 9.57054 17.9358 9.62005 17.9358C9.66956 17.9358 9.71829 17.9481 9.76191 17.9715C9.80553 17.9949 9.84268 18.0287 9.87005 18.07L11.79 20H7.44005ZM12 17.38L11.28 16.67C10.8316 16.2415 10.2353 16.0024 9.61505 16.0024C8.99482 16.0024 8.39846 16.2415 7.95005 16.67L4.61005 20H3.00005V13H12V17.38ZM2.00005 4.11C2.17359 4.10997 2.34414 4.06478 2.49493 3.97886C2.64571 3.89295 2.77154 3.76928 2.86005 3.62C2.98721 3.43856 3.05372 3.22154 3.05005 3C3.05022 2.86436 3.02279 2.73011 2.96944 2.6054C2.91609 2.4807 2.83793 2.36815 2.73971 2.27461C2.64149 2.18107 2.52526 2.10848 2.39811 2.06127C2.27095 2.01407 2.13552 1.99322 2.00005 2C1.73483 2 1.48048 2.10536 1.29294 2.29289C1.10541 2.48043 1.00005 2.73478 1.00005 3V3.1C0.998728 3.23216 1.02362 3.36327 1.07328 3.48575C1.12294 3.60824 1.19639 3.71966 1.28938 3.81358C1.38237 3.9075 1.49306 3.98206 1.61504 4.03293C1.73702 4.08381 1.86788 4.11001 2.00005 4.11ZM9.91005 4H10.1C10.3653 4 10.6196 3.89464 10.8072 3.70711C10.9947 3.51957 11.1 3.26522 11.1 3C11.1 2.73478 10.9947 2.48043 10.8072 2.29289C10.6196 2.10536 10.3653 2 10.1 2H9.91005C9.64483 2 9.39048 2.10536 9.20294 2.29289C9.01541 2.48043 8.91005 2.73478 8.91005 3C8.91005 3.26522 9.01541 3.51957 9.20294 3.70711C9.39048 3.89464 9.64483 4 9.91005 4ZM2.00005 8.78C2.26527 8.78 2.51962 8.67464 2.70716 8.48711C2.89469 8.29957 3.00005 8.04522 3.00005 7.78V7.56C3.00005 7.29478 2.89469 7.04043 2.70716 6.85289C2.51962 6.66536 2.26527 6.56 2.00005 6.56C1.73483 6.56 1.48048 6.66536 1.29294 6.85289C1.10541 7.04043 1.00005 7.29478 1.00005 7.56V7.78C1.00005 8.04522 1.10541 8.29957 1.29294 8.48711C1.48048 8.67464 1.73483 8.78 2.00005 8.78ZM14.09 2H13.9C13.6348 2 13.3805 2.10536 13.1929 2.29289C13.0054 2.48043 12.9 2.73478 12.9 3C12.9 3.26522 13.0054 3.51957 13.1929 3.70711C13.3805 3.89464 13.6348 4 13.9 4H14.09C14.3553 4 14.6096 3.89464 14.7972 3.70711C14.9847 3.51957 15.09 3.26522 15.09 3C15.09 2.73478 14.9847 2.48043 14.7972 2.29289C14.6096 2.10536 14.3553 2 14.09 2ZM5.91005 4H6.10005C6.36527 4 6.61962 3.89464 6.80716 3.70711C6.99469 3.51957 7.10005 3.26522 7.10005 3C7.10005 2.73478 6.99469 2.48043 6.80716 2.29289C6.61962 2.10536 6.36527 2 6.10005 2H5.91005C5.64483 2 5.39048 2.10536 5.20294 2.29289C5.01541 2.48043 4.91005 2.73478 4.91005 3C4.91005 3.26522 5.01541 3.51957 5.20294 3.70711C5.39048 3.89464 5.64483 4 5.91005 4ZM22 6.4C21.7348 6.4 21.4805 6.50536 21.2929 6.69289C21.1054 6.88043 21 7.13478 21 7.4V7.61C21 7.87522 21.1054 8.12957 21.2929 8.31711C21.4805 8.50464 21.7348 8.61 22 8.61C22.2653 8.61 22.5196 8.50464 22.7072 8.31711C22.8947 8.12957 23 7.87522 23 7.61V7.4C23 7.13478 22.8947 6.88043 22.7072 6.69289C22.5196 6.50536 22.2653 6.4 22 6.4ZM17.1201 20H16.88C16.6148 20 16.3605 20.1054 16.1729 20.2929C15.9854 20.4804 15.88 20.7348 15.88 21C15.88 21.2652 15.9854 21.5196 16.1729 21.7071C16.3605 21.8946 16.6148 22 16.88 22H17.1201C17.3853 22 17.6396 21.8946 17.8272 21.7071C18.0147 21.5196 18.1201 21.2652 18.1201 21C18.1201 20.7348 18.0147 20.4804 17.8272 20.2929C17.6396 20.1054 17.3853 20 17.1201 20ZM21.9 2C21.6525 2.02487 21.4232 2.14111 21.2567 2.32602C21.0903 2.51093 20.9988 2.75123 21 3C21.0024 3.14561 21.0365 3.28895 21.1 3.42C21.1921 3.61755 21.3463 3.7796 21.5389 3.88149C21.7316 3.98338 21.9523 4.01952 22.1674 3.98442C22.3825 3.94933 22.5803 3.84491 22.7306 3.68706C22.8809 3.52921 22.9755 3.32658 23 3.11V3C22.9773 2.72505 22.8511 2.46896 22.647 2.28338C22.4428 2.0978 22.1759 1.99653 21.9 2ZM22 10.9C21.7348 10.9 21.4805 11.0054 21.2929 11.1929C21.1054 11.3804 21 11.6348 21 11.9V12.12C21 12.3852 21.1054 12.6396 21.2929 12.8271C21.4805 13.0146 21.7348 13.12 22 13.12C22.2653 13.12 22.5196 13.0146 22.7072 12.8271C22.8947 12.6396 23 12.3852 23 12.12V11.9C23 11.6348 22.8947 11.3804 22.7072 11.1929C22.5196 11.0054 22.2653 10.9 22 10.9ZM18.09 2H17.9C17.6348 2 17.3805 2.10536 17.1929 2.29289C17.0054 2.48043 16.9 2.73478 16.9 3C16.9 3.26522 17.0054 3.51957 17.1929 3.70711C17.3805 3.89464 17.6348 4 17.9 4H18.09C18.3553 4 18.6096 3.89464 18.7972 3.70711C18.9847 3.51957 19.09 3.26522 19.09 3C19.09 2.73478 18.9847 2.48043 18.7972 2.29289C18.6096 2.10536 18.3553 2 18.09 2ZM22 20C21.8466 19.9998 21.6954 20.0376 21.56 20.11C21.3933 20.1917 21.2525 20.3183 21.1536 20.4755C21.0547 20.6326 21.0015 20.8143 21 21C21 21.2652 21.1054 21.5196 21.2929 21.7071C21.4805 21.8946 21.7348 22 22 22C22.275 21.9772 22.5311 21.8511 22.7167 21.6469C22.9023 21.4428 23.0035 21.1759 23 20.9C22.9752 20.6525 22.8589 20.4231 22.674 20.2567C22.4891 20.0903 22.2488 19.9988 22 20ZM22 15.44C21.7348 15.44 21.4805 15.5454 21.2929 15.7329C21.1054 15.9204 21 16.1748 21 16.44V16.66C21 16.9252 21.1054 17.1796 21.2929 17.3671C21.4805 17.5546 21.7348 17.66 22 17.66C22.2653 17.66 22.5196 17.5546 22.7072 17.3671C22.8947 17.1796 23 16.9252 23 16.66V16.4C23 16.1348 22.8947 15.8804 22.7072 15.6929C22.5196 15.5054 22.2653 15.4 22 15.4V15.44Z" fill="black"/>
</svg>
