<svg width="24" height="24" viewBox="0 0 24 24" fill="none" xmlns="http://www.w3.org/2000/svg">
<path d="M22.8675 3.37405C22.78 3.22157 22.6538 3.09487 22.5018 3.00674C22.3497 2.91861 22.177 2.87217 22.0012 2.8721L17.0306 2.86819L17.0232 2.86719L13.3797 2.86819C13.2193 2.86835 13.0613 2.90703 12.919 2.98095C12.7766 3.05487 12.6541 3.16189 12.5618 3.293L12.0032 4.0889L11.4387 3.29105C11.3465 3.16036 11.2243 3.05374 11.0823 2.98015C10.9403 2.90656 10.7827 2.86816 10.6228 2.86819L6.97682 2.86719H6.97633L6.97487 2.86737L6.9734 2.86719H6.96803L1.99489 2.89453C1.81921 2.89541 1.64686 2.94256 1.49519 3.03123C1.34353 3.11991 1.21791 3.24699 1.13098 3.39966C1.04405 3.55233 0.998881 3.72521 1.00002 3.90089C1.00116 4.07658 1.04857 4.24886 1.13747 4.40039L11.157 21.5059C11.2453 21.6563 11.3713 21.781 11.5227 21.8677C11.674 21.9544 11.8454 22 12.0198 22H12.0208C12.1955 21.9999 12.3671 21.954 12.5185 21.867C12.67 21.78 12.796 21.6548 12.8841 21.504L22.8645 4.37605C22.9529 4.22398 22.9997 4.05133 23.0002 3.87544C23.0007 3.69955 22.9549 3.52663 22.8675 3.37405ZM10.1048 4.86821L11.1898 6.40142C11.282 6.53215 11.4043 6.63881 11.5464 6.71239C11.6885 6.78598 11.8462 6.82435 12.0062 6.82427H12.0076C12.1678 6.82388 12.3256 6.78511 12.4677 6.71119C12.6099 6.63728 12.7322 6.53038 12.8245 6.39946L13.8997 4.86821L15.2624 4.86721L12.0184 10.3209L8.74342 4.86724L10.1048 4.86821ZM12.0174 19.0176L3.73952 4.88482L6.40944 4.87017L11.1629 12.7882C11.2518 12.9362 11.3775 13.0586 11.5277 13.1437C11.678 13.2287 11.8476 13.2734 12.0203 13.2735H12.0222L12.0232 13.2734L12.0242 13.2735H12.0262C12.1993 13.2731 12.3692 13.2278 12.5195 13.1421C12.6698 13.0563 12.7953 12.933 12.8836 12.7843L17.5916 4.86826L20.2611 4.87119L12.0174 19.0176Z" fill="black"/>
</svg>
