<svg width="24" height="24" viewBox="0 0 24 24" fill="none" xmlns="http://www.w3.org/2000/svg">
<path d="M11.5799 16.5001H10.3199L11.1799 15.0001C11.2523 14.8863 11.3009 14.759 11.3228 14.6259C11.3446 14.4928 11.3394 14.3567 11.3073 14.2257C11.2752 14.0947 11.217 13.9716 11.136 13.8637C11.0551 13.7558 10.9532 13.6654 10.8365 13.5979C10.7197 13.5304 10.5905 13.4872 10.4566 13.4709C10.3227 13.4547 10.1869 13.4656 10.0574 13.5032C9.92787 13.5408 9.80728 13.6042 9.70289 13.6896C9.59849 13.775 9.51245 13.8806 9.44993 14.0001L7.71993 17.0001C7.63242 17.1517 7.58622 17.3236 7.58595 17.4986C7.58568 17.6736 7.63136 17.8457 7.71842 17.9975C7.80547 18.1493 7.93086 18.2757 8.08204 18.3639C8.23322 18.4521 8.40491 18.499 8.57993 18.5001H9.84993L8.99993 20.0001C8.86733 20.2308 8.83181 20.5048 8.9012 20.7617C8.97059 21.0187 9.1392 21.2375 9.36993 21.3701C9.60067 21.5027 9.87464 21.5382 10.1316 21.4688C10.3885 21.3994 10.6073 21.2308 10.7399 21.0001L12.4699 18.0001C12.5577 17.8481 12.6039 17.6756 12.6039 17.5001C12.6039 17.3246 12.5577 17.1521 12.4699 17.0001C12.3802 16.8445 12.2501 16.716 12.0935 16.628C11.9369 16.54 11.7595 16.4958 11.5799 16.5001ZM21.6999 7.5701C21.5795 7.45177 21.431 7.36587 21.2684 7.32041C21.1058 7.27494 20.9343 7.2714 20.7699 7.3101C20.5533 7.35961 20.3321 7.38642 20.1099 7.3901C19.3143 7.3901 18.5512 7.07403 17.9886 6.51142C17.426 5.94881 17.1099 5.18575 17.1099 4.3901C17.1128 4.17116 17.1396 3.9532 17.1899 3.7401C17.2297 3.57503 17.2267 3.40256 17.1814 3.23895C17.136 3.07534 17.0497 2.92597 16.9307 2.80491C16.8116 2.68386 16.6637 2.59511 16.5009 2.54704C16.338 2.49896 16.1656 2.49313 15.9999 2.5301C15.0047 2.74984 14.1019 3.27266 13.4161 4.0266C12.7302 4.78054 12.2948 5.72853 12.1699 6.7401C11.6267 6.58487 11.0649 6.50413 10.4999 6.5001C9.05879 6.49928 7.6655 7.0172 6.5748 7.95916C5.48411 8.90112 4.7689 10.2042 4.55993 11.6301C3.85164 11.8241 3.22259 12.2365 2.7623 12.8087C2.30202 13.3809 2.03396 14.0838 1.99629 14.8172C1.95863 15.5506 2.15327 16.2772 2.55251 16.8935C2.95175 17.5099 3.53524 17.9846 4.21993 18.2501C4.34419 18.3091 4.47929 18.3419 4.61679 18.3464C4.75429 18.3508 4.89123 18.3268 5.01904 18.2759C5.14685 18.225 5.26278 18.1483 5.35959 18.0506C5.4564 17.9528 5.532 17.8362 5.58166 17.7079C5.63133 17.5796 5.65398 17.4424 5.64822 17.305C5.64245 17.1675 5.60839 17.0327 5.54815 16.909C5.48792 16.7854 5.40282 16.6754 5.29816 16.5861C5.19351 16.4969 5.07156 16.4301 4.93993 16.3901C4.61777 16.2594 4.35101 16.0209 4.18524 15.7153C4.01948 15.4097 3.965 15.0561 4.03114 14.7147C4.09727 14.3734 4.27991 14.0657 4.54782 13.8442C4.81573 13.6226 5.15228 13.501 5.49993 13.5001C5.76515 13.5001 6.0195 13.3947 6.20704 13.2072C6.39458 13.0197 6.49993 12.7653 6.49993 12.5001C6.49993 11.4392 6.92136 10.4218 7.67151 9.67167C8.42165 8.92153 9.43907 8.5001 10.4999 8.5001C11.2759 8.49948 12.0346 8.72918 12.6799 9.1601C13.4069 9.63827 13.9581 10.3404 14.2499 11.1601C14.3071 11.3319 14.4098 11.485 14.5472 11.603C14.6846 11.721 14.8514 11.7995 15.0299 11.8301C15.5473 11.9217 16.0186 12.1855 16.3672 12.5787C16.7158 12.9719 16.9212 13.4714 16.9502 13.996C16.9791 14.5207 16.8299 15.0397 16.5267 15.4689C16.2235 15.898 15.7841 16.2121 15.2799 16.3601C15.0147 16.3959 14.7746 16.5356 14.6124 16.7485C14.4501 16.9613 14.3791 17.2299 14.4149 17.4951C14.4507 17.7603 14.5904 18.0005 14.8033 18.1627C15.0161 18.3249 15.2847 18.3959 15.5499 18.3601C15.6393 18.3747 15.7305 18.3747 15.8199 18.3601C16.7364 18.1076 17.5444 17.5606 18.1191 16.8033C18.6938 16.0461 19.0033 15.1207 18.9999 14.1701C19.0038 13.4733 18.8355 12.7862 18.5099 12.1701C19.3687 11.9303 20.1466 11.4625 20.761 10.8164C21.3755 10.1702 21.8036 9.36985 21.9999 8.5001C22.0337 8.33237 22.0238 8.15879 21.9713 7.99596C21.9187 7.83314 21.8253 7.68651 21.6999 7.5701ZM17.1099 10.3901C16.9702 10.4014 16.8297 10.4014 16.6899 10.3901C16.4716 10.2405 16.2407 10.11 15.9999 10.0001C15.5901 9.10194 14.9649 8.31879 14.1799 7.7201C14.1799 7.6001 14.1799 7.4701 14.1799 7.3501C14.1799 6.91678 14.2737 6.48859 14.455 6.095C14.6363 5.70141 14.9006 5.35176 15.2299 5.0701C15.3848 6.13696 15.8803 7.1252 16.6426 7.88748C17.4048 8.64976 18.3931 9.14526 19.4599 9.3001C19.1746 9.64582 18.8153 9.92319 18.4086 10.1118C18.002 10.3005 17.5582 10.3955 17.1099 10.3901Z" fill="black"/>
</svg>
