<svg width="24" height="24" viewBox="0 0 24 24" fill="none" xmlns="http://www.w3.org/2000/svg">
<path d="M21.6999 2.86002C21.5837 2.76604 21.448 2.69929 21.3026 2.66468C21.1572 2.63007 21.006 2.62847 20.8599 2.66002C20.4593 2.7431 20.046 2.74338 19.6453 2.66084C19.2446 2.57829 18.865 2.41467 18.5299 2.18002C18.3615 2.06167 18.1607 1.99817 17.9549 1.99817C17.7491 1.99817 17.5483 2.06167 17.3799 2.18002C17.0448 2.41467 16.6652 2.57829 16.2645 2.66084C15.8638 2.74338 15.4505 2.7431 15.0499 2.66002C14.9038 2.62847 14.7526 2.63007 14.6072 2.66468C14.4618 2.69929 14.3261 2.76604 14.2099 2.86002C14.0952 2.95307 14.0025 3.07038 13.9385 3.20352C13.8746 3.33665 13.8409 3.48231 13.8399 3.63002V7.00002C13.8416 7.72409 14.0158 8.43735 14.3479 9.08075C14.68 9.72416 15.1606 10.2792 15.7499 10.7L17.3699 11.86C17.5402 11.9829 17.7449 12.049 17.9549 12.049C18.1649 12.049 18.3696 11.9829 18.5399 11.86L20.1599 10.7C20.7491 10.2792 21.2297 9.72416 21.5619 9.08075C21.894 8.43735 22.0681 7.72409 22.0699 7.00002V3.63002C22.0689 3.48231 22.0352 3.33665 21.9713 3.20352C21.9073 3.07038 21.8146 2.95307 21.6999 2.86002ZM20.0699 7.00002C20.0564 7.39303 19.953 7.77771 19.7675 8.12445C19.582 8.47118 19.3194 8.77073 18.9999 9.00002L17.9999 9.74002L16.9099 9.00002C16.5904 8.77073 16.3278 8.47118 16.1423 8.12445C15.9568 7.77771 15.8533 7.39303 15.8399 7.00002V4.72002C16.5913 4.69591 17.3284 4.50822 17.9999 4.17002C18.6556 4.50273 19.3752 4.69031 20.1099 4.72002L20.0699 7.00002ZM18.9299 14C18.674 13.9362 18.4033 13.9761 18.1767 14.111C17.9501 14.2458 17.7859 14.4647 17.7199 14.72C17.3371 16.2302 16.4614 17.5695 15.2315 18.5259C14.0016 19.4823 12.4879 20.001 10.9299 20H5.34989L5.99989 19.37C6.17426 19.1846 6.27135 18.9396 6.27135 18.685C6.27135 18.4305 6.17426 18.1855 5.99989 18C5.00473 17.025 4.32315 15.7752 4.0424 14.4105C3.76165 13.0459 3.89449 11.6285 4.42393 10.3399C4.95337 9.05116 5.85531 7.94977 7.01433 7.17664C8.17334 6.40351 9.53669 5.99383 10.9299 6.00002C11.1951 6.00002 11.4495 5.89466 11.637 5.70712C11.8245 5.51959 11.9299 5.26523 11.9299 5.00002C11.9299 4.7348 11.8245 4.48045 11.637 4.29291C11.4495 4.10537 11.1951 4.00002 10.9299 4.00002C9.23736 4.00558 7.58069 4.4883 6.15008 5.39275C4.71946 6.29721 3.57288 7.58675 2.84196 9.11333C2.11104 10.6399 1.8254 12.3417 2.01783 14.0232C2.21027 15.7048 2.87298 17.298 3.92989 18.62L2.22989 20.29C2.08947 20.4293 1.9935 20.6071 1.95411 20.8009C1.91473 20.9947 1.9337 21.1958 2.00862 21.3789C2.08355 21.5619 2.21106 21.7186 2.37505 21.8292C2.53903 21.9397 2.73212 21.9992 2.92989 22H10.9299C12.9261 22.0013 14.8662 21.3389 16.4447 20.1169C18.0233 18.895 19.1508 17.1829 19.6499 15.25C19.6875 15.1206 19.6986 14.985 19.6825 14.8513C19.6664 14.7175 19.6235 14.5884 19.5562 14.4716C19.489 14.3549 19.3988 14.2529 19.2912 14.1719C19.1836 14.0908 19.0607 14.0324 18.9299 14Z" fill="black"/>
</svg>
