<svg width="24" height="24" viewBox="0 0 24 24" fill="none" xmlns="http://www.w3.org/2000/svg">
<path d="M3.00009 8.1C3.2653 8.1 3.51966 7.99464 3.70719 7.8071C3.89473 7.61957 4.00009 7.36521 4.00009 7.1V6.91C4.00009 6.64478 3.89473 6.39043 3.70719 6.20289C3.51966 6.01535 3.2653 5.91 3.00009 5.91C2.73487 5.91 2.48052 6.01535 2.29298 6.20289C2.10544 6.39043 2.00009 6.64478 2.00009 6.91V7.1C2.00009 7.36521 2.10544 7.61957 2.29298 7.8071C2.48052 7.99464 2.73487 8.1 3.00009 8.1ZM3.00009 4.1C3.1457 4.09764 3.28904 4.06352 3.42009 4C3.6853 3.95756 3.9228 3.81151 4.08033 3.59397C4.23786 3.37643 4.30252 3.10521 4.26009 2.84C4.21765 2.57478 4.0716 2.33728 3.85406 2.17975C3.63651 2.02222 3.3653 1.95756 3.10009 2H3.00009C2.72514 2.02276 2.46905 2.14893 2.28347 2.35307C2.09788 2.55721 1.99662 2.82413 2.00009 3.1C2.01293 3.35645 2.12392 3.59814 2.31009 3.775C2.49625 3.95185 2.74331 4.05032 3.00009 4.05V4.1ZM20.3901 3.91C20.5459 4.03238 20.7346 4.10572 20.9322 4.12069C21.1297 4.13567 21.3273 4.09161 21.4998 3.99412C21.6723 3.89662 21.8119 3.75008 21.901 3.57308C21.9901 3.39609 22.0246 3.19662 22.0001 3C22.0001 2.73478 21.8947 2.48043 21.7072 2.29289C21.5197 2.10535 21.2653 2 21.0001 2H20.9001C20.681 2.00006 20.468 2.07207 20.2938 2.20497C20.1196 2.33786 19.9939 2.52427 19.936 2.73556C19.878 2.94685 19.8911 3.17132 19.9731 3.37447C20.0552 3.57762 20.2017 3.7482 20.3901 3.86V3.91ZM11.8901 4H12.1101C12.3753 4 12.6297 3.89464 12.8172 3.7071C13.0047 3.51957 13.1101 3.26521 13.1101 3C13.1101 2.73478 13.0047 2.48043 12.8172 2.29289C12.6297 2.10535 12.3753 2 12.1101 2H11.8901C11.6249 2 11.3705 2.10535 11.183 2.29289C10.9954 2.48043 10.8901 2.73478 10.8901 3C10.8901 3.26521 10.9954 3.51957 11.183 3.7071C11.3705 3.89464 11.6249 4 11.8901 4ZM7.39009 4H7.60009C7.8653 4 8.11966 3.89464 8.30719 3.7071C8.49473 3.51957 8.60009 3.26521 8.60009 3C8.60009 2.73478 8.49473 2.48043 8.30719 2.29289C8.11966 2.10535 7.8653 2 7.60009 2H7.39009C7.12487 2 6.87052 2.10535 6.68298 2.29289C6.49544 2.48043 6.39009 2.73478 6.39009 3C6.39009 3.26521 6.49544 3.51957 6.68298 3.7071C6.87052 3.89464 7.12487 4 7.39009 4ZM21.0001 20C20.8545 20.0024 20.7111 20.0365 20.5801 20.1C20.3823 20.1927 20.2202 20.3477 20.1188 20.5412C20.0174 20.7347 19.9821 20.9561 20.0184 21.1715C20.0547 21.387 20.1605 21.5846 20.3197 21.7342C20.479 21.8838 20.6828 21.9772 20.9001 22H21.0001C21.275 21.9772 21.5311 21.8511 21.7167 21.6469C21.9023 21.4428 22.0036 21.1759 22.0001 20.9C21.9752 20.6525 21.859 20.4231 21.6741 20.2567C21.4892 20.0903 21.2489 19.9988 21.0001 20ZM14.0001 11C14.0001 10.7348 13.8947 10.4804 13.7072 10.2929C13.5197 10.1054 13.2653 10 13.0001 10H3.27009C3.18044 9.9887 3.08973 9.9887 3.00009 10C2.73487 10 2.48052 10.1054 2.29298 10.2929C2.10544 10.4804 2.00009 10.7348 2.00009 11V21C2.00009 21.2652 2.10544 21.5196 2.29298 21.7071C2.48052 21.8946 2.73487 22 3.00009 22H13.1001C13.2673 21.9987 13.4316 21.9555 13.5779 21.8744C13.7241 21.7932 13.8477 21.6766 13.9372 21.5354C14.0268 21.3941 14.0794 21.2326 14.0904 21.0657C14.1014 20.8988 14.0703 20.7318 14.0001 20.58V11ZM12.0001 20H5.52009L9.43009 16.1C9.46079 16.0689 9.49737 16.0441 9.53772 16.0272C9.57806 16.0104 9.62135 16.0017 9.66509 16.0017C9.70882 16.0017 9.75211 16.0104 9.79246 16.0272C9.8328 16.0441 9.86938 16.0689 9.90009 16.1L12.0001 18.19V20ZM12.0001 15.37L11.3201 14.68C10.8799 14.2434 10.2851 13.9984 9.66509 13.9984C9.0451 13.9984 8.45024 14.2434 8.01009 14.68L4.01009 18.68V12H12.0101L12.0001 15.37ZM21.0001 15.37C20.7349 15.37 20.4805 15.4754 20.293 15.6629C20.1054 15.8504 20.0001 16.1048 20.0001 16.37V16.58C20.0001 16.8452 20.1054 17.0996 20.293 17.2871C20.4805 17.4746 20.7349 17.58 21.0001 17.58C21.2653 17.58 21.5197 17.4746 21.7072 17.2871C21.8947 17.0996 22.0001 16.8452 22.0001 16.58V16.4C22.0001 16.1348 21.8947 15.8804 21.7072 15.6929C21.5197 15.5054 21.2653 15.4 21.0001 15.4V15.37ZM21.0001 6.37C20.7349 6.37 20.4805 6.47535 20.293 6.66289C20.1054 6.85043 20.0001 7.10478 20.0001 7.37V7.6C20.0001 7.86521 20.1054 8.11957 20.293 8.3071C20.4805 8.49464 20.7349 8.6 21.0001 8.6C21.2653 8.6 21.5197 8.49464 21.7072 8.3071C21.8947 8.11957 22.0001 7.86521 22.0001 7.6V7.39C22.0001 7.12478 21.8947 6.87043 21.7072 6.68289C21.5197 6.49535 21.2653 6.39 21.0001 6.39V6.37ZM21.0001 10.87C20.7349 10.87 20.4805 10.9754 20.293 11.1629C20.1054 11.3504 20.0001 11.6048 20.0001 11.87V12.09C20.0001 12.3552 20.1054 12.6096 20.293 12.7971C20.4805 12.9846 20.7349 13.09 21.0001 13.09C21.2653 13.09 21.5197 12.9846 21.7072 12.7971C21.8947 12.6096 22.0001 12.3552 22.0001 12.09V11.87C21.9949 11.6083 21.8872 11.359 21.7002 11.1758C21.5132 10.9926 21.2619 10.8899 21.0001 10.89V10.87ZM17.1001 20H16.9001C16.6349 20 16.3805 20.1054 16.193 20.2929C16.0054 20.4804 15.9001 20.7348 15.9001 21C15.9001 21.2652 16.0054 21.5196 16.193 21.7071C16.3805 21.8946 16.6349 22 16.9001 22H17.1001C17.3653 22 17.6197 21.8946 17.8072 21.7071C17.9947 21.5196 18.1001 21.2652 18.1001 21C18.1001 20.7348 17.9947 20.4804 17.8072 20.2929C17.6197 20.1054 17.3653 20 17.1001 20ZM16.6101 4C16.8753 4 17.1297 3.89464 17.3172 3.7071C17.5047 3.51957 17.6101 3.26521 17.6101 3C17.6101 2.73478 17.5047 2.48043 17.3172 2.29289C17.1297 2.10535 16.8753 2 16.6101 2H16.4001C16.1349 2 15.8805 2.10535 15.693 2.29289C15.5054 2.48043 15.4001 2.73478 15.4001 3C15.4001 3.26521 15.5054 3.51957 15.693 3.7071C15.8805 3.89464 16.1349 4 16.4001 4H16.6101Z" fill="black"/>
</svg>
