<svg width="24" height="24" viewBox="0 0 24 24" fill="none" xmlns="http://www.w3.org/2000/svg">
<path d="M23.0001 9.32004C23.0628 9.06311 23.0271 8.79203 22.9001 8.56005C22.576 7.99769 22.1441 7.50486 21.6291 7.10984C21.114 6.71482 20.5261 6.42539 19.8989 6.25815C19.2718 6.09092 18.6178 6.04916 17.9745 6.13529C17.3312 6.22142 16.7112 6.43373 16.1501 6.76005L14.0001 8.00004L9.00011 5.65004C8.85796 5.5764 8.7002 5.53796 8.54011 5.53796C8.38002 5.53796 8.22226 5.5764 8.08011 5.65004L5.08011 7.38004C4.93185 7.46557 4.80802 7.58771 4.72047 7.73478C4.63293 7.88186 4.5846 8.04894 4.58011 8.22005C4.57527 8.39241 4.61508 8.56311 4.69568 8.71555C4.77628 8.86799 4.89493 8.997 5.04011 9.09004L8.34011 11.17L6.60011 12.17L1.82011 12.75C1.62796 12.7738 1.44683 12.8529 1.29873 12.9776C1.15063 13.1023 1.04192 13.2673 0.985801 13.4526C0.929679 13.6379 0.92856 13.8355 0.982579 14.0215C1.0366 14.2074 1.14343 14.3737 1.29011 14.5L4.83011 17.56C5.29616 18.0048 5.89301 18.2878 6.53236 18.367C7.1717 18.4463 7.81957 18.3176 8.38011 18L22.5001 9.93005C22.6205 9.86758 22.7268 9.78129 22.8128 9.67642C22.8987 9.57156 22.9625 9.45031 23.0001 9.32004ZM7.47011 16.32C7.27802 16.4257 7.05651 16.4654 6.83969 16.4329C6.62286 16.4003 6.42274 16.2974 6.27011 16.14L4.37011 14.51L7.10011 14.18C7.23426 14.1629 7.36354 14.1186 7.48011 14.05L10.8401 12.12C10.9898 12.0337 11.1145 11.9099 11.2022 11.761C11.2898 11.612 11.3373 11.4429 11.3401 11.27C11.3422 11.0984 11.3 10.9291 11.2177 10.7785C11.1354 10.6279 11.0157 10.501 10.8701 10.41L7.57011 8.32004L8.67011 7.69004L13.6701 10.01C13.8123 10.0837 13.97 10.1221 14.1301 10.1221C14.2902 10.1221 14.448 10.0837 14.5901 10.01L17.1501 8.53004C17.6747 8.23605 18.2756 8.1065 18.8747 8.15821C19.4739 8.20992 20.0436 8.44051 20.5101 8.82004L7.47011 16.32Z" fill="black"/>
</svg>
