<svg width="24" height="24" viewBox="0 0 24 24" fill="none" xmlns="http://www.w3.org/2000/svg">
<path d="M14.4998 15C14.8953 15 15.282 14.8827 15.6109 14.6629C15.9398 14.4432 16.1962 14.1308 16.3475 13.7654C16.4989 13.3999 16.5385 12.9978 16.4613 12.6098C16.3842 12.2218 16.1937 11.8655 15.914 11.5858C15.6343 11.3061 15.2779 11.1156 14.8899 11.0384C14.502 10.9612 14.0999 11.0009 13.7344 11.1522C13.3689 11.3036 13.0566 11.5599 12.8368 11.8888C12.6171 12.2177 12.4998 12.6044 12.4998 13L10.5998 13.87C10.2732 13.6548 9.89081 13.5401 9.49977 13.54C8.96933 13.54 8.46063 13.7507 8.08555 14.1258C7.71048 14.5008 7.49977 15.0096 7.49977 15.54C7.49977 16.0704 7.71048 16.5791 8.08555 16.9542C8.46063 17.3293 8.96933 17.54 9.49977 17.54C9.82193 17.5401 10.1387 17.4575 10.4198 17.3L12.5198 18.3C12.5704 18.737 12.7637 19.1452 13.0698 19.4612C13.3758 19.7773 13.7776 19.9836 14.2127 20.0482C14.6479 20.1128 15.0923 20.0321 15.477 19.8186C15.8616 19.6052 16.1652 19.2708 16.3406 18.8673C16.516 18.4638 16.5535 18.0138 16.4473 17.5869C16.341 17.1599 16.097 16.78 15.7529 16.5058C15.4089 16.2316 14.984 16.0785 14.5441 16.0702C14.1042 16.0619 13.6739 16.1989 13.3198 16.46L11.5698 15.66L13.4798 14.78C13.7943 14.9423 14.1463 15.0182 14.4998 15ZM18.4198 7.21999C17.8088 5.81599 16.7543 4.65106 15.4178 3.90371C14.0814 3.15636 12.5368 2.86782 11.0207 3.0823C9.50464 3.29677 8.10069 4.00244 7.02402 5.09116C5.94735 6.17988 5.25735 7.5916 5.05977 9.10999C4.22198 9.31404 3.47257 9.78335 2.92321 10.448C2.37386 11.1126 2.05399 11.937 2.01126 12.7982C1.96854 13.6594 2.20526 14.5114 2.68613 15.2271C3.16701 15.9428 3.86629 16.484 4.67977 16.77C4.78348 16.8019 4.89125 16.8188 4.99977 16.82C5.26498 16.8624 5.53619 16.7978 5.75374 16.6402C5.97128 16.4827 6.11733 16.2452 6.15977 15.98C6.2022 15.7148 6.13754 15.4436 5.98001 15.226C5.82248 15.0085 5.58498 14.8624 5.31977 14.82C4.94268 14.6839 4.6152 14.4376 4.37982 14.113C4.14444 13.7885 4.01203 13.4007 3.99977 13C3.99977 12.4696 4.21048 11.9608 4.58555 11.5858C4.96063 11.2107 5.46933 11 5.99977 11C6.26498 11 6.51934 10.8946 6.70687 10.7071C6.89441 10.5196 6.99977 10.2652 6.99977 9.99999C7.00232 8.81726 7.42405 7.67374 8.19004 6.77257C8.95602 5.8714 10.0167 5.27094 11.1835 5.07786C12.3504 4.88478 13.5479 5.11159 14.5633 5.71799C15.5788 6.3244 16.3464 7.27113 16.7298 8.38999C16.7869 8.56183 16.8897 8.71492 17.0271 8.83292C17.1644 8.95092 17.3313 9.0294 17.5098 9.05999C18.1111 9.16883 18.6649 9.45872 19.0969 9.89087C19.529 10.323 19.8188 10.8768 19.9276 11.4782C20.0363 12.0795 19.9588 12.6998 19.7054 13.2559C19.4521 13.812 19.0349 14.2774 18.5098 14.59C18.279 14.7226 18.1104 14.9414 18.041 15.1984C17.9716 15.4553 18.0072 15.7292 18.1398 15.96C18.2724 16.1907 18.4912 16.3593 18.7481 16.4287C19.0051 16.4981 19.279 16.4626 19.5098 16.33C20.268 15.8899 20.8972 15.2582 21.3342 14.4982C21.7712 13.7382 22.0008 12.8767 21.9998 12C21.9967 10.9241 21.6467 9.87792 21.0018 9.01679C20.3568 8.15566 19.4513 7.52553 18.4198 7.21999Z" fill="black"/>
</svg>
