<svg width="24" height="24" viewBox="0 0 24 24" fill="none" xmlns="http://www.w3.org/2000/svg">
<path d="M16.2899 6.2899L9.28994 13.2899C9.19621 13.3829 9.12182 13.4935 9.07105 13.6153C9.02028 13.7372 8.99414 13.8679 8.99414 13.9999C8.99414 14.1319 9.02028 14.2626 9.07105 14.3845C9.12182 14.5063 9.19621 14.6169 9.28994 14.7099C9.3829 14.8036 9.4935 14.878 9.61536 14.9288C9.73722 14.9796 9.86793 15.0057 9.99994 15.0057C10.132 15.0057 10.2627 14.9796 10.3845 14.9288C10.5064 14.878 10.617 14.8036 10.7099 14.7099L17.7099 7.7099C17.8982 7.5216 18.004 7.26621 18.004 6.9999C18.004 6.7336 17.8982 6.47821 17.7099 6.2899C17.5216 6.1016 17.2662 5.99581 16.9999 5.99581C16.7336 5.99581 16.4782 6.1016 16.2899 6.2899ZM20.5399 3.4599C20.0755 2.99427 19.5237 2.62484 18.9163 2.37278C18.3088 2.12071 17.6576 1.99097 16.9999 1.99097C16.3423 1.99097 15.6911 2.12071 15.0836 2.37278C14.4762 2.62484 13.9244 2.99427 13.4599 3.4599L5.28994 11.6899C5.10519 11.8762 5.00104 12.1276 4.99994 12.3899V17.5799L2.28994 20.2899C2.19621 20.3829 2.12182 20.4935 2.07105 20.6153C2.02028 20.7372 1.99414 20.8679 1.99414 20.9999C1.99414 21.1319 2.02028 21.2626 2.07105 21.3845C2.12182 21.5063 2.19621 21.6169 2.28994 21.7099C2.3829 21.8036 2.4935 21.878 2.61536 21.9288C2.73722 21.9796 2.86793 22.0057 2.99994 22.0057C3.13195 22.0057 3.26266 21.9796 3.38452 21.9288C3.50637 21.878 3.61698 21.8036 3.70994 21.7099L6.41994 18.9999H11.6099C11.8723 18.9988 12.1237 18.8946 12.3099 18.7099L20.5399 10.5399C21.0056 10.0754 21.375 9.52369 21.6271 8.91624C21.8791 8.30879 22.0089 7.65758 22.0089 6.9999C22.0089 6.34223 21.8791 5.69102 21.6271 5.08357C21.375 4.47612 21.0056 3.92436 20.5399 3.4599ZM19.1199 9.1199L11.1999 16.9999H6.99994V12.7999L14.8799 4.8799C15.4486 4.34998 16.2008 4.06149 16.978 4.0752C17.7552 4.08892 18.4968 4.40377 19.0464 4.95342C19.5961 5.50307 19.9109 6.24461 19.9246 7.02181C19.9384 7.79902 19.6499 8.5512 19.1199 9.1199Z" fill="black"/>
</svg>
