<svg width="24" height="24" viewBox="0 0 24 24" fill="none" xmlns="http://www.w3.org/2000/svg">
<path d="M11.2902 9.70994C11.3831 9.80367 11.4937 9.87806 11.6156 9.92883C11.7375 9.9796 11.8682 10.0057 12.0002 10.0057C12.1322 10.0057 12.2629 9.9796 12.3848 9.92883C12.5066 9.87806 12.6172 9.80367 12.7102 9.70994L17.7102 4.70994C17.8985 4.52164 18.0043 4.26624 18.0043 3.99994C18.0043 3.73364 17.8985 3.47825 17.7102 3.28994C17.5219 3.10164 17.2665 2.99585 17.0002 2.99585C16.7339 2.99585 16.4785 3.10164 16.2902 3.28994L12.0002 7.58994L7.71019 3.28994C7.52188 3.10164 7.26649 2.99585 7.00019 2.99585C6.73388 2.99585 6.47849 3.10164 6.29019 3.28994C6.10188 3.47825 5.99609 3.73364 5.99609 3.99994C5.99609 4.26624 6.10188 4.52164 6.29019 4.70994L11.2902 9.70994ZM12.7102 14.2899C12.6172 14.1962 12.5066 14.1218 12.3848 14.0711C12.2629 14.0203 12.1322 13.9941 12.0002 13.9941C11.8682 13.9941 11.7375 14.0203 11.6156 14.0711C11.4937 14.1218 11.3831 14.1962 11.2902 14.2899L6.29019 19.2899C6.10188 19.4782 5.99609 19.7336 5.99609 19.9999C5.99609 20.2662 6.10188 20.5216 6.29019 20.7099C6.47849 20.8982 6.73388 21.004 7.00019 21.004C7.26649 21.004 7.52188 20.8982 7.71019 20.7099L12.0002 16.4099L16.2902 20.7099C16.3831 20.8037 16.4937 20.8781 16.6156 20.9288C16.7375 20.9796 16.8682 21.0057 17.0002 21.0057C17.1322 21.0057 17.2629 20.9796 17.3848 20.9288C17.5066 20.8781 17.6172 20.8037 17.7102 20.7099C17.8039 20.617 17.8783 20.5064 17.9291 20.3845C17.9798 20.2627 18.006 20.132 18.006 19.9999C18.006 19.8679 17.9798 19.7372 17.9291 19.6154C17.8783 19.4935 17.8039 19.3829 17.7102 19.2899L12.7102 14.2899Z" fill="black"/>
</svg>
