<svg width="24" height="24" viewBox="0 0 24 24" fill="none" xmlns="http://www.w3.org/2000/svg">
<path d="M17.4498 12.46C18.6173 11.0225 19.1676 9.18087 18.9802 7.33845C18.7928 5.49604 17.8829 3.80297 16.4498 2.63001C15.6287 1.97199 14.6715 1.50497 13.6476 1.26282C12.6236 1.02067 11.5586 1.00946 10.5298 1.23001C9.37463 1.4855 8.30308 2.0296 7.41522 2.81149C6.52736 3.59337 5.85215 4.58753 5.45266 5.70111C5.05317 6.81468 4.94244 8.01134 5.1308 9.17932C5.31916 10.3473 5.80047 11.4485 6.52978 12.38C7.19445 13.1887 7.57404 14.1939 7.60978 15.24V15.53C7.22927 15.8976 7.00993 16.401 6.99978 16.93V18.93C6.99978 19.4604 7.21049 19.9691 7.58556 20.3442C7.96063 20.7193 8.46934 20.93 8.99978 20.93V21.93C8.99978 22.1952 9.10513 22.4496 9.29267 22.6371C9.48021 22.8246 9.73456 22.93 9.99978 22.93C10.265 22.93 10.5193 22.8246 10.7069 22.6371C10.8944 22.4496 10.9998 22.1952 10.9998 21.93V20.93H12.9998V21.93C12.9998 22.1952 13.1051 22.4496 13.2927 22.6371C13.4802 22.8246 13.7346 22.93 13.9998 22.93C14.265 22.93 14.5193 22.8246 14.7069 22.6371C14.8944 22.4496 14.9998 22.1952 14.9998 21.93V20.93C15.5302 20.93 16.0389 20.7193 16.414 20.3442C16.7891 19.9691 16.9998 19.4604 16.9998 18.93V16.93C17.0002 16.4067 16.7956 15.9041 16.4298 15.53V15.1C16.459 14.1295 16.8188 13.198 17.4498 12.46ZM8.99978 18.93V16.93H14.9998V18.93H8.99978ZM15.8898 11.21C15.0046 12.2541 14.491 13.5625 14.4298 14.93H9.55978C9.46545 13.5446 8.94107 12.2231 8.05978 11.15C7.53039 10.4856 7.17899 9.69734 7.03876 8.8595C6.89852 8.02167 6.97406 7.16191 7.25826 6.36137C7.54245 5.56082 8.02592 4.84588 8.66306 4.28401C9.30019 3.72214 10.07 3.33186 10.8998 3.15001C11.635 2.98417 12.3981 2.98668 13.1322 3.15736C13.8663 3.32803 14.5523 3.66245 15.139 4.1356C15.7256 4.60875 16.1977 5.2084 16.5199 5.88971C16.8421 6.57102 17.0062 7.31636 16.9998 8.07C17.0061 9.21388 16.6135 10.3242 15.8898 11.21Z" fill="black"/>
</svg>
