<svg width="24" height="24" viewBox="0 0 24 24" fill="none" xmlns="http://www.w3.org/2000/svg">
<path d="M13.9998 5.5C13.9998 4.30653 13.5257 3.16193 12.6818 2.31802C11.8378 1.47411 10.6933 1 9.49978 1C8.30631 1 7.16172 1.47411 6.3178 2.31802C5.47389 3.16193 4.99978 4.30653 4.99978 5.5V13C4.30863 13.7832 3.83391 14.7333 3.6226 15.7562C3.41128 16.7792 3.47069 17.8396 3.79494 18.8326C4.11919 19.8255 4.69705 20.7166 5.47136 21.4177C6.24567 22.1188 7.1896 22.6056 8.20978 22.83C8.6303 22.926 9.05879 22.9829 9.48978 23C10.6513 23.0074 11.7899 22.6774 12.7675 22.0503C13.7451 21.4231 14.5197 20.5257 14.9972 19.4669C15.4748 18.4081 15.6347 17.2334 15.4576 16.0855C15.2806 14.9376 14.7741 13.8657 13.9998 13V5.5ZM11.9998 20.11C11.2041 20.8155 10.1608 21.176 9.09937 21.1122C8.03791 21.0485 7.04526 20.5656 6.33978 19.77C5.63431 18.9744 5.2738 17.931 5.33756 16.8696C5.40132 15.8081 5.88413 14.8155 6.67978 14.11C6.77427 14.0174 6.84944 13.9069 6.90094 13.7851C6.95243 13.6632 6.97923 13.5323 6.97978 13.4V5.5C6.97978 4.83696 7.24318 4.20107 7.71202 3.73223C8.18086 3.26339 8.81674 3 9.47978 3C10.1428 3 10.7787 3.26339 11.2476 3.73223C11.7164 4.20107 11.9798 4.83696 11.9798 5.5V13.44C11.9803 13.5723 12.0071 13.7032 12.0586 13.8251C12.1101 13.9469 12.1853 14.0574 12.2798 14.15C12.6885 14.5449 13.0084 15.0223 13.2182 15.5505C13.428 16.0787 13.5228 16.6456 13.4963 17.2133C13.4698 17.781 13.3226 18.3366 13.0646 18.843C12.8065 19.3493 12.4435 19.7949 11.9998 20.15V20.11ZM10.4998 15.28V5.5C10.4998 5.23478 10.3944 4.98043 10.2069 4.79289C10.0194 4.60536 9.765 4.5 9.49978 4.5C9.23457 4.5 8.98021 4.60536 8.79268 4.79289C8.60514 4.98043 8.49978 5.23478 8.49978 5.5V15.28C8.19751 15.4545 7.94616 15.7051 7.77073 16.0068C7.5953 16.3086 7.50189 16.651 7.49978 17C7.49978 17.5304 7.7105 18.0391 8.08557 18.4142C8.46064 18.7893 8.96935 19 9.49978 19C10.0302 19 10.5389 18.7893 10.914 18.4142C11.2891 18.0391 11.4998 17.5304 11.4998 17C11.4977 16.651 11.4043 16.3086 11.2288 16.0068C11.0534 15.7051 10.8021 15.4545 10.4998 15.28ZM19.4998 2.5H16.4998C16.2346 2.5 15.9802 2.60536 15.7927 2.79289C15.6051 2.98043 15.4998 3.23478 15.4998 3.5C15.4998 3.76522 15.6051 4.01957 15.7927 4.20711C15.9802 4.39464 16.2346 4.5 16.4998 4.5H19.4998C19.765 4.5 20.0194 4.39464 20.2069 4.20711C20.3944 4.01957 20.4998 3.76522 20.4998 3.5C20.4998 3.23478 20.3944 2.98043 20.2069 2.79289C20.0194 2.60536 19.765 2.5 19.4998 2.5Z" fill="black"/>
</svg>
