<svg width="24" height="24" viewBox="0 0 24 24" fill="none" xmlns="http://www.w3.org/2000/svg">
<path d="M18.9198 16.13C18.8056 16.0639 18.6795 16.021 18.5488 16.0038C18.418 15.9866 18.2851 15.9955 18.1578 16.0299C18.0304 16.0643 17.9111 16.1235 17.8068 16.2042C17.7024 16.2849 17.6151 16.3854 17.5498 16.5C16.9364 17.5623 16.0547 18.4449 14.9929 19.0591C13.931 19.6734 12.7264 19.9979 11.4998 20H5.90976L6.54976 19.37C6.73601 19.1826 6.84055 18.9292 6.84055 18.665C6.84055 18.4008 6.73601 18.1474 6.54976 17.96C5.61919 17.0347 4.96747 15.8664 4.66896 14.5885C4.37046 13.3106 4.4372 11.9745 4.86156 10.7327C5.28593 9.49086 6.05082 8.39335 7.06897 7.56537C8.08712 6.7374 9.31751 6.2123 10.6198 6.05C10.7511 6.03424 10.878 5.99277 10.9933 5.92796C11.1086 5.86314 11.21 5.77626 11.2917 5.67225C11.3734 5.56825 11.4339 5.44917 11.4696 5.32182C11.5053 5.19446 11.5155 5.06132 11.4998 4.93C11.484 4.79868 11.4425 4.67175 11.3777 4.55645C11.3129 4.44116 11.226 4.33976 11.122 4.25804C11.018 4.17632 10.8989 4.11589 10.7716 4.0802C10.6442 4.0445 10.5111 4.03424 10.3798 4.05C8.78893 4.24683 7.27954 4.86495 6.00762 5.84049C4.73569 6.81602 3.74738 8.11355 3.14486 9.59895C2.54234 11.0844 2.34747 12.7037 2.58039 14.2897C2.81331 15.8756 3.46558 17.3706 4.46976 18.62L2.78976 20.29C2.651 20.4306 2.557 20.6092 2.51963 20.8032C2.48225 20.9972 2.50318 21.1979 2.57976 21.38C2.65478 21.5626 2.78217 21.7189 2.94589 21.8293C3.10962 21.9396 3.30233 21.999 3.49976 22H11.4998C13.0789 21.9993 14.63 21.583 15.9974 20.7932C17.3647 20.0033 18.5002 18.8676 19.2898 17.5C19.3559 17.3859 19.3988 17.2598 19.4159 17.129C19.4331 16.9982 19.4243 16.8653 19.3899 16.738C19.3555 16.6107 19.2962 16.4914 19.2156 16.387C19.1349 16.2827 19.0343 16.1953 18.9198 16.13ZM19.4998 6.18V5C19.4998 4.20435 19.1837 3.44129 18.6211 2.87868C18.0585 2.31607 17.2954 2 16.4998 2C15.7041 2 14.941 2.31607 14.3784 2.87868C13.8158 3.44129 13.4998 4.20435 13.4998 5V6.18C12.9162 6.38631 12.4108 6.76807 12.0527 7.27293C11.6946 7.7778 11.5015 8.38106 11.4998 9V11C11.4998 11.7956 11.8158 12.5587 12.3784 13.1213C12.941 13.6839 13.7041 14 14.4998 14H18.4998C19.2954 14 20.0585 13.6839 20.6211 13.1213C21.1837 12.5587 21.4998 11.7956 21.4998 11V9C21.498 8.38106 21.3049 7.7778 20.9468 7.27293C20.5888 6.76807 20.0833 6.38631 19.4998 6.18ZM15.4998 5C15.4998 4.73478 15.6051 4.48043 15.7927 4.29289C15.9802 4.10536 16.2345 4 16.4998 4C16.765 4 17.0193 4.10536 17.2069 4.29289C17.3944 4.48043 17.4998 4.73478 17.4998 5V6H15.4998V5ZM19.4998 11C19.4998 11.2652 19.3944 11.5196 19.2069 11.7071C19.0193 11.8946 18.765 12 18.4998 12H14.4998C14.2345 12 13.9802 11.8946 13.7927 11.7071C13.6051 11.5196 13.4998 11.2652 13.4998 11V9C13.4998 8.73478 13.6051 8.48043 13.7927 8.29289C13.9802 8.10536 14.2345 8 14.4998 8H18.4998C18.765 8 19.0193 8.10536 19.2069 8.29289C19.3944 8.48043 19.4998 8.73478 19.4998 9V11Z" fill="black"/>
</svg>
