<svg width="24" height="24" viewBox="0 0 24 24" fill="none" xmlns="http://www.w3.org/2000/svg">
<path d="M5.00013 18C4.80235 18 4.60901 18.0586 4.44456 18.1685C4.28012 18.2784 4.15194 18.4346 4.07625 18.6173C4.00057 18.8 3.98076 19.0011 4.01935 19.1951C4.05793 19.3891 4.15318 19.5672 4.29303 19.7071C4.43288 19.8469 4.61106 19.9422 4.80504 19.9808C4.99903 20.0194 5.20009 19.9995 5.38282 19.9239C5.56554 19.8482 5.72172 19.72 5.8316 19.5556C5.94149 19.3911 6.00013 19.1978 6.00013 19C6.00013 18.7348 5.89478 18.4804 5.70724 18.2929C5.5197 18.1053 5.26535 18 5.00013 18ZM19.0001 14H12.0001C11.7349 14 11.4806 14.1053 11.293 14.2929C11.1055 14.4804 11.0001 14.7348 11.0001 15C11.0001 15.2652 11.1055 15.5196 11.293 15.7071C11.4806 15.8946 11.7349 16 12.0001 16H19.0001C19.2654 16 19.5197 16.1053 19.7072 16.2929C19.8948 16.4804 20.0001 16.7348 20.0001 17C20.0001 17.2652 19.8948 17.5196 19.7072 17.7071C19.5197 17.8946 19.2654 18 19.0001 18C18.7349 18 18.4806 18.1053 18.293 18.2929C18.1055 18.4804 18.0001 18.7348 18.0001 19C18.0001 19.2652 18.1055 19.5196 18.293 19.7071C18.4806 19.8946 18.7349 20 19.0001 20C19.7958 20 20.5588 19.6839 21.1215 19.1213C21.6841 18.5587 22.0001 17.7956 22.0001 17C22.0001 16.2043 21.6841 15.4413 21.1215 14.8787C20.5588 14.3161 19.7958 14 19.0001 14ZM14.0001 11C14.0001 11.2652 14.1055 11.5196 14.293 11.7071C14.4806 11.8946 14.7349 12 15.0001 12H19.0001C19.7958 12 20.5588 11.6839 21.1215 11.1213C21.6841 10.5587 22.0001 9.79563 22.0001 8.99998C22.0001 8.73477 21.8948 8.48041 21.7072 8.29288C21.5197 8.10534 21.2654 7.99998 21.0001 7.99998C20.7349 7.99998 20.4806 8.10534 20.293 8.29288C20.1055 8.48041 20.0001 8.73477 20.0001 8.99998C20.0001 9.2652 19.8948 9.51955 19.7072 9.70709C19.5197 9.89462 19.2654 9.99998 19.0001 9.99998H15.0001C14.7349 9.99998 14.4806 10.1053 14.293 10.2929C14.1055 10.4804 14.0001 10.7348 14.0001 11ZM10.0001 15C10.0001 14.7348 9.89478 14.4804 9.70724 14.2929C9.5197 14.1053 9.26535 14 9.00013 14H6.00013C5.4697 14 4.96099 13.7893 4.58592 13.4142C4.21085 13.0391 4.00013 12.5304 4.00013 12C4.00013 11.4695 4.21085 10.9608 4.58592 10.5858C4.96099 10.2107 5.4697 9.99998 6.00013 9.99998C6.26535 9.99998 6.5197 9.89462 6.70724 9.70709C6.89478 9.51955 7.00013 9.2652 7.00013 8.99998C7.00269 7.81726 7.42442 6.67374 8.1904 5.77257C8.95639 4.8714 10.017 4.27093 11.1839 4.07786C12.3507 3.88478 13.5483 4.11159 14.5637 4.71799C15.5791 5.32439 16.3467 6.27112 16.7301 7.38998C16.815 7.64194 16.9965 7.84986 17.2347 7.96801C17.4728 8.08616 17.7482 8.10485 18.0001 8.01998C18.2521 7.93511 18.46 7.75363 18.5782 7.51546C18.6963 7.27729 18.715 7.00194 18.6301 6.74998C18.1209 5.25261 17.1197 3.9718 15.7894 3.11625C14.4592 2.26071 12.8785 1.88085 11.3048 2.03856C9.7311 2.19628 8.25718 2.88228 7.12321 3.98479C5.98924 5.0873 5.26206 6.54134 5.06013 8.10998C4.10672 8.3383 3.27036 8.90882 2.70987 9.71317C2.14939 10.5175 1.90382 11.4997 2.0198 12.4732C2.13578 13.4467 2.60523 14.3437 3.339 14.9938C4.07277 15.644 5.01976 16.002 6.00013 16H9.00013C9.26535 16 9.5197 15.8946 9.70724 15.7071C9.89478 15.5196 10.0001 15.2652 10.0001 15ZM10.0001 11C10.0001 11.1978 10.0588 11.3911 10.1687 11.5556C10.2785 11.72 10.4347 11.8482 10.6175 11.9239C10.8002 11.9995 11.0012 12.0194 11.1952 11.9808C11.3892 11.9422 11.5674 11.8469 11.7072 11.7071C11.8471 11.5672 11.9423 11.3891 11.9809 11.1951C12.0195 11.0011 11.9997 10.8 11.924 10.6173C11.8483 10.4346 11.7202 10.2784 11.5557 10.1685C11.3913 10.0586 11.1979 9.99998 11.0001 9.99998C10.7349 9.99998 10.4806 10.1053 10.293 10.2929C10.1055 10.4804 10.0001 10.7348 10.0001 11ZM14.0001 18H9.00013C8.73492 18 8.48056 18.1053 8.29303 18.2929C8.10549 18.4804 8.00013 18.7348 8.00013 19C8.00013 19.2652 8.10549 19.5196 8.29303 19.7071C8.48056 19.8946 8.73492 20 9.00013 20H14.0001C14.2654 20 14.5197 20.1053 14.7072 20.2929C14.8948 20.4804 15.0001 20.7348 15.0001 21C15.0001 21.2652 15.1055 21.5196 15.293 21.7071C15.4806 21.8946 15.7349 22 16.0001 22C16.2654 22 16.5197 21.8946 16.7072 21.7071C16.8948 21.5196 17.0001 21.2652 17.0001 21C17.0001 20.2043 16.6841 19.4413 16.1215 18.8787C15.5588 18.3161 14.7958 18 14.0001 18Z" fill="black"/>
</svg>
