<svg width="24" height="24" viewBox="0 0 24 24" fill="none" xmlns="http://www.w3.org/2000/svg">
<path d="M5.50019 11C5.50019 11.2652 5.60554 11.5196 5.79308 11.7071C5.98062 11.8947 6.23497 12 6.50019 12C6.7654 12 7.01976 11.8947 7.20729 11.7071C7.39483 11.5196 7.50019 11.2652 7.50019 11V5.41002L8.79018 6.71002C8.88315 6.80375 8.99375 6.87814 9.11561 6.92891C9.23747 6.97968 9.36817 7.00582 9.50019 7.00582C9.6322 7.00582 9.7629 6.97968 9.88476 6.92891C10.0066 6.87814 10.1172 6.80375 10.2102 6.71002C10.3039 6.61706 10.3783 6.50645 10.4291 6.3846C10.4798 6.26274 10.506 6.13203 10.506 6.00002C10.506 5.86801 10.4798 5.7373 10.4291 5.61544C10.3783 5.49358 10.3039 5.38298 10.2102 5.29002L7.21019 2.29002C7.11508 2.19898 7.00294 2.12761 6.88019 2.08002C6.63672 1.98 6.36365 1.98 6.12019 2.08002C5.99743 2.12761 5.88529 2.19898 5.79019 2.29002L2.79019 5.29002C2.60188 5.47832 2.49609 5.73372 2.49609 6.00002C2.49609 6.26632 2.60188 6.52172 2.79019 6.71002C2.97849 6.89832 3.23388 7.00411 3.50019 7.00411C3.76649 7.00411 4.02188 6.89832 4.21019 6.71002L5.50019 5.41002V11ZM18.5002 6.00002H13.5002C13.235 6.00002 12.9806 6.10538 12.7931 6.29291C12.6055 6.48045 12.5002 6.7348 12.5002 7.00002C12.5002 7.26523 12.6055 7.51959 12.7931 7.70713C12.9806 7.89466 13.235 8.00002 13.5002 8.00002H18.5002C18.7654 8.00002 19.0198 8.10538 19.2073 8.29291C19.3948 8.48045 19.5002 8.7348 19.5002 9.00002V18.72L17.9302 17.27C17.7458 17.0974 17.5028 17.0009 17.2502 17H8.50019C8.23497 17 7.98061 16.8947 7.79308 16.7071C7.60554 16.5196 7.50019 16.2652 7.50019 16V15C7.50019 14.7348 7.39483 14.4804 7.20729 14.2929C7.01976 14.1054 6.7654 14 6.50019 14C6.23497 14 5.98062 14.1054 5.79308 14.2929C5.60554 14.4804 5.50019 14.7348 5.50019 15V16C5.50019 16.7957 5.81626 17.5587 6.37887 18.1213C6.94147 18.6839 7.70454 19 8.50019 19H16.8602L19.8602 21.73C20.0446 21.9027 20.2876 21.9991 20.5402 22C20.6773 21.9985 20.813 21.9714 20.9402 21.92C21.1191 21.842 21.2712 21.7132 21.3778 21.5498C21.4844 21.3863 21.5409 21.1952 21.5402 21V9.00002C21.5402 8.60266 21.4613 8.20926 21.3081 7.84265C21.1548 7.47604 20.9302 7.14353 20.6474 6.86443C20.3646 6.58533 20.0291 6.36519 19.6605 6.2168C19.2919 6.06841 18.8975 5.99472 18.5002 6.00002Z" fill="black"/>
</svg>
