<svg width="24" height="24" viewBox="0 0 24 24" fill="none" xmlns="http://www.w3.org/2000/svg">
<path d="M21.951 15.6144C21.3337 15.4707 20.7516 15.2043 20.2394 14.831C19.7272 14.4577 19.2953 13.9852 18.9695 13.4415C18.8209 13.2219 18.591 13.0703 18.3306 13.0201C18.0702 12.9699 17.8005 13.0253 17.5809 13.1739C17.3612 13.3226 17.2096 13.5524 17.1595 13.8128C17.1093 14.0733 17.1646 14.343 17.3133 14.5626C17.9328 15.5077 18.753 16.3046 19.7156 16.8966C19.5808 16.922 19.4344 16.9464 19.2742 16.9718C18.9897 17.0323 18.732 17.182 18.5385 17.3991C18.3449 17.6161 18.2257 17.8893 18.198 18.1788C17.5314 18.0651 16.8505 18.0638 16.1834 18.1749C15.4641 18.3337 14.7929 18.6614 14.2254 19.1309C13.6415 19.6487 12.9008 19.9554 12.1219 20.002H11.8611C11.0813 19.9553 10.3398 19.6478 9.75566 19.129C9.19618 18.6656 8.53545 18.3404 7.82695 18.1798C7.15112 18.0719 6.46235 18.0732 5.78695 18.1837C5.76058 17.8956 5.64352 17.6232 5.45261 17.4058C5.26169 17.1884 5.00676 17.0371 4.72445 16.9737C4.56722 16.9493 4.42269 16.9249 4.28988 16.8995C4.9696 16.5063 5.57674 15.9993 6.0848 15.4005C6.31926 15.1286 6.53153 14.8382 6.71957 14.5323C6.85989 14.3075 6.90523 14.0362 6.84562 13.778C6.78601 13.5198 6.62633 13.2958 6.40166 13.1552C6.17699 13.0147 5.90571 12.9691 5.64744 13.0284C5.38916 13.0878 5.16501 13.2473 5.02425 13.4718C4.89103 13.6885 4.74116 13.8945 4.57601 14.088C3.93691 14.8882 3.03047 15.4309 2.02328 15.6163C1.73094 15.6626 1.46529 15.8133 1.2755 16.0404C1.08572 16.2676 0.984646 16.5557 0.991006 16.8517C0.99067 17.0356 1.02997 17.2175 1.10625 17.3849C1.42168 18.1007 2.26152 18.5529 3.89042 18.8595L3.92168 18.9894C3.95 19.1075 3.97929 19.2276 4.01347 19.337C4.09013 19.6148 4.25772 19.8589 4.48946 20.0303C4.72119 20.2017 5.00368 20.2904 5.29179 20.2823C5.49535 20.2771 5.69759 20.248 5.89433 20.1954C6.41743 20.0894 6.95484 20.0739 7.4832 20.1495C7.89753 20.2722 8.28057 20.4827 8.60625 20.7667C9.52557 21.5257 10.6697 21.9599 11.8611 22.0021H12.1219C13.3207 21.9581 14.4714 21.5194 15.3953 20.7541C15.7225 20.4693 16.1092 20.2611 16.5271 20.1447C16.7331 20.1085 16.942 20.0908 17.1511 20.092C17.4725 20.0914 17.7929 20.1271 18.1062 20.1984C18.3092 20.2363 18.515 20.2576 18.7214 20.2619C19.0023 20.2695 19.2776 20.1827 19.5033 20.0154C19.729 19.8481 19.8921 19.61 19.9666 19.3391C20.0046 19.217 20.0339 19.0998 20.0613 18.9846L20.0925 18.8606C21.7165 18.5549 22.5593 18.1057 22.8601 17.4201C22.9362 17.2712 22.9795 17.1077 22.9871 16.9406C23.0119 16.63 22.9191 16.3213 22.7273 16.0758C22.5354 15.8302 22.2584 15.6655 21.951 15.6144ZM3.80156 11.1485C4.00616 11.1873 4.21775 11.1615 4.40705 11.0747C4.59635 10.9879 4.754 10.8445 4.8582 10.6642C5.25428 10.8658 5.68867 10.9809 6.13261 11.002C6.60362 11.0083 7.05821 10.8291 7.39824 10.503C7.50581 10.4027 7.58993 10.2799 7.64462 10.1434C7.69931 10.0068 7.72321 9.85989 7.71464 9.71305L7.67851 9.11149C7.5147 7.92461 7.56766 6.71786 7.8348 5.5499C8.17227 4.78276 8.72854 4.13221 9.43396 3.6797C10.1394 3.22719 10.9626 2.99283 11.8006 3.00596L12.1883 3.00205C13.0255 2.99087 13.8475 3.22643 14.5517 3.67935C15.2559 4.13227 15.8112 4.78249 16.1483 5.54893C16.4155 6.71786 16.4684 7.92555 16.3046 9.11338L16.2948 9.27647L16.2675 9.71983C16.2619 9.86424 16.2869 10.0082 16.3407 10.1423C16.3946 10.2764 16.4761 10.3977 16.58 10.4981C16.9165 10.8227 17.3664 11.0031 17.8339 11.0011C18.2678 10.9632 18.6898 10.839 19.0751 10.6358C19.1532 10.8138 19.2814 10.9651 19.444 11.0714C19.6067 11.1777 19.7968 11.2344 19.9911 11.2345H20.0087C20.2739 11.2298 20.5264 11.12 20.7106 10.9291C20.8948 10.7383 20.9957 10.4821 20.9911 10.2169C20.9651 9.88295 20.8376 9.56493 20.6257 9.30553C20.4138 9.04613 20.1276 8.85776 19.8055 8.76572C19.571 8.66966 19.3196 8.62115 19.0662 8.623C18.8127 8.62484 18.5621 8.67701 18.329 8.77647C18.5042 7.41935 18.3832 6.04037 17.9745 4.73447C17.4824 3.6114 16.6701 2.65835 15.6392 1.99448C14.6083 1.33062 13.4046 0.985412 12.1786 1.00204L11.786 1.00595C10.5631 0.991003 9.36283 1.33679 8.33529 2.0001C7.30775 2.6634 6.49848 3.61482 6.00859 4.73545C5.59676 6.05889 5.47682 7.4559 5.65703 8.83018C5.62285 8.81455 5.58574 8.79698 5.5457 8.77842C5.30134 8.67954 5.03915 8.63235 4.77565 8.63982C4.51215 8.6473 4.25305 8.70927 4.0147 8.82185C3.77634 8.93442 3.56388 9.09515 3.39072 9.2939C3.21756 9.49266 3.08745 9.72513 3.00859 9.97666C2.95862 10.2372 3.01404 10.5069 3.16271 10.7266C3.31138 10.9463 3.54113 11.098 3.80156 11.1485Z" fill="black"/>
</svg>
