<svg width="24" height="24" viewBox="0 0 24 24" fill="none" xmlns="http://www.w3.org/2000/svg">
<path d="M20.4901 13.94L20.1501 14.14C19.9221 14.2753 19.7571 14.4956 19.6914 14.7525C19.6258 15.0094 19.6649 15.2819 19.8001 15.51C19.8886 15.6593 20.0145 15.783 20.1652 15.8689C20.316 15.9548 20.4866 16 20.6601 16C20.8396 15.9999 21.0158 15.9516 21.1701 15.86L21.5101 15.66C21.7103 15.5144 21.8494 15.2997 21.9005 15.0575C21.9515 14.8152 21.9109 14.5627 21.7865 14.3486C21.662 14.1346 21.4626 13.9744 21.2269 13.8989C20.9911 13.8234 20.7357 13.838 20.5101 13.94H20.4901ZM11.6501 6.36L12.0001 6.15L19.0001 10.15L17.2401 11.15C17.0475 11.2592 16.8965 11.4292 16.8109 11.6334C16.7253 11.8376 16.7099 12.0644 16.7671 12.2783C16.8243 12.4922 16.9508 12.6811 17.1269 12.8153C17.303 12.9496 17.5187 13.0216 17.7401 13.02C17.9153 13.0212 18.0877 12.9764 18.2401 12.89L21.5001 11C21.654 10.9128 21.782 10.7863 21.8711 10.6335C21.9601 10.4806 22.0071 10.3069 22.0071 10.13C22.0071 9.95311 21.9601 9.77938 21.8711 9.62654C21.782 9.4737 21.654 9.34722 21.5001 9.26L12.5001 4.07C12.3481 3.98223 12.1756 3.93603 12.0001 3.93603C11.8246 3.93603 11.6521 3.98223 11.5001 4.07L10.6501 4.56C10.4194 4.69261 10.2508 4.91145 10.1814 5.16837C10.112 5.4253 10.1475 5.69926 10.2801 5.93C10.4127 6.16074 10.6316 6.32935 10.8885 6.39874C11.1454 6.46813 11.4194 6.43261 11.6501 6.3V6.36ZM3.71011 2.29C3.61687 2.19676 3.50618 2.1228 3.38436 2.07234C3.26254 2.02188 3.13197 1.99591 3.00011 1.99591C2.86825 1.99591 2.73769 2.02188 2.61586 2.07234C2.49404 2.1228 2.38335 2.19676 2.29011 2.29C2.10181 2.47831 1.99602 2.7337 1.99602 3C1.99602 3.2663 2.10181 3.5217 2.29011 3.71L5.93011 7.34L2.50011 9.34C2.34621 9.42722 2.21821 9.5537 2.12915 9.70654C2.04009 9.85938 1.99316 10.0331 1.99316 10.21C1.99316 10.3869 2.04009 10.5606 2.12915 10.7135C2.21821 10.8663 2.34621 10.9928 2.50011 11.08L11.5001 16.28C11.654 16.3628 11.8254 16.4074 12.0001 16.41C12.1746 16.4059 12.3457 16.3614 12.5001 16.28L14.0001 15.4L15.4501 16.86L12.0101 18.86L3.50011 13.93C3.26937 13.7974 2.99541 13.7619 2.73848 13.8313C2.48156 13.9007 2.26272 14.0693 2.13011 14.3C1.9975 14.5307 1.96199 14.8047 2.03138 15.0616C2.10076 15.3186 2.26937 15.5374 2.50011 15.67L11.5001 20.87C11.6521 20.9578 11.8246 21.004 12.0001 21.004C12.1756 21.004 12.3481 20.9578 12.5001 20.87L16.9101 18.32L20.2901 21.71C20.3831 21.8037 20.4937 21.8781 20.6155 21.9289C20.7374 21.9797 20.8681 22.0058 21.0001 22.0058C21.1321 22.0058 21.2628 21.9797 21.3847 21.9289C21.5065 21.8781 21.6171 21.8037 21.7101 21.71C21.8038 21.617 21.8782 21.5064 21.929 21.3846C21.9798 21.2627 22.0059 21.132 22.0059 21C22.0059 20.868 21.9798 20.7373 21.929 20.6154C21.8782 20.4936 21.8038 20.383 21.7101 20.29L3.71011 2.29ZM12.0001 14.29L5.00011 10.19L7.40011 8.81L12.5201 13.94L12.0001 14.29Z" fill="black"/>
</svg>
