<svg width="24" height="24" viewBox="0 0 24 24" fill="none" xmlns="http://www.w3.org/2000/svg">
<path d="M11.9999 10C11.7347 10 11.4803 10.1054 11.2928 10.2929C11.1052 10.4805 10.9999 10.7348 10.9999 11V13C10.9999 13.2652 11.1052 13.5196 11.2928 13.7071C11.4803 13.8947 11.7347 14 11.9999 14C12.2651 14 12.5195 13.8947 12.707 13.7071C12.8945 13.5196 12.9999 13.2652 12.9999 13V11C12.9999 10.7348 12.8945 10.4805 12.707 10.2929C12.5195 10.1054 12.2651 10 11.9999 10ZM20.4599 9.68002C20.3273 8.21463 19.8166 6.80875 18.9777 5.59993C18.1388 4.39111 17.0005 3.42074 15.6742 2.78377C14.3478 2.14679 12.8788 1.86503 11.4109 1.96604C9.94303 2.06705 8.52649 2.54737 7.29988 3.36002C6.24908 4.06267 5.36693 4.98932 4.71682 6.07341C4.06672 7.1575 3.66478 8.37213 3.53988 9.63002C3.41736 10.8797 3.57455 12.1409 4.00005 13.3223C4.42555 14.5037 5.10868 15.5755 5.99988 16.46L11.2999 21.77C11.3928 21.8638 11.5034 21.9381 11.6253 21.9889C11.7472 22.0397 11.8779 22.0658 12.0099 22.0658C12.1419 22.0658 12.2726 22.0397 12.3945 21.9889C12.5163 21.9381 12.6269 21.8638 12.7199 21.77L17.9999 16.46C18.8911 15.5755 19.5742 14.5037 19.9997 13.3223C20.4252 12.1409 20.5824 10.8797 20.4599 9.63002V9.68002ZM16.5999 15.05L11.9999 19.65L7.39988 15.05C6.72197 14.3721 6.20268 13.5524 5.87935 12.6498C5.55601 11.7472 5.43667 10.7842 5.52988 9.83002C5.6237 8.86112 5.93164 7.92518 6.43145 7.08986C6.93126 6.25455 7.61044 5.54073 8.41988 5.00002C9.48083 4.29526 10.7262 3.91932 11.9999 3.91932C13.2736 3.91932 14.5189 4.29526 15.5799 5.00002C16.3869 5.53864 17.0646 6.2493 17.5642 7.08096C18.0639 7.91262 18.3732 8.84462 18.4699 9.81002C18.5661 10.7674 18.4483 11.7343 18.1249 12.6406C17.8014 13.5468 17.2805 14.3699 16.5999 15.05ZM12.9199 7.57002C12.8999 7.50859 12.8695 7.45107 12.8299 7.40002L12.7099 7.25002C12.5905 7.13666 12.445 7.05453 12.2862 7.01092C12.1275 6.96731 11.9604 6.96357 11.7999 7.00002H11.6199L11.4399 7.09002L11.2899 7.22002L11.1699 7.37002C11.1303 7.42107 11.0999 7.47859 11.0799 7.54002C11.0494 7.59957 11.0292 7.66379 11.0199 7.73002C11.0033 7.81901 10.9966 7.90956 10.9999 8.00002C10.9964 8.13443 11.0238 8.26784 11.0799 8.39002C11.1308 8.50804 11.2019 8.61632 11.2899 8.71002C11.3851 8.80346 11.497 8.8781 11.6199 8.93002C11.8647 9.02302 12.1351 9.02302 12.3799 8.93002C12.5014 8.87566 12.613 8.8013 12.7099 8.71002C12.7979 8.61632 12.8689 8.50804 12.9199 8.39002C12.9724 8.2667 12.9996 8.13407 12.9999 8.00002C13.0048 7.93678 13.0048 7.87326 12.9999 7.81002C12.9906 7.72524 12.9633 7.64343 12.9199 7.57002Z" fill="black"/>
</svg>
