<svg width="24" height="24" viewBox="0 0 24 24" fill="none" xmlns="http://www.w3.org/2000/svg">
<path d="M10.2102 6.21002L11.0002 5.41002V10C11.0002 10.2652 11.1055 10.5196 11.2931 10.7071C11.4806 10.8947 11.735 11 12.0002 11C12.2654 11 12.5198 10.8947 12.7073 10.7071C12.8948 10.5196 13.0002 10.2652 13.0002 10V5.41002L13.7902 6.21002C13.8831 6.30375 13.9937 6.37814 14.1156 6.42891C14.2375 6.47968 14.3682 6.50582 14.5002 6.50582C14.6322 6.50582 14.7629 6.47968 14.8848 6.42891C15.0066 6.37814 15.1172 6.30375 15.2102 6.21002C15.3039 6.11706 15.3783 6.00645 15.4291 5.8846C15.4798 5.76274 15.506 5.63203 15.506 5.50002C15.506 5.36801 15.4798 5.2373 15.4291 5.11544C15.3783 4.99358 15.3039 4.88298 15.2102 4.79002L12.7102 2.29002C12.6151 2.19898 12.5029 2.12761 12.3802 2.08002C12.1367 1.98 11.8636 1.98 11.6202 2.08002C11.4974 2.12761 11.3853 2.19898 11.2902 2.29002L8.79018 4.79002C8.60188 4.97832 8.49609 5.23372 8.49609 5.50002C8.49609 5.76632 8.60188 6.02172 8.79018 6.21002C8.97849 6.39832 9.23388 6.50411 9.50019 6.50411C9.76649 6.50411 10.0219 6.39832 10.2102 6.21002ZM13.7902 17.79L13.0002 18.59V14C13.0002 13.7348 12.8948 13.4804 12.7073 13.2929C12.5198 13.1054 12.2654 13 12.0002 13C11.735 13 11.4806 13.1054 11.2931 13.2929C11.1055 13.4804 11.0002 13.7348 11.0002 14V18.59L10.2102 17.79C10.1169 17.6968 10.0063 17.6228 9.88443 17.5724C9.76261 17.5219 9.63204 17.4959 9.50019 17.4959C9.36833 17.4959 9.23776 17.5219 9.11594 17.5724C8.99411 17.6228 8.88342 17.6968 8.79018 17.79C8.69695 17.8833 8.62299 17.9939 8.57253 18.1158C8.52206 18.2376 8.49609 18.3682 8.49609 18.5C8.49609 18.6319 8.52206 18.7624 8.57253 18.8843C8.62299 19.0061 8.69695 19.1168 8.79018 19.21L11.2902 21.71C11.3853 21.8011 11.4974 21.8724 11.6202 21.92C11.7399 21.9729 11.8693 22.0003 12.0002 22.0003C12.1311 22.0003 12.2605 21.9729 12.3802 21.92C12.5029 21.8724 12.6151 21.8011 12.7102 21.71L15.2102 19.21C15.3985 19.0217 15.5043 18.7663 15.5043 18.5C15.5043 18.2337 15.3985 17.9783 15.2102 17.79C15.0219 17.6017 14.7665 17.4959 14.5002 17.4959C14.2339 17.4959 13.9785 17.6017 13.7902 17.79Z" fill="black"/>
</svg>
