<svg width="24" height="24" viewBox="0 0 24 24" fill="none" xmlns="http://www.w3.org/2000/svg">
<path d="M10.8402 5.38C11.2245 5.1062 11.6932 4.97711 12.1635 5.01554C12.6338 5.05397 13.0754 5.25745 13.4102 5.59C13.7858 5.96335 13.998 6.47043 14.0002 7V10C14.0002 10.2652 14.1055 10.5196 14.2931 10.7071C14.4806 10.8946 14.735 11 15.0002 11H16.0002C16.2654 11 16.5198 11.1054 16.7073 11.2929C16.8948 11.4804 17.0002 11.7348 17.0002 12V12.34C17.0002 12.6052 17.1055 12.8596 17.2931 13.0471C17.4806 13.2346 17.735 13.34 18.0002 13.34C18.2654 13.34 18.5198 13.2346 18.7073 13.0471C18.8948 12.8596 19.0002 12.6052 19.0002 12.34V12C19.0002 11.2044 18.6841 10.4413 18.1215 9.87868C17.5589 9.31607 16.7958 9 16.0002 9V7C16.0006 6.47456 15.8975 5.95418 15.6967 5.4686C15.496 4.98302 15.2015 4.54175 14.8302 4.17C14.1478 3.50732 13.2544 3.10527 12.3059 3.03399C11.3574 2.96271 10.4139 3.22674 9.64019 3.78C9.53513 3.8588 9.44662 3.95751 9.37971 4.07051C9.3128 4.18351 9.26881 4.30858 9.25024 4.43858C9.23166 4.56858 9.23888 4.70097 9.27147 4.82818C9.30406 4.9554 9.36139 5.07494 9.44019 5.18C9.51898 5.28506 9.61769 5.37357 9.73069 5.44048C9.84369 5.50738 9.96876 5.55138 10.0988 5.56995C10.2288 5.58852 10.3612 5.58131 10.4884 5.54872C10.6156 5.51612 10.7351 5.4588 10.8402 5.38ZM21.7102 20.29L3.71019 2.29C3.52188 2.1017 3.26649 1.99591 3.00019 1.99591C2.73388 1.99591 2.47849 2.1017 2.29019 2.29C2.10188 2.47831 1.99609 2.7337 1.99609 3C1.99609 3.2663 2.10188 3.5217 2.29019 3.71L7.62019 9C6.89208 9.09295 6.22332 9.44961 5.74049 10.0025C5.25766 10.5553 4.99428 11.266 5.00019 12V18C5.00019 18.7957 5.31626 19.5587 5.87887 20.1213C6.44147 20.6839 7.20454 21 8.00019 21H16.0002C16.4642 20.9985 16.9216 20.8893 17.3363 20.6811C17.751 20.4728 18.1118 20.1712 18.3902 19.8L20.2902 21.71C20.3831 21.8037 20.4937 21.8781 20.6156 21.9289C20.7375 21.9797 20.8682 22.0058 21.0002 22.0058C21.1322 22.0058 21.2629 21.9797 21.3848 21.9289C21.5066 21.8781 21.6172 21.8037 21.7102 21.71C21.8039 21.617 21.8783 21.5064 21.9291 21.3846C21.9798 21.2627 22.006 21.132 22.006 21C22.006 20.868 21.9798 20.7373 21.9291 20.6154C21.8783 20.4936 21.8039 20.383 21.7102 20.29ZM16.0002 19H8.00019C7.73497 19 7.48062 18.8946 7.29308 18.7071C7.10554 18.5196 7.00019 18.2652 7.00019 18V12C7.00019 11.7348 7.10554 11.4804 7.29308 11.2929C7.48062 11.1054 7.73497 11 8.00019 11H9.59019L11.6602 13.07C11.4685 13.1393 11.3026 13.2655 11.1846 13.4317C11.0667 13.5979 11.0023 13.7962 11.0002 14V16C11.0002 16.2652 11.1055 16.5196 11.2931 16.7071C11.4806 16.8946 11.735 17 12.0002 17C12.2654 17 12.5198 16.8946 12.7073 16.7071C12.8948 16.5196 13.0002 16.2652 13.0002 16V14.41L16.9302 18.34C16.8609 18.5317 16.7347 18.6976 16.5685 18.8156C16.4023 18.9335 16.204 18.9979 16.0002 19Z" fill="black"/>
</svg>
