<svg width="24" height="24" viewBox="0 0 24 24" fill="none" xmlns="http://www.w3.org/2000/svg">
<path d="M20.4439 9.05505C20.1554 7.43016 19.4004 5.92429 18.271 4.72105C17.7896 4.20204 17.2446 3.74594 16.6488 3.36357C15.5523 2.65275 14.3064 2.2047 13.0083 2.0543C12.8471 2.04556 12.6866 2.02743 12.5274 2H11.393C11.3807 2.02863 11.3544 2.01819 11.3335 2.02014C11.0414 2.0459 10.7507 2.07914 10.4624 2.13379C8.41364 2.49637 6.57056 3.60177 5.28594 5.2384C4.20156 6.58045 3.55907 8.22518 3.44664 9.9469C3.38279 10.7943 3.44506 11.6465 3.6314 12.4756C3.76913 13.0945 3.97863 13.6952 4.25566 14.2656C4.28014 14.3143 4.30425 14.363 4.32915 14.4116C4.77918 15.3084 5.38266 16.1196 6.11229 16.8083C7.67152 18.2831 9.72936 19.116 11.8754 19.1408C11.9756 19.1422 12.0029 19.1669 12.0022 19.2693C11.9977 20.1428 11.9996 21.0165 11.9999 21.8901C11.9999 21.9241 12.0025 21.9579 12.0045 22C12.0328 21.9885 12.0505 21.982 12.0675 21.9739C13.7045 21.216 15.2182 20.2162 16.5578 19.008C16.8248 18.7649 17.0811 18.5107 17.3267 18.2455C17.432 18.1322 17.5364 18.0168 17.642 17.9036C17.805 17.7293 17.946 17.5345 18.0997 17.351C18.2772 17.1393 18.4365 16.9143 18.5937 16.6877C18.9428 16.1892 19.25 15.6626 19.5122 15.1133C19.6442 14.8345 19.7698 14.5534 19.881 14.2657C19.8852 14.2608 19.8889 14.2554 19.8921 14.2496C20.1912 13.4642 20.3929 12.6451 20.4926 11.8106C20.5287 11.5194 20.5521 11.2263 20.5669 10.9334C20.5986 10.3046 20.5574 9.6743 20.4439 9.05505ZM11.254 11.8744C11.2548 12.2289 11.1803 12.5796 11.0355 12.9032C10.8907 13.2269 10.6789 13.5161 10.414 13.7517C10.3855 13.7781 10.358 13.8056 10.3302 13.8326C10.0536 14.0527 9.73631 14.2161 9.39644 14.3132C9.24908 14.3505 9.09962 14.3788 8.94887 14.3981C8.89788 14.4059 8.84582 14.3947 8.80253 14.3666C8.75924 14.3386 8.72773 14.2957 8.71395 14.246L8.71511 13.2778C8.72078 13.1828 8.68251 13.081 8.75863 12.9972C8.79479 12.9555 8.84308 12.926 8.89679 12.9129C9.06891 12.8814 9.23542 12.8247 9.39093 12.7444C9.52629 12.6663 9.64399 12.5609 9.7366 12.435C9.82921 12.309 9.89472 12.1653 9.92901 12.0128C9.94116 11.9627 9.95282 11.9122 9.96441 11.8619C9.28386 11.8606 8.6034 11.8595 7.92302 11.8585C7.86437 11.8604 7.80574 11.8543 7.74871 11.8405C7.66302 11.8177 7.58695 11.7679 7.53175 11.6985C7.47655 11.6291 7.44515 11.5438 7.44219 11.4552C7.44091 10.4263 7.44141 9.39727 7.44371 8.3682C7.42746 8.28976 7.43165 8.20846 7.45589 8.13211C7.48012 8.05576 7.52357 7.98692 7.58208 7.9322C7.65207 7.86786 7.7433 7.83153 7.83837 7.83015C8.83892 7.82997 9.83951 7.82979 10.8401 7.8296C10.9042 7.82985 10.9673 7.84488 11.0245 7.8735C11.0818 7.90213 11.1317 7.94358 11.1703 7.99463C11.209 8.04569 11.2353 8.10497 11.2473 8.16786C11.2593 8.23076 11.2566 8.29557 11.2394 8.35725C11.2551 8.40663 11.2608 8.45865 11.256 8.51025C11.2563 9.63147 11.2626 10.7532 11.254 11.8744ZM16.5571 11.8794C16.5521 12.3768 16.4023 12.8619 16.1258 13.2754C15.8493 13.6888 15.4583 14.0127 15.0005 14.2073C14.9772 14.2173 14.9549 14.2302 14.9321 14.2417L14.8939 14.2524L14.8723 14.2647C14.6791 14.3206 14.4824 14.3638 14.2835 14.394C14.251 14.4023 14.2169 14.403 14.1841 14.3959C14.1513 14.3888 14.1206 14.3741 14.0944 14.3531C14.0682 14.332 14.0474 14.3051 14.0334 14.2746C14.0195 14.244 14.0129 14.2106 14.0141 14.1771C14.0126 14.0697 14.0118 13.9621 14.0109 13.8546L14.0165 13.2773C14.0156 13.2348 14.0141 13.1926 14.0142 13.1503C14.0144 13.0025 14.0712 12.9401 14.255 12.8982C14.4891 12.8581 14.708 12.7555 14.8886 12.6013C15.0942 12.4043 15.2272 12.1437 15.2662 11.8616L13.3804 11.858C13.312 11.8579 13.2436 11.8589 13.1751 11.8577C13.1172 11.8597 13.0594 11.8496 13.0056 11.828C12.9518 11.8065 12.903 11.7741 12.8624 11.7327C12.8217 11.6914 12.7901 11.6421 12.7695 11.5879C12.7489 11.5337 12.7397 11.4758 12.7427 11.4179C12.743 10.4016 12.7438 9.38536 12.745 8.36915L12.7433 8.33979C12.7272 8.2527 12.7381 8.16277 12.7745 8.08204C12.811 8.00132 12.8712 7.93366 12.9472 7.88813C13.011 7.8487 13.0848 7.82852 13.1598 7.83C14.1537 7.82945 15.1477 7.82917 16.1417 7.82914C16.2057 7.82943 16.2688 7.84448 16.326 7.87312C16.3833 7.90176 16.4331 7.94322 16.4718 7.99427C16.5104 8.04533 16.5367 8.1046 16.5487 8.16749C16.5607 8.23037 16.558 8.29517 16.5408 8.35685C16.5564 8.40622 16.562 8.45818 16.5574 8.50974C16.5574 9.63295 16.5573 10.7562 16.5571 11.8794Z" fill="black"/>
</svg>
