<svg width="24" height="24" viewBox="0 0 24 24" fill="none" xmlns="http://www.w3.org/2000/svg">
<path d="M8.8999 16.9999C8.70212 16.9999 8.50878 17.0585 8.34433 17.1684C8.17988 17.2783 8.05171 17.4345 7.97602 17.6172C7.90034 17.7999 7.88053 18.001 7.91912 18.195C7.9577 18.389 8.05294 18.5671 8.1928 18.707C8.33265 18.8469 8.51083 18.9421 8.70481 18.9807C8.89879 19.0193 9.09986 18.9995 9.28259 18.9238C9.46531 18.8481 9.62149 18.7199 9.73137 18.5555C9.84125 18.391 9.8999 18.1977 9.8999 17.9999C9.8999 17.7347 9.79455 17.4803 9.60701 17.2928C9.41947 17.1052 9.16512 16.9999 8.8999 16.9999ZM5.8999 16.9999C5.70212 16.9999 5.50878 17.0585 5.34433 17.1684C5.17988 17.2783 5.05171 17.4345 4.97602 17.6172C4.90034 17.7999 4.88053 18.001 4.91912 18.195C4.9577 18.389 5.05294 18.5671 5.1928 18.707C5.33265 18.8469 5.51083 18.9421 5.70481 18.9807C5.89879 19.0193 6.09986 18.9995 6.28259 18.9238C6.46531 18.8481 6.62149 18.7199 6.73137 18.5555C6.84125 18.391 6.8999 18.1977 6.8999 17.9999C6.8999 17.7347 6.79455 17.4803 6.60701 17.2928C6.41947 17.1052 6.16512 16.9999 5.8999 16.9999ZM11.8999 16.9999C11.7021 16.9999 11.5088 17.0585 11.3443 17.1684C11.1799 17.2783 11.0517 17.4345 10.976 17.6172C10.9003 17.7999 10.8805 18.001 10.9191 18.195C10.9577 18.389 11.0529 18.5671 11.1928 18.707C11.3326 18.8469 11.5108 18.9421 11.7048 18.9807C11.8988 19.0193 12.0999 18.9995 12.2826 18.9238C12.4653 18.8481 12.6215 18.7199 12.7314 18.5555C12.8413 18.391 12.8999 18.1977 12.8999 17.9999C12.8999 17.7347 12.7945 17.4803 12.607 17.2928C12.4195 17.1052 12.1651 16.9999 11.8999 16.9999ZM14.9999 8.49989C15.0878 8.34835 15.214 8.22257 15.3658 8.13513C15.5176 8.04769 15.6897 8.00166 15.8649 8.00166C16.0401 8.00166 16.2122 8.04769 16.364 8.13513C16.5158 8.22257 16.642 8.34835 16.7299 8.49989C16.8618 8.72862 17.0789 8.8959 17.3336 8.96521C17.5884 9.03453 17.8603 9.00027 18.0899 8.86989C18.2079 8.80798 18.3123 8.72312 18.397 8.62031C18.4817 8.51749 18.545 8.39878 18.5832 8.27116C18.6214 8.14354 18.6337 8.00957 18.6194 7.87712C18.6051 7.74468 18.5645 7.61642 18.4999 7.49989C18.2369 7.04293 17.858 6.66337 17.4016 6.39944C16.9451 6.13552 16.4272 5.99656 15.8999 5.99656C15.3726 5.99656 14.8547 6.13552 14.3982 6.39944C13.9418 6.66337 13.5629 7.04293 13.2999 7.49989C13.2155 7.72077 13.212 7.96442 13.2902 8.18759C13.3684 8.41076 13.5231 8.599 13.727 8.71889C13.9308 8.83878 14.1705 8.88257 14.4035 8.84248C14.6366 8.80239 14.8479 8.68101 14.9999 8.49989ZM21.9999 5.49989C21.3852 4.43678 20.5017 3.55407 19.438 2.9404C18.3743 2.32672 17.1679 2.00366 15.9399 2.00366C14.7119 2.00366 13.5055 2.32672 12.4418 2.9404C11.3781 3.55407 10.4946 4.43678 9.8799 5.49989C9.81378 5.61403 9.7709 5.74011 9.75371 5.87089C9.73653 6.00167 9.74539 6.13456 9.77978 6.2619C9.81417 6.38924 9.87342 6.50851 9.9541 6.61286C10.0348 6.71721 10.1353 6.80456 10.2499 6.86989C10.3875 6.94824 10.5417 6.9928 10.6999 6.99989C10.8761 7.00059 11.0494 6.95472 11.2022 6.86691C11.3549 6.77911 11.4818 6.6525 11.5699 6.49989C12.0088 5.73986 12.6399 5.10872 13.4 4.66992C14.1601 4.23112 15.0223 4.00011 15.8999 4.00011C16.7775 4.00011 17.6397 4.23112 18.3998 4.66992C19.1599 5.10872 19.791 5.73986 20.2299 6.49989C20.2952 6.61448 20.3826 6.71501 20.4869 6.7957C20.5913 6.87638 20.7106 6.93562 20.8379 6.97001C20.9652 7.00441 21.0981 7.01326 21.2289 6.99608C21.3597 6.9789 21.4858 6.93601 21.5999 6.86989C21.717 6.80711 21.8204 6.72162 21.9041 6.61842C21.9878 6.51522 22.0501 6.39637 22.0873 6.26882C22.1246 6.14127 22.136 6.00758 22.121 5.87555C22.106 5.74353 22.0648 5.61582 21.9999 5.49989ZM17.8999 13.9999H16.8999V10.9999C16.8999 10.7347 16.7945 10.4803 16.607 10.2928C16.4195 10.1052 16.1651 9.99989 15.8999 9.99989C15.6347 9.99989 15.3803 10.1052 15.1928 10.2928C15.0053 10.4803 14.8999 10.7347 14.8999 10.9999V13.9999H4.8999C4.10425 13.9999 3.34119 14.316 2.77858 14.8786C2.21597 15.4412 1.8999 16.2042 1.8999 16.9999V18.9999C1.8999 19.7955 2.21597 20.5586 2.77858 21.1212C3.34119 21.6838 4.10425 21.9999 4.8999 21.9999H17.8999C18.6956 21.9999 19.4586 21.6838 20.0212 21.1212C20.5838 20.5586 20.8999 19.7955 20.8999 18.9999V16.9999C20.8999 16.2042 20.5838 15.4412 20.0212 14.8786C19.4586 14.316 18.6956 13.9999 17.8999 13.9999ZM18.8999 18.9999C18.8999 19.2651 18.7945 19.5195 18.607 19.707C18.4195 19.8945 18.1651 19.9999 17.8999 19.9999H4.8999C4.63469 19.9999 4.38033 19.8945 4.1928 19.707C4.00526 19.5195 3.8999 19.2651 3.8999 18.9999V16.9999C3.8999 16.7347 4.00526 16.4803 4.1928 16.2928C4.38033 16.1052 4.63469 15.9999 4.8999 15.9999H17.8999C18.1651 15.9999 18.4195 16.1052 18.607 16.2928C18.7945 16.4803 18.8999 16.7347 18.8999 16.9999V18.9999Z" fill="black"/>
</svg>
