<svg width="24" height="24" viewBox="0 0 24 24" fill="none" xmlns="http://www.w3.org/2000/svg">
<path d="M12.8778 5.92846C12.9216 5.92561 12.9654 5.9325 13.0063 5.94864C13.0471 5.96478 13.0838 5.98977 13.1138 6.0218C13.1438 6.05384 13.1664 6.09213 13.1798 6.13391C13.1932 6.1757 13.1972 6.21994 13.1915 6.26346C13.1935 6.35538 13.195 6.4473 13.1951 6.53921C13.1958 7.13162 13.1928 7.72409 13.1972 8.31644C13.2005 8.74997 13.2767 8.83344 13.6966 8.88553C14.7446 8.982 15.7998 8.96665 16.8446 8.83975C17.3858 8.80221 17.9172 8.67591 18.4174 8.46591C18.5407 8.42809 18.6449 8.34477 18.7089 8.23287C18.7729 8.12097 18.7919 7.9889 18.762 7.86349C18.5632 6.47904 17.9442 5.18899 16.9886 4.16764C16.0331 3.14629 14.787 2.44288 13.4188 2.15243C12.204 1.88866 10.9395 1.97289 9.7704 2.39543C8.74409 2.75285 7.8198 3.35391 7.07685 4.14705C5.93315 5.28463 5.27172 6.81912 5.22998 8.43169C5.25137 10.3721 5.77711 12.2736 6.75556 13.9495C6.87517 14.1943 7.06647 14.3969 7.30402 14.5304C7.54158 14.6639 7.81413 14.7219 8.08545 14.6967C8.73877 14.681 9.39277 14.6932 10.0465 14.6932V14.6897C10.7411 14.6897 11.4357 14.6899 12.1302 14.6902C12.3795 14.6907 12.5767 14.7503 12.5748 15.0624C12.5702 15.7877 12.5754 16.5129 12.5714 17.238C12.5701 17.4582 12.5082 17.67 12.2453 17.6721C11.9814 17.6742 11.9189 17.4632 11.9156 17.2426C11.9105 16.8954 11.9158 16.5481 11.9162 16.2009C11.9167 15.7498 11.8428 15.6441 11.393 15.5619C10.616 15.4353 9.82409 15.4286 9.04501 15.542C8.7695 15.5639 8.49925 15.6296 8.24447 15.7367C8.03262 15.8365 7.94839 15.9818 8.05129 16.204C8.15835 16.4353 8.2582 16.6713 8.38449 16.8919C9.41176 18.6203 10.5566 20.2761 11.811 21.8476C11.9649 22.047 12.0841 22.0512 12.2421 21.8581C12.5908 21.4317 12.957 21.0195 13.302 20.5902C14.6548 18.9517 15.8521 17.1908 16.8784 15.3303C17.5638 14.1201 18.0674 12.8157 18.3729 11.4588C18.4405 11.2851 18.4669 11.0981 18.4498 10.9124C18.4328 10.7268 18.3729 10.5476 18.2748 10.3891C18.1767 10.2306 18.0431 10.097 17.8846 9.99897C17.726 9.90091 17.5469 9.84103 17.3612 9.82405C16.813 9.70282 16.2521 9.64854 15.6908 9.6624C14.7818 9.65563 13.8726 9.65892 12.9636 9.65972C12.7188 9.65996 12.5367 9.58965 12.5365 9.30242C12.536 8.29125 12.5347 7.28002 12.5384 6.26891C12.5392 6.05305 12.6433 5.92046 12.8778 5.92846Z" fill="black"/>
</svg>
