<svg width="24" height="24" viewBox="0 0 24 24" fill="none" xmlns="http://www.w3.org/2000/svg">
<path d="M19.0001 14C18.8728 13.967 18.7401 13.9594 18.6098 13.9777C18.4794 13.996 18.354 14.0399 18.2407 14.1067C18.1273 14.1736 18.0283 14.2622 17.9493 14.3675C17.8702 14.4727 17.8128 14.5925 17.7801 14.72C17.3977 16.2286 16.5236 17.5667 15.2957 18.5229C14.0679 19.4791 12.5564 19.9988 11.0001 20H5.41014L6.05014 19.37C6.23639 19.1827 6.34093 18.9292 6.34093 18.665C6.34093 18.4008 6.23639 18.1474 6.05014 17.96C5.17423 17.0876 4.54498 15.9988 4.22639 14.8043C3.9078 13.6098 3.91124 12.3523 4.23634 11.1595C4.56145 9.96678 5.19663 8.88142 6.0773 8.01381C6.95796 7.1462 8.05268 6.52729 9.25014 6.22003C9.37752 6.1872 9.49719 6.1296 9.60231 6.05052C9.70743 5.97144 9.79595 5.87243 9.86281 5.75914C9.92967 5.64586 9.97356 5.52051 9.99197 5.39026C10.0104 5.26001 10.003 5.12741 9.97014 5.00003C9.90384 4.74277 9.73805 4.52238 9.50926 4.38736C9.39597 4.3205 9.27062 4.27661 9.14037 4.25819C9.01012 4.23978 8.87752 4.2472 8.75014 4.28003C7.29714 4.65887 5.96202 5.39524 4.8664 6.42206C3.77078 7.44887 2.94949 8.7335 2.47733 10.1589C2.00518 11.5843 1.89717 13.1052 2.16314 14.5831C2.42912 16.0609 3.06063 17.4487 4.00014 18.62L2.29014 20.29C2.15138 20.4307 2.05739 20.6092 2.02001 20.8032C1.98264 20.9972 2.00356 21.1979 2.08014 21.38C2.15516 21.5626 2.28256 21.719 2.44628 21.8293C2.61 21.9396 2.80271 21.999 3.00014 22H11.0001C12.9964 22.0013 14.9364 21.3389 16.515 20.1169C18.0936 18.895 19.2211 17.1829 19.7201 15.25C19.7578 15.1207 19.7689 14.985 19.7528 14.8513C19.7367 14.7175 19.6937 14.5884 19.6265 14.4716C19.5592 14.3549 19.4691 14.2529 19.3614 14.1719C19.2538 14.0908 19.1309 14.0324 19.0001 14ZM20.5401 3.46003C19.7233 2.64111 18.6478 2.13073 17.4968 2.01583C16.3459 1.90093 15.1907 2.18862 14.2281 2.82988C13.2655 3.47115 12.5549 4.42633 12.2176 5.5327C11.8802 6.63906 11.9368 7.82818 12.3778 8.89747C12.8188 9.96676 13.6169 10.8501 14.6362 11.397C15.6554 11.9438 16.8327 12.1204 17.9675 11.8966C19.1023 11.6729 20.1244 11.0626 20.8597 10.1697C21.5951 9.27686 21.9981 8.15669 22.0001 7.00003C22.0013 6.34298 21.873 5.69214 21.6225 5.08472C21.3719 4.4773 21.0042 3.92522 20.5401 3.46003ZM14.0001 7.00003C14.0001 6.20438 14.3162 5.44132 14.8788 4.87871C15.4414 4.3161 16.2045 4.00003 17.0001 4.00003C17.4471 4.00268 17.8879 4.10517 18.2901 4.30003L14.2901 8.30003C14.0973 7.8939 13.9982 7.44962 14.0001 7.00003ZM19.1201 9.12003C18.6749 9.54328 18.1132 9.82371 17.5074 9.92528C16.9015 10.0269 16.2791 9.94493 15.7201 9.69003L19.7201 5.69003C19.911 6.10001 20.0067 6.54784 20.0001 7.00003C19.9994 7.79541 19.6829 8.55796 19.1201 9.12003Z" fill="black"/>
</svg>
