<svg width="24" height="24" viewBox="0 0 24 24" fill="none" xmlns="http://www.w3.org/2000/svg">
<path d="M14.9998 12.5C14.8063 12.5012 14.6174 12.5586 14.4558 12.6651C14.2943 12.7716 14.1672 12.9227 14.0898 13.1C13.459 12.7108 12.7325 12.5045 11.9913 12.5041C11.2502 12.5038 10.5235 12.7093 9.89231 13.0979C9.26116 13.4864 8.75037 14.0427 8.41694 14.7047C8.08352 15.3666 7.94056 16.1082 8.00402 16.8466C8.06748 17.5851 8.33486 18.2914 8.77634 18.8867C9.21781 19.482 9.81602 19.943 10.5042 20.2182C11.1924 20.4934 11.9435 20.572 12.6738 20.4451C13.404 20.3183 14.0847 19.9911 14.6398 19.5C14.7449 19.4153 14.8318 19.3102 14.8952 19.1911C14.9587 19.0719 14.9973 18.9411 15.0088 18.8066C15.0204 18.6721 15.0045 18.5367 14.9623 18.4085C14.9201 18.2802 14.8524 18.1619 14.7632 18.0606C14.674 17.9592 14.5652 17.877 14.4434 17.8188C14.3216 17.7606 14.1893 17.7277 14.0544 17.7221C13.9195 17.7164 13.7849 17.7381 13.6587 17.7859C13.5324 17.8336 13.4171 17.9065 13.3198 18C12.9552 18.3215 12.4859 18.4993 11.9998 18.5C11.696 18.4951 11.3972 18.421 11.1263 18.2834C10.8554 18.1459 10.6194 17.9483 10.4362 17.7059C10.2531 17.4635 10.1276 17.1825 10.0692 16.8843C10.0109 16.5861 10.0212 16.2785 10.0995 15.9849C10.1778 15.6913 10.322 15.4194 10.521 15.1899C10.7201 14.9603 10.9689 14.7792 11.2485 14.6601C11.528 14.5411 11.831 14.4873 12.1345 14.5029C12.4379 14.5184 12.7339 14.603 12.9998 14.75H12.7798C12.5145 14.75 12.2602 14.8553 12.0727 15.0429C11.8851 15.2304 11.7798 15.4848 11.7798 15.75C11.7798 16.0152 11.8851 16.2696 12.0727 16.4571C12.2602 16.6446 12.5145 16.75 12.7798 16.75H14.9998C15.265 16.75 15.5193 16.6446 15.7069 16.4571C15.8944 16.2696 15.9998 16.0152 15.9998 15.75V13.5C15.9998 13.2348 15.8944 12.9804 15.7069 12.7929C15.5193 12.6053 15.265 12.5 14.9998 12.5ZM18.4198 7.71999C17.8088 6.31599 16.7543 5.15106 15.4178 4.40371C14.0814 3.65636 12.5368 3.36782 11.0207 3.5823C9.50464 3.79677 8.10069 4.50244 7.02402 5.59116C5.94735 6.67988 5.25735 8.0916 5.05977 9.60999C4.22198 9.81404 3.47257 10.2834 2.92321 10.948C2.37386 11.6126 2.05399 12.437 2.01126 13.2982C1.96854 14.1594 2.20526 15.0114 2.68613 15.7271C3.16701 16.4428 3.86629 16.984 4.67977 17.27C4.78348 17.3019 4.89125 17.3188 4.99977 17.32C5.26498 17.3624 5.53619 17.2978 5.75374 17.1402C5.97128 16.9827 6.11733 16.7452 6.15977 16.48C6.2022 16.2148 6.13754 15.9436 5.98001 15.726C5.82248 15.5085 5.58498 15.3624 5.31977 15.32C4.94268 15.1839 4.6152 14.9376 4.37982 14.613C4.14444 14.2885 4.01203 13.9007 3.99977 13.5C3.99977 12.9696 4.21048 12.4608 4.58555 12.0858C4.96063 11.7107 5.46933 11.5 5.99977 11.5C6.26498 11.5 6.51934 11.3946 6.70687 11.2071C6.89441 11.0196 6.99977 10.7652 6.99977 10.5C7.00232 9.31726 7.42405 8.17374 8.19004 7.27257C8.95602 6.3714 10.0167 5.77094 11.1835 5.57786C12.3504 5.38478 13.5479 5.61159 14.5633 6.21799C15.5788 6.8244 16.3464 7.77113 16.7298 8.88999C16.7869 9.06183 16.8897 9.21492 17.0271 9.33292C17.1644 9.45092 17.3313 9.5294 17.5098 9.55999C18.1111 9.66883 18.6649 9.95872 19.0969 10.3909C19.529 10.823 19.8188 11.3768 19.9276 11.9782C20.0363 12.5795 19.9588 13.1998 19.7054 13.7559C19.4521 14.312 19.0349 14.7774 18.5098 15.09C18.279 15.2226 18.1104 15.4414 18.041 15.6984C17.9716 15.9553 18.0072 16.2292 18.1398 16.46C18.2724 16.6907 18.4912 16.8593 18.7481 16.9287C19.0051 16.9981 19.279 16.9626 19.5098 16.83C20.268 16.3899 20.8972 15.7582 21.3342 14.9982C21.7712 14.2382 22.0008 13.3767 21.9998 12.5C21.9967 11.4241 21.6467 10.3779 21.0018 9.51679C20.3568 8.65566 19.4513 8.02553 18.4198 7.71999Z" fill="black"/>
</svg>
