<svg width="24" height="24" viewBox="0 0 24 24" fill="none" xmlns="http://www.w3.org/2000/svg">
<path d="M15.6902 9C15.5655 8.33119 15.212 7.72661 14.6902 7.29C14.1367 6.80672 13.425 6.5434 12.6902 6.55H4.80024C4.36588 6.54335 3.93525 6.63112 3.53814 6.80723C3.14103 6.98334 2.7869 7.2436 2.50024 7.57V7.63C2.22897 7.95595 2.02989 8.33571 1.91612 8.74423C1.80236 9.15275 1.77649 9.58075 1.84024 10L2.72024 15C2.8438 15.7025 3.21365 16.3381 3.76345 16.7926C4.31324 17.2471 5.00699 17.4908 5.72024 17.48H13.6602C14.0968 17.479 14.5279 17.3828 14.9234 17.198C15.319 17.0131 15.6694 16.7442 15.9502 16.41C16.22 16.076 16.4149 15.6881 16.5219 15.2723C16.6289 14.8566 16.6453 14.4227 16.5702 14L15.6902 9ZM12.2802 8.5L9.94024 11.14C9.76882 11.3328 9.52952 11.4519 9.27235 11.4724C9.01518 11.4929 8.76003 11.4132 8.56024 11.25L5.17024 8.5H12.2802ZM14.3802 15.14C14.2873 15.2516 14.1712 15.3416 14.0399 15.4038C13.9087 15.4659 13.7655 15.4988 13.6202 15.5H5.68024C5.44201 15.5035 5.21037 15.4218 5.02703 15.2696C4.8437 15.1174 4.72072 14.9048 4.68024 14.67L3.87024 10L7.30024 12.8C7.90086 13.2884 8.66704 13.5258 9.4386 13.4624C10.2102 13.3991 10.9274 13.0399 11.4402 12.46L13.8002 9.8L14.6002 14.33C14.6245 14.4729 14.6173 14.6193 14.5793 14.7592C14.5413 14.8991 14.4734 15.029 14.3802 15.14ZM21.2102 10.5H19.2102C18.945 10.5 18.6907 10.6054 18.5031 10.7929C18.3156 10.9804 18.2102 11.2348 18.2102 11.5C18.2102 11.7652 18.3156 12.0196 18.5031 12.2071C18.6907 12.3946 18.945 12.5 19.2102 12.5H21.2102C21.4755 12.5 21.7298 12.3946 21.9173 12.2071C22.1049 12.0196 22.2102 11.7652 22.2102 11.5C22.2102 11.2348 22.1049 10.9804 21.9173 10.7929C21.7298 10.6054 21.4755 10.5 21.2102 10.5ZM21.2102 8.5C21.4755 8.5 21.7298 8.39464 21.9173 8.20711C22.1049 8.01957 22.2102 7.76522 22.2102 7.5C22.2102 7.23478 22.1049 6.98043 21.9173 6.79289C21.7298 6.60536 21.4755 6.5 21.2102 6.5H18.2102C17.945 6.5 17.6907 6.60536 17.5031 6.79289C17.3156 6.98043 17.2102 7.23478 17.2102 7.5C17.2102 7.76522 17.3156 8.01957 17.5031 8.20711C17.6907 8.39464 17.945 8.5 18.2102 8.5H21.2102Z" fill="black"/>
</svg>
