<svg width="24" height="24" viewBox="0 0 24 24" fill="none" xmlns="http://www.w3.org/2000/svg">
<path d="M16 11.0801H8C7.20435 11.0801 6.44129 11.3962 5.87868 11.9588C5.31607 12.5214 5 13.2845 5 14.0801V19.0801C5 19.8758 5.31607 20.6388 5.87868 21.2014C6.44129 21.764 7.20435 22.0801 8 22.0801H16C16.7956 22.0801 17.5587 21.764 18.1213 21.2014C18.6839 20.6388 19 19.8758 19 19.0801V14.0801C19 13.2845 18.6839 12.5214 18.1213 11.9588C17.5587 11.3962 16.7956 11.0801 16 11.0801ZM15.58 13.0801L12.7 16.0001C12.5131 16.1833 12.2618 16.286 12 16.286C11.7382 16.286 11.4869 16.1833 11.3 16.0001L8.42 13.0801H15.58ZM17 19.0801C17 19.3453 16.8946 19.5997 16.7071 19.7872C16.5196 19.9747 16.2652 20.0801 16 20.0801H8C7.73478 20.0801 7.48043 19.9747 7.29289 19.7872C7.10536 19.5997 7 19.3453 7 19.0801V14.4901L9.88 17.3701C10.4425 17.9319 11.205 18.2475 12 18.2475C12.795 18.2475 13.5575 17.9319 14.12 17.3701L17 14.4901V19.0801ZM10.71 5.6201L11 5.3301V8.0801C11 8.34532 11.1054 8.59968 11.2929 8.78721C11.4804 8.97475 11.7348 9.0801 12 9.0801C12.2652 9.0801 12.5196 8.97475 12.7071 8.78721C12.8946 8.59968 13 8.34532 13 8.0801V5.3301L13.29 5.6201C13.3826 5.71334 13.4926 5.78743 13.6138 5.83815C13.7351 5.88886 13.8651 5.9152 13.9965 5.91566C14.1279 5.91613 14.2581 5.89071 14.3796 5.84085C14.5012 5.791 14.6118 5.71769 14.705 5.6251C14.7982 5.53252 14.8723 5.42248 14.923 5.30127C14.9738 5.18005 15.0001 5.05004 15.0006 4.91864C15.001 4.78725 14.9756 4.65705 14.9257 4.53548C14.8759 4.4139 14.8026 4.30334 14.71 4.2101L12.71 2.21011C12.617 2.11638 12.5064 2.04198 12.3846 1.99121C12.2627 1.94044 12.132 1.91431 12 1.91431C11.868 1.91431 11.7373 1.94044 11.6154 1.99121C11.4936 2.04198 11.383 2.11638 11.29 2.21011L9.29 4.2101C9.10375 4.39747 8.99921 4.65092 8.99921 4.9151C8.99921 5.17929 9.10375 5.43274 9.29 5.6201C9.38296 5.71383 9.49356 5.78823 9.61542 5.839C9.73728 5.88977 9.86799 5.9159 10 5.9159C10.132 5.9159 10.2627 5.88977 10.3846 5.839C10.5064 5.78823 10.617 5.71383 10.71 5.6201Z" fill="black"/>
</svg>
