<svg width="24" height="24" viewBox="0 0 24 24" fill="none" xmlns="http://www.w3.org/2000/svg">
<path d="M11.9998 15C11.6042 15 11.2175 15.1173 10.8886 15.3371C10.5597 15.5568 10.3034 15.8692 10.152 16.2346C10.0006 16.6001 9.96104 17.0022 10.0382 17.3902C10.1154 17.7781 10.3059 18.1345 10.5856 18.4142C10.8653 18.6939 11.2216 18.8844 11.6096 18.9616C11.9976 19.0387 12.3997 18.9991 12.7652 18.8478C13.1306 18.6964 13.443 18.44 13.6627 18.1111C13.8825 17.7822 13.9998 17.3956 13.9998 17C13.9998 16.4696 13.7891 15.9609 13.414 15.5858C13.0389 15.2107 12.5302 15 11.9998 15ZM16.4998 13V5.5C16.4998 4.30653 16.0257 3.16193 15.1818 2.31802C14.3378 1.47411 13.1933 1 11.9998 1C10.8063 1 9.66172 1.47411 8.8178 2.31802C7.97389 3.16193 7.49978 4.30653 7.49978 5.5V13C6.80863 13.7832 6.33391 14.7333 6.1226 15.7562C5.91128 16.7792 5.97069 17.8396 6.29494 18.8326C6.61919 19.8255 7.19705 20.7166 7.97136 21.4177C8.74567 22.1188 9.6896 22.6056 10.7098 22.83C11.1336 22.9266 11.5654 22.9835 11.9998 23C13.1604 23.0054 14.2977 22.6741 15.2738 22.0461C16.2499 21.4182 17.0229 20.5207 17.4992 19.4623C17.9755 18.4038 18.1346 17.23 17.9572 16.083C17.7798 14.936 17.2736 13.8651 16.4998 13ZM14.4998 20.07C13.7041 20.7755 12.6608 21.136 11.5994 21.0722C10.5379 21.0085 9.54526 20.5256 8.83978 19.73C8.13431 18.9344 7.7738 17.891 7.83756 16.8296C7.90132 15.7681 8.38413 14.7755 9.17978 14.07C9.27427 13.9774 9.34944 13.8669 9.40094 13.7451C9.45243 13.6232 9.47923 13.4923 9.47978 13.36V5.5C9.47978 4.83696 9.74318 4.20107 10.212 3.73223C10.6809 3.26339 11.3167 3 11.9798 3C12.6428 3 13.2787 3.26339 13.7476 3.73223C14.2164 4.20107 14.4798 4.83696 14.4798 5.5V13.44C14.4803 13.5723 14.5071 13.7032 14.5586 13.8251C14.6101 13.9469 14.6853 14.0574 14.7798 14.15C15.1885 14.5449 15.5084 15.0223 15.7182 15.5505C15.928 16.0787 16.0228 16.6456 15.9963 17.2133C15.9698 17.781 15.8226 18.3366 15.5646 18.843C15.3065 19.3493 14.9435 19.7949 14.4998 20.15V20.07Z" fill="black"/>
</svg>
