<svg width="24" height="24" viewBox="0 0 24 24" fill="none" xmlns="http://www.w3.org/2000/svg">
<path d="M18.9999 5.99999H14.9999C14.7347 5.99999 14.4803 6.10535 14.2928 6.29289C14.1052 6.48042 13.9999 6.73478 13.9999 6.99999C13.9999 7.26521 14.1052 7.51956 14.2928 7.7071C14.4803 7.89464 14.7347 7.99999 14.9999 7.99999H18.9999C19.2651 7.99999 19.5194 8.10535 19.707 8.29289C19.8945 8.48042 19.9999 8.73478 19.9999 8.99999V18.72L18.4299 17.27C18.2454 17.0973 18.0025 17.0009 17.7499 17H8.99987C8.73465 17 8.4803 16.8946 8.29276 16.7071C8.10522 16.5196 7.99987 16.2652 7.99987 16V15C7.99987 14.7348 7.89451 14.4804 7.70697 14.2929C7.51944 14.1054 7.26508 14 6.99987 14C6.73465 14 6.4803 14.1054 6.29276 14.2929C6.10522 14.4804 5.99987 14.7348 5.99987 15V16C5.99987 16.7956 6.31594 17.5587 6.87855 18.1213C7.44116 18.6839 8.20422 19 8.99987 19H17.3599L20.3599 21.73C20.5341 21.8936 20.7611 21.9894 20.9999 22C21.137 21.9985 21.2727 21.9714 21.3999 21.92C21.5787 21.8419 21.7309 21.7132 21.8375 21.5497C21.9441 21.3863 22.0005 21.1952 21.9999 21V8.99999C21.9999 8.20434 21.6838 7.44128 21.1212 6.87867C20.5586 6.31606 19.7955 5.99999 18.9999 5.99999ZM10.5399 10.54C11.3588 9.72314 11.8692 8.64763 11.9841 7.49669C12.099 6.34575 11.8113 5.19057 11.17 4.22794C10.5287 3.26532 9.57356 2.5548 8.4672 2.21742C7.36083 1.88005 6.17171 1.93669 5.10242 2.37769C4.03313 2.8187 3.14981 3.61679 2.60294 4.63601C2.05607 5.65523 1.87949 6.83253 2.10326 7.96734C2.32704 9.10215 2.93734 10.1243 3.83019 10.8596C4.72304 11.5949 5.8432 11.9979 6.99987 12C7.65692 12.0012 8.30775 11.8728 8.91517 11.6223C9.52259 11.3718 10.0747 11.004 10.5399 10.54ZM3.99987 6.99999C3.99987 6.20434 4.31594 5.44128 4.87855 4.87867C5.44116 4.31606 6.20422 3.99999 6.99987 3.99999C7.44347 4.00412 7.88063 4.10658 8.27987 4.29999L4.27987 8.29999C4.09046 7.89306 3.99477 7.44882 3.99987 6.99999ZM9.69987 5.70999C9.89472 6.11227 9.99722 6.55301 9.99987 6.99999C9.99765 7.50444 9.86826 8.00018 9.62367 8.44137C9.37908 8.88256 9.02719 9.25494 8.60054 9.52409C8.17389 9.79324 7.68626 9.95046 7.18274 9.9812C6.67923 10.0119 6.17609 9.91523 5.71987 9.69999L9.69987 5.70999Z" fill="black"/>
</svg>
