<svg width="24" height="24" viewBox="0 0 24 24" fill="none" xmlns="http://www.w3.org/2000/svg">
<path d="M11.2902 10.2099C11.3831 10.3037 11.4937 10.3781 11.6156 10.4288C11.7375 10.4796 11.8682 10.5057 12.0002 10.5057C12.1322 10.5057 12.2629 10.4796 12.3848 10.4288C12.5066 10.3781 12.6172 10.3037 12.7102 10.2099L15.7102 7.20994C15.8985 7.02164 16.0043 6.76624 16.0043 6.49994C16.0043 6.23364 15.8985 5.97825 15.7102 5.78994C15.5219 5.60164 15.2665 5.49585 15.0002 5.49585C14.7339 5.49585 14.4785 5.60164 14.2902 5.78994L12.0002 8.08994L9.71019 5.78994C9.52188 5.60164 9.26649 5.49585 9.00019 5.49585C8.73388 5.49585 8.47849 5.60164 8.29019 5.78994C8.10188 5.97825 7.99609 6.23364 7.99609 6.49994C7.99609 6.76624 8.10188 7.02164 8.29019 7.20994L11.2902 10.2099ZM12.7102 14.7899C12.6172 14.6962 12.5066 14.6218 12.3848 14.5711C12.2629 14.5203 12.1322 14.4941 12.0002 14.4941C11.8682 14.4941 11.7375 14.5203 11.6156 14.5711C11.4937 14.6218 11.3831 14.6962 11.2902 14.7899L8.29019 17.7899C8.10188 17.9782 7.99609 18.2336 7.99609 18.4999C7.99609 18.7662 8.10188 19.0216 8.29019 19.2099C8.47849 19.3982 8.73388 19.504 9.00019 19.504C9.26649 19.504 9.52188 19.3982 9.71019 19.2099L12.0002 16.9099L14.2902 19.2099C14.3831 19.3037 14.4937 19.3781 14.6156 19.4288C14.7375 19.4796 14.8682 19.5057 15.0002 19.5057C15.1322 19.5057 15.2629 19.4796 15.3848 19.4288C15.5066 19.3781 15.6172 19.3037 15.7102 19.2099C15.8039 19.117 15.8783 19.0064 15.9291 18.8845C15.9798 18.7627 16.006 18.632 16.006 18.4999C16.006 18.3679 15.9798 18.2372 15.9291 18.1154C15.8783 17.9935 15.8039 17.8829 15.7102 17.7899L12.7102 14.7899Z" fill="black"/>
</svg>
