<svg width="24" height="24" viewBox="0 0 24 24" fill="none" xmlns="http://www.w3.org/2000/svg">
<path d="M11.2901 12.29C11.1491 12.4299 11.0529 12.6086 11.0139 12.8033C10.9748 12.9981 10.9946 13.2 11.0708 13.3835C11.1469 13.5669 11.276 13.7235 11.4415 13.8333C11.607 13.9431 11.8015 14.0011 12.0001 14H12.1901C12.2564 13.9907 12.3206 13.9704 12.3801 13.94C12.4416 13.92 12.4991 13.8896 12.5501 13.85L12.7001 13.73C12.7939 13.637 12.8683 13.5264 12.919 13.4046C12.9698 13.2827 12.9959 13.152 12.9959 13.02C12.9959 12.888 12.9698 12.7573 12.919 12.6354C12.8683 12.5136 12.7939 12.403 12.7001 12.31C12.5154 12.1211 12.2635 12.0129 11.9993 12.0092C11.7351 12.0054 11.4801 12.1064 11.2901 12.29ZM12.0001 15C11.7349 15 11.4806 15.1053 11.293 15.2929C11.1055 15.4804 11.0001 15.7348 11.0001 16V19C11.0001 19.2652 11.1055 19.5196 11.293 19.7071C11.4806 19.8946 11.7349 20 12.0001 20C12.2654 20 12.5197 19.8946 12.7072 19.7071C12.8948 19.5196 13.0001 19.2652 13.0001 19V16C13.0001 15.7348 12.8948 15.4804 12.7072 15.2929C12.5197 15.1053 12.2654 15 12.0001 15ZM18.4201 8.21999C17.8091 6.81599 16.7546 5.65106 15.4182 4.90371C14.0818 4.15636 12.5372 3.86782 11.0211 4.0823C9.50501 4.29677 8.10106 5.00244 7.02439 6.09116C5.94772 7.17988 5.25772 8.5916 5.06013 10.11C4.10672 10.3383 3.27036 10.9088 2.70987 11.7132C2.14939 12.5175 1.90382 13.4997 2.0198 14.4732C2.13578 15.4467 2.60523 16.3437 3.339 16.9938C4.07277 17.644 5.01976 18.0021 6.00013 18H8.00013C8.26535 18 8.5197 17.8946 8.70724 17.7071C8.89478 17.5196 9.00013 17.2652 9.00013 17C9.00013 16.7348 8.89478 16.4804 8.70724 16.2929C8.5197 16.1053 8.26535 16 8.00013 16H6.00013C5.4697 16 4.96099 15.7893 4.58592 15.4142C4.21085 15.0391 4.00013 14.5304 4.00013 14C4.00013 13.4696 4.21085 12.9608 4.58592 12.5858C4.96099 12.2107 5.4697 12 6.00013 12C6.26535 12 6.5197 11.8946 6.70724 11.7071C6.89478 11.5196 7.00013 11.2652 7.00013 11C7.00269 9.81726 7.42442 8.67374 8.1904 7.77257C8.95639 6.8714 10.017 6.27094 11.1839 6.07786C12.3507 5.88478 13.5483 6.11159 14.5637 6.718C15.5791 7.3244 16.3467 8.27113 16.7301 9.38999C16.7873 9.56183 16.89 9.71492 17.0274 9.83292C17.1648 9.95092 17.3316 10.0294 17.5101 10.06C18.2043 10.1797 18.8342 10.5399 19.2895 11.0775C19.7447 11.615 19.9963 12.2956 20.0001 13C20.0001 13.7956 19.6841 14.5587 19.1215 15.1213C18.5588 15.6839 17.7958 16 17.0001 16H16.0001C15.7349 16 15.4806 16.1053 15.293 16.2929C15.1055 16.4804 15.0001 16.7348 15.0001 17C15.0001 17.2652 15.1055 17.5196 15.293 17.7071C15.4806 17.8946 15.7349 18 16.0001 18H17.0001C18.1938 17.989 19.344 17.5513 20.2431 16.7661C21.1421 15.9809 21.7306 14.8999 21.9021 13.7186C22.0736 12.5374 21.8169 11.3337 21.1783 10.3252C20.5397 9.31674 19.5613 8.57 18.4201 8.21999Z" fill="black"/>
</svg>
