<svg width="24" height="24" viewBox="0 0 24 24" fill="none" xmlns="http://www.w3.org/2000/svg">
<path d="M21.6098 11.8099L18.3598 9.27992L21.6198 6.71992C21.7487 6.61871 21.8509 6.48734 21.9171 6.33737C21.9834 6.1874 22.0118 6.02344 21.9998 5.85992C21.9838 5.69702 21.9304 5.54003 21.8437 5.40123C21.7569 5.26244 21.6392 5.14561 21.4998 5.05992L16.3598 2.12992C16.1792 2.02837 15.9717 1.98537 15.7657 2.00687C15.5597 2.02836 15.3654 2.11329 15.2098 2.24992L11.9998 5.04992L8.78976 2.24992C8.6341 2.11329 8.43986 2.02836 8.23386 2.00687C8.02786 1.98537 7.82027 2.02837 7.63976 2.12992L2.49976 5.05992C2.36031 5.14561 2.2426 5.26244 2.15585 5.40123C2.06911 5.54003 2.01568 5.69702 1.99976 5.85992C1.98774 6.02344 2.01612 6.1874 2.08238 6.33737C2.14865 6.48734 2.25077 6.61871 2.37976 6.71992L5.63976 9.27992L2.38976 11.7699C2.25894 11.8701 2.15489 12.001 2.08685 12.151C2.01882 12.301 1.9889 12.4655 1.99976 12.6299C2.01084 12.7941 2.06227 12.953 2.14949 13.0926C2.23671 13.2321 2.35703 13.348 2.49976 13.4299L5.90976 15.4299V17.8999C5.91047 18.0708 5.95497 18.2387 6.039 18.3875C6.12303 18.5363 6.24379 18.6611 6.38976 18.7499L11.4798 21.8799C11.6318 21.9677 11.8042 22.0139 11.9798 22.0139C12.1553 22.0139 12.3277 21.9677 12.4798 21.8799L17.5698 18.7499C17.7157 18.6611 17.8365 18.5363 17.9205 18.3875C18.0046 18.2387 18.049 18.0708 18.0498 17.8999V15.4199L21.4598 13.4699C21.6025 13.388 21.7228 13.2721 21.81 13.1326C21.8972 12.993 21.9487 12.8341 21.9598 12.6699C21.9753 12.509 21.9516 12.3466 21.8906 12.1968C21.8297 12.0471 21.7333 11.9143 21.6098 11.8099ZM15.9998 4.21992L19.2298 6.05992L16.6798 8.05992L13.6798 6.21992L15.9998 4.21992ZM14.9098 9.33992L11.9998 11.3399L9.08976 9.33992L11.9998 7.54992L14.9098 9.33992ZM4.78976 6.05992L7.99976 4.21992L10.3098 6.21992L7.30976 8.05992L4.78976 6.05992ZM4.78976 12.4499L7.28976 10.5299L10.2898 12.6099L8.06976 14.3399L4.78976 12.4499ZM16.0798 17.3099L11.9998 19.8299L7.90976 17.3099V16.5099C8.05585 16.5458 8.20816 16.5482 8.35533 16.5171C8.5025 16.4859 8.64074 16.4219 8.75976 16.3299L11.9998 13.8299L15.2398 16.3299C15.4143 16.4654 15.6288 16.5392 15.8498 16.5399C15.9295 16.5496 16.01 16.5496 16.0898 16.5399L16.0798 17.3099ZM15.9298 14.3099L13.6998 12.6099L16.6998 10.5299L19.2098 12.4699L15.9298 14.3099Z" fill="black"/>
</svg>
