<svg width="24" height="24" viewBox="0 0 24 24" fill="none" xmlns="http://www.w3.org/2000/svg">
<path d="M20.4601 9.63002C20.3304 8.27185 19.8758 6.96484 19.1345 5.81944C18.3932 4.67404 17.3871 3.72391 16.2012 3.04934C15.0153 2.37477 13.6844 1.99557 12.3211 1.9438C10.9577 1.89204 9.60191 2.16921 8.36826 2.75191C7.13461 3.33461 6.05935 4.20571 5.23335 5.2916C4.40734 6.37748 3.85487 7.64625 3.62261 8.99068C3.39035 10.3351 3.48513 11.7157 3.89894 13.0158C4.31275 14.3158 5.03343 15.4972 6.00008 16.46L11.3001 21.77C11.393 21.8637 11.5036 21.9381 11.6255 21.9889C11.7474 22.0397 11.8781 22.0658 12.0101 22.0658C12.1421 22.0658 12.2728 22.0397 12.3947 21.9889C12.5165 21.9381 12.6271 21.8637 12.7201 21.77L18.0001 16.46C18.8913 15.5755 19.5744 14.5036 19.9999 13.3223C20.4254 12.1409 20.5826 10.8797 20.4601 9.63002ZM16.6001 15.05L12.0001 19.65L7.40008 15.05C6.72217 14.3721 6.20288 13.5523 5.87954 12.6498C5.55621 11.7472 5.43686 10.7842 5.53008 9.83002C5.6239 8.86112 5.93184 7.92518 6.43165 7.08986C6.93145 6.25454 7.61063 5.54072 8.42008 5.00002C9.48102 4.29525 10.7264 3.91931 12.0001 3.91931C13.2738 3.91931 14.5191 4.29525 15.5801 5.00002C16.3871 5.53863 17.0647 6.2493 17.5644 7.08095C18.0641 7.91261 18.3734 8.84462 18.4701 9.81002C18.5663 10.7674 18.4485 11.7343 18.1251 12.6406C17.8016 13.5468 17.2807 14.3698 16.6001 15.05ZM13.7901 6.25002C13.6971 6.15629 13.5865 6.08189 13.4647 6.03112C13.3428 5.98036 13.2121 5.95422 13.0801 5.95422C12.9481 5.95422 12.8174 5.98036 12.6955 6.03112C12.5736 6.08189 12.463 6.15629 12.3701 6.25002L8.79008 9.83002C8.60533 10.0163 8.50118 10.2677 8.50008 10.53V13C8.50008 13.2652 8.60543 13.5196 8.79297 13.7071C8.98051 13.8947 9.23486 14 9.50008 14H11.9201C12.0517 14.0008 12.1821 13.9756 12.304 13.9258C12.4258 13.876 12.5366 13.8027 12.6301 13.71L16.2101 10.13C16.3963 9.94265 16.5009 9.6892 16.5009 9.42502C16.5009 9.16083 16.3963 8.90738 16.2101 8.72002L13.7901 6.25002ZM11.5101 12H10.5101V11L13.0901 8.42002L14.0901 9.42002L11.5101 12Z" fill="black"/>
</svg>
