<svg width="24" height="24" viewBox="0 0 24 24" fill="none" xmlns="http://www.w3.org/2000/svg">
<path d="M21.7101 4.72006L19.2801 2.29006C19.0928 2.10381 18.8393 1.99927 18.5751 1.99927C18.311 1.99927 18.0575 2.10381 17.8701 2.29006L12.2901 7.87006C12.1975 7.9635 12.1241 8.07432 12.0744 8.19615C12.0246 8.31799 11.9994 8.44845 12.0001 8.58006V11.0001C12.0001 11.2653 12.1055 11.5196 12.293 11.7072C12.4806 11.8947 12.7349 12.0001 13.0001 12.0001H15.4201C15.5517 12.0008 15.6822 11.9756 15.804 11.9258C15.9259 11.8761 16.0367 11.8027 16.1301 11.7101L21.7101 6.13006C21.8964 5.9427 22.0009 5.68925 22.0009 5.42506C22.0009 5.16087 21.8964 4.90742 21.7101 4.72006ZM15.0001 10.0001H14.0001V9.00006L18.5801 4.42006L19.5801 5.42006L15.0001 10.0001ZM19.0001 12.0001C18.7349 12.0001 18.4806 12.1054 18.293 12.293C18.1055 12.4805 18.0001 12.7348 18.0001 13.0001C18.0001 14.8566 17.2626 16.6371 15.9499 17.9498C14.6371 19.2626 12.8567 20.0001 11.0001 20.0001H5.41014L6.05014 19.3701C6.14387 19.2771 6.21826 19.1665 6.26903 19.0446C6.3198 18.9228 6.34594 18.7921 6.34594 18.6601C6.34594 18.528 6.3198 18.3973 6.26903 18.2755C6.21826 18.1536 6.14387 18.043 6.05014 17.9501C5.07107 16.9711 4.4043 15.7238 4.13417 14.3658C3.86403 13.0079 4.00265 11.6004 4.53251 10.3212C5.06236 9.04206 5.95965 7.94878 7.11088 7.17961C8.26212 6.41045 9.6156 5.99996 11.0001 6.00006C11.2654 6.00006 11.5197 5.8947 11.7072 5.70717C11.8948 5.51963 12.0001 5.26528 12.0001 5.00006C12.0001 4.73484 11.8948 4.48049 11.7072 4.29295C11.5197 4.10542 11.2654 4.00006 11.0001 4.00006C9.3076 4.00562 7.65094 4.48834 6.22033 5.3928C4.78971 6.29726 3.64313 7.58679 2.91221 9.11338C2.18129 10.64 1.89565 12.3417 2.08808 14.0233C2.28052 15.7048 2.94323 17.2981 4.00014 18.6201L2.29014 20.2901C2.15138 20.4307 2.05739 20.6093 2.02001 20.8032C1.98264 20.9972 2.00356 21.1979 2.08014 21.3801C2.15516 21.5627 2.28256 21.719 2.44628 21.8293C2.61 21.9397 2.80271 21.9991 3.00014 22.0001H11.0001C12.182 22.0001 13.3524 21.7673 14.4443 21.315C15.5362 20.8627 16.5284 20.1997 17.3641 19.364C18.1998 18.5283 18.8628 17.5361 19.3151 16.4442C19.7673 15.3523 20.0001 14.182 20.0001 13.0001C20.0001 12.7348 19.8948 12.4805 19.7072 12.293C19.5197 12.1054 19.2654 12.0001 19.0001 12.0001Z" fill="black"/>
</svg>
