<svg width="24" height="24" viewBox="0 0 24 24" fill="none" xmlns="http://www.w3.org/2000/svg">
<path d="M6.56993 11.9999C6.77834 11.9986 6.98112 11.9322 7.14993 11.8099L8.76993 10.6499C9.35239 10.2341 9.82879 9.68702 10.1606 9.05292C10.4924 8.41883 10.6703 7.71554 10.6799 6.99994V3.62994C10.679 3.48224 10.6453 3.33658 10.5813 3.20344C10.5173 3.07031 10.4246 2.953 10.3099 2.85994C10.1938 2.76596 10.058 2.69922 9.91263 2.66461C9.76727 2.62999 9.61599 2.6284 9.46993 2.65994C9.06935 2.74303 8.65601 2.74331 8.25532 2.66077C7.85463 2.57822 7.47505 2.41459 7.13993 2.17994C6.97254 2.06381 6.77366 2.00159 6.56993 2.00159C6.3662 2.00159 6.16733 2.06381 5.99993 2.17994C5.66481 2.41459 5.28523 2.57822 4.88454 2.66077C4.48385 2.74331 4.07051 2.74303 3.66993 2.65994C3.52296 2.62991 3.37111 2.63333 3.22563 2.66994C3.08016 2.70656 2.94478 2.77544 2.82954 2.87147C2.7143 2.96751 2.62214 3.08824 2.55989 3.22473C2.49764 3.36122 2.46689 3.50996 2.46993 3.65994V6.99994C2.46972 7.7233 2.64197 8.43628 2.9724 9.07976C3.30283 9.72323 3.78192 10.2786 4.36993 10.6999L5.99993 11.8099C6.16403 11.9339 6.36426 12.0007 6.56993 11.9999ZM4.45993 6.99994V4.71994C5.19441 4.68901 5.91381 4.50149 6.56993 4.16994C7.22561 4.50265 7.94527 4.69024 8.67993 4.71994V6.99994C8.66648 7.39295 8.56302 7.77764 8.37751 8.12437C8.19201 8.47111 7.92941 8.77065 7.60993 8.99994L6.60993 9.73994L5.52993 8.99994C5.21045 8.77065 4.94785 8.47111 4.76235 8.12437C4.57685 7.77764 4.47338 7.39295 4.45993 6.99994ZM18.5399 5.99994H13.5399C13.2747 5.99994 13.0204 6.1053 12.8328 6.29284C12.6453 6.48037 12.5399 6.73473 12.5399 6.99994C12.5399 7.26516 12.6453 7.51951 12.8328 7.70705C13.0204 7.89459 13.2747 7.99994 13.5399 7.99994H18.5399C18.8051 7.99994 19.0595 8.1053 19.247 8.29284C19.4346 8.48037 19.5399 8.73473 19.5399 8.99994V18.7199L17.9999 17.2699C17.9104 17.1818 17.8041 17.1124 17.6873 17.0661C17.5705 17.0197 17.4456 16.9972 17.3199 16.9999H8.53993C8.27471 16.9999 8.02036 16.8946 7.83282 16.7071C7.64529 16.5195 7.53993 16.2652 7.53993 15.9999V14.9999C7.53993 14.7347 7.43457 14.4804 7.24704 14.2928C7.0595 14.1053 6.80515 13.9999 6.53993 13.9999C6.27471 13.9999 6.02036 14.1053 5.83282 14.2928C5.64529 14.4804 5.53993 14.7347 5.53993 14.9999V15.9999C5.53993 16.7956 5.856 17.5587 6.41861 18.1213C6.98122 18.6839 7.74428 18.9999 8.53993 18.9999H16.8999L19.8999 21.7299C20.0818 21.9003 20.3208 21.9966 20.5699 21.9999C20.7103 21.9985 20.8493 21.9714 20.9799 21.9199C21.1569 21.8404 21.307 21.711 21.4117 21.5477C21.5165 21.3843 21.5715 21.194 21.5699 20.9999V8.99994C21.57 8.60344 21.4914 8.21087 21.3387 7.84492C21.1861 7.47897 20.9624 7.14692 20.6807 6.86794C20.3989 6.58897 20.0646 6.36862 19.6972 6.21964C19.3298 6.07065 18.9364 5.99598 18.5399 5.99994Z" fill="black"/>
</svg>
