<svg width="24" height="24" viewBox="0 0 24 24" fill="none" xmlns="http://www.w3.org/2000/svg">
<path d="M21.8399 5.5601C21.7071 4.70852 21.308 3.92087 20.6999 3.3101C20.0891 2.70199 19.3015 2.30292 18.4499 2.1701C16.6878 1.90402 14.8906 1.98555 13.1599 2.4101C13.0915 2.4241 13.0246 2.44418 12.9599 2.4701C10.4272 3.10844 8.11517 4.42172 6.26987 6.2701C4.41397 8.1287 3.09421 10.4538 2.44987 13.0001C2.44987 13.0601 2.44987 13.1201 2.39987 13.1901C1.97529 14.9243 1.89376 16.7247 2.15987 18.4901C2.30262 19.3239 2.70099 20.0927 3.29987 20.6901C3.91063 21.2982 4.69829 21.6973 5.54987 21.8301C6.23759 21.9419 6.93312 21.9988 7.62987 22.0001C8.72899 21.9938 9.82341 21.8561 10.8899 21.5901H11.0299C13.5657 20.9481 15.8815 19.6339 17.7329 17.7859C19.5844 15.938 20.903 13.6248 21.5499 11.0901C21.5499 11.0301 21.5499 10.9701 21.5999 10.9001C22.0297 9.15313 22.1113 7.3386 21.8399 5.5601ZM16.3699 4.0001C16.9594 3.99699 17.5482 4.04383 18.1299 4.1401C18.2115 4.15744 18.2917 4.18084 18.3699 4.2101L16.9999 5.5901L15.4599 4.0501C15.7599 4.0001 16.0699 4.0001 16.3699 4.0001ZM7.66987 7.6701C9.1754 6.17272 11.0318 5.07605 13.0699 4.4801L15.5899 7.0001L13.4399 9.1501L12.7099 8.4201C12.6169 8.32638 12.5063 8.25198 12.3844 8.20121C12.2626 8.15044 12.1319 8.12431 11.9999 8.12431C11.8679 8.12431 11.7372 8.15044 11.6153 8.20121C11.4934 8.25198 11.3828 8.32638 11.2899 8.4201C11.1036 8.60747 10.9991 8.86092 10.9991 9.1251C10.9991 9.38929 11.1036 9.64274 11.2899 9.8301L12.0199 10.5601L10.5599 12.0001L9.82987 11.2701C9.64251 11.0839 9.38906 10.9793 9.12487 10.9793C8.86068 10.9793 8.60723 11.0839 8.41987 11.2701C8.32614 11.3631 8.25175 11.4737 8.20098 11.5955C8.15021 11.7174 8.12407 11.8481 8.12407 11.9801C8.12407 12.1121 8.15021 12.2428 8.20098 12.3647C8.25175 12.4865 8.32614 12.5971 8.41987 12.6901L9.14987 13.4201L6.99987 15.5901L4.48987 13.0801C5.07944 11.0386 6.17298 9.17825 7.66987 7.6701ZM4.20987 18.3701C4.18061 18.292 4.15721 18.2117 4.13987 18.1301C3.98845 17.2487 3.94146 16.3525 3.99987 15.4601L5.58987 17.0001L4.20987 18.3701ZM5.86987 19.8601C5.78824 19.8428 5.70802 19.8194 5.62987 19.7901L6.99987 18.4101L8.53987 20.0001C7.64746 20.0585 6.75128 20.0115 5.86987 19.8601ZM16.3299 16.3301C14.8217 17.827 12.9613 18.9205 10.9199 19.5101L8.40987 17.0001L10.5599 14.8501L11.2899 15.5801C11.3825 15.6733 11.4925 15.7474 11.6137 15.7981C11.7349 15.8489 11.8649 15.8752 11.9963 15.8757C12.1277 15.8761 12.2579 15.8507 12.3795 15.8008C12.5011 15.751 12.6116 15.6777 12.7049 15.5851C12.7981 15.4925 12.8722 15.3825 12.9229 15.2613C12.9736 15.1401 13 15.01 13.0004 14.8786C13.0009 14.7472 12.9755 14.617 12.9256 14.4955C12.8758 14.3739 12.8025 14.2633 12.7099 14.1701L11.9999 13.4401L13.4399 12.0001L14.1699 12.7301C14.2633 12.8228 14.3741 12.8961 14.496 12.9459C14.6178 12.9956 14.7483 13.0209 14.8799 13.0201C15.0776 13.0193 15.2707 12.9598 15.4347 12.8493C15.5987 12.7387 15.7262 12.582 15.8011 12.399C15.8761 12.2159 15.895 12.0148 15.8556 11.821C15.8163 11.6272 15.7203 11.4494 15.5799 11.3101L14.8499 10.5801L16.9999 8.4101L19.5099 10.9201C18.9203 12.9616 17.8268 14.822 16.3299 16.3301ZM19.9999 8.5401L18.4099 7.0001L19.7899 5.6301C19.8191 5.70825 19.8425 5.78848 19.8599 5.8701C20.0113 6.75151 20.0583 7.64769 19.9999 8.5401Z" fill="black"/>
</svg>
