<svg width="24" height="24" viewBox="0 0 24 24" fill="none" xmlns="http://www.w3.org/2000/svg">
<path d="M18.4198 7.72002C17.8088 6.31602 16.7543 5.15109 15.4178 4.40374C14.0814 3.65639 12.5368 3.36785 11.0207 3.58233C9.50464 3.7968 8.10069 4.50247 7.02402 5.59119C5.94735 6.67991 5.25735 8.09163 5.05977 9.61002C4.22198 9.81407 3.47257 10.2834 2.92321 10.948C2.37386 11.6126 2.05399 12.437 2.01126 13.2982C1.96854 14.1594 2.20526 15.0114 2.68613 15.7271C3.16701 16.4429 3.86629 16.984 4.67977 17.27C4.78348 17.302 4.89125 17.3188 4.99977 17.32C5.26498 17.3625 5.53619 17.2978 5.75374 17.1403C5.97128 16.9827 6.11733 16.7452 6.15977 16.48C6.2022 16.2148 6.13754 15.9436 5.98001 15.726C5.82248 15.5085 5.58498 15.3625 5.31977 15.32C4.94268 15.1839 4.6152 14.9376 4.37982 14.6131C4.14444 14.2885 4.01203 13.9007 3.99977 13.5C3.99977 12.9696 4.21048 12.4609 4.58555 12.0858C4.96063 11.7107 5.46933 11.5 5.99977 11.5C6.26498 11.5 6.51934 11.3947 6.70687 11.2071C6.89441 11.0196 6.99977 10.7652 6.99977 10.5C7.00232 9.31729 7.42405 8.17377 8.19004 7.2726C8.95602 6.37143 10.0167 5.77097 11.1835 5.57789C12.3504 5.38481 13.5479 5.61162 14.5633 6.21803C15.5788 6.82443 16.3464 7.77116 16.7298 8.89002C16.7869 9.06186 16.8897 9.21495 17.0271 9.33295C17.1644 9.45095 17.3313 9.52943 17.5098 9.56002C18.1111 9.66886 18.6649 9.95875 19.0969 10.3909C19.529 10.8231 19.8188 11.3769 19.9276 11.9782C20.0363 12.5796 19.9588 13.1998 19.7054 13.7559C19.4521 14.312 19.0349 14.7775 18.5098 15.09C18.279 15.2226 18.1104 15.4415 18.041 15.6984C17.9716 15.9553 18.0072 16.2293 18.1398 16.46C18.2724 16.6908 18.4912 16.8594 18.7481 16.9288C19.0051 16.9981 19.279 16.9626 19.5098 16.83C20.268 16.3899 20.8972 15.7582 21.3342 14.9982C21.7712 14.2382 22.0008 13.3767 21.9998 12.5C21.9967 11.4241 21.6467 10.378 21.0018 9.51682C20.3568 8.65569 19.4513 8.02556 18.4198 7.72002ZM11.9998 12.83C11.4458 12.543 10.8148 12.4396 10.1982 12.5349C9.58159 12.6302 9.01127 12.9191 8.56977 13.36C8.02445 13.9089 7.71839 14.6513 7.71839 15.425C7.71839 16.1988 8.02445 16.9411 8.56977 17.49L11.2898 20.21C11.3827 20.3037 11.4933 20.3781 11.6152 20.4289C11.737 20.4797 11.8678 20.5058 11.9998 20.5058C12.1318 20.5058 12.2625 20.4797 12.3843 20.4289C12.5062 20.3781 12.6168 20.3037 12.7098 20.21L15.4298 17.49C15.9751 16.9411 16.2811 16.1988 16.2811 15.425C16.2811 14.6513 15.9751 13.9089 15.4298 13.36C14.9883 12.9191 14.4179 12.6302 13.8013 12.5349C13.1847 12.4396 12.5538 12.543 11.9998 12.83ZM13.9998 16.07L11.9998 18.07L9.99977 16.07C9.91246 15.9861 9.84341 15.885 9.79695 15.7732C9.75049 15.6613 9.72762 15.5411 9.72977 15.42C9.72821 15.299 9.75136 15.179 9.79778 15.0672C9.84421 14.9554 9.91293 14.8543 9.99977 14.77C10.1723 14.5978 10.406 14.5011 10.6498 14.5011C10.8935 14.5011 11.1273 14.5978 11.2998 14.77C11.3927 14.8637 11.5033 14.9381 11.6252 14.9889C11.747 15.0397 11.8778 15.0658 12.0098 15.0658C12.1418 15.0658 12.2725 15.0397 12.3943 14.9889C12.5162 14.9381 12.6268 14.8637 12.7198 14.77C12.8947 14.6025 13.1276 14.5091 13.3698 14.5091C13.612 14.5091 13.8448 14.6025 14.0198 14.77C14.1066 14.8543 14.1753 14.9554 14.2218 15.0672C14.2682 15.179 14.2913 15.299 14.2898 15.42C14.2894 15.5426 14.2634 15.6637 14.2134 15.7756C14.1635 15.8876 14.0907 15.9878 13.9998 16.07Z" fill="black"/>
</svg>
