<svg width="24" height="24" viewBox="0 0 24 24" fill="none" xmlns="http://www.w3.org/2000/svg">
<path d="M10.6298 5.49003C11.6228 5.25793 12.6586 5.28276 13.6394 5.56218C14.6201 5.8416 15.5135 6.36638 16.2351 7.08698C16.9567 7.80757 17.4827 8.7002 17.7635 9.68057C18.0443 10.6609 18.0705 11.6967 17.8398 12.69C17.8086 12.8181 17.8029 12.9511 17.8232 13.0813C17.8435 13.2115 17.8894 13.3365 17.9582 13.4489C18.027 13.5614 18.1173 13.6591 18.224 13.7365C18.3306 13.814 18.4516 13.8695 18.5798 13.9C18.6562 13.9099 18.7335 13.9099 18.8098 13.9C19.0383 13.9067 19.2621 13.8349 19.444 13.6966C19.626 13.5583 19.7551 13.3619 19.8098 13.14C20.1213 11.8145 20.0894 10.4315 19.717 9.12179C19.3446 7.8121 18.6441 6.61913 17.6818 5.65583C16.7195 4.69253 15.5273 3.99079 14.218 3.61703C12.9087 3.24328 11.5256 3.20989 10.1998 3.52003C9.9346 3.58103 9.70448 3.74489 9.56007 3.97556C9.41567 4.20623 9.36882 4.48481 9.42982 4.75003C9.49082 5.01525 9.65467 5.24537 9.88534 5.38977C10.116 5.53417 10.3946 5.58103 10.6598 5.52003L10.6298 5.49003ZM21.7098 20.07L17.4398 15.8L3.70982 2.07003C3.61685 1.9763 3.50625 1.90191 3.38439 1.85114C3.26253 1.80037 3.13183 1.77423 2.99982 1.77423C2.8678 1.77423 2.7371 1.80037 2.61524 1.85114C2.49338 1.90191 2.38278 1.9763 2.28982 2.07003C2.10357 2.25739 1.99902 2.51084 1.99902 2.77503C1.99902 3.03922 2.10357 3.29267 2.28982 3.48003L5.49982 6.69003C4.39658 8.22981 3.8755 10.1111 4.02932 11.9991C4.18314 13.887 5.00188 15.6591 6.33982 17L11.2898 21.95C11.3828 22.0438 11.4934 22.1182 11.6152 22.1689C11.7371 22.2197 11.8678 22.2458 11.9998 22.2458C12.1318 22.2458 12.2625 22.2197 12.3844 22.1689C12.5063 22.1182 12.6169 22.0438 12.7098 21.95L16.7098 17.95L20.2698 21.51C20.4568 21.6983 20.7109 21.8046 20.9763 21.8056C21.2416 21.8065 21.4965 21.702 21.6848 21.515C21.8731 21.3281 21.9794 21.0739 21.9804 20.8086C21.9813 20.5432 21.8768 20.2883 21.6898 20.1L21.7098 20.07ZM12.1198 13.31C11.839 13.328 11.5576 13.2865 11.294 13.1883C11.0304 13.09 10.7904 12.9373 10.5898 12.74C10.3889 12.5412 10.2325 12.302 10.1308 12.0383C10.0291 11.7746 9.98446 11.4923 9.99982 11.21L12.1198 13.31ZM11.9998 19.81L7.75982 15.57C6.8002 14.6064 6.19641 13.3453 6.04743 11.9936C5.89844 10.6418 6.2131 9.27953 6.93982 8.13003L8.40982 9.60003C8.05122 10.3441 7.93176 11.1809 8.06784 11.9956C8.20392 12.8103 8.58887 13.5629 9.16982 14.15C9.54074 14.5232 9.98165 14.8195 10.4673 15.022C10.9529 15.2244 11.4737 15.3291 11.9998 15.33C12.6002 15.3273 13.192 15.1871 13.7298 14.92L15.3098 16.5L11.9998 19.81Z" fill="black"/>
</svg>
