<svg width="24" height="24" viewBox="0 0 24 24" fill="none" xmlns="http://www.w3.org/2000/svg">
<path d="M14.2902 14.19L11.0002 17.48L9.71019 16.19C9.61722 16.0963 9.50662 16.0219 9.38476 15.9711C9.2629 15.9203 9.1322 15.8942 9.00019 15.8942C8.86817 15.8942 8.73747 15.9203 8.61561 15.9711C8.49375 16.0219 8.38315 16.0963 8.29019 16.19C8.10393 16.3774 7.99939 16.6308 7.99939 16.895C7.99939 17.1592 8.10393 17.4126 8.29019 17.6L10.2902 19.6C10.3831 19.6937 10.4937 19.7681 10.6156 19.8189C10.7375 19.8696 10.8682 19.8958 11.0002 19.8958C11.1322 19.8958 11.2629 19.8696 11.3848 19.8189C11.5066 19.7681 11.6172 19.6937 11.7102 19.6L15.7102 15.6C15.8964 15.4126 16.001 15.1592 16.001 14.895C16.001 14.6308 15.8964 14.3773 15.7102 14.19C15.6172 14.0963 15.5066 14.0219 15.3848 13.9711C15.2629 13.9203 15.1322 13.8942 15.0002 13.8942C14.8682 13.8942 14.7375 13.9203 14.6156 13.9711C14.4937 14.0219 14.3831 14.0963 14.2902 14.19ZM18.4202 8.31999C17.8085 6.9158 16.7531 5.75099 15.4159 5.00415C14.0787 4.2573 12.5334 3.96966 11.0171 4.18531C9.50069 4.40097 8.09689 5.10801 7.0209 6.19805C5.94492 7.28808 5.25615 8.70094 5.06019 10.22C4.22618 10.4269 3.48098 10.8969 2.93493 11.5604C2.38887 12.2239 2.071 13.0456 2.02837 13.9038C1.98573 14.7621 2.22061 15.6112 2.69823 16.3255C3.17584 17.0399 3.87079 17.5814 4.68019 17.87C4.80792 17.937 4.94864 17.9756 5.09269 17.9831C5.23675 17.9907 5.38072 17.9669 5.51474 17.9136C5.64876 17.8602 5.76964 17.7785 5.86911 17.674C5.96857 17.5695 6.04425 17.4448 6.09096 17.3083C6.13767 17.1718 6.1543 17.0269 6.13971 16.8833C6.12512 16.7398 6.07965 16.6012 6.00643 16.4769C5.93321 16.3526 5.83397 16.2456 5.71552 16.1633C5.59706 16.081 5.4622 16.0253 5.32019 16C4.93042 15.8591 4.59405 15.6006 4.35758 15.2602C4.12111 14.9198 3.99622 14.5144 4.00019 14.1C4.00019 13.5696 4.2109 13.0608 4.58597 12.6858C4.96105 12.3107 5.46975 12.1 6.00019 12.1C6.2654 12.1 6.51976 11.9946 6.70729 11.8071C6.89483 11.6196 7.00019 11.3652 7.00019 11.1C7.00508 9.91812 7.42848 8.77619 8.19526 7.8768C8.96204 6.97742 10.0226 6.37873 11.1888 6.18696C12.3551 5.99518 13.5515 6.22273 14.5659 6.82921C15.5803 7.4357 16.3471 8.38192 16.7302 9.49999C16.7888 9.66996 16.8923 9.82098 17.0295 9.93713C17.1668 10.0533 17.3328 10.1303 17.5102 10.16C18.1763 10.2859 18.7801 10.6336 19.2232 11.1465C19.6664 11.6595 19.9228 12.3073 19.9506 12.9846C19.9784 13.6619 19.7761 14.3287 19.3765 14.8762C18.9769 15.4238 18.4037 15.8199 17.7502 16C17.485 16.0331 17.2438 16.1703 17.0797 16.3813C16.9156 16.5922 16.842 16.8598 16.8752 17.125C16.9083 17.3902 17.0455 17.6314 17.2565 17.7955C17.4674 17.9596 17.735 18.0331 18.0002 18H18.2502C19.3026 17.7219 20.2355 17.108 20.9072 16.2515C21.5789 15.3949 21.9528 14.3426 21.972 13.2543C21.9913 12.1659 21.6548 11.101 21.0138 10.2213C20.3727 9.34159 19.4621 8.69509 18.4202 8.37999V8.31999Z" fill="black"/>
</svg>
