<svg width="24" height="24" viewBox="0 0 24 24" fill="none" xmlns="http://www.w3.org/2000/svg">
<path d="M11.0702 6.12C11.3734 6.03823 11.6862 5.99786 12.0002 6C13.0611 6 14.0785 6.42143 14.8286 7.17158C15.5788 7.92172 16.0002 8.93914 16.0002 10V11.34C16.0002 11.6052 16.1055 11.8596 16.2931 12.0471C16.4806 12.2346 16.735 12.34 17.0002 12.34C17.2654 12.34 17.5198 12.2346 17.7073 12.0471C17.8948 11.8596 18.0002 11.6052 18.0002 11.34V10C17.9987 8.58313 17.4959 7.21247 16.5808 6.13078C15.6657 5.04908 14.3972 4.32615 13.0002 4.09V3C13.0002 2.73479 12.8948 2.48043 12.7073 2.2929C12.5198 2.10536 12.2654 2 12.0002 2C11.735 2 11.4806 2.10536 11.2931 2.2929C11.1055 2.48043 11.0002 2.73479 11.0002 3V4.1L10.5502 4.18C10.2929 4.24896 10.0736 4.41729 9.94044 4.64796C9.80729 4.87863 9.77123 5.15274 9.84019 5.41C9.90914 5.66726 10.0775 5.88659 10.3081 6.01974C10.5388 6.15289 10.8129 6.18896 11.0702 6.12ZM21.7102 20.29L3.71019 2.29C3.52188 2.1017 3.26649 1.99591 3.00019 1.99591C2.73388 1.99591 2.47849 2.1017 2.29019 2.29C2.10188 2.47831 1.99609 2.7337 1.99609 3C1.99609 3.2663 2.10188 3.5217 2.29019 3.71L6.41019 7.82C6.13921 8.51487 6.00017 9.25417 6.00019 10V13.18C5.41664 13.3863 4.91118 13.7681 4.55312 14.2729C4.19506 14.7778 4.00192 15.3811 4.00019 16V18C4.00019 18.2652 4.10554 18.5196 4.29308 18.7071C4.48062 18.8946 4.73497 19 5.00019 19H8.14019C8.37047 19.8474 8.87319 20.5954 9.57078 21.1287C10.2684 21.6621 11.1221 21.951 12.0002 21.951C12.8783 21.951 13.732 21.6621 14.4296 21.1287C15.1272 20.5954 15.6299 19.8474 15.8602 19H17.5902L20.2902 21.71C20.3831 21.8037 20.4937 21.8781 20.6156 21.9289C20.7375 21.9797 20.8682 22.0058 21.0002 22.0058C21.1322 22.0058 21.2629 21.9797 21.3848 21.9289C21.5066 21.8781 21.6172 21.8037 21.7102 21.71C21.8039 21.617 21.8783 21.5064 21.9291 21.3846C21.9798 21.2627 22.006 21.132 22.006 21C22.006 20.868 21.9798 20.7373 21.9291 20.6154C21.8783 20.4936 21.8039 20.383 21.7102 20.29ZM8.00019 10C7.98493 9.81699 7.98493 9.63302 8.00019 9.45L11.5902 13H8.00019V10ZM12.0002 20C11.6512 19.9979 11.3088 19.9045 11.007 19.7291C10.7053 19.5536 10.4547 19.3023 10.2802 19H13.7202C13.5457 19.3023 13.2951 19.5536 12.9934 19.7291C12.6916 19.9045 12.3492 19.9979 12.0002 20ZM6.00019 17V16C6.00019 15.7348 6.10554 15.4804 6.29308 15.2929C6.48062 15.1054 6.73497 15 7.00019 15H13.5902L15.5902 17H6.00019Z" fill="black"/>
</svg>
