<svg width="24" height="24" viewBox="0 0 24 24" fill="none" xmlns="http://www.w3.org/2000/svg">
<path d="M21.7102 2.28994C21.6172 2.19621 21.5066 2.12182 21.3848 2.07105C21.2629 2.02028 21.1322 1.99414 21.0002 1.99414C20.8682 1.99414 20.7375 2.02028 20.6156 2.07105C20.4937 2.12182 20.3831 2.19621 20.2902 2.28994L18.1702 4.40994L17.4602 3.70994C17.2728 3.52369 17.0194 3.41915 16.7552 3.41915C16.491 3.41915 16.2375 3.52369 16.0502 3.70994L14.6402 5.11994L13.9302 4.40994C13.8372 4.31621 13.7266 4.24182 13.6048 4.19105C13.4829 4.14028 13.3522 4.11414 13.2202 4.11414C13.0882 4.11414 12.9575 4.14028 12.8356 4.19105C12.7137 4.24182 12.6031 4.31621 12.5102 4.40994L4.74019 12.1899L4.00019 11.4899C3.80609 11.3543 3.57016 11.2919 3.33439 11.3139C3.09862 11.3359 2.87831 11.4409 2.71268 11.6101C2.54705 11.7794 2.44684 12.0019 2.42991 12.2381C2.41297 12.4743 2.4804 12.7088 2.62019 12.8999L6.15019 16.4399L4.42019 18.1799L3.71019 17.4599C3.52188 17.2716 3.26649 17.1658 3.00019 17.1658C2.73388 17.1658 2.47849 17.2716 2.29019 17.4599C2.10188 17.6482 1.99609 17.9036 1.99609 18.1699C1.99609 18.4362 2.10188 18.6916 2.29019 18.8799L5.12019 21.7099C5.21363 21.8026 5.32444 21.8759 5.44628 21.9257C5.56812 21.9755 5.69858 22.0007 5.83019 21.9999C5.96179 22.0007 6.09225 21.9755 6.21409 21.9257C6.33593 21.8759 6.44675 21.8026 6.54019 21.7099C6.63391 21.617 6.70831 21.5064 6.75908 21.3845C6.80985 21.2627 6.83598 21.132 6.83598 20.9999C6.83598 20.8679 6.80985 20.7372 6.75908 20.6154C6.70831 20.4935 6.63391 20.3829 6.54019 20.2899L5.83019 19.5899L7.57019 17.8499L11.1002 21.3799C11.1928 21.4744 11.3032 21.5496 11.4251 21.6011C11.547 21.6526 11.6779 21.6794 11.8102 21.6799C12.008 21.6791 12.201 21.6197 12.365 21.5091C12.529 21.3985 12.6565 21.2418 12.7315 21.0588C12.8064 20.8758 12.8253 20.6746 12.786 20.4808C12.7466 20.287 12.6506 20.1092 12.5102 19.9699L11.8102 19.2599L19.5902 11.4899C19.6839 11.397 19.7583 11.2864 19.8091 11.1645C19.8598 11.0427 19.886 10.912 19.886 10.7799C19.886 10.6479 19.8598 10.5172 19.8091 10.3954C19.7583 10.2735 19.6839 10.1629 19.5902 10.0699L18.8802 9.35994L20.2902 7.99994C20.4764 7.81258 20.581 7.55912 20.581 7.29494C20.581 7.03075 20.4764 6.7773 20.2902 6.58994L19.5902 5.87994L21.7102 3.75994C21.8117 3.6663 21.8927 3.55264 21.9481 3.42615C22.0035 3.29965 22.0321 3.16304 22.0321 3.02494C22.0321 2.88684 22.0035 2.75023 21.9481 2.62373C21.8927 2.49723 21.8117 2.38358 21.7102 2.28994ZM7.57019 14.9999L6.15019 13.6099L7.56019 12.1899L9.00019 13.6099L7.57019 14.9999ZM10.3902 17.8299L9.00019 16.4399L10.3902 14.9999L11.8102 16.4199L10.3902 17.8299ZM13.2202 14.9999L9.00019 10.7799L13.2402 6.53994L13.9502 7.23994L17.4802 10.7799L13.2202 14.9999ZM17.4602 7.99994L16.0502 6.53994L16.7602 5.82994L17.4602 6.52994L18.1602 7.22994L17.4602 7.99994Z" fill="black"/>
</svg>
