<svg width="24" height="24" viewBox="0 0 24 24" fill="none" xmlns="http://www.w3.org/2000/svg">
<path d="M14.9753 3.01885L15.9351 1.28726C15.9474 1.26505 15.9552 1.24062 15.9581 1.21539C15.961 1.19015 15.9589 1.16459 15.9519 1.14018C15.9449 1.11576 15.9331 1.09296 15.9173 1.07308C15.9015 1.0532 15.8819 1.03663 15.8597 1.02432C15.8148 0.999445 15.7619 0.993414 15.7126 1.00755C15.6633 1.02169 15.6216 1.05484 15.5968 1.0997L14.6263 2.85048C13.7983 2.48749 12.904 2.30008 11.9999 2.30008C11.0958 2.30008 10.2016 2.48749 9.37356 2.85048L8.40308 1.0997C8.37821 1.05484 8.33653 1.02169 8.28722 1.00755C8.23791 0.993414 8.185 0.999445 8.14013 1.02432C8.09527 1.04919 8.06212 1.09086 8.04798 1.14018C8.03385 1.18949 8.03988 1.2424 8.06475 1.28726L9.0246 3.01886C8.11093 3.46923 7.33894 4.16253 6.79331 5.02271C6.24768 5.8829 5.94949 6.87673 5.93144 7.89521H18.0684C18.0504 6.87673 17.7522 5.88289 17.2066 5.02271C16.6609 4.16252 15.8889 3.46922 14.9753 3.01885ZM9.19903 5.67445C9.09879 5.67445 9.00081 5.64473 8.91747 5.58904C8.83412 5.53335 8.76916 5.4542 8.73081 5.3616C8.69245 5.26899 8.68241 5.16709 8.70197 5.06878C8.72152 4.97047 8.76979 4.88017 8.84067 4.80929C8.91154 4.73841 9.00185 4.69015 9.10016 4.67059C9.19847 4.65103 9.30037 4.66107 9.39297 4.69943C9.48558 4.73779 9.56473 4.80275 9.62042 4.88609C9.6761 4.96943 9.70583 5.06742 9.70583 5.16765C9.70568 5.30202 9.65223 5.43084 9.55722 5.52585C9.46221 5.62086 9.33339 5.6743 9.19903 5.67445ZM14.8008 5.67445C14.7006 5.67445 14.6026 5.64473 14.5192 5.58904C14.4359 5.53335 14.3709 5.4542 14.3326 5.3616C14.2942 5.26899 14.2842 5.16709 14.3037 5.06878C14.3233 4.97047 14.3716 4.88017 14.4424 4.80929C14.5133 4.73841 14.6036 4.69015 14.7019 4.67059C14.8002 4.65103 14.9021 4.66107 14.9948 4.69943C15.0874 4.73779 15.1665 4.80275 15.2222 4.88609C15.2779 4.96943 15.3076 5.06742 15.3076 5.16765C15.3075 5.30202 15.254 5.43084 15.159 5.52585C15.064 5.62086 14.9352 5.6743 14.8008 5.67445ZM5.93135 17.1715C5.93135 17.5606 6.08592 17.9337 6.36106 18.2089C6.6362 18.484 7.00937 18.6386 7.39848 18.6386H8.37208V21.6395C8.37159 21.8185 8.40642 21.9958 8.47458 22.1613C8.54273 22.3268 8.64286 22.4772 8.76924 22.6039C8.89562 22.7306 9.04576 22.8312 9.21106 22.8998C9.37635 22.9684 9.55357 23.0037 9.73253 23.0037C9.9115 23.0037 10.0887 22.9684 10.254 22.8998C10.4193 22.8312 10.5694 22.7306 10.6958 22.6039C10.8222 22.4772 10.9223 22.3268 10.9905 22.1613C11.0586 21.9958 11.0935 21.8185 11.093 21.6395V18.6386H12.9068V21.6395C12.9064 21.8185 12.9412 21.9958 13.0093 22.1613C13.0775 22.3268 13.1776 22.4772 13.304 22.6039C13.4304 22.7306 13.5805 22.8312 13.7458 22.8998C13.9111 22.9684 14.0883 23.0037 14.2673 23.0037C14.4463 23.0037 14.6235 22.9684 14.7888 22.8998C14.9541 22.8312 15.1042 22.7306 15.2306 22.6039C15.357 22.4772 15.4571 22.3268 15.5253 22.1613C15.5934 21.9958 15.6282 21.8185 15.6278 21.6395V18.6386H16.6014C16.9905 18.6386 17.3637 18.484 17.6388 18.2089C17.914 17.9337 18.0685 17.5606 18.0685 17.1715V8.37531H5.93135V17.1715ZM4.06407 8.1419C3.70338 8.14231 3.35758 8.28578 3.10253 8.54083C2.84749 8.79587 2.70403 9.14167 2.70362 9.50236V15.1708C2.70313 15.3498 2.73796 15.5271 2.80612 15.6926C2.87427 15.8581 2.9744 16.0085 3.10078 16.1352C3.22716 16.2619 3.3773 16.3625 3.5426 16.4311C3.70789 16.4997 3.8851 16.535 4.06407 16.535C4.24304 16.535 4.42025 16.4997 4.58555 16.4311C4.75085 16.3625 4.90099 16.2619 5.02737 16.1352C5.15375 16.0085 5.25388 15.8581 5.32203 15.6926C5.39018 15.5271 5.42501 15.3498 5.42453 15.1708V9.50236C5.42412 9.14167 5.28066 8.79587 5.02561 8.54082C4.77056 8.28577 4.42476 8.14231 4.06407 8.1419ZM19.9358 8.1419C19.5751 8.14231 19.2293 8.28577 18.9742 8.54082C18.7192 8.79587 18.5757 9.14167 18.5753 9.50236V15.1708C18.5748 15.3498 18.6097 15.5271 18.6778 15.6926C18.746 15.8581 18.8461 16.0085 18.9725 16.1352C19.0988 16.2619 19.249 16.3625 19.4143 16.4311C19.5796 16.4997 19.7568 16.535 19.9358 16.535C20.1147 16.535 20.2919 16.4997 20.4572 16.4311C20.6225 16.3625 20.7727 16.2619 20.8991 16.1352C21.0254 16.0085 21.1256 15.8581 21.1937 15.6926C21.2619 15.5271 21.2967 15.3498 21.2962 15.1708V9.50236C21.2958 9.14167 21.1523 8.79587 20.8973 8.54083C20.6423 8.28578 20.2965 8.14231 19.9358 8.1419Z" fill="black"/>
</svg>
