<svg width="24" height="24" viewBox="0 0 24 24" fill="none" xmlns="http://www.w3.org/2000/svg">
<path d="M3.19482 2L4.79749 19.9943L11.9896 22L19.2015 19.9869L20.8055 2H3.19482ZM17.4762 6.12274L16.9424 12.1174L16.9444 12.1498L16.9418 12.2239V12.2232L16.5626 16.4146L16.5208 16.7869L12.0002 18.0372V18.0378L11.9965 18.041L7.48382 16.7831L7.17808 13.3179H9.39108L9.548 15.0802L12.0008 15.7446L12.0002 15.7457L14.4616 15.0714L14.7218 12.2021H9.57604L9.53188 11.717L9.43095 10.5806L9.37871 9.97038H14.9175L15.1191 7.73868H6.68247L6.63815 7.2542L6.53789 6.1172L6.48497 5.507H17.529L17.4762 6.12274Z" fill="black"/>
</svg>
