<svg width="24" height="24" viewBox="0 0 24 24" fill="none" xmlns="http://www.w3.org/2000/svg">
<path d="M21.6999 9.06997C21.5794 8.95164 21.4309 8.86574 21.2683 8.82027C21.1057 8.77481 20.9342 8.77127 20.7699 8.80997C20.5533 8.85999 20.3321 8.88681 20.1099 8.88997C19.3142 8.88997 18.5512 8.5739 17.9885 8.01129C17.4259 7.44868 17.1099 6.68562 17.1099 5.88997C17.113 5.66775 17.1398 5.44651 17.1899 5.22997C17.2286 5.06561 17.225 4.89413 17.1796 4.73151C17.1341 4.56889 17.0482 4.42043 16.9299 4.29997C16.8135 4.17459 16.6668 4.08116 16.504 4.02864C16.3412 3.97611 16.1676 3.96624 15.9999 3.99997C15.0046 4.21971 14.1019 4.74253 13.416 5.49647C12.7301 6.25041 12.2948 7.1984 12.1699 8.20997C11.6252 8.06487 11.0635 7.99423 10.4999 7.99997C9.05872 7.99915 7.66543 8.51707 6.57474 9.45903C5.48404 10.401 4.76883 11.7041 4.55986 13.13C3.74606 13.3582 3.04232 13.8732 2.57863 14.5798C2.11494 15.2865 1.92262 16.137 2.0372 16.9744C2.15178 17.8118 2.56551 18.5795 3.20198 19.1356C3.83845 19.6917 4.65466 19.9988 5.49986 20H14.6699C15.8183 20 16.9196 19.5438 17.7316 18.7317C18.5437 17.9197 18.9999 16.8184 18.9999 15.67C19.0038 14.9731 18.8354 14.2861 18.5099 13.67C19.3686 13.4301 20.1465 12.9624 20.7609 12.3162C21.3754 11.6701 21.8035 10.8697 21.9999 9.99997C22.0336 9.83224 22.0237 9.65866 21.9712 9.49583C21.9187 9.333 21.8253 9.18638 21.6999 9.06997ZM14.6999 18H5.49986C5.10204 18 4.72051 17.8419 4.4392 17.5606C4.1579 17.2793 3.99986 16.8978 3.99986 16.5C3.99986 16.1021 4.1579 15.7206 4.4392 15.4393C4.72051 15.158 5.10204 15 5.49986 15C5.76508 15 6.01943 14.8946 6.20697 14.7071C6.39451 14.5195 6.49986 14.2652 6.49986 14C6.50233 13.2811 6.69849 12.5761 7.06772 11.9593C7.43694 11.3425 7.96557 10.8365 8.59801 10.4947C9.23045 10.1529 9.94332 9.9879 10.6616 10.017C11.3799 10.046 12.0771 10.2682 12.6799 10.66C13.4098 11.1348 13.9619 11.8381 14.2499 12.66C14.307 12.8318 14.4098 12.9849 14.5472 13.1029C14.6845 13.2209 14.8514 13.2994 15.0299 13.33C15.3365 13.3536 15.6355 13.4374 15.9097 13.5766C16.184 13.7158 16.4281 13.9076 16.6282 14.1412C16.8283 14.3747 16.9805 14.6454 17.076 14.9377C17.1715 15.23 17.2085 15.5383 17.1849 15.845C17.1612 16.1516 17.0774 16.4506 16.9382 16.7248C16.7991 16.9991 16.6072 17.2432 16.3737 17.4433C16.1401 17.6435 15.8695 17.7956 15.5771 17.8911C15.2848 17.9866 14.9765 18.0236 14.6699 18H14.6999ZM17.1399 11.89C17.0001 11.9013 16.8596 11.9013 16.7199 11.89C16.4891 11.7663 16.2482 11.6626 15.9999 11.58C15.5879 10.6831 14.9631 9.90043 14.1799 9.29997C14.1799 9.17997 14.1799 9.04997 14.1799 8.92997C14.1798 8.49665 14.2737 8.06846 14.4549 7.67487C14.6362 7.28128 14.9006 6.93163 15.2299 6.64997C15.3847 7.71683 15.8802 8.70506 16.6425 9.46735C17.4048 10.2296 18.393 10.7251 19.4599 10.88C19.1668 11.2111 18.8042 11.4734 18.3979 11.648C17.9916 11.8226 17.5518 11.9052 17.1099 11.89H17.1399Z" fill="black"/>
</svg>
