<svg width="24" height="24" viewBox="0 0 24 24" fill="none" xmlns="http://www.w3.org/2000/svg">
<path d="M12.0002 2.00001C10.6996 1.95278 9.40289 2.16913 8.18805 2.63605C6.97321 3.10297 5.86538 3.8108 4.93119 4.71696C3.997 5.62313 3.25576 6.7089 2.75207 7.90895C2.24838 9.10901 1.99264 10.3986 2.00024 11.7C1.98348 13.0512 2.25486 14.3904 2.7963 15.6285C3.33773 16.8665 4.1368 17.975 5.14024 18.88C5.21991 18.951 5.28477 19.037 5.33111 19.1331C5.37744 19.2292 5.40434 19.3335 5.41024 19.44V21.22C5.41572 21.3512 5.45303 21.4791 5.51894 21.5927C5.58486 21.7063 5.6774 21.8022 5.7886 21.8721C5.8998 21.9419 6.02633 21.9837 6.15727 21.9938C6.28821 22.0039 6.41964 21.982 6.54024 21.93L8.54024 21.06C8.71102 20.9955 8.89946 20.9955 9.07024 21.06C10.0157 21.3152 10.991 21.443 11.9702 21.44C14.5481 21.444 17.022 20.4237 18.8477 18.6037C20.6734 16.7837 21.7013 14.3129 21.7052 11.735C21.7092 9.1571 20.689 6.6832 18.8689 4.85754C17.0489 3.03187 14.5781 2.00399 12.0002 2.00001ZM18.0002 9.46001L15.0702 14.12C14.9597 14.2955 14.8141 14.4461 14.6424 14.5624C14.4707 14.6787 14.2768 14.7582 14.0729 14.7957C13.869 14.8333 13.6595 14.8282 13.4577 14.7808C13.2559 14.7333 13.066 14.6445 12.9002 14.52L10.5602 12.77C10.4564 12.6921 10.3301 12.65 10.2002 12.65C10.0704 12.65 9.9441 12.6921 9.84024 12.77L6.68024 15.17C6.59224 15.2379 6.48303 15.2724 6.372 15.2674C6.26097 15.2623 6.15532 15.2181 6.07379 15.1426C5.99226 15.0671 5.94014 14.9651 5.92668 14.8548C5.91321 14.7445 5.93928 14.6329 6.00024 14.54L8.93024 9.88001C9.04075 9.70456 9.18643 9.55393 9.35808 9.43763C9.52974 9.32132 9.72364 9.24187 9.92755 9.20428C10.1315 9.16669 10.341 9.17179 10.5428 9.21925C10.7446 9.2667 10.9344 9.35549 11.1002 9.48001L13.4402 11.23C13.5441 11.3079 13.6704 11.35 13.8002 11.35C13.9301 11.35 14.0564 11.3079 14.1602 11.23L17.3202 8.83001C17.4082 8.76214 17.5175 8.72765 17.6285 8.73266C17.7395 8.73768 17.8452 8.78188 17.9267 8.85741C18.0082 8.93294 18.0603 9.03492 18.0738 9.14524C18.0873 9.25556 18.0612 9.36708 18.0002 9.46001Z" fill="black"/>
</svg>
