<svg width="24" height="24" viewBox="0 0 24 24" fill="none" xmlns="http://www.w3.org/2000/svg">
<path d="M18.4201 9.21003C17.8084 7.80584 16.7531 6.64103 15.4159 5.89419C14.0787 5.14735 12.5334 4.8597 11.017 5.07536C9.50063 5.29101 8.09684 5.99806 7.02085 7.08809C5.94487 8.17813 5.25609 9.59098 5.06013 11.11C4.10672 11.3384 3.27036 11.9089 2.70987 12.7132C2.14939 13.5176 1.90382 14.4998 2.0198 15.4732C2.13578 16.4467 2.60523 17.3437 3.339 17.9939C4.07277 18.6441 5.01976 19.0021 6.00013 19H17.0001C18.1995 18.9967 19.3577 18.5624 20.2635 17.7763C21.1693 16.9902 21.7624 15.9047 21.9346 14.7178C22.1067 13.5308 21.8465 12.3216 21.2014 11.3105C20.5562 10.2994 19.5691 9.55396 18.4201 9.21003ZM17.0001 17H6.00013C5.4697 17 4.96099 16.7893 4.58592 16.4142C4.21085 16.0392 4.00013 15.5305 4.00013 15C4.00013 14.4696 4.21085 13.9609 4.58592 13.5858C4.96099 13.2107 5.4697 13 6.00013 13C6.26535 13 6.5197 12.8947 6.70724 12.7071C6.89478 12.5196 7.00013 12.2652 7.00013 12C7.00269 10.8173 7.42442 9.67379 8.1904 8.77262C8.95639 7.87145 10.017 7.27098 11.1839 7.07791C12.3507 6.88483 13.5483 7.11164 14.5637 7.71804C15.5791 8.32444 16.3467 9.27117 16.7301 10.39C16.7888 10.56 16.8922 10.711 17.0295 10.8272C17.1667 10.9433 17.3328 11.0203 17.5101 11.05C18.2431 11.1853 18.8995 11.5886 19.3515 12.1813C19.8034 12.774 20.0185 13.5138 19.9548 14.2564C19.8911 14.9991 19.5533 15.6914 19.0071 16.1986C18.4609 16.7058 17.7455 16.9915 17.0001 17Z" fill="black"/>
</svg>
