<svg width="24" height="24" viewBox="0 0 24 24" fill="none" xmlns="http://www.w3.org/2000/svg">
<path d="M8.50984 12.4799C8.31206 12.4799 8.11872 12.5386 7.95427 12.6485C7.78982 12.7584 7.66165 12.9145 7.58597 13.0973C7.51028 13.28 7.49047 13.4811 7.52906 13.675C7.56764 13.869 7.66289 14.0472 7.80274 14.1871C7.94259 14.3269 8.12077 14.4221 8.31475 14.4607C8.50874 14.4993 8.7098 14.4795 8.89253 14.4038C9.07525 14.3281 9.23143 14.2 9.34131 14.0355C9.4512 13.8711 9.50984 13.6777 9.50984 13.4799C9.50984 13.2147 9.40449 12.9604 9.21695 12.7728C9.02942 12.5853 8.77506 12.4799 8.50984 12.4799ZM8.50984 7.99995C8.31206 7.99995 8.11872 8.0586 7.95427 8.16848C7.78982 8.27836 7.66165 8.43454 7.58597 8.61726C7.51028 8.79999 7.49047 9.00106 7.52906 9.19504C7.56764 9.38902 7.66289 9.5672 7.80274 9.70705C7.94259 9.84691 8.12077 9.94215 8.31475 9.98073C8.50874 10.0193 8.7098 9.99951 8.89253 9.92383C9.07525 9.84814 9.23143 9.71997 9.34131 9.55552C9.4512 9.39107 9.50984 9.19773 9.50984 8.99995C9.50984 8.73473 9.40449 8.48038 9.21695 8.29284C9.02942 8.1053 8.77506 7.99995 8.50984 7.99995ZM11.9998 9.99995C11.7346 9.99995 11.4803 10.1053 11.2927 10.2928C11.1052 10.4804 10.9998 10.7347 10.9998 10.9999V11.9999C10.9998 12.2652 11.1052 12.5195 11.2927 12.7071C11.4803 12.8946 11.7346 12.9999 11.9998 12.9999C12.2651 12.9999 12.5194 12.8946 12.707 12.7071C12.8945 12.5195 12.9998 12.2652 12.9998 11.9999V10.9999C12.9998 10.7347 12.8945 10.4804 12.707 10.2928C12.5194 10.1053 12.2651 9.99995 11.9998 9.99995ZM20.4998 8.56995C20.1549 8.37146 19.7739 8.2436 19.379 8.19381C18.9841 8.14402 18.5833 8.1733 18.1998 8.27995C17.8008 8.38684 17.4291 8.57777 17.1098 8.83995L5.50984 2.12995C5.35783 2.04218 5.18538 1.99597 5.00984 1.99597C4.83431 1.99597 4.66186 2.04218 4.50984 2.12995C4.35538 2.21677 4.22676 2.34308 4.13714 2.49595C4.04753 2.64882 4.00015 2.82275 3.99984 2.99995V16.1699C3.4097 16.369 2.89802 16.7503 2.53857 17.259C2.17912 17.7676 1.99048 18.3772 1.99984 18.9999C1.99957 19.7819 2.30463 20.5331 2.85005 21.0935C3.39548 21.6538 4.13814 21.9791 4.91984 21.9999H5.49984C8.77658 21.9922 11.9929 21.1176 14.8224 19.465C17.6518 17.8123 19.9935 15.4403 21.6098 12.5899C21.9831 11.9079 22.0771 11.1077 21.8719 10.3577C21.6667 9.60783 21.1784 8.96687 20.5098 8.56995H20.4998ZM5.99984 4.72995L15.8898 10.4399C14.7926 12.0772 13.3258 13.4334 11.6078 14.3993C9.88984 15.3651 7.96881 15.9134 5.99984 15.9999V4.72995ZM19.8698 11.6099C18.3853 14.2256 16.2172 16.3882 13.5978 17.8661C10.9784 19.3441 8.00632 20.0817 4.99984 19.9999C4.73463 19.9999 4.48027 19.8946 4.29274 19.7071C4.1052 19.5195 3.99984 19.2652 3.99984 18.9999C3.99906 18.866 4.02522 18.7332 4.07675 18.6095C4.12829 18.4858 4.20415 18.3737 4.29984 18.2799C4.48771 18.0989 4.73892 17.9984 4.99984 17.9999H5.50984C8.07756 17.9989 10.5989 17.316 12.8163 16.0211C15.0336 14.7263 16.8672 12.8658 18.1298 10.6299C18.1905 10.5203 18.2735 10.4245 18.3734 10.3487C18.4732 10.2729 18.5879 10.2188 18.7098 10.1899C18.962 10.1207 19.2312 10.153 19.4598 10.2799C19.6893 10.4033 19.8615 10.6112 19.94 10.8596C20.0184 11.108 19.9968 11.3772 19.8798 11.6099H19.8698Z" fill="black"/>
</svg>
